<svg xmlns="http://www.w3.org/2000/svg" viewBox="0 0 290.12 45.82"><defs><style>.cls-1{fill:#48474a;}.cls-2{fill:#ef7d18;}.cls-3{fill:#ffcb00;}.cls-4{fill:#f49d14;}</style></defs><title>Logo_IPLA_Simp_Col_Preto</title><g id="Layer_2" data-name="Layer 2"><g id="PACK_DE_LOGOS" data-name="PACK DE LOGOS"><g id="Logo_IPLA_Simp_Col_Preto"><rect class="cls-1" y="6.17" width="5.71" height="38.85"/><path class="cls-1" d="M20.1,10.8H14.27V26.17H19.8a12,12,0,0,0,6.81-1.8q2.7-1.8,2.88-5.86,0-4.4-2.52-6.05A12.38,12.38,0,0,0,20.1,10.8M8.56,45V6.17h11.6A20,20,0,0,1,31,9q4.43,2.8,4.43,9.32t-4.79,9.45a20.25,20.25,0,0,1-11.09,3H14.27V45Z"/><polygon class="cls-1" points="62.49 45.02 37.82 45.02 37.82 6.17 43.53 6.17 43.53 40.74 61.78 40.74 62.49 45.02"/><path class="cls-1" d="M81.52,13.54,75,30.23H88.18ZM84.2,6.17,99.78,44.22l-5.65.8L89.91,34.63H73.44L69.39,45H63.8L79,6.17Z"/><polygon class="cls-1" points="100.97 45.02 100.97 6.17 106.02 6.17 124.16 30.63 127.01 34.91 127.01 6.17 132.78 6.17 132.78 45.02 127.66 45.02 108.93 19.49 106.67 16.06 106.67 45.02 100.97 45.02"/><polygon class="cls-1" points="161.97 30.34 148.53 30.34 148.53 45.02 137.71 45.02 137.71 6.23 163.94 6.23 164.95 14.4 148.53 14.4 148.53 22.17 160.96 22.17 161.97 30.34"/><path class="cls-1" d="M174.28,25.71a15.66,15.66,0,0,0,2,8.17q2,3.25,6.54,3.26a7.64,7.64,0,0,0,6.43-2.94c1.5-2,2.26-4.91,2.26-8.83a15.1,15.1,0,0,0-2-8.08q-2-3.22-6.51-3.23a7.45,7.45,0,0,0-6.36,3.2,14,14,0,0,0-2.32,8.45m-11.12.06q0-9,5.29-14.68t14.39-5.72q9.87,0,14.81,5.83a21.2,21.2,0,0,1,4.94,14.17q0,9-5.24,14.74t-14.51,5.71q-9.69,0-14.68-5.85a21.16,21.16,0,0,1-5-14.2"/><path class="cls-1" d="M221,14.34h-5.83V24.63h5.95a5.88,5.88,0,0,0,4.1-1.46,4.83,4.83,0,0,0,1.61-3.74,4.66,4.66,0,0,0-1.55-3.83A6.6,6.6,0,0,0,221,14.34M204.37,45V6.17h17a21.51,21.51,0,0,1,11.68,3.12q5,3.11,5,10.14a11.81,11.81,0,0,1-1.51,6.11,12.36,12.36,0,0,1-4,4.17L241.47,45H228.93L222.39,32.8h-7.2V45Z"/><polygon class="cls-2" points="244.02 33.65 244.02 44.99 257.68 44.99 257.68 24.28 244.02 33.65"/><polygon class="cls-3" points="290.12 19.53 290.12 44.99 276.46 44.99 276.46 10.16 290.12 19.53"/><polygon class="cls-4" points="260.24 9.37 260.24 44.99 273.9 44.99 273.9 0 260.24 9.37"/></g></g></g></svg>