<?xml version="1.0" encoding="utf-8"?>
<!-- Generator: Adobe Illustrator 24.0.2, SVG Export Plug-In . SVG Version: 6.00 Build 0)  -->
<svg version="1.1" id="Camada_1" xmlns="http://www.w3.org/2000/svg" xmlns:xlink="http://www.w3.org/1999/xlink" x="0px" y="0px"
	 viewBox="0 0 290.1 73.7" style="enable-background:new 0 0 290.1 73.7;" xml:space="preserve">
<style type="text/css">
	.st0{fill:#F9F9F9;}
	.st1{fill:#EF7D18;}
	.st2{fill:#FFCB00;}
	.st3{fill:#F49D14;}
</style>
<title>Logo_IPLA_Full_Col_Branco</title>
<g id="Layer_2">
	<g id="PACK_DE_LOGOS">
		<g id="Logo_IPLA_Full_Col_Branco">
			<rect y="6.2" class="st0" width="5.7" height="38.8"/>
			<path class="st0" d="M20.1,10.8h-5.8v15.4h5.5c2.4,0.1,4.8-0.5,6.8-1.8c1.8-1.2,2.8-3.2,2.9-5.9c0-2.9-0.8-4.9-2.5-6.1
				C24.9,11.3,22.5,10.7,20.1,10.8 M8.6,45V6.2h11.6C24,6.1,27.7,7,31,9c3,1.9,4.4,5,4.4,9.3s-1.6,7.5-4.8,9.5
				c-3.3,2-7.2,3.1-11.1,3h-5.3V45H8.6z"/>
			<polygon class="st0" points="62.5,45 37.8,45 37.8,6.2 43.5,6.2 43.5,40.7 61.8,40.7 			"/>
			<path class="st0" d="M81.5,13.5L75,30.2h13.2L81.5,13.5z M84.2,6.2l15.6,38.1L94.1,45l-4.2-10.4H73.4L69.4,45h-5.6L79,6.2H84.2z"
				/>
			<polygon class="st0" points="101,45 101,6.2 106,6.2 124.2,30.6 127,34.9 127,6.2 132.8,6.2 132.8,45 127.7,45 108.9,19.5 
				106.7,16.1 106.7,45 			"/>
			<polygon class="st0" points="162,30.3 148.5,30.3 148.5,45 137.7,45 137.7,6.2 163.9,6.2 164.9,14.4 148.5,14.4 148.5,22.2 
				161,22.2 			"/>
			<path class="st0" d="M174.3,25.7c-0.1,2.9,0.6,5.7,2,8.2c1.3,2.2,3.5,3.3,6.5,3.3c2.5,0.1,4.9-1,6.4-2.9c1.5-2,2.3-4.9,2.3-8.8
				c0.1-2.8-0.6-5.6-2-8.1c-1.3-2.1-3.5-3.2-6.5-3.2c-2.5-0.1-4.9,1.1-6.4,3.2C175,19.8,174.2,22.7,174.3,25.7 M163.2,25.8
				c0-6,1.8-10.9,5.3-14.7c3.5-3.8,8.3-5.7,14.4-5.7c6.6,0,11.5,1.9,14.8,5.8c3.3,4,5.1,9,4.9,14.2c0,6-1.7,10.9-5.2,14.7
				c-3.5,3.8-8.3,5.7-14.5,5.7c-6.5,0-11.4-2-14.7-5.8C164.8,36,163.1,31,163.2,25.8"/>
			<path class="st0" d="M221,14.3h-5.8v10.3h5.9c1.5,0.1,3-0.5,4.1-1.5c1.1-0.9,1.7-2.3,1.6-3.7c0.1-1.4-0.5-2.9-1.6-3.8
				C224,14.7,222.5,14.3,221,14.3 M204.4,45V6.2h17c4.1-0.1,8.2,1,11.7,3.1c3.3,2.1,5,5.5,5,10.1c0.1,2.1-0.5,4.2-1.5,6.1
				c-1,1.7-2.4,3.1-4,4.2l8.9,15.3h-12.5l-6.5-12.2h-7.2V45H204.4z"/>
			<polygon class="st1" points="244,33.7 244,45 257.7,45 257.7,24.3 			"/>
			<polygon class="st2" points="290.1,19.5 290.1,45 276.5,45 276.5,10.2 			"/>
			<polygon class="st3" points="260.2,9.4 260.2,45 273.9,45 273.9,0 			"/>
			<path class="st0" d="M2.5,65v8.4h-2V65H2.5z"/>
			<path class="st0" d="M12.3,65v8.4h-1.9c-0.6-0.8-1.2-1.6-1.7-2.4s-1.2-1.7-1.7-2.5v4.9h-2V65h1.9l3.5,5v-5H12.3z"/>
			<path class="st0" d="M14.1,67.2c0-0.7,0.3-1.3,0.9-1.7c0.6-0.5,1.4-0.7,2.3-0.7c0.4,0,0.9,0.1,1.3,0.2c0.4,0.1,0.8,0.3,1.1,0.5
				L19,66.9c-0.4-0.1-0.7-0.3-1-0.3c-0.3-0.1-0.6-0.1-0.8-0.1c-0.3,0-0.5,0.1-0.7,0.2c-0.2,0.1-0.3,0.3-0.3,0.5
				c0,0.3,0.2,0.5,0.4,0.6c0.3,0.2,0.6,0.3,1,0.5c0.6,0.3,1.2,0.7,1.7,1.1c0.5,0.4,0.8,1,0.8,1.7c0,0.7-0.3,1.3-0.9,1.7
				c-0.7,0.5-1.6,0.7-2.4,0.7c-0.5,0-1-0.1-1.4-0.2c-0.4-0.1-0.9-0.3-1.2-0.5l0.6-1.6c0.3,0.2,0.6,0.3,0.9,0.4
				c0.3,0.1,0.7,0.2,1.1,0.2c0.3,0,0.6-0.1,0.9-0.2c0.2-0.1,0.3-0.3,0.3-0.5c0-0.2-0.1-0.4-0.4-0.6s-0.6-0.4-1-0.5
				c-0.6-0.3-1.1-0.7-1.6-1.1C14.4,68.5,14.1,67.9,14.1,67.2z"/>
			<path class="st0" d="M21.1,65h7.1l0.1,0.8l0.1,0.8h-2.8v6.8h-2v-6.8h-2.5V65z"/>
			<path class="st0" d="M31.9,65v8.4h-2V65H31.9z"/>
			<path class="st0" d="M33.4,65h7.1c0,0.3,0.1,0.5,0.1,0.8l0.1,0.8H38v6.8h-2v-6.8h-2.6V65z"/>
			<path class="st0" d="M44.1,65v5.2c0,0.5,0.1,1,0.5,1.3c0.3,0.3,0.7,0.5,1.2,0.4c0.4,0,0.9-0.1,1.2-0.4c0.3-0.4,0.5-0.8,0.5-1.3
				V65h2v5.3c0,0.9-0.3,1.8-1,2.4c-0.7,0.6-1.7,0.9-2.7,0.9c-1,0-1.9-0.3-2.7-0.9c-0.7-0.6-1.1-1.5-1-2.4V65H44.1z"/>
			<path class="st0" d="M50.8,65h7.1l0.1,0.8c0,0.3,0.1,0.5,0.1,0.8h-2.8v6.8h-2v-6.8h-2.5V65z"/>
			<path class="st0" d="M63.3,64.8c1.1-0.1,2.3,0.4,3,1.3c0.7,0.9,1,2,1,3.1c0,1.2-0.3,2.3-1.1,3.2c-0.8,0.8-1.9,1.3-3,1.2
				c-1.1,0.1-2.3-0.4-3-1.3c-0.7-0.9-1-2-1-3.1c0-1.2,0.4-2.3,1.1-3.2C61.1,65.2,62.2,64.7,63.3,64.8z M63.3,71.9
				c0.6,0,1.1-0.2,1.4-0.7c0.4-0.6,0.6-1.3,0.5-2.1c0-0.7-0.1-1.3-0.4-1.9c-0.3-0.5-0.9-0.8-1.5-0.8c-0.6,0-1.1,0.3-1.4,0.8
				c-0.4,0.6-0.6,1.3-0.5,2c0,0.7,0.1,1.3,0.5,1.9C62.1,71.7,62.7,71.9,63.3,71.9L63.3,71.9z"/>
			<path class="st0" d="M75.9,73.4h-3.5V65h3.5c1.1-0.1,2.2,0.3,3,1.2c0.7,0.8,1,1.9,1,3c0.1,1.1-0.3,2.3-1.1,3.1
				C78.1,73.1,77,73.5,75.9,73.4z M75.9,66.6h-1.4v5.2h1.3c0.5,0,1.1-0.2,1.4-0.6c0.4-0.6,0.6-1.3,0.6-2c0-0.6-0.1-1.3-0.5-1.8
				C77,66.8,76.5,66.6,75.9,66.6L75.9,66.6z"/>
			<path class="st0" d="M87.9,73.4h-6.1V65h5.4l0.2,1.6h-3.6v1.8h2.5l0.2,1.6h-2.7v1.8h3.8l0.1,0.8L87.9,73.4z"/>
			<path class="st0" d="M92.7,73.4V65H96c0.9,0,1.7,0.2,2.4,0.7c0.7,0.5,1.1,1.4,1,2.2c0.1,0.9-0.4,1.7-1.1,2.2
				c-0.7,0.5-1.6,0.7-2.4,0.7h-1.1v2.6L92.7,73.4z M95.9,66.6h-1.2v2.6h1.2c0.4,0,0.7-0.1,1-0.3c0.3-0.2,0.4-0.6,0.4-0.9
				c0-0.4-0.1-0.7-0.4-1C96.7,66.7,96.3,66.6,95.9,66.6z"/>
			<path class="st0" d="M107.1,73.4h-5.9V65h2v6.8h3.6L107.1,73.4z"/>
			<path class="st0" d="M112.9,65l3.2,8.2l-2,0.2l-0.7-1.8h-3l-0.6,1.8h-2L111,65H112.9z M111.9,67.5L111,70h1.8L111.9,67.5z"/>
			<path class="st0" d="M125,65v8.4h-1.9c-0.6-0.8-1.2-1.6-1.7-2.4s-1.2-1.7-1.7-2.5v4.9h-2V65h1.9l3.4,5v-5H125z"/>
			<path class="st0" d="M133.4,73.4h-6.1V65h5.4l0.2,1.6h-3.6v1.8h2.5l0.2,1.6h-2.7v1.8h3.8c0,0.3,0.1,0.5,0.1,0.8L133.4,73.4z"/>
			<path class="st0" d="M137.2,65v6.5c0,0.5-0.1,1-0.5,1.4c-0.5,0.4-1.1,0.7-1.7,0.9l-0.4-0.8l-0.4-0.8c0.3-0.1,0.6-0.3,0.8-0.5
				c0.1-0.2,0.2-0.4,0.2-0.7v-6H137.2z"/>
			<path class="st0" d="M143.8,65l3.2,8.2l-2,0.2l-0.7-1.8h-3l-0.6,1.8h-2l3.2-8.4L143.8,65z M142.8,67.5l-0.9,2.5h1.9L142.8,67.5z"
				/>
			<path class="st0" d="M152.1,71l-1.6-2v4.4h-2V65h1.4l2.6,3.4c0.4-0.6,0.8-1.2,1.2-1.7s0.8-1.2,1.2-1.7h1.3v8.4h-2.1v-4.4
				l-0.6,0.9c-0.2,0.3-0.4,0.6-0.6,0.9c-0.1,0-0.3,0-0.4,0.1L152.1,71z"/>
			<path class="st0" d="M164.6,73.4h-6.1V65h5.4l0.2,1.6h-3.6v1.8h2.5l0.2,1.6h-2.7v1.8h3.8l0.1,0.8
				C164.5,72.9,164.6,73.2,164.6,73.4z"/>
			<path class="st0" d="M173.7,65v8.4h-1.9c-0.6-0.8-1.2-1.6-1.8-2.4s-1.2-1.7-1.7-2.5v4.9h-2V65h1.9l3.5,5v-5H173.7z"/>
			<path class="st0" d="M175.2,65h7.1l0.1,0.8l0.1,0.8h-2.8v6.8h-2v-6.8h-2.5L175.2,65z"/>
			<path class="st0" d="M187.6,64.8c1.1-0.1,2.3,0.4,3,1.3c0.7,0.9,1,2,1,3.1c0,1.2-0.3,2.3-1.1,3.2c-0.8,0.8-1.9,1.3-3,1.2
				c-1.1,0.1-2.3-0.4-3-1.3c-0.7-0.9-1-2-1-3.1c-0.1-1.2,0.3-2.3,1.1-3.2C185.4,65.2,186.5,64.7,187.6,64.8z M187.6,71.9
				c0.6,0,1.1-0.2,1.4-0.7c0.4-0.6,0.6-1.3,0.5-2.1c0-0.7-0.1-1.3-0.4-1.9c-0.3-0.5-0.9-0.8-1.5-0.8c-0.6,0-1.1,0.3-1.4,0.8
				c-0.4,0.6-0.6,1.3-0.5,2c0,0.7,0.1,1.3,0.4,1.9C186.5,71.7,187,71.9,187.6,71.9L187.6,71.9z"/>
			<path class="st0" d="M200.3,73.4h-3.5V65h3.5c1.1-0.1,2.2,0.3,3,1.2c0.7,0.8,1,1.9,1,3c0.1,1.1-0.3,2.3-1.1,3.1
				C202.4,73.1,201.4,73.5,200.3,73.4z M200.3,66.6h-1.4v5.2h1.3c0.5,0,1.1-0.2,1.4-0.6c0.4-0.6,0.6-1.3,0.6-2
				c0-0.6-0.1-1.3-0.5-1.8C201.4,66.8,200.8,66.6,200.3,66.6L200.3,66.6z"/>
			<path class="st0" d="M212.2,73.4h-6.1V65h5.4l0.2,1.6h-3.6v1.8h2.5l0.2,1.6h-2.7v1.8h3.8c0,0.3,0.1,0.5,0.1,0.8L212.2,73.4z"/>
			<path class="st0" d="M221.8,70.1h-2.7v3.3h-2V65h5.2c0,0.3,0.1,0.5,0.1,0.8s0.1,0.6,0.1,0.8h-3.4v1.9h2.4L221.8,70.1z"/>
			<path class="st0" d="M227.7,64.8c1.1-0.1,2.3,0.4,3,1.3c0.7,0.9,1,2,1,3.1c0,1.2-0.3,2.3-1.1,3.2c-0.8,0.8-1.9,1.3-3,1.2
				c-1.1,0.1-2.3-0.4-3-1.3c-0.7-0.9-1-2-1-3.1c0-1.2,0.3-2.3,1.1-3.2C225.5,65.2,226.6,64.7,227.7,64.8z M227.7,71.9
				c0.6,0,1.1-0.2,1.4-0.7c0.4-0.6,0.6-1.3,0.5-2.1c0-0.7-0.1-1.3-0.4-1.9c-0.3-0.5-0.9-0.8-1.5-0.8c-0.6,0-1.1,0.3-1.4,0.8
				c-0.4,0.6-0.6,1.3-0.5,2c0,0.7,0.1,1.3,0.4,1.9C226.6,71.7,227.1,71.9,227.7,71.9L227.7,71.9z"/>
			<path class="st0" d="M238.7,73.4c-0.3-0.5-0.5-0.9-0.8-1.4l-0.8-1.4H237h-1.3v2.8h-2V65h3.2c0.9,0,1.7,0.2,2.4,0.7
				c0.7,0.5,1.1,1.3,1,2.1c0,0.5-0.1,0.9-0.4,1.3c-0.2,0.4-0.5,0.7-0.9,0.9l1,1.7l1,1.7L238.7,73.4z M236.9,66.6h-1.1V69h1.2
				c0.4,0,0.7-0.1,1-0.3c0.5-0.5,0.5-1.2,0-1.7c0,0,0,0,0,0C237.6,66.7,237.2,66.6,236.9,66.6L236.9,66.6z"/>
			<path class="st0" d="M241.7,65h7.1l0.1,0.8c0,0.3,0.1,0.5,0.1,0.8h-2.8v6.8h-2v-6.8h-2.5L241.7,65z"/>
			<path class="st0" d="M254.9,65l3.2,8.2l-2,0.2l-0.7-1.8h-3l-0.6,1.8h-2l3.2-8.4H254.9z M253.9,67.5L253,70h1.9L253.9,67.5z"/>
			<path class="st0" d="M265.4,73.4h-5.9V65h2v6.8h3.6L265.4,73.4z"/>
			<path class="st0" d="M273,73.4h-6.1V65h5.4l0.2,1.6H269v1.8h2.5l0.2,1.6H269v1.8h3.8c0,0.3,0.1,0.5,0.1,0.8L273,73.4z"/>
			<path class="st0" d="M280.8,66.5c-0.7,0.8-1.4,1.7-2.1,2.5s-1.5,1.8-2.4,2.8h4.3l0.1,0.8c0,0.3,0.1,0.5,0.1,0.8h-6.7l-0.2-1.4
				l4.4-5.4h-3.8c0-0.3-0.1-0.5-0.1-0.8s-0.1-0.5-0.1-0.8h6.3L280.8,66.5z"/>
			<path class="st0" d="M286.8,65l3.2,8.2l-2,0.2l-0.7-1.8h-3l-0.6,1.8h-2l3.2-8.4L286.8,65z M285.8,67.5l-0.9,2.5h1.9L285.8,67.5z"
				/>
		</g>
	</g>
</g>
</svg>
