<?xml version="1.0" encoding="utf-8"?>
<!-- Generator: Adobe Illustrator 24.0.2, SVG Export Plug-In . SVG Version: 6.00 Build 0)  -->
<svg version="1.1" id="Camada_1" xmlns="http://www.w3.org/2000/svg" xmlns:xlink="http://www.w3.org/1999/xlink" x="0px" y="0px"
	 viewBox="0 0 290.1 45.8" style="enable-background:new 0 0 290.1 45.8;" xml:space="preserve">
<style type="text/css">
	.st0{fill:#F9F9F9;}
	.st1{fill:#EF7D18;}
	.st2{fill:#FFCB00;}
	.st3{fill:#F49D14;}
</style>
<title>Logo_IPLA_Simp_Col_Branco</title>
<g id="Layer_2">
	<g id="PACK_DE_LOGOS">
		<g id="Logo_IPLA_Simp_Col_Branco">
			<rect y="6.2" class="st0" width="5.7" height="38.8"/>
			<path class="st0" d="M20.1,10.8h-5.8v15.4h5.5c2.4,0.1,4.8-0.5,6.8-1.8c1.8-1.2,2.8-3.2,2.9-5.9c0-2.9-0.8-4.9-2.5-6.1
				C24.9,11.3,22.5,10.7,20.1,10.8 M8.6,45V6.2h11.6C24,6.1,27.7,7,31,9c3,1.9,4.4,5,4.4,9.3s-1.6,7.5-4.8,9.5
				c-3.3,2-7.2,3.1-11.1,3h-5.3V45H8.6z"/>
			<polygon class="st0" points="62.5,45 37.8,45 37.8,6.2 43.5,6.2 43.5,40.7 61.8,40.7 			"/>
			<path class="st0" d="M81.5,13.5L75,30.2h13.2L81.5,13.5z M84.2,6.2l15.6,38.1L94.1,45l-4.2-10.4H73.4L69.4,45h-5.6L79,6.2H84.2z"
				/>
			<polygon class="st0" points="101,45 101,6.2 106,6.2 124.2,30.6 127,34.9 127,6.2 132.8,6.2 132.8,45 127.7,45 108.9,19.5 
				106.7,16.1 106.7,45 			"/>
			<polygon class="st0" points="162,30.3 148.5,30.3 148.5,45 137.7,45 137.7,6.2 163.9,6.2 164.9,14.4 148.5,14.4 148.5,22.2 
				161,22.2 			"/>
			<path class="st0" d="M174.3,25.7c-0.1,2.9,0.6,5.7,2,8.2c1.3,2.2,3.5,3.3,6.5,3.3c2.5,0.1,4.9-1,6.4-2.9c1.5-2,2.3-4.9,2.3-8.8
				c0.1-2.8-0.6-5.6-2-8.1c-1.3-2.1-3.5-3.2-6.5-3.2c-2.5-0.1-4.9,1.1-6.4,3.2C175,19.8,174.2,22.7,174.3,25.7 M163.2,25.8
				c0-6,1.8-10.9,5.3-14.7c3.5-3.8,8.3-5.7,14.4-5.7c6.6,0,11.5,1.9,14.8,5.8c3.3,4,5.1,9,4.9,14.2c0,6-1.7,10.9-5.2,14.7
				c-3.5,3.8-8.3,5.7-14.5,5.7c-6.5,0-11.4-2-14.7-5.8C164.8,36,163.1,31,163.2,25.8"/>
			<path class="st0" d="M221,14.3h-5.8v10.3h5.9c1.5,0.1,3-0.5,4.1-1.5c1.1-0.9,1.7-2.3,1.6-3.7c0.1-1.4-0.5-2.9-1.6-3.8
				C224,14.7,222.5,14.3,221,14.3 M204.4,45V6.2h17c4.1-0.1,8.2,1,11.7,3.1c3.3,2.1,5,5.5,5,10.1c0.1,2.1-0.5,4.2-1.5,6.1
				c-1,1.7-2.4,3.1-4,4.2l8.9,15.3h-12.5l-6.5-12.2h-7.2V45H204.4z"/>
			<polygon class="st1" points="244,33.7 244,45 257.7,45 257.7,24.3 			"/>
			<polygon class="st2" points="290.1,19.5 290.1,45 276.5,45 276.5,10.2 			"/>
			<polygon class="st3" points="260.2,9.4 260.2,45 273.9,45 273.9,0 			"/>
		</g>
	</g>
</g>
</svg>
