<?xml version="1.0" encoding="utf-8"?>
<!-- Generator: Adobe Illustrator 24.0.2, SVG Export Plug-In . SVG Version: 6.00 Build 0)  -->
<svg version="1.1" id="Layer_1" xmlns="http://www.w3.org/2000/svg" xmlns:xlink="http://www.w3.org/1999/xlink" x="0px" y="0px"
	 viewBox="0 0 128 128" style="enable-background:new 0 0 128 128;" xml:space="preserve">
<style type="text/css">
	.st0{fill:none;}
	.st1{fill:#98C11D;}
	.st2{fill:#F5A000;}
	.st3{fill:#60A4DA;}
	.st4{fill:#4573B7;}
	.st5{fill:#FFED00;}
	.st6{fill:#48AA34;}
</style>
<g>
	<path class="st0" d="M64,64v25.5l0,1c0,14.6-11.9,26.6-26.5,26.6S11,105.2,11,90.5c0-1.6,0.1-3.2,0.4-4.7
		C21.7,93,36.1,92,45.3,82.8L64,64L64,64L64,64z"/>
	<g>
		<g>
			<path class="st1" d="M45.3,82.7l15.4-15.4l-23.1,0h-0.1c-12.8,0-23.1,10.4-23.1,23.1c0,12.8,10.4,23.1,23.1,23.1
				c1,0,1.9-0.1,2.9-0.2C35.3,103.5,36.9,91.1,45.3,82.7z"/>
		</g>
	</g>
	<g>
		<g>
			<path class="st1" d="M64,90.5V68.8L47.7,85.1l0,0c-9,9-9,23.7,0,32.7s23.7,9,32.7,0c0.7-0.7,1.3-1.4,1.9-2.2
				C71.7,112.2,64,102.3,64,90.5z"/>
		</g>
	</g>
	<g>
		<g>
			<path class="st1" d="M82.7,82.7L67.4,67.4v23.1c0,12.8,10.4,23.1,23.1,23.1c12.8,0,23.1-10.4,23.1-23.1c0-1-0.1-1.9-0.2-2.9
				C103.5,92.7,91.1,91.1,82.7,82.7z"/>
		</g>
	</g>
	<g>
		<g>
			<path class="st1" d="M117.9,47.6c-0.7-0.7-1.4-1.3-2.2-1.9C112.2,56.3,102.3,64,90.5,64l-21.7,0l16.3,16.3l0,0c9,9,23.7,9,32.7,0
				S126.9,56.7,117.9,47.6z"/>
		</g>
	</g>
	<g>
		<g>
			<path class="st2" d="M90.5,14.3c-1,0-1.9,0.1-2.9,0.2c5.1,10,3.4,22.4-4.9,30.8L67.4,60.6h23.1c12.8,0,23.1-10.4,23.1-23.1
				C113.6,24.7,103.3,14.3,90.5,14.3z"/>
		</g>
	</g>
	<g>
		<g>
			<path class="st3" d="M80.4,10.1c-9-9-23.7-9-32.7,0c-0.7,0.7-1.3,1.4-1.9,2.2C56.3,15.8,64,25.7,64,37.5l0,21.7l16.3-16.3l0,0
				C89.4,33.8,89.4,19.2,80.4,10.1z"/>
		</g>
	</g>
	<path class="st3" d="M45.3,45.3l0.7,0.7l14.7,14.7h0l0-23.1v-0.1c0-12.8-10.4-23.1-23.1-23.1c-12.8,0-23.1,10.4-23.1,23.1
		c0,1,0.1,1.9,0.2,2.9C24.5,35.3,37,37,45.3,45.3z"/>
	<path class="st0" d="M64,64L0,64c0-6.8,2.6-13.6,7.8-18.8c10.4-10.4,27.1-10.4,37.5,0L64,64L64,64z"/>
	<path class="st0" d="M64,64v25.5l0,1c0,14.6-11.9,26.6-26.5,26.6S11,105.2,11,90.5S22.9,64,37.5,64L64,64L64,64z"/>
	<path class="st3" d="M12.4,82.1c0.2-0.5,0.4-1.1,0.6-1.6c0-0.1,0.1-0.1,0.1-0.2c0.2-0.6,0.5-1.1,0.8-1.6c0.1-0.1,0.1-0.2,0.2-0.4
		c0.3-0.5,0.6-1.1,0.9-1.6c0-0.1,0.1-0.1,0.1-0.2c0.3-0.5,0.6-0.9,0.9-1.4c0.1-0.1,0.1-0.2,0.2-0.3c0.4-0.5,0.7-0.9,1.1-1.4
		c0.1-0.1,0.2-0.2,0.2-0.3c0.4-0.4,0.8-0.9,1.2-1.3c0,0,0.1-0.1,0.1-0.1c0.4-0.4,0.9-0.8,1.3-1.2c0.1-0.1,0.2-0.2,0.3-0.3
		c0.5-0.4,0.9-0.8,1.4-1.1c0.1,0,0.1-0.1,0.2-0.1c0.4-0.3,0.9-0.6,1.4-0.9c0.1-0.1,0.2-0.1,0.3-0.2c0.5-0.3,1-0.6,1.6-0.9
		c0.1-0.1,0.2-0.1,0.3-0.2c0.5-0.3,1.1-0.5,1.6-0.8c0,0,0.1,0,0.1,0c0.6-0.2,1.1-0.5,1.7-0.7c0.1,0,0.3-0.1,0.4-0.1
		c0.6-0.2,1.2-0.4,1.8-0.5c0.1,0,0.2,0,0.3-0.1c0.6-0.1,1.1-0.2,1.7-0.3c0.1,0,0.2,0,0.3-0.1c0.6-0.1,1.2-0.2,1.9-0.2
		c0.1,0,0.3,0,0.4,0c0.6,0,1.3-0.1,2-0.1l21.7,0L42.9,47.6c-9-9-23.7-9-32.7,0c-9,9-9,23.7,0,32.7c0.7,0.7,1.4,1.3,2.1,1.9
		C12.3,82.2,12.4,82.1,12.4,82.1z"/>
	<path class="st4" d="M42.9,47.6l12.9,12.9H38.5l-1,0c-10.6,0-19.5-7.1-22.3-16.8C24,38.8,35.4,40.1,42.9,47.6L42.9,47.6L42.9,47.6z
		"/>
	<path class="st4" d="M60.6,37.5v18.3L48.3,43.5l-0.7-0.7c-7.5-7.5-8.8-18.8-3.8-27.7C53.5,17.9,60.6,26.8,60.6,37.5L60.6,37.5
		L60.6,37.5z"/>
	<path class="st4" d="M80.4,42.9L67.5,55.8V38.4l0-1c0-10.6,7.1-19.5,16.8-22.3C89.2,24,88,35.3,80.4,42.9L80.4,42.9L80.4,42.9z"/>
	<path class="st5" d="M90.5,60.6H72.2l12.3-12.3l0.7-0.7c7.5-7.5,18.8-8.8,27.7-3.8C110.1,53.4,101.1,60.6,90.5,60.6L90.5,60.6
		L90.5,60.6z"/>
	<path class="st6" d="M85.1,80.3L72.1,67.3h17.4l1,0c10.6,0,19.5,7.1,22.3,16.8C104,89.1,92.6,87.8,85.1,80.3L85.1,80.3L85.1,80.3z"
		/>
	<path class="st6" d="M67.4,90.4V72.1l12.3,12.3l0.7,0.7c7.5,7.5,8.8,18.8,3.8,27.7C74.6,110,67.4,101,67.4,90.4L67.4,90.4
		L67.4,90.4z"/>
	<path class="st6" d="M47.7,85.1l12.9-12.9v17.4l0,1c0,10.6-7.1,19.5-16.8,22.3C38.9,104,40.2,92.7,47.7,85.1L47.7,85.1L47.7,85.1z"
		/>
	<path class="st6" d="M37.6,67.4h18.3L43.6,79.7l-0.7,0.7c-7.5,7.5-18.8,8.8-27.7,3.8C18,74.5,26.9,67.4,37.6,67.4L37.6,67.4
		L37.6,67.4z"/>
</g>
</svg>
