<?xml version="1.0" encoding="utf-8"?>
<!-- Generator: Adobe Illustrator 19.0.0, SVG Export Plug-In . SVG Version: 6.00 Build 0)  -->
<svg version="1.1" id="Camada_2" xmlns="http://www.w3.org/2000/svg" xmlns:xlink="http://www.w3.org/1999/xlink" x="0px" y="0px"
	 viewBox="0 0 128 128" style="enable-background:new 0 0 128 128;" xml:space="preserve">
<style type="text/css">
	.st0{fill:#A4C639;}
</style>
<g id="XMLID_50_">
	<path id="XMLID_61_" class="st0" d="M110,41.6c-4.4,0-8,3.6-8,7.9v33c0,4.4,3.6,7.9,8,7.9s8-3.6,8-7.9v-33
		C118,45.1,114.4,41.6,110,41.6z"/>
	<path id="XMLID_69_" class="st0" d="M18,41.6c-4.4,0-8,3.6-8,7.9v33c0,4.4,3.6,7.9,8,7.9s8-3.6,8-7.9v-33
		C26,45.1,22.4,41.6,18,41.6z"/>
	<path id="XMLID_11_" class="st0" d="M98.2,32.4c-2.2-7.8-7.4-14.7-14.5-19.1c-0.8-0.5-1.6-1.1-2.4-1.5l5.6-10.1
		c0.3-0.5,0.1-1.3-0.4-1.6C86.3,0.1,86.1,0,85.9,0c-0.4,0-0.8,0.2-1,0.6l-5.6,10.2c-0.9-0.4-1.7-0.7-2.6-1C72.7,8.3,68.5,7.6,64,7.6
		c-4.5,0-8.7,0.8-12.7,2.2c-0.9,0.3-1.8,0.7-2.6,1L43.1,0.6c-0.3-0.5-1-0.7-1.5-0.4c-0.5,0.3-0.7,1-0.4,1.5l5.6,10.1
		c-0.8,0.4-1.6,0.9-2.4,1.4c-7,4.4-12.3,11.5-14.5,19.3C29.1,35,28.7,38,28.7,41h0h70.6h0C99.3,38,98.9,35,98.2,32.4z M80.3,21.3
		c1.6,0,2.9,1.3,2.9,2.9c0,1.6-1.3,2.9-2.9,2.9s-2.9-1.3-2.9-2.9C77.3,22.6,78.7,21.3,80.3,21.3z M47.7,21.3c1.6,0,2.9,1.3,2.9,2.9
		c0,1.6-1.3,2.9-2.9,2.9s-2.9-1.3-2.9-2.9C44.8,22.6,46.1,21.3,47.7,21.3z"/>
	<path id="XMLID_3_" class="st0" d="M29,43v51.1c0,4.7,3.5,8.9,8.2,8.9h2.9h2.8H43v17.1c0,4.4,3.6,7.9,8,7.9s8-3.6,8-7.9V103h-0.3
		h2.8h5h2.8H69v17.1c0,4.4,3.6,7.9,8,7.9c4.4,0,8-3.6,8-7.9V103h0.1h2.8h2.9c4.7,0,8.2-4.2,8.2-8.9V43H29z"/>
</g>
<g id="XMLID_1_">
</g>
<g id="XMLID_4_">
</g>
<g id="XMLID_5_">
</g>
<g id="XMLID_7_">
</g>
<g id="XMLID_8_">
</g>
<g id="XMLID_9_">
</g>
<g id="XMLID_10_">
</g>
<g id="XMLID_13_">
</g>
<g id="XMLID_14_">
</g>
<g id="XMLID_15_">
</g>
<g id="XMLID_16_">
</g>
<g id="XMLID_17_">
</g>
<g id="XMLID_18_">
</g>
<g id="XMLID_19_">
</g>
<g id="XMLID_20_">
</g>
</svg>
