<?xml version="1.0" encoding="utf-8"?>
<!-- Generator: Adobe Illustrator 19.0.0, SVG Export Plug-In . SVG Version: 6.00 Build 0)  -->
<svg version="1.1" id="Camada_2" xmlns="http://www.w3.org/2000/svg" xmlns:xlink="http://www.w3.org/1999/xlink" x="0px" y="0px"
	 viewBox="0 0 128 128" style="enable-background:new 0 0 128 128;" xml:space="preserve">
<style type="text/css">
	.st0{fill:#2659A5;}
	.st1{fill:#439BD6;}
	.st2{fill:#1D1D1B;}
	.st3{fill:#FFFFFF;}
	.st4{fill:url(#XMLID_30_);}
	.st5{fill:url(#XMLID_31_);}
	.st6{fill:url(#XMLID_32_);}
	.st7{opacity:5.000000e-002;}
	.st8{fill:url(#XMLID_33_);}
	.st9{opacity:5.000000e-002;fill:#1D1D1B;}
</style>
<g>
	<g>
		<g>
			<polygon id="XMLID_13_" class="st0" points="101.1,118 64,128 26.9,118 18.3,25.2 109.7,25.2 			"/>
			<polygon id="XMLID_12_" class="st1" points="64,32.7 64,120 64.1,120.1 94.1,112 101.1,32.7 			"/>
			<g>
				<polygon id="XMLID_11_" class="st2" points="42.9,11.6 42.9,6 51,6 51,0 36.9,0 36.9,17.1 51,17.1 51,11.6 				"/>
				<path id="XMLID_10_" class="st2" d="M65.5,6h5.6V0H57c0,0,0,3,0,6c1.9,1.9,2.9,2.8,5.6,5.5c-1.6,0-5.6,0-5.6,0v5.5h14.1v-5.5
					L65.5,6z"/>
				<path id="XMLID_9_" class="st2" d="M85.5,6h5.6V0H77c0,0,0,3,0,6c1.9,1.9,2.9,2.8,5.6,5.5c-1.6,0-5.6,0-5.6,0v5.5h14.1v-5.5
					L85.5,6z"/>
			</g>
			<g>
				<polygon id="XMLID_8_" class="st3" points="64,55.9 37.4,67 38.3,77.9 64,67 91.3,55.3 92.4,44.1 				"/>
				<linearGradient id="XMLID_30_" gradientUnits="userSpaceOnUse" x1="50.6818" y1="77.944" x2="50.6818" y2="55.9234">
					<stop  offset="0.3865" style="stop-color:#D9D9D9;stop-opacity:0"/>
					<stop  offset="1" style="stop-color:#D9D9D9"/>
				</linearGradient>
				<polygon id="XMLID_7_" class="st4" points="37.4,67 38.3,77.9 64,67 64,55.9 				"/>
				<linearGradient id="XMLID_31_" gradientUnits="userSpaceOnUse" x1="78.1953" y1="66.9609" x2="78.1953" y2="44.0717">
					<stop  offset="0.3865" style="stop-color:#D9D9D9;stop-opacity:0"/>
					<stop  offset="1" style="stop-color:#D9D9D9"/>
				</linearGradient>
				<polygon id="XMLID_6_" class="st5" points="92.4,44.1 64,55.9 64,67 91.3,55.3 				"/>
				<linearGradient id="XMLID_32_" gradientUnits="userSpaceOnUse" x1="37.4381" y1="87.7657" x2="90.326" y2="87.7657">
					<stop  offset="0" style="stop-color:#EDEDEC"/>
					<stop  offset="1" style="stop-color:#FFFFFF"/>
				</linearGradient>
				<polygon id="XMLID_5_" class="st6" points="37.4,67 38.3,77.9 77.7,78.1 76.9,92.7 63.9,96.3 51.4,93.2 50.7,84.1 39.1,84.1 
					40.6,101.6 64,108.5 87.3,101.7 90.3,67 				"/>
				<g class="st7">
					<polygon id="XMLID_4_" class="st2" points="64,67 37.4,67 38.3,77.9 64,78 					"/>
					<polygon id="XMLID_3_" class="st2" points="64,96.3 63.8,96.3 51.4,93.2 50.6,84.1 39,84.1 40.5,101.6 64,108.5 					"/>
				</g>
				<linearGradient id="XMLID_33_" gradientUnits="userSpaceOnUse" x1="35.0048" y1="49.675" x2="92.4242" y2="49.675">
					<stop  offset="0" style="stop-color:#EDEDEC"/>
					<stop  offset="1" style="stop-color:#FFFFFF"/>
				</linearGradient>
				<polygon id="XMLID_2_" class="st8" points="35,44.1 92.4,44.1 91.3,55.3 36.4,55.3 				"/>
				<polygon id="XMLID_1_" class="st9" points="64,44.1 35,44.1 36.4,55.3 64,55.3 				"/>
			</g>
		</g>
	</g>
</g>
<g id="XMLID_14_">
</g>
<g id="XMLID_15_">
</g>
<g id="XMLID_16_">
</g>
<g id="XMLID_17_">
</g>
<g id="XMLID_18_">
</g>
<g id="XMLID_19_">
</g>
<g id="XMLID_20_">
</g>
<g id="XMLID_21_">
</g>
<g id="XMLID_22_">
</g>
<g id="XMLID_23_">
</g>
<g id="XMLID_24_">
</g>
<g id="XMLID_25_">
</g>
<g id="XMLID_26_">
</g>
<g id="XMLID_27_">
</g>
<g id="XMLID_28_">
</g>
</svg>
