<?xml version="1.0" encoding="utf-8"?>
<!-- Generator: Adobe Illustrator 19.0.0, SVG Export Plug-In . SVG Version: 6.00 Build 0)  -->
<svg version="1.1" id="Camada_2" xmlns="http://www.w3.org/2000/svg" xmlns:xlink="http://www.w3.org/1999/xlink" x="0px" y="0px"
	 viewBox="0 0 128 128" style="enable-background:new 0 0 128 128;" xml:space="preserve">
<style type="text/css">
	.st0{fill:#E44D26;}
	.st1{fill:#F16529;}
	.st2{fill:#EBEBEB;}
	.st3{fill:#FFFFFF;}
</style>
<g id="XMLID_12_">
	<g id="orginal">
	</g>
	<g id="XMLID_13_">
		<polygon id="XMLID_10_" class="st0" points="26.9,117.7 18.7,25.2 109.3,25.2 101.1,117.7 63.9,128 		"/>
		<polygon id="XMLID_9_" class="st1" points="64,120.1 94,111.8 101.1,32.7 64,32.7 		"/>
		<polygon id="XMLID_8_" class="st2" points="64,67.1 49,67.1 47.9,55.4 64,55.4 64,44.1 64,44.1 35.5,44.1 35.8,47.1 38.6,78.4 
			64,78.4 		"/>
		<polygon id="XMLID_7_" class="st2" points="64,96.5 64,96.6 51.3,93.1 50.5,84.1 44.4,84.1 39.1,84.1 40.7,101.9 63.9,108.4 
			64,108.3 		"/>
		<path id="XMLID_6_" d="M27.1,0h5.8v5.7h5.3V0h5.8v17.3h-5.8v-5.8h-5.3v5.8h-5.8L27.1,0L27.1,0z"/>
		<path id="XMLID_5_" d="M51.5,5.7h-5.1V0h15.9v5.7h-5.1v11.5h-5.8L51.5,5.7L51.5,5.7z"/>
		<path id="XMLID_4_" d="M64.9,0h6l3.7,6.1L78.3,0h6v17.3h-5.7V8.7l-4,6.1h-0.1l-4-6.1v8.6h-5.6V0z"/>
		<path id="XMLID_3_" d="M87.2,0H93v11.6h8.1v5.7H87.2V0z"/>
		<polygon id="XMLID_2_" class="st3" points="64,67.1 64,78.4 77.9,78.4 76.6,93.1 64,96.5 64,108.4 87.2,101.9 87.4,100 90.1,70.1 
			90.3,67.1 87.3,67.1 		"/>
		<polygon id="XMLID_1_" class="st3" points="64,44.1 64,51.1 64,55.4 64,55.4 91.3,55.4 91.3,55.4 91.4,55.4 91.6,52.9 92.1,47.1 
			92.4,44.1 		"/>
	</g>
</g>
<g id="XMLID_11_">
</g>
<g id="XMLID_14_">
</g>
<g id="XMLID_15_">
</g>
<g id="XMLID_16_">
</g>
<g id="XMLID_17_">
</g>
<g id="XMLID_18_">
</g>
<g id="XMLID_19_">
</g>
<g id="XMLID_20_">
</g>
<g id="XMLID_21_">
</g>
<g id="XMLID_22_">
</g>
<g id="XMLID_23_">
</g>
<g id="XMLID_24_">
</g>
<g id="XMLID_25_">
</g>
<g id="XMLID_26_">
</g>
<g id="XMLID_27_">
</g>
</svg>
