<?xml version="1.0" encoding="utf-8"?>
<!-- Generator: Adobe Illustrator 19.0.0, SVG Export Plug-In . SVG Version: 6.00 Build 0)  -->
<svg version="1.1" id="Camada_2" xmlns="http://www.w3.org/2000/svg" xmlns:xlink="http://www.w3.org/1999/xlink" x="0px" y="0px"
	 viewBox="0 0 128 128" style="enable-background:new 0 0 128 128;" xml:space="preserve">
<style type="text/css">
	.st0{fill:#4E8EF7;}
</style>
<g id="XMLID_1_">
	<circle id="XMLID_4_" class="st0" cx="64" cy="64" r="26.1"/>
	<path class="st0" d="M117.3,19.7c0-5-4-9-9-9c-2.3,0-4.3,0.8-5.9,2.2C91.7,4.8,78.4,0,64,0C28.7,0,0,28.7,0,64
		c0,35.3,28.7,64,64,64s64-28.7,64-64c0-14.4-4.8-27.7-12.9-38.5C116.5,24,117.3,21.9,117.3,19.7z M64,125.8
		C29.9,125.8,2.2,98.1,2.2,64S29.9,2.2,64,2.2c13.9,0,26.7,4.6,37,12.3c-1,1.5-1.7,3.3-1.7,5.2c0,5,4,9,9,9c1.9,0,3.7-0.6,5.2-1.7
		c7.7,10.3,12.3,23.1,12.3,37C125.8,98.1,98.1,125.8,64,125.8z"/>
</g>
<g id="XMLID_5_">
</g>
<g id="XMLID_6_">
</g>
<g id="XMLID_7_">
</g>
<g id="XMLID_8_">
</g>
<g id="XMLID_9_">
</g>
<g id="XMLID_10_">
</g>
<g id="XMLID_11_">
</g>
<g id="XMLID_12_">
</g>
<g id="XMLID_13_">
</g>
<g id="XMLID_14_">
</g>
<g id="XMLID_15_">
</g>
<g id="XMLID_16_">
</g>
<g id="XMLID_17_">
</g>
<g id="XMLID_18_">
</g>
<g id="XMLID_19_">
</g>
</svg>
