<?xml version="1.0" encoding="utf-8"?>
<!-- Generator: Adobe Illustrator 24.0.2, SVG Export Plug-In . SVG Version: 6.00 Build 0)  -->
<svg version="1.1" id="Layer_1" xmlns="http://www.w3.org/2000/svg" xmlns:xlink="http://www.w3.org/1999/xlink" x="0px" y="0px"
	 viewBox="0 0 128 128" style="enable-background:new 0 0 128 128;" xml:space="preserve">
<style type="text/css">
	.st0{fill:#EF5441;}
	.st1{fill:#747676;}
</style>
<g>
	<g>
		<path class="st0" d="M79.5,95.7c-0.7,0-1.3-0.3-1.7-1L62.9,69.9L35,77.4c-0.9,0.2-1.8-0.2-2.3-1L0.2,15.2c-0.3-0.6-0.3-1.3,0-1.8
			c0.3-0.6,0.9-1,1.5-1.1l27.7-3.7c0.8-0.1,1.5,0.3,2,0.9l33.4,55.7l38.8-10.6l-13-18.3c-0.4-0.5-0.5-1.2-0.2-1.8
			c0.2-0.6,0.8-1.1,1.4-1.2l18.2-4.3c0.7-0.2,1.5,0.1,2,0.7l15.7,19.6c0.4,0.5,0.5,1.2,0.3,1.8s-0.7,1.1-1.4,1.3L110,57l14.4,20.3
			c0.4,0.5,0.5,1.1,0.3,1.7c-0.2,0.6-0.6,1.1-1.2,1.3L80.1,95.6C79.9,95.6,79.7,95.7,79.5,95.7z M66.8,68.8l13.5,22.5l39.4-13.8
			l-13.7-19.4L66.8,68.8z M5,15.9l30.5,57.3l25.3-6.9L28.6,12.7L5,15.9z M95.5,36.6l12.1,17.1l15-4.1l-13.1-16.3L95.5,36.6z"/>
	</g>
	<g>
		<path class="st1" d="M28.2,101.3h1.6v17.7h-1.6V101.3z"/>
		<path class="st1" d="M46,106.3v12.8h-1.6v-2.2c-0.7,0.8-1.5,1.5-2.3,1.9c-0.9,0.4-1.8,0.6-2.8,0.6c-1.8,0-3.4-0.7-4.6-2
			c-1.3-1.3-1.9-2.9-1.9-4.8c0-1.8,0.6-3.4,1.9-4.7c1.3-1.3,2.9-2,4.7-2c1.1,0,2,0.2,2.9,0.7c0.9,0.4,1.6,1.1,2.2,2v-2.4H46z
			 M39.5,107.5c-0.9,0-1.8,0.2-2.5,0.7c-0.8,0.5-1.4,1.1-1.9,1.9c-0.5,0.8-0.7,1.7-0.7,2.6c0,0.9,0.2,1.8,0.7,2.6
			c0.5,0.8,1.1,1.5,1.9,1.9c0.8,0.5,1.6,0.7,2.5,0.7c0.9,0,1.8-0.2,2.6-0.7c0.8-0.5,1.4-1.1,1.9-1.8c0.4-0.8,0.7-1.6,0.7-2.6
			c0-1.5-0.5-2.7-1.5-3.7C42.1,108,40.9,107.5,39.5,107.5z"/>
		<path class="st1" d="M49.1,106.3h1.7v1.9c0.5-0.7,1-1.3,1.6-1.7c0.6-0.4,1.1-0.5,1.7-0.5c0.5,0,0.9,0.1,1.5,0.4l-0.9,1.4
			c-0.3-0.1-0.6-0.2-0.9-0.2c-0.5,0-1.1,0.2-1.6,0.7c-0.5,0.5-0.9,1.2-1.2,2.1c-0.2,0.7-0.3,2.2-0.3,4.4v4.3h-1.7V106.3z"/>
		<path class="st1" d="M69.8,106.3v12.8h-1.6v-2.2c-0.7,0.8-1.5,1.5-2.3,1.9c-0.9,0.4-1.8,0.6-2.8,0.6c-1.8,0-3.4-0.7-4.6-2
			c-1.3-1.3-1.9-2.9-1.9-4.8c0-1.8,0.6-3.4,1.9-4.7c1.3-1.3,2.9-2,4.7-2c1.1,0,2,0.2,2.9,0.7c0.9,0.4,1.6,1.1,2.2,2v-2.4H69.8z
			 M63.2,107.5c-0.9,0-1.8,0.2-2.5,0.7c-0.8,0.5-1.4,1.1-1.9,1.9c-0.5,0.8-0.7,1.7-0.7,2.6c0,0.9,0.2,1.8,0.7,2.6
			c0.5,0.8,1.1,1.5,1.9,1.9c0.8,0.5,1.6,0.7,2.5,0.7c0.9,0,1.8-0.2,2.6-0.7c0.8-0.5,1.4-1.1,1.9-1.8c0.4-0.8,0.7-1.6,0.7-2.6
			c0-1.5-0.5-2.7-1.5-3.7C65.8,108,64.6,107.5,63.2,107.5z"/>
		<path class="st1" d="M72.2,106.3H74l4.3,9.3l4.2-9.3h1.8l-5.9,12.8h-0.3L72.2,106.3z"/>
		<path class="st1" d="M97.6,114.8l1.4,0.7c-0.5,0.9-1,1.6-1.6,2.2c-0.6,0.5-1.3,1-2,1.3c-0.7,0.3-1.6,0.4-2.5,0.4
			c-2.1,0-3.7-0.7-4.9-2.1c-1.2-1.4-1.8-2.9-1.8-4.6c0-1.6,0.5-3.1,1.5-4.3c1.3-1.6,3-2.4,5.1-2.4c2.2,0,3.9,0.8,5.2,2.5
			c0.9,1.2,1.4,2.6,1.4,4.4H87.9c0,1.5,0.5,2.7,1.4,3.7c0.9,1,2.1,1.4,3.4,1.4c0.7,0,1.3-0.1,1.9-0.3c0.6-0.2,1.1-0.5,1.6-0.9
			C96.6,116.3,97.1,115.7,97.6,114.8z M97.6,111.4c-0.2-0.9-0.5-1.6-1-2.1c-0.4-0.5-1-0.9-1.7-1.3c-0.7-0.3-1.4-0.5-2.2-0.5
			c-1.3,0-2.3,0.4-3.2,1.2c-0.7,0.6-1.2,1.5-1.5,2.6H97.6z"/>
		<path class="st1" d="M102.2,101.3h1.6v17.7h-1.6V101.3z"/>
	</g>
</g>
</svg>
