<?xml version="1.0" encoding="utf-8"?>
<!-- Generator: Adobe Illustrator 24.0.2, SVG Export Plug-In . SVG Version: 6.00 Build 0)  -->
<svg version="1.1" id="Layer_1" xmlns="http://www.w3.org/2000/svg" xmlns:xlink="http://www.w3.org/1999/xlink" x="0px" y="0px"
	 viewBox="0 0 128 128" style="enable-background:new 0 0 128 128;" xml:space="preserve">
<style type="text/css">
	.st0{fill:#EB7077;stroke:#EB7077;stroke-width:9.375000e-02;}
	.st1{fill:#F6A2AD;stroke:#F6A2AD;stroke-width:9.375000e-02;}
</style>
<g>
	<g>
		<path class="st0" d="M31.5,33.4c0.5-0.8,1.1-1.5,1.9-1.9c0.4-0.1,0.7,0,1.1,0H52c-0.5,0.4-1,0.9-1.3,1.5c-0.9,1.5-1.5,3.1-2.1,4.7
			c-1.6,4.9-2.7,10-3.7,15.1c-0.5,2.3-0.9,4.6-1.4,6.9c-1.3,7.5-2.7,15.1-4.4,22.5c-0.8,3.4-1.7,6.9-2.9,10.2
			c-0.6,1.4-1.2,2.8-2.3,3.9c-0.3,0.2-0.5,0.5-0.9,0.5H17.5c-1.1,0-2.1,0.1-3.1,0c0.7-0.5,1.3-1.2,1.7-2c1.2-2.2,1.9-4.6,2.6-7
			c1.1-3.8,1.9-7.7,2.8-11.6c0.5-2.6,1.1-5.1,1.5-7.7c0.4-2.9,1.1-5.7,1.6-8.5c0.8-4.2,1.7-8.4,2.6-12.5c0.8-3.2,1.5-6.5,2.6-9.6
			C30.2,36.3,30.7,34.8,31.5,33.4z"/>
		<path class="st1" d="M52,31.4c0.4,0,0.9,0,1.3,0c1,0.5,1.8,1.4,2.3,2.4c0.6,1.2,1.1,2.4,1.6,3.7c1.5,4.8,2.6,9.7,3.6,14.6
			c0.9,4.4,1.7,8.8,2.6,13.2c0.1,0.2,0,0.6,0.3,0.6c-1.1,5.8-2.2,11.6-3.6,17.4c-0.8,3.1-1.6,6.2-2.7,9.2c-0.6,1.5-1.3,3.1-2.6,4.2
			c-0.8,0.2-1.4-0.4-1.9-1c-0.9-1.1-1.4-2.5-1.9-3.8c-1.7-4.8-2.8-9.7-3.9-14.7c-0.8-3.8-1.5-7.7-2.3-11.6c-0.3-2-0.8-3.9-1.1-5.9
			c0,0-0.2-0.1-0.2-0.1c0.4-2.3,0.9-4.6,1.4-6.9c1.1-5.1,2.2-10.2,3.7-15.1c0.6-1.6,1.2-3.3,2.1-4.7C51,32.3,51.5,31.9,52,31.4z"/>
		<path class="st0" d="M71.3,34.1c0.6-1.1,1.2-2.3,2.4-2.7c6.1,0,12.3,0,18.4,0c-0.6,0.6-1.2,1.1-1.6,1.9c-1.2,2.1-1.9,4.5-2.6,6.8
			c-1.8,6.4-3.1,13-4.3,19.6c-1.1,6.5-2.3,13-3.7,19.4c-0.7,3.2-1.5,6.5-2.4,9.7c-0.6,2-1.2,4-2.2,5.8c-0.5,0.8-1,1.7-1.9,2.2
			c-5.9,0-11.7,0-17.6,0c-0.3,0-0.7,0-1,0c1.3-1.1,1.9-2.7,2.6-4.2c1.1-3,1.9-6.1,2.7-9.2c1.4-5.8,2.5-11.6,3.6-17.4
			c1.3-7.5,2.8-15,4.5-22.4C69.1,40.3,69.9,37.1,71.3,34.1z"/>
		<path class="st1" d="M92.2,31.4c0.5,0,1,0,1.5,0c0.8,0.4,1.4,1.1,1.9,1.9c0.8,1.3,1.4,2.8,1.9,4.3c1.3,3.9,2.2,8,3.1,12
			c1.2,5.5,2.2,10.9,3.2,16.4c0.2,1.3,0.5,2.6,0.6,4c0.1,0.1,0.2,0.2,0.2,0.2c-0.6,0.8-0.8,1.7-1.1,2.6c-1,3.1-1.6,6.4-2.1,9.6
			c-0.4,2.5-1,5.1-1.8,7.5c-0.6,1.8-1.3,3.6-2.5,5.1c-0.6,0.7-1.3,1.3-2.1,1.7c-1.3,0.1-2-1.1-2.7-2c-1.3-2.2-2-4.7-2.7-7.2
			c-2.4-9-4-18.3-5.7-27.5c0-0.1-0.1-0.3-0.2-0.3c1.2-6.6,2.5-13.1,4.3-19.6c0.7-2.3,1.4-4.7,2.6-6.8C91,32.6,91.6,32,92.2,31.4z"/>
		<path class="st1" d="M-0.1,66.6c0.4,0,0.8-0.1,1.2-0.1H18c0.7,0.1,1.5,0,2.1,0.3c1,0.4,1.9,1.1,2.5,1.9c0.1,0,0.2-0.2,0.3-0.2
			c-0.4,2.6-1,5.1-1.5,7.7c-0.8,3.9-1.7,7.8-2.8,11.6c-0.7,2.4-1.4,4.8-2.6,7c-0.4,0.8-1,1.4-1.7,2c-0.3,0-0.5-0.1-0.7-0.3
			c-0.7-0.5-1.1-1.3-1.6-2C10,89.6,9.8,84.3,8.4,79.3c-0.7-2.5-1.5-5-2.7-7.3c-0.7-1.4-1.7-2.7-2.8-3.8C2,67.4,1,66.8-0.1,66.6z"/>
		<path class="st0" d="M106,68.2c1-1.1,2.4-1.8,3.9-1.7h12.7c1.8,0,3.5-0.1,5.3,0c-0.5,0.4-1.2,0.5-1.7,0.8
			c-1.9,0.9-3.6,2.3-4.6,4.2c-1.7,2.9-2.3,6.3-2.8,9.6c-0.5,3.2-0.5,6.6-1.5,9.8c-0.7,2.2-1.8,4.4-3.7,5.9c-5.8,0.1-11.6,0-17.4,0
			c-0.4,0-0.8,0-1.1-0.1c0.8-0.4,1.6-0.9,2.1-1.7c1.2-1.5,1.9-3.3,2.5-5.1c0.8-2.4,1.4-5,1.8-7.5c0.5-3.2,1.2-6.5,2.1-9.6
			c0.3-0.9,0.5-1.8,1.1-2.6C105.1,69.6,105.5,68.8,106,68.2z"/>
	</g>
</g>
</svg>
