<?xml version="1.0" encoding="utf-8"?>
<!-- Generator: Adobe Illustrator 19.0.0, SVG Export Plug-In . SVG Version: 6.00 Build 0)  -->
<svg version="1.1" id="Camada_1" xmlns="http://www.w3.org/2000/svg" xmlns:xlink="http://www.w3.org/1999/xlink" x="0px" y="0px"
	 viewBox="0 0 128 128" style="enable-background:new 0 0 128 128;" xml:space="preserve">
<style type="text/css">
	.st0{fill:#4D4744;}
</style>
<g>
	<path id="XMLID_6_" class="st0" d="M9.1,64c0,21.7,12.6,40.5,30.9,49.4L13.9,41.7C10.8,48.5,9.1,56,9.1,64z"/>
	<path id="XMLID_5_" class="st0" d="M101.1,61.2c0-6.8-2.4-11.5-4.5-15.1c-2.8-4.5-5.4-8.4-5.4-12.9c0-5,3.8-9.7,9.2-9.7
		c0.2,0,0.5,0,0.7,0C91.3,14.6,78.3,9.1,64,9.1c-19.2,0-36.1,9.8-45.9,24.7c1.3,0,2.5,0.1,3.5,0.1c5.7,0,14.6-0.7,14.6-0.7
		c3-0.2,3.3,4.2,0.4,4.5c0,0-3,0.4-6.3,0.5l20,59.5l12-36l-8.6-23.4c-3-0.2-5.8-0.5-5.8-0.5c-3-0.2-2.6-4.7,0.3-4.5
		c0,0,9.1,0.7,14.5,0.7c5.7,0,14.6-0.7,14.6-0.7c3-0.2,3.3,4.2,0.4,4.5c0,0-3,0.4-6.3,0.5l19.8,59L96.9,79
		C99.3,71.4,101.1,65.9,101.1,61.2z"/>
	<path id="XMLID_4_" class="st0" d="M65,68.8l-16.5,47.9c4.9,1.4,10.1,2.2,15.5,2.2c6.4,0,12.5-1.1,18.2-3.1
		c-0.1-0.2-0.3-0.5-0.4-0.8L65,68.8z"/>
	<path id="XMLID_3_" class="st0" d="M112.2,37.7c0.2,1.7,0.4,3.6,0.4,5.6c0,5.6-1,11.8-4.2,19.7l-16.8,48.5
		c16.3-9.5,27.3-27.2,27.3-47.5C118.9,54.5,116.5,45.5,112.2,37.7z"/>
	<path class="st0" d="M64,0C28.7,0,0,28.7,0,64c0,35.3,28.7,64,64,64c35.3,0,64-28.7,64-64C128,28.7,99.3,0,64,0z M64,125.1
		C30.3,125.1,2.9,97.7,2.9,64C2.9,30.3,30.3,2.9,64,2.9c33.7,0,61.1,27.4,61.1,61.1C125.1,97.7,97.7,125.1,64,125.1z"/>
</g>
<g id="XMLID_7_">
</g>
<g id="XMLID_8_">
</g>
<g id="XMLID_9_">
</g>
<g id="XMLID_10_">
</g>
<g id="XMLID_11_">
</g>
<g id="XMLID_12_">
</g>
<g id="XMLID_13_">
</g>
<g id="XMLID_14_">
</g>
<g id="XMLID_15_">
</g>
<g id="XMLID_16_">
</g>
<g id="XMLID_17_">
</g>
<g id="XMLID_18_">
</g>
<g id="XMLID_19_">
</g>
<g id="XMLID_20_">
</g>
<g id="XMLID_21_">
</g>
</svg>
