<?xml version="1.0" encoding="utf-8"?>
<!-- Generator: Adobe Illustrator 19.0.0, SVG Export Plug-In . SVG Version: 6.00 Build 0)  -->
<svg version="1.1" id="Camada_1" xmlns="http://www.w3.org/2000/svg" xmlns:xlink="http://www.w3.org/1999/xlink" x="0px" y="0px"
	 viewBox="0 0 128 128" style="enable-background:new 0 0 128 128;" xml:space="preserve">
<style type="text/css">
	.st0{fill:#68B604;}
</style>
<g>
	<path id="XMLID_4_" class="st0" d="M60.2,51.1c0,0,0-17,17-17H128c0,0,0,17-17,17H60.2z"/>
	<path id="XMLID_3_" class="st0" d="M60.2,72.8c0,0,0-17,17-17h25.4c0,0,0,17-17,17H60.2z"/>
	<path id="XMLID_2_" class="st0" d="M60.2,94.4c0,0,0-17,17-17h8.5c0,0,0,17-16.9,17H60.2z"/>
	<polygon id="XMLID_1_" class="st0" points="54.5,81.2 54.5,94.7 0,94.7 35.1,46.8 5,46.8 5,33.3 61.8,33.3 26.9,81.2 	"/>
</g>
<g id="XMLID_5_">
</g>
<g id="XMLID_6_">
</g>
<g id="XMLID_7_">
</g>
<g id="XMLID_8_">
</g>
<g id="XMLID_9_">
</g>
<g id="XMLID_10_">
</g>
<g id="XMLID_11_">
</g>
<g id="XMLID_12_">
</g>
<g id="XMLID_13_">
</g>
<g id="XMLID_14_">
</g>
<g id="XMLID_15_">
</g>
<g id="XMLID_16_">
</g>
<g id="XMLID_17_">
</g>
<g id="XMLID_18_">
</g>
<g id="XMLID_19_">
</g>
</svg>
