<svg xmlns="http://www.w3.org/2000/svg" viewBox="0 0 290.12 73.71"><defs><style>.cls-1{fill:#c3c1c9;}.cls-2{fill:#ef7d18;}.cls-3{fill:#ffcb00;}.cls-4{fill:#f49d14;}</style></defs><title>Logo_IPLA_Full_Col_Branco</title><g id="Layer_2" data-name="Layer 2"><g id="PACK_DE_LOGOS" data-name="PACK DE LOGOS"><g id="Logo_IPLA_Full_Col_Branco"><rect class="cls-1" y="6.17" width="5.71" height="38.85"/><path class="cls-1" d="M20.1,10.8H14.27V26.17H19.8a12,12,0,0,0,6.81-1.8q2.7-1.8,2.88-5.86,0-4.4-2.52-6.05A12.38,12.38,0,0,0,20.1,10.8M8.56,45V6.17h11.6A20,20,0,0,1,31,9q4.43,2.8,4.43,9.32t-4.79,9.45a20.25,20.25,0,0,1-11.09,3H14.27V45Z"/><polygon class="cls-1" points="62.49 45.02 37.82 45.02 37.82 6.17 43.53 6.17 43.53 40.74 61.78 40.74 62.49 45.02"/><path class="cls-1" d="M81.52,13.54,75,30.23H88.18ZM84.2,6.17,99.78,44.22l-5.65.8L89.91,34.63H73.44L69.39,45H63.8L79,6.17Z"/><polygon class="cls-1" points="100.97 45.02 100.97 6.17 106.02 6.17 124.16 30.63 127.01 34.91 127.01 6.17 132.78 6.17 132.78 45.02 127.66 45.02 108.93 19.49 106.67 16.06 106.67 45.02 100.97 45.02"/><polygon class="cls-1" points="161.97 30.34 148.53 30.34 148.53 45.02 137.71 45.02 137.71 6.23 163.94 6.23 164.95 14.4 148.53 14.4 148.53 22.17 160.96 22.17 161.97 30.34"/><path class="cls-1" d="M174.28,25.71a15.66,15.66,0,0,0,2,8.17q2,3.25,6.54,3.26a7.64,7.64,0,0,0,6.43-2.94c1.5-2,2.26-4.91,2.26-8.83a15.1,15.1,0,0,0-2-8.08q-2-3.22-6.51-3.23a7.45,7.45,0,0,0-6.36,3.2,14,14,0,0,0-2.32,8.45m-11.12.06q0-9,5.29-14.68t14.39-5.72q9.87,0,14.81,5.83a21.2,21.2,0,0,1,4.94,14.17q0,9-5.24,14.74t-14.51,5.71q-9.69,0-14.68-5.85a21.16,21.16,0,0,1-5-14.2"/><path class="cls-1" d="M221,14.34h-5.83V24.63h5.95a5.88,5.88,0,0,0,4.1-1.46,4.83,4.83,0,0,0,1.61-3.74,4.66,4.66,0,0,0-1.55-3.83A6.6,6.6,0,0,0,221,14.34M204.37,45V6.17h17a21.51,21.51,0,0,1,11.68,3.12q5,3.11,5,10.14a11.81,11.81,0,0,1-1.51,6.11,12.36,12.36,0,0,1-4,4.17L241.47,45H228.93L222.39,32.8h-7.2V45Z"/><polygon class="cls-2" points="244.02 33.65 244.02 44.99 257.68 44.99 257.68 24.28 244.02 33.65"/><polygon class="cls-3" points="290.12 19.53 290.12 44.99 276.46 44.99 276.46 10.16 290.12 19.53"/><polygon class="cls-4" points="260.24 9.37 260.24 44.99 273.9 44.99 273.9 0 260.24 9.37"/><path class="cls-1" d="M2.51,65v8.43h-2V65Z"/><path class="cls-1" d="M12.25,65v8.43H10.31c-.58-.8-1.16-1.62-1.74-2.45S7.41,69.3,6.84,68.5v4.91h-2V65H6.74l3.47,5V65Z"/><path class="cls-1" d="M14.13,67.17A2.08,2.08,0,0,1,15,65.49a3.4,3.4,0,0,1,2.25-.69,4.91,4.91,0,0,1,1.29.19,5,5,0,0,1,1.15.48L19,66.93c-.38-.14-.7-.25-1-.32a3.11,3.11,0,0,0-.84-.11,1.24,1.24,0,0,0-.71.19.57.57,0,0,0-.27.5.69.69,0,0,0,.41.58c.27.16.6.33,1,.53a9.92,9.92,0,0,1,1.71,1.13,2.11,2.11,0,0,1,.82,1.71,2.15,2.15,0,0,1-.86,1.74,3.78,3.78,0,0,1-2.41.7,6,6,0,0,1-1.44-.22,4.32,4.32,0,0,1-1.24-.48l.62-1.56a4.78,4.78,0,0,0,.93.38,3.75,3.75,0,0,0,1.08.18,1.52,1.52,0,0,0,.91-.23.63.63,0,0,0,.31-.53c0-.19-.14-.38-.44-.57s-.61-.36-1-.54A11,11,0,0,1,15,68.92,2.11,2.11,0,0,1,14.13,67.17Z"/><path class="cls-1" d="M21.12,65H28.2l.12.8.12.81H25.67v6.82h-2V66.59H21.12Z"/><path class="cls-1" d="M31.94,65v8.43h-2V65Z"/><path class="cls-1" d="M33.41,65H40.5c0,.27.08.54.11.8l.12.81H38v6.82h-2V66.59H33.41Z"/><path class="cls-1" d="M44.13,65v5.16a1.7,1.7,0,0,0,.46,1.31,1.65,1.65,0,0,0,1.17.44,1.62,1.62,0,0,0,1.17-.44,1.73,1.73,0,0,0,.46-1.31V65h2v5.27a3.07,3.07,0,0,1-1,2.43,3.88,3.88,0,0,1-2.66.88,3.93,3.93,0,0,1-2.66-.87,3.06,3.06,0,0,1-1-2.44V65Z"/><path class="cls-1" d="M50.81,65h7.08l.12.8c0,.27.07.54.12.81H55.36v6.82h-2V66.59H50.81Z"/><path class="cls-1" d="M63.27,64.79a3.68,3.68,0,0,1,3,1.27,4.84,4.84,0,0,1,1,3.09,4.76,4.76,0,0,1-1.07,3.2,3.73,3.73,0,0,1-3,1.24,3.65,3.65,0,0,1-3-1.27,4.84,4.84,0,0,1-1-3.09A4.69,4.69,0,0,1,60.32,66,3.78,3.78,0,0,1,63.27,64.79Zm0,7.1a1.73,1.73,0,0,0,1.44-.68,3.46,3.46,0,0,0,.51-2.06,3.61,3.61,0,0,0-.45-1.9,1.59,1.59,0,0,0-1.46-.75,1.67,1.67,0,0,0-1.43.75,3.33,3.33,0,0,0-.53,2,3.67,3.67,0,0,0,.45,1.91A1.57,1.57,0,0,0,63.26,71.89Z"/><path class="cls-1" d="M75.94,73.41H72.48V65h3.46a3.71,3.71,0,0,1,3,1.17,4.44,4.44,0,0,1,1,3,4.34,4.34,0,0,1-1.09,3.11A3.77,3.77,0,0,1,75.94,73.41Zm0-6.79h-1.4v5.17h1.31a1.81,1.81,0,0,0,1.43-.64,3,3,0,0,0,.56-2,3.15,3.15,0,0,0-.48-1.83A1.6,1.6,0,0,0,75.92,66.62Z"/><path class="cls-1" d="M87.88,73.41H81.79V65h5.4l.23,1.61h-3.6v1.79H86.3l.22,1.6h-2.7v1.85h3.82l.12.79Z"/><path class="cls-1" d="M92.74,73.41V65H96a4.11,4.11,0,0,1,2.41.71,2.53,2.53,0,0,1,1,2.22,2.42,2.42,0,0,1-1.08,2.18,4.36,4.36,0,0,1-2.44.71H94.77v2.61Zm3.18-6.81H94.77v2.57h1.17a1.44,1.44,0,0,0,1-.33,1.14,1.14,0,0,0,.38-.9,1.31,1.31,0,0,0-.36-1A1.42,1.42,0,0,0,95.92,66.6Z"/><path class="cls-1" d="M107.08,73.41H101.2V65h2v6.83h3.62Z"/><path class="cls-1" d="M112.93,65l3.19,8.21-2,.22-.65-1.77h-3l-.64,1.77h-2L111,65Zm-1,2.53L111,70h1.85Z"/><path class="cls-1" d="M125,65v8.43H123.1c-.58-.8-1.16-1.62-1.74-2.45s-1.16-1.66-1.73-2.46v4.91h-2V65h1.94L123,70V65Z"/><path class="cls-1" d="M133.42,73.41h-6.09V65h5.41l.22,1.61h-3.59v1.79h2.48l.22,1.6h-2.7v1.85h3.82c0,.26.08.53.11.79Z"/><path class="cls-1" d="M137.23,65v6.47a1.85,1.85,0,0,1-.49,1.4,4.36,4.36,0,0,1-1.74.86l-.41-.78-.41-.79a1.69,1.69,0,0,0,.84-.54,1.26,1.26,0,0,0,.16-.67V65Z"/><path class="cls-1" d="M143.81,65,147,73.19l-2,.22-.66-1.77h-3l-.64,1.77h-2l3.2-8.43Zm-1,2.53L141.88,70h1.85Z"/><path class="cls-1" d="M152.09,71l-1.58-2v4.44h-2V65h1.38l2.64,3.45c.41-.57.81-1.15,1.21-1.73s.81-1.15,1.21-1.72h1.33v8.43h-2.05V69.07l-.64.89c-.22.29-.43.59-.65.89a1.83,1.83,0,0,0-.4.05Z"/><path class="cls-1" d="M164.62,73.41h-6.09V65h5.41l.23,1.61h-3.6v1.79h2.48l.22,1.6h-2.7v1.85h3.82l.12.79C164.54,72.88,164.58,73.15,164.62,73.41Z"/><path class="cls-1" d="M173.68,65v8.43h-1.93c-.58-.8-1.16-1.62-1.75-2.45s-1.16-1.66-1.73-2.46v4.91h-2V65h1.93l3.48,5V65Z"/><path class="cls-1" d="M175.16,65h7.08l.12.8.12.81h-2.77v6.82h-2V66.59h-2.52Z"/><path class="cls-1" d="M187.63,64.79a3.65,3.65,0,0,1,3,1.27,4.84,4.84,0,0,1,1,3.09,4.75,4.75,0,0,1-1.06,3.2,3.76,3.76,0,0,1-3,1.24,3.64,3.64,0,0,1-3-1.27,4.79,4.79,0,0,1-1-3.09A4.69,4.69,0,0,1,184.67,66,3.79,3.79,0,0,1,187.63,64.79Zm0,7.1a1.71,1.71,0,0,0,1.43-.68,3.46,3.46,0,0,0,.51-2.06,3.61,3.61,0,0,0-.45-1.9,1.58,1.58,0,0,0-1.46-.75,1.65,1.65,0,0,0-1.42.75,3.26,3.26,0,0,0-.54,2,3.67,3.67,0,0,0,.45,1.91A1.6,1.6,0,0,0,187.62,71.89Z"/><path class="cls-1" d="M200.29,73.41h-3.46V65h3.46a3.71,3.71,0,0,1,3,1.17,4.44,4.44,0,0,1,1,3,4.38,4.38,0,0,1-1.09,3.11A3.81,3.81,0,0,1,200.29,73.41Zm0-6.79h-1.4v5.17h1.31a1.8,1.8,0,0,0,1.43-.64,3,3,0,0,0,.56-2,3.15,3.15,0,0,0-.48-1.83A1.6,1.6,0,0,0,200.27,66.62Z"/><path class="cls-1" d="M212.23,73.41h-6.09V65h5.41l.22,1.61h-3.6v1.79h2.48l.23,1.6h-2.71v1.85H212c0,.26.08.53.12.79Z"/><path class="cls-1" d="M221.78,70.1h-2.66v3.31h-2V65h5.24c0,.26.08.53.11.8s.08.55.11.81h-3.42V68.5h2.44Z"/><path class="cls-1" d="M227.73,64.79a3.67,3.67,0,0,1,3,1.27,4.84,4.84,0,0,1,1,3.09,4.76,4.76,0,0,1-1.07,3.2,3.73,3.73,0,0,1-3,1.24,3.67,3.67,0,0,1-3-1.27,4.84,4.84,0,0,1-1-3.09A4.69,4.69,0,0,1,224.77,66,3.79,3.79,0,0,1,227.73,64.79Zm0,7.1a1.72,1.72,0,0,0,1.44-.68,3.46,3.46,0,0,0,.51-2.06,3.61,3.61,0,0,0-.45-1.9,1.58,1.58,0,0,0-1.46-.75,1.68,1.68,0,0,0-1.43.75,3.33,3.33,0,0,0-.53,2,3.67,3.67,0,0,0,.45,1.91A1.58,1.58,0,0,0,227.71,71.89Z"/><path class="cls-1" d="M238.74,73.41c-.25-.47-.51-.94-.75-1.42l-.75-1.42-.2,0h-1.31v2.82h-2V65h3.24a4.34,4.34,0,0,1,2.42.66,2.35,2.35,0,0,1,1,2.13A2.41,2.41,0,0,1,240,69.1a2.59,2.59,0,0,1-.88.89l1,1.72,1,1.7Zm-1.87-6.79h-1.14V69h1.16a1.53,1.53,0,0,0,1-.3,1.22,1.22,0,0,0,0-1.76A1.6,1.6,0,0,0,236.87,66.62Z"/><path class="cls-1" d="M241.73,65h7.09l.12.8c0,.27.07.54.11.81h-2.76v6.82h-2V66.59h-2.52Z"/><path class="cls-1" d="M254.87,65l3.19,8.21-2,.22-.66-1.77h-3l-.65,1.77h-2l3.2-8.43Zm-1,2.53L253,70h1.85Z"/><path class="cls-1" d="M265.43,73.41h-5.88V65h2v6.83h3.63Z"/><path class="cls-1" d="M273,73.41h-6.09V65h5.41l.22,1.61H269v1.79h2.49l.22,1.6H269v1.85h3.83c0,.26.08.53.11.79Z"/><path class="cls-1" d="M280.83,66.47c-.7.82-1.39,1.65-2.09,2.52s-1.49,1.8-2.38,2.84h4.27l.1.79c0,.26.06.53.1.79h-6.68L273.93,72l4.35-5.36h-3.79c0-.27-.07-.54-.1-.81s-.07-.53-.1-.8h6.31Z"/><path class="cls-1" d="M286.81,65,290,73.19l-2,.22-.66-1.77h-3l-.64,1.77h-2l3.2-8.43Zm-1,2.53L284.88,70h1.85Z"/></g></g></g></svg>