<svg xmlns="http://www.w3.org/2000/svg" viewBox="0 0 837.53 138.68"><defs><style>.cls-1{fill:#fff;}</style></defs><title>Logo_CONJUNTA_Simp_Hor_Mono_Branco</title><g id="Layer_2" data-name="Layer 2"><g id="PACK_DE_LOGOS" data-name="PACK DE LOGOS"><g id="Logo_CONJUNTA_Simp_Hor_Mono_Branco"><rect class="cls-1" y="52.6" width="5.71" height="38.85"/><path class="cls-1" d="M20.1,57.23H14.27V72.6H19.8a12,12,0,0,0,6.81-1.8q2.7-1.8,2.88-5.86,0-4.39-2.52-6a12.38,12.38,0,0,0-6.87-1.66M8.56,91.45V52.6h11.6A20,20,0,0,1,31,55.4q4.43,2.81,4.43,9.31t-4.79,9.46a20.25,20.25,0,0,1-11.09,3H14.27V91.45Z"/><polygon class="cls-1" points="62.49 91.45 37.82 91.45 37.82 52.6 43.53 52.6 43.53 87.17 61.78 87.17 62.49 91.45"/><path class="cls-1" d="M81.52,60,75,76.66H88.18ZM84.2,52.6,99.78,90.65l-5.65.8-4.22-10.4H73.44l-4,10.4H63.8L79,52.6Z"/><polygon class="cls-1" points="100.97 91.45 100.97 52.6 106.02 52.6 124.16 77.06 127.01 81.34 127.01 52.6 132.78 52.6 132.78 91.45 127.66 91.45 108.93 65.91 106.67 62.49 106.67 91.45 100.97 91.45"/><polygon class="cls-1" points="161.97 76.77 148.53 76.77 148.53 91.45 137.71 91.45 137.71 52.66 163.94 52.66 164.95 60.83 148.53 60.83 148.53 68.6 160.96 68.6 161.97 76.77"/><path class="cls-1" d="M174.28,72.14a15.66,15.66,0,0,0,2,8.17q2,3.25,6.54,3.26a7.64,7.64,0,0,0,6.43-2.94c1.5-2,2.26-4.91,2.26-8.83a15.1,15.1,0,0,0-2-8.08c-1.32-2.16-3.49-3.23-6.51-3.23a7.42,7.42,0,0,0-6.36,3.2,14,14,0,0,0-2.32,8.45m-11.12.06q0-9,5.29-14.68t14.39-5.72q9.87,0,14.81,5.83a21.2,21.2,0,0,1,4.94,14.17q0,9-5.24,14.74t-14.51,5.71q-9.69,0-14.68-5.85a21.16,21.16,0,0,1-5-14.2"/><path class="cls-1" d="M221,60.77h-5.83V71.06h5.95a5.88,5.88,0,0,0,4.1-1.46,4.83,4.83,0,0,0,1.61-3.74A4.65,4.65,0,0,0,225.3,62,6.6,6.6,0,0,0,221,60.77M204.37,91.45V52.6h17a21.51,21.51,0,0,1,11.68,3.12q5,3.11,5,10.14A11.81,11.81,0,0,1,236.51,72a12.45,12.45,0,0,1-4,4.17l8.92,15.31H228.93l-6.54-12.22h-7.2V91.45Z"/><polygon class="cls-1" points="244.02 80.08 244.02 91.42 257.68 91.42 257.68 70.71 244.02 80.08"/><polygon class="cls-1" points="290.12 65.96 290.12 91.41 276.46 91.41 276.46 56.59 290.12 65.96"/><polygon class="cls-1" points="260.24 55.8 260.24 91.41 273.9 91.41 273.9 46.43 260.24 55.8"/><g id="Logo_PMF_Hor_Branco"><path class="cls-1" d="M579.53,55.25h-16V75.07H551.39V24.58h31.33c.25,1.59.48,3.2.71,4.83s.43,3.24.63,4.83H563.57V45.67h14.62Z"/><path class="cls-1" d="M601.06,65.05a7.19,7.19,0,0,0,5.49-2.12c1.34-1.41,2-3.57,2-6.5a11.43,11.43,0,0,0-1.82-6.68,6,6,0,0,0-5.23-2.6,6.77,6.77,0,0,0-5.5,2.31q-1.93,2.3-1.93,6.6a10.78,10.78,0,0,0,1.78,6.61,6.09,6.09,0,0,0,5.2,2.38m.22-28q9,0,14.44,5t5.46,14.32q0,8.93-5.79,13.78t-14.48,4.86q-8.61,0-14-4.82t-5.42-14.19q0-8.91,5.64-14a20.45,20.45,0,0,1,14.18-5"/><path class="cls-1" d="M644.57,39.06l2.45,9.8a17.35,17.35,0,0,0-5.56,1A17.05,17.05,0,0,0,636,53V75.07H623.71V39.14h6.16l3.27,4.23a26.79,26.79,0,0,1,5.35-3,15.35,15.35,0,0,1,6.08-1.34"/><path class="cls-1" d="M671.52,75.07a19.38,19.38,0,0,1-11.62-3.49Q655,68.1,655,61.19V48.57h-5.27V39.06H655V29.71l12.18-1.78V39.06h7.94L677,48.57h-9.8V59.63a5.76,5.76,0,0,0,1.3,3.94,4.79,4.79,0,0,0,3.82,1.48,9.47,9.47,0,0,0,2.27-.33,13.44,13.44,0,0,0,2.48-.93l3.49,8.39a10.41,10.41,0,0,1-4,2,17.05,17.05,0,0,1-5.05.85"/><path class="cls-1" d="M696,65.34a7.18,7.18,0,0,0,2.93-.67,11.87,11.87,0,0,0,2.93-1.85V59.18h-5.27a3.8,3.8,0,0,0-2.75,1,3.24,3.24,0,0,0-1,2.41,2.47,2.47,0,0,0,.93,1.93,3.3,3.3,0,0,0,2.27.82m2.89-28.29c4.66,0,8.34,1.34,11.07,4A14,14,0,0,1,714,51.53V74.25h-5.64l-2.45-2.82a15.11,15.11,0,0,1-4.46,2.6,15.3,15.3,0,0,1-5.57,1q-6.75,0-10.06-3.34a11.94,11.94,0,0,1-3.3-8.77q0-5.79,3.86-8.57t10.1-2.79h5.27a4.44,4.44,0,0,0-1.6-3.11,5.24,5.24,0,0,0-3.45-1.12,20.61,20.61,0,0,0-4.79.67,28.85,28.85,0,0,0-4.71,1.56l-3.27-9.13a32,32,0,0,1,6.87-2.38,34.21,34.21,0,0,1,8.05-1"/><polygon class="cls-1" points="731.81 22.65 731.81 75.07 719.63 75.07 719.63 23.47 731.81 22.65"/><path class="cls-1" d="M754.83,47a5,5,0,0,0-3.67,1.41,7.34,7.34,0,0,0-2,3.93h11.28a7.37,7.37,0,0,0-1.63-3.71,4.87,4.87,0,0,0-4-1.63m.3-9.95q8.61,0,12.81,5.6a21.43,21.43,0,0,1,4.19,13.18v4.08H749.41a6.45,6.45,0,0,0,2.86,3.9,9.81,9.81,0,0,0,5.24,1.3,22.77,22.77,0,0,0,4.67-.48,19.61,19.61,0,0,0,4.61-1.6l3.41,8.39a16.59,16.59,0,0,1-7.16,2.9,41.92,41.92,0,0,1-6.5.74q-9,0-14.66-4.68t-5.68-14.1q0-8.91,5.38-14.07a18.79,18.79,0,0,1,13.55-5.16"/><path class="cls-1" d="M803.45,45.89q-3.71,4.9-7.46,9.8t-7.53,9.73h15.07l1.11,9.65H774.2c-.2-1-.43-2.09-.71-3.15s-.53-2.12-.77-3.16l15.07-20H775.54l-1.41-9.73h28.73a1,1,0,0,0,0,.3,1.53,1.53,0,0,1,0,.3l.3,3.12c.1,1,.17,2.07.22,3.11"/><path class="cls-1" d="M819.49,65.35a7.35,7.35,0,0,0,2.93-.67,12.42,12.42,0,0,0,2.93-1.86V59.18h-5.27a3.84,3.84,0,0,0-2.75,1,3.26,3.26,0,0,0-1,2.42,2.5,2.5,0,0,0,.93,1.93,3.35,3.35,0,0,0,2.27.82m2.89-28.29c4.66,0,8.34,1.33,11.07,4a14,14,0,0,1,4.08,10.46V74.25h-5.64l-2.45-2.82A14.9,14.9,0,0,1,825,74a15.3,15.3,0,0,1-5.57,1q-6.75,0-10.06-3.34a11.94,11.94,0,0,1-3.3-8.76q0-5.79,3.86-8.58T820,51.61h5.27a4.45,4.45,0,0,0-1.6-3.12,5.29,5.29,0,0,0-3.45-1.11,20.15,20.15,0,0,0-4.79.67,28,28,0,0,0-4.71,1.55l-3.27-9.13a31.53,31.53,0,0,1,6.87-2.37,33.76,33.76,0,0,1,8-1"/><path class="cls-1" d="M597.91,97.75H595.6v6.57H598a4.48,4.48,0,0,0,2.71-.76,3.46,3.46,0,0,0,.11-5.06,4.83,4.83,0,0,0-2.88-.75m-6,16.49V94.63H598a10,10,0,0,1,5.48,1.46,5.29,5.29,0,0,1,2.28,4.83,5.44,5.44,0,0,1-2.45,4.92,10.15,10.15,0,0,1-5.57,1.57H595.6v6.83Z"/><path class="cls-1" d="M620,97.75h-2.31v6h2.37a5.18,5.18,0,0,0,2.76-.68,2.41,2.41,0,0,0,1.1-2.24,2.65,2.65,0,0,0-1-2.36,5,5,0,0,0-2.88-.72m5.36,16.49-4.15-7.49-.66,0h-2.86v7.44H614V94.63h6.15a9.85,9.85,0,0,1,5.47,1.47,5.05,5.05,0,0,1,2.28,4.56,5.2,5.2,0,0,1-.94,3.13,6.31,6.31,0,0,1-2.4,2l4.81,8.42Z"/><polygon class="cls-1" points="650.42 114.24 636.7 114.24 636.7 94.64 648.4 94.64 648.98 97.57 640.42 97.57 640.42 102.85 645.66 102.85 646.27 105.82 640.42 105.82 640.42 111.33 649.82 111.33 650.42 114.24"/><polygon class="cls-1" points="667.29 105.94 661.76 105.94 661.76 114.24 658.04 114.24 658.04 94.63 669.14 94.63 669.72 97.57 661.76 97.57 661.76 103.03 666.75 103.03 667.29 105.94"/><polygon class="cls-1" points="690.8 114.24 677.07 114.24 677.07 94.64 688.78 94.64 689.36 97.57 680.79 97.57 680.79 102.85 686.04 102.85 686.64 105.82 680.79 105.82 680.79 111.33 690.19 111.33 690.8 114.24"/><rect class="cls-1" x="698.42" y="94.63" width="3.72" height="19.61"/><polygon class="cls-1" points="709.34 94.63 725.2 94.63 725.81 97.58 719.09 97.58 719.09 114.24 715.31 114.24 715.31 97.58 709.34 97.58 709.34 94.63"/><path class="cls-1" d="M736.59,94.32v12.19a4.74,4.74,0,0,0,1.18,3.57,4.3,4.3,0,0,0,3.06,1.11A4.18,4.18,0,0,0,743.9,110a4.75,4.75,0,0,0,1.17-3.52V94.32h3.78V106.8a7.13,7.13,0,0,1-2.18,5.31,8.07,8.07,0,0,1-5.9,2.13,7.9,7.9,0,0,1-5.81-2.13,7.18,7.18,0,0,1-2.15-5.31V94.32Z"/><path class="cls-1" d="M764.19,97.75h-2.31v6h2.37a5.22,5.22,0,0,0,2.77-.68,2.43,2.43,0,0,0,1.09-2.24,2.65,2.65,0,0,0-1-2.36,5,5,0,0,0-2.88-.72m5.37,16.49-4.16-7.49-.66,0h-2.86v7.44h-3.72V94.63h6.15a9.9,9.9,0,0,1,5.48,1.47,5.07,5.07,0,0,1,2.27,4.56,5.27,5.27,0,0,1-.93,3.13,6.42,6.42,0,0,1-2.41,2l4.82,8.42Z"/><path class="cls-1" d="M787.76,99.77l-2.57,6.83h5.19Zm1.67-5.14L797,113.72l-3.75.52-1.76-4.61h-7.44l-1.73,4.61h-3.74l7.64-19.61Z"/><path class="cls-1" d="M511.71,69.39a.59.59,0,0,0-.65.17,1.5,1.5,0,0,1-.13.11,1.39,1.39,0,0,0-.67,1.28h0c-.52,0-1,0-1.55,0a.93.93,0,0,1-.39-.12,2.06,2.06,0,0,1-.89-2.58.59.59,0,0,0,0-.15l-.4,0a1.29,1.29,0,0,1,0-.34,3.6,3.6,0,0,0-.25-2.22,1.82,1.82,0,0,1,.09-1.71c.1-.2.23-.38.33-.58a1.28,1.28,0,0,0,.13-.39.36.36,0,0,0-.47-.38l-.22.09a2.1,2.1,0,0,1-2.32-.41,6.59,6.59,0,0,0-1.11-.79c-.59-.34-1.2-.62-1.81-.92l-.13-.09c0-.14.09-.19.16-.23,1-.58,1.95-1.17,2.93-1.73a4.19,4.19,0,0,1,1.75-.56c.59,0,1-.42.5-1.12-.12-.18-.25-.36-.36-.55a1.53,1.53,0,0,1-.24-1.08c.05-.34.14-.66.19-1s.07-.62.11-1a5.62,5.62,0,0,1,1.54.31,11.61,11.61,0,0,1,1.4.49c.48.19.93.43,1.38.65l.05-.07c-.13-.54-.23-1.09-.41-1.61a2.58,2.58,0,0,0-.47-.82,1.54,1.54,0,0,0-1.35-.63,2.66,2.66,0,0,1-1.43-.35,1.66,1.66,0,0,1-.78-.79c-.15-.35-.31-.69-.49-1.07l-.53-.15a2.3,2.3,0,0,1-1.29-.91,1.63,1.63,0,0,1-.31-1,.72.72,0,0,1,.48-.79.73.73,0,0,0,.48-.86c0-.08,0-.16,0-.23a.66.66,0,0,1,.6-.8,2.51,2.51,0,0,1,1.48.4.53.53,0,0,1,.17.24,8.56,8.56,0,0,0,2.07,3.44.62.62,0,0,1,0,.14,13,13,0,0,1-1.49.48l1.33.87a2.2,2.2,0,0,0,.26.15.34.34,0,0,0,.42-.12.29.29,0,0,0,0-.33c-.06-.11-.13-.21-.18-.32a1.72,1.72,0,0,1-.21-1,3.34,3.34,0,0,0-.05-.83,1.23,1.23,0,0,0-.21-.41c-.22-.35-.48-.69-.69-1a4.86,4.86,0,0,1-.6-1.56,2.12,2.12,0,0,1,.7-2.1,1,1,0,0,1,1.31-.19l.21.11a.82.82,0,0,0,1,0,.89.89,0,0,1,.61-.17.61.61,0,0,1,.59.34,3.28,3.28,0,0,1,.24.73,4.5,4.5,0,0,1,0,1.27,7.11,7.11,0,0,0-2.41,2.85,1.93,1.93,0,0,0,.71.37l.28-.47A6.38,6.38,0,0,1,513.23,45a2.31,2.31,0,0,1,.89-.31.83.83,0,0,1,.91.43.59.59,0,0,1,.08.4c-.07.57,0,.82.55,1a.7.7,0,0,1,.46.76.88.88,0,0,1-.11.45,3.58,3.58,0,0,1-.5.66,3.09,3.09,0,0,0-.48.6,3.12,3.12,0,0,1-.64.76,7.21,7.21,0,0,1-1.22.85,2.19,2.19,0,0,0-1,1.25,6,6,0,0,0-.34,1.57.28.28,0,0,1,0,.09s0-.07,0-.1.14,0,.17-.12c.15-.32.3-.65.46-1a6.46,6.46,0,0,1,1.08-1.57,2.64,2.64,0,0,1,.29-.24l.28.56a3.72,3.72,0,0,0,1.41,1.65,1.87,1.87,0,0,1,.92,1.58c0,.28,0,.56.08.83a1,1,0,0,0,.09.34.39.39,0,0,0,.65.07,1.37,1.37,0,0,0,.13-.2,2.22,2.22,0,0,1,.82-.76,2,2,0,0,1,1.44-.25,6.62,6.62,0,0,0,2.13,0c.52,0,1-.12,1.54-.19h.27a1.61,1.61,0,0,1-.07.31c-.55,1.1-1.08,2.21-1.66,3.31a4.57,4.57,0,0,1-1.2,1.47,1.29,1.29,0,0,0-.17.16.6.6,0,0,0,.16,1.06,4.59,4.59,0,0,0,.6.27,2,2,0,0,1,1.25,1.27c.19.54.45,1.06.68,1.59a5.64,5.64,0,0,1-1.9.74c-.65.17-1.31.29-2,.44-.06.12,0,.19.07.27a3.9,3.9,0,0,0,1.82,1.41A2,2,0,0,1,522.49,68c.07.23.12.46.21.68a1,1,0,0,0,.2.36.38.38,0,0,0,.64-.11,2,2,0,0,0,.09-.22,2.31,2.31,0,0,1,1-1.21,1.38,1.38,0,0,1,.78-.26,8.4,8.4,0,0,0,2.62-.55l1.5-.52a4,4,0,0,1-.06.55c-.26,1.07-.51,2.13-.79,3.19a5.79,5.79,0,0,1-1,2,1.07,1.07,0,0,0-.13.19.59.59,0,0,0,.34.95,4,4,0,0,0,.58.13l.47.1a1.77,1.77,0,0,1,1.1.77,8.62,8.62,0,0,0,1.21,1.58,3.31,3.31,0,0,1-.34.27,13.56,13.56,0,0,1-3.5,1.77,5.5,5.5,0,0,1-2.17.31A2.58,2.58,0,0,1,523,76.38s0-.07,0-.15.26,0,.39,0a10.42,10.42,0,0,0,3.2.19c.12,0,.24,0,.35-.06a.3.3,0,0,0,.19-.34.29.29,0,0,0-.23-.24,2.57,2.57,0,0,0-.48,0,10.47,10.47,0,0,1-3.48-.35l-.23-.08s0,0-.1-.11l.42-.49a54.59,54.59,0,0,0,3.55-4.34,3.48,3.48,0,0,0,.28-.39.31.31,0,0,0-.08-.42.34.34,0,0,0-.44,0,2.85,2.85,0,0,0-.25.33c-1.06,1.46-2.22,2.86-3.42,4.21l-.38.38s0,0-.1,0l-.18-.34a19.27,19.27,0,0,1-1.16-3.13,1.58,1.58,0,0,0-.15-.38.25.25,0,0,0-.3-.13.33.33,0,0,0-.25.3,3.12,3.12,0,0,0,.11.53,29.72,29.72,0,0,0,1.06,2.91c.73,1.8,1.63,3.53,2.26,5.38a.86.86,0,0,0,.48.57,1.91,1.91,0,0,1,.34.24,1.11,1.11,0,0,1,.54,1,8.07,8.07,0,0,0,.15,1.48c-.16.15-.39.34-.59.55a.88.88,0,0,0-.13,1.19.55.55,0,0,0-.48-.2,6.61,6.61,0,0,0-.89,0c-.33,0-.66,0-1,0a2.2,2.2,0,0,1-.62-.19l-1-.31a47.86,47.86,0,0,0-4.83-1.31,1.42,1.42,0,0,0-.35,0,.26.26,0,0,0-.24.23.26.26,0,0,0,.14.3,2.67,2.67,0,0,0,.4.13c.69.17,1.4.3,2.08.5,1.39.41,2.78.86,4.16,1.27a.38.38,0,0,1,.31.39l1.12-.21a6.71,6.71,0,0,0,1.17-.11c0-.18,0-.34,0-.5l.58.53a3.54,3.54,0,0,0-.51.22,3.42,3.42,0,0,0-.52.4.36.36,0,0,0-.06.44,5.51,5.51,0,0,0,.36.68.87.87,0,0,0,1.08.4l.22-.07c.19.09.18.26.19.42.09.76.29,1.52.31,2.29,0,.06,0,.11.07.17v0c0,.4,0,.79,0,1.19a32.64,32.64,0,0,1,.07,3.28c0,.15,0,.3,0,.55l.63-.65c.19-.19.37-.37.56-.54s.42-.37.64-.54.45-.33.68-.49.44-.28.66-.4.49-.26.75-.38a5.66,5.66,0,0,1,.72-.28c.26-.09.53-.14.85-.22,0,.17,0,.28,0,.39a6.6,6.6,0,0,0-.06,1.54,4.25,4.25,0,0,0,.4,1.37,1.86,1.86,0,0,1,.08,1.56c-.13.35-.31.69-.47,1-.08.16-.18.31-.26.47a.38.38,0,0,0,.08.44.32.32,0,0,0,.47.1,2.84,2.84,0,0,1,1.74-.28,1.93,1.93,0,0,1,1.22.56,5.49,5.49,0,0,0,1.44,1c.69.36,1.39.69,2.08,1l.4.19a1.85,1.85,0,0,1-.2.2c-.26.18-.51.38-.79.54-.91.53-1.82,1.06-2.74,1.56a6,6,0,0,1-2.25.77,2.56,2.56,0,0,0-.46.11.54.54,0,0,0-.36.62,1.36,1.36,0,0,0,.23.54,3.25,3.25,0,0,1,.63,2.59c-.08.63-.13,1.26-.19,1.93a18.26,18.26,0,0,1-3.17-.82,2.53,2.53,0,0,0-.22.26,4.49,4.49,0,0,0-.84,2.69,1.73,1.73,0,0,1-.51,1.3,12.24,12.24,0,0,1-.93.83c-.14.12-.29.21-.43.33a.41.41,0,0,0-.12.48.37.37,0,0,0,.43.25,2.31,2.31,0,0,1,1.32.29,2.26,2.26,0,0,1,1.26,1.36,4.63,4.63,0,0,0,.73,1.3c.48.63,1,1.24,1.49,1.87l.29.37c-.14.17-.31.12-.46.16a2.7,2.7,0,0,1-.41.08c-1.19.1-2.37.22-3.56.3a5.91,5.91,0,0,1-2.25-.24,1.87,1.87,0,0,0-.46-.09.55.55,0,0,0-.62.44,2,2,0,0,0,0,.42c0,.15.06.31.08.47a2.91,2.91,0,0,1-.38,2l-.24.41c-.31.51-.61,1-.93,1.57a1.53,1.53,0,0,1-.26-.16,17.53,17.53,0,0,1-2.44-2.1,9.32,9.32,0,0,1-1.55-2,4.26,4.26,0,0,1-.57-1.74,2.83,2.83,0,0,1,.88-2.32s.07,0,.15,0c0,.15.06.3.08.45a9.53,9.53,0,0,0,.94,3.13,3.14,3.14,0,0,0,.18.31.31.31,0,0,0,.42.1.29.29,0,0,0,.14-.35c0-.14-.11-.26-.17-.39a7.48,7.48,0,0,1-.8-2.73c0-.38-.09-.75-.13-1.13a2.61,2.61,0,0,1,0-.28,1.09,1.09,0,0,1,.66.17c1.64.65,3.3,1.28,5,1.81l1.26.37a1,1,0,0,0,.35,0,.28.28,0,0,0,.23-.24.25.25,0,0,0-.12-.3,1.32,1.32,0,0,0-.39-.15,62.17,62.17,0,0,1-6.35-2.25l-.47-.21a1.62,1.62,0,0,1,.22-.35,20.66,20.66,0,0,1,3.47-3,.67.67,0,0,0,.19-.14.29.29,0,0,0,.07-.38.32.32,0,0,0-.41-.13,2.6,2.6,0,0,0-.36.21c-.48.35-1,.7-1.42,1.08s-.93.87-1.4,1.3c-.17.16-.3.37-.55.45-.09,0-.16.16-.23.26a48.78,48.78,0,0,1-5.36,6.55l-.29.35,1.75,1.17a17.11,17.11,0,0,1,1.6,1.2c0,.16-.16.12-.25.12-.68,0-1.35-.09-2-.09a20.21,20.21,0,0,0-5.2.55,6.62,6.62,0,0,0-1.54.55,4,4,0,0,0,.61.68c.2.22.41.43.61.66s.41.48.61.73.38.46.55.7.36.48.52.73.34.5.5.75.34.54.5.81.3.52.44.78.29.52.42.79.27.53.4.8.26.58.38.87.23.56.34.84a4.3,4.3,0,0,1,.27.91l-.54-.29a38.71,38.71,0,0,0-11.74-4.2,24.07,24.07,0,0,0-4.87-.39,17.77,17.77,0,0,0-4.47.67l-.68.19a.71.71,0,0,1,0-.55c.22-1.46.44-2.91.65-4.37,0-.13,0-.27,0-.43-.24,0-.37.15-.53.25a30.81,30.81,0,0,1-12.83,4.87,45.33,45.33,0,0,1-4.94.31,28.3,28.3,0,0,0-16.37,5.64c-.42.3-.82.63-1.22,1a.94.94,0,0,0-.16.23h-.12a28.63,28.63,0,0,0-6.09-4,29.14,29.14,0,0,0-8.35-2.59,28.8,28.8,0,0,0-4.16-.31,30.87,30.87,0,0,1-13.55-3.09,31.19,31.19,0,0,1-3.67-2.12l-.56-.35c.09,1,.26,1.88.38,2.78s.26,1.76.39,2.7a2.73,2.73,0,0,1-.38-.05,17,17,0,0,0-2.61-.59,19.12,19.12,0,0,0-4.47-.14,36.71,36.71,0,0,0-13.67,4.13l-1.16.62h-.09a2.21,2.21,0,0,1,.25-.84c.09-.28.21-.56.32-.83l.39-.87c.13-.27.26-.54.4-.8s.27-.54.41-.8l.45-.77c.16-.28.33-.55.5-.82s.32-.5.49-.75l.52-.72c.18-.24.36-.48.55-.71s.41-.49.62-.73l.61-.66a6.08,6.08,0,0,0,.63-.68c-.18-.08-.31-.16-.45-.21a13.08,13.08,0,0,0-3-.72,25.43,25.43,0,0,0-5-.11,1.23,1.23,0,0,1-.62,0,3.48,3.48,0,0,1,.62-.51c.2-.16.41-.31.62-.46a2.41,2.41,0,0,0,.58-.53l-.32,0a13.37,13.37,0,0,1-2.36.3,12,12,0,0,1-5.92-1.39,21.08,21.08,0,0,1-3-2,24.15,24.15,0,0,1-3.95-3.54,11.58,11.58,0,0,1-1.47-2c-.08-.14-.13-.28-.2-.43s.11,0,.12,0A19.28,19.28,0,0,0,386,116.7c1.5.41,3,.79,4.5,1.19.54.15,1.07.31,1.6.48a15,15,0,0,1,3.37,1.51c1.05.64,2.08,1.31,3.13,2a4.11,4.11,0,0,0,.39.24c.12-.11,0-.16,0-.2l-2.44-2.29a2.85,2.85,0,0,0-.49-.34,18.1,18.1,0,0,0-4.59-2L387,116.11a27.74,27.74,0,0,1-3.68-1.2,13.72,13.72,0,0,1-2.72-1.47l-.33-.29.54-.06.47-.07,3.13-.44a27,27,0,0,1,4.39-.39c.52,0,1,.07,1.55.11l.34,0a1.36,1.36,0,0,0-.06-.24,36.18,36.18,0,0,1-1.91-3.65,2.11,2.11,0,0,0-.15-.23c-.11.2,0,.39-.1.55a.65.65,0,0,1-.51,0,10.37,10.37,0,0,1-3.32-1.13,14.69,14.69,0,0,1-3.07-2.25c-.91-.89-1.79-1.81-2.68-2.72s-1.75-1.85-2.65-2.76a19.54,19.54,0,0,0-2.48-2.14,14.61,14.61,0,0,0-2.67-1.57l-.32-.16s0,0,0-.09a5.14,5.14,0,0,1,1-.16,17.73,17.73,0,0,1,7.49,1.14A17.09,17.09,0,0,1,384,99.61a12.86,12.86,0,0,1,2.33,2.39l.29.36c0-.65-.21-1.17-.28-1.7s-.18-1.11-.24-1.66-.11-1.15-.14-1.72-.07-1.12-.08-1.67,0-1.11,0-1.78c-.26.32-.21.66-.43.92a3.88,3.88,0,0,1-.36-.15,10.51,10.51,0,0,1-3-2.44,15.77,15.77,0,0,1-2.13-3.3c-.54-1.09-1-2.2-1.54-3.3s-1.07-2.4-1.65-3.58a16.71,16.71,0,0,0-3-4.35l-.54-.55s0,0,0-.1c.21,0,.42.07.62.12A15.77,15.77,0,0,1,378.16,79a18.27,18.27,0,0,1,5.59,5.13A12.7,12.7,0,0,1,385.9,89c.09.45.15.9.23,1.44.05-.17.08-.26.1-.35s0-.23.07-.35a42.78,42.78,0,0,1,1.85-7.58l.17-.51-.25,0c-.14-.6-.26-1.2-.42-1.79-.28-1.08-.58-2.15-.9-3.22a15.91,15.91,0,0,0-1.57-3.34c-.63-1.06-1.29-2.1-1.94-3.15a36.28,36.28,0,0,1-2.12-3.74,14,14,0,0,1-1.07-3c0-.15,0-.31-.07-.52l.26.13c1.07.76,2.14,1.51,3.21,2.28.72.52,1.46,1,2.15,1.6a18.21,18.21,0,0,1,1.58,1.46,8.65,8.65,0,0,1,2.12,4,12.77,12.77,0,0,1,0,6.44l-.12.51.05,0a.07.07,0,0,0,.05,0c1-1.68,1.86-3.42,2.7-5.18a44.56,44.56,0,0,0,2.18-5.36c.14-.43.26-.88.38-1.32a.47.47,0,0,0,0-.2l-.43-.18a6.47,6.47,0,0,1-2.59-1.86,10.89,10.89,0,0,1-1.61-2.57c-.39-.83-.73-1.68-1.1-2.51s-.79-1.79-1.23-2.66a10.44,10.44,0,0,0-2.06-2.83l-.63-.55-.24-.26a4.23,4.23,0,0,1,1,.14,8,8,0,0,1,2.06.78,13.39,13.39,0,0,1,6.64,7.94c.14.45.21.93.32,1.39l.07.25c.07-.07.12-.1.14-.15s.07-.27.13-.39a3.6,3.6,0,0,0,.33-2c-.06-.81-.15-1.62-.22-2.43a1.09,1.09,0,0,0-.09-.25,1.64,1.64,0,0,0-.5.17.85.85,0,0,1-.89-.17,4.07,4.07,0,0,1-.55-.63,11.66,11.66,0,0,1-.59-1L391.87,56s0-.07,0-.14a18,18,0,0,0,1.76,1.71c0-.19,0-.25-.07-.29l-1.5-2.08c-.35-.47-.7-.92-1.06-1.37a3.14,3.14,0,0,0-1.22-.94c-.36-.16-.73-.32-1.08-.51a4.65,4.65,0,0,1-.83-.56,2.09,2.09,0,0,1-.48-2.36,1.31,1.31,0,0,1,.24-.34l.27-.31-.45-.09-.38,0c0,.48-.06,1-.14,1.42a9.34,9.34,0,0,1-.32,1.39,4.9,4.9,0,0,1-.56,1.35,4.54,4.54,0,0,1-1.37-1.39,3.57,3.57,0,0,1-.55-1.77.2.2,0,0,0-.29,0,1.37,1.37,0,0,0-.18.16,3.38,3.38,0,0,1-2.28.91,8.88,8.88,0,0,1-.89,0,2.22,2.22,0,0,1-.36-.1,5.43,5.43,0,0,1,.53-2,2.09,2.09,0,0,1,1.15-1,3.15,3.15,0,0,0,.77-.32A1.55,1.55,0,0,0,382,47a6.54,6.54,0,0,1-1.32-.8,3.34,3.34,0,0,1-1.15-1.91,1.1,1.1,0,0,1,0-.18s0-.07,0-.16a4.33,4.33,0,0,1,1.44-.14,4,4,0,0,1,2.79,1,3.48,3.48,0,0,0,.14-.49,3.88,3.88,0,0,1,.7-1.69,11.38,11.38,0,0,1,2.53-2.41,2.37,2.37,0,0,1,.19.31,6.34,6.34,0,0,1,.24,4.27c0,.17-.09.35-.14.52a1.1,1.1,0,0,0,0,.16,7.17,7.17,0,0,1,2.89.57c.49.26,1,.58,1.41.88a2,2,0,0,1,.31.28,4.64,4.64,0,0,1-2.9,1.52,1.47,1.47,0,0,0,.11.22,4.71,4.71,0,0,1,.85,1.36c.23.53.45,1.06.64,1.61a5.84,5.84,0,0,0,1,1.77c.51.64,1,1.26,1.57,1.88.32.38.65.74,1,1.15,0-.11.09-.19.07-.25a3,3,0,0,0-.24-.47c-.18-.31-.37-.61-.59-.95.31.11.31.11.67.48.19.2.4.39.59.59l.55.6s.1,0,.12-.07c.43-.74.85-1.48,1.29-2.22,0,0,.06,0,.09-.06h0c0,.19-.05.39-.09.58-.1.39-.21.77-.32,1.15a1.16,1.16,0,0,0,0,.62c.05,0,.11-.07.11-.1.34-1.33.78-2.64,1-4a5.14,5.14,0,0,0,0-1.24c-.05-.56-.16-1.1-.25-1.67a1.44,1.44,0,0,0-1-.18,4.08,4.08,0,0,1-1.48,0,3.13,3.13,0,0,1-1.93-1,1.82,1.82,0,0,1,.22-.29c.43-.35.86-.71,1.31-1a3.67,3.67,0,0,1,1.66-.64.86.86,0,0,0,.23-.05.39.39,0,0,0,.25-.42.86.86,0,0,0-.06-.23,5.39,5.39,0,0,1-.28-3.22c.08-.47.21-.93.32-1.4a2.9,2.9,0,0,1,.14-.36c.14.06.27.11.38.17A6.5,6.5,0,0,1,399.62,44a4.37,4.37,0,0,0,.25.48.34.34,0,0,0,.47.1,4.34,4.34,0,0,0,.46-.28,6.05,6.05,0,0,1,3.75-.93l.13,0a.55.55,0,0,1,0,.22,4.68,4.68,0,0,1-2,3.27l-.55.36c-.36.26-.4.43-.13.79a8,8,0,0,1,1.32,2.78,3,3,0,0,1,.09.41,1.33,1.33,0,0,1,0,.2,2.93,2.93,0,0,1-1.18,0,5,5,0,0,1-1.08-.32,9.26,9.26,0,0,1-1-.58l-.06,0a8.65,8.65,0,0,0-1.34,2.24c-.26.73-.52,1.47-.77,2.2-.17.51-.33,1-.5,1.53,0,.13-.08.26-.13.45.14,0,.23,0,.27-.06a4.25,4.25,0,0,0,.27-.46c.13-.25.24-.5.37-.75a2.26,2.26,0,0,1,.2-.27,12,12,0,0,1-.51,2.26,3.13,3.13,0,0,1-.34.62,1.2,1.2,0,0,1-1.58.43c-.18-.07-.35-.17-.53-.26-.25.09-.3.25-.25.51.12.55.21,1.1.31,1.64,0,.24.06.48.09.71s.06.39.1.67a3.84,3.84,0,0,0,.31-.34,12.07,12.07,0,0,1,2.23-2.23A8.48,8.48,0,0,1,401.38,58c.61-.17,1.23-.31,1.85-.45a10.38,10.38,0,0,0,3.46-1.42L407,56l-.2.38a11.36,11.36,0,0,1-1.85,2.18c-.76.7-1.55,1.37-2.36,2-1,.79-2,1.54-3,2.33A20.56,20.56,0,0,0,397.26,65a10.69,10.69,0,0,0-1.78,2.53,3.13,3.13,0,0,0-.27.72A35.77,35.77,0,0,1,393,74.56a1.29,1.29,0,0,0-.2.57,1.25,1.25,0,0,0,.49-.37,8.76,8.76,0,0,1,2.51-1.7,12.56,12.56,0,0,1,2.16-.67,30.13,30.13,0,0,1,3.54-.49c1.31-.13,2.62-.2,3.91-.45a1.72,1.72,0,0,1,.23,0c-.07.13-.12.23-.18.32a12.71,12.71,0,0,1-2.17,2,21.63,21.63,0,0,1-2.76,1.78c-1,.58-2.06,1.12-3.08,1.69-.68.38-1.36.77-2,1.16a16.34,16.34,0,0,0-3.36,2.66c-.82.84-1.62,1.71-2.42,2.56l-.24.25c-.17-.08-.11-.21-.12-.32v-.36c-.18,0-.18.22-.21.35a34.22,34.22,0,0,0-.93,3.88,33.45,33.45,0,0,0-.56,6.24,30.47,30.47,0,0,0,3.2,13.47,2.14,2.14,0,0,0,.2.32c.13-.06.1-.15.1-.22a7.9,7.9,0,0,1,1-3.71,14,14,0,0,1,3-3.84c.91-.83,1.87-1.61,2.82-2.39s2.16-1.76,3.24-2.64l.19-.13c.09.17,0,.29-.08.41-.38.74-.72,1.51-1.16,2.21-.85,1.37-1.76,2.7-2.64,4s-1.59,2.44-2.34,3.68a17,17,0,0,0-1.66,3.63,12.75,12.75,0,0,0-.48,2,.66.66,0,0,0,.12.56l.41.58s.07,0,.13.06a3.14,3.14,0,0,0,.08-.4,11.91,11.91,0,0,1,1.06-4,22,22,0,0,1,1.8-3.3c.88-1.35,1.78-2.68,2.68-4a37.39,37.39,0,0,0,2.37-3.94l.39-.78c.17,0,.13.17.13.25,0,.7,0,1.4,0,2.09,0,1.4,0,2.79,0,4.18a18.53,18.53,0,0,1-.24,3.33,9.44,9.44,0,0,1-.85,2.6,7.26,7.26,0,0,1-3.52,3.44,10.78,10.78,0,0,1-2.85.85,4.62,4.62,0,0,0-.74.15,25.73,25.73,0,0,0,3.21,4,12.69,12.69,0,0,0,1.47,1.46c0-.34.07-.61.11-.88a12.6,12.6,0,0,1,1.3-3.88,34,34,0,0,1,1.83-3c.65-1,1.29-2,1.93-3,.05-.08.11-.15.21-.28a1.39,1.39,0,0,1,0,.7c-.17.86-.31,1.72-.53,2.57-.36,1.43-.77,2.84-1.16,4.26a25.25,25.25,0,0,0-.73,3.56,12.53,12.53,0,0,0-.05,2.45.47.47,0,0,0,0,.17.25.25,0,0,0,.35.21c.15-.06.28-.14.43-.21s0-.21,0-.31a13.66,13.66,0,0,1,.43-4.32c.37-1.47.77-2.92,1.17-4.38a28.22,28.22,0,0,0,.91-4.25.67.67,0,0,1,.06-.16,2,2,0,0,1,.16.25c.74,1.76,1.48,3.53,2.21,5.29a8.7,8.7,0,0,1,.32.9,6.58,6.58,0,0,1-.21,4.44l-.25.59c.73-.14,1.38-.37,2.08-.51a3.41,3.41,0,0,0,.05-.42v-4.12a1.9,1.9,0,0,0-.16-.75,29.12,29.12,0,0,1-1.58-5.25,31.79,31.79,0,0,1-.6-7.54c.06-1.47.15-2.94.33-4.4a50.05,50.05,0,0,1,3.69-13.67A45.41,45.41,0,0,0,414,71.19a43.66,43.66,0,0,0,.58-8.15,47.18,47.18,0,0,0-7.52-24.57,2.21,2.21,0,0,1-.36-.64c.11-.12.21-.24.32-.35l3.31-3.28,7.9-7.88c2.58-2.57,5.17-5.13,7.74-7.71a1.14,1.14,0,0,1,.9-.36h58.56c.89,0,.62-.1,1.24.51l9.18,9.14,8.64,8.59c.33.34.68.67,1,1l.29.34c-.09.15-.17.31-.27.46a47.06,47.06,0,0,0-5.7,12.49,49.39,49.39,0,0,0-1.53,7.54,48.36,48.36,0,0,0-.3,8.16,45.79,45.79,0,0,0,2.05,11.61,9.33,9.33,0,0,0,.53,1.32,46.79,46.79,0,0,1,4.22,12.76,48.51,48.51,0,0,1,.8,9.62,30.15,30.15,0,0,1-2.15,10.65,2.68,2.68,0,0,0-.21,1c0,.8,0,1.59,0,2.39,0,0,0,.08,0,.16a1,1,0,0,0,.26,0,3,3,0,0,0,1.11-.79,2.28,2.28,0,0,1,2.11-.72l.77.09a1.43,1.43,0,0,0,.29,0,.39.39,0,0,0,.25-.64c-.06-.07-.15-.13-.22-.2a2.88,2.88,0,0,1-.76-2,1.71,1.71,0,0,1,.14-.64,7.57,7.57,0,0,0,.53-2.44c.06-.61.1-1.22.15-1.88.11,0,.21.06.29.1s.43.28.63.44c.85.67,1.69,1.33,2.52,2a5.65,5.65,0,0,1,1.45,1.73l.09.15c.35.52.75.53,1.16,0,.1-.13.18-.26.27-.39a2.7,2.7,0,0,1,1.46-1.09l.34-.1,1.93-.55a2.78,2.78,0,0,1,.17.83c.07.31.09.63.13,1s0,.59,0,.89a7,7,0,0,0,.06.9,14.35,14.35,0,0,0,2-3.14,37.22,37.22,0,0,0,4-11.58,3.42,3.42,0,0,1-1.06,1.41c-.16-.08-.12-.21-.13-.32a9.85,9.85,0,0,0-.66-3.31c-.06-.13-.11-.26-.18-.38a.31.31,0,0,0-.37-.12.3.3,0,0,0-.19.33,4,4,0,0,0,.16.45,10.56,10.56,0,0,1,.55,4.18c-.26,0-.43-.12-.62-.21-1.2-.57-2.4-1.17-3.61-1.73-.73-.34-1.5-.63-2.25-.94l-.45-.15a.3.3,0,0,0-.34.18.31.31,0,0,0,.1.38,1.87,1.87,0,0,0,.32.15,61.45,61.45,0,0,1,6.07,2.77,1.15,1.15,0,0,1,.51.35,2.42,2.42,0,0,1-.25.31c-.63.51-1.26,1-1.92,1.51s-1.1.71-1.66,1.06c-.11.08-.24.14-.35.22a.31.31,0,0,0,.29.53,3.36,3.36,0,0,0,.43-.2,17.34,17.34,0,0,0,2.84-2,3.61,3.61,0,0,1,.6-.48,2.1,2.1,0,0,1,0,1.14,4.05,4.05,0,0,1-1.25,2.06,7.18,7.18,0,0,1-1.73,1.16,11.13,11.13,0,0,1-5.57,1,5.28,5.28,0,0,1-1.74-.38c0-.22.15-.32.25-.45a4.85,4.85,0,0,0,.94-1.85,4.54,4.54,0,0,0,.14-.82,1.75,1.75,0,0,1,.65-1.24c.3-.25.63-.47,1-.7.13-.09.28-.15.41-.24a.44.44,0,0,0,.2-.52.37.37,0,0,0-.4-.28,2.58,2.58,0,0,1-1.24-.38,2.29,2.29,0,0,1-1.18-1.5,4.61,4.61,0,0,0-.64-1.41c-.44-.69-.9-1.36-1.35-2-.07-.1-.12-.2-.22-.35.29,0,.52-.09.75-.09,1.28,0,2.55,0,3.82,0a5.67,5.67,0,0,1,2.15.45,1.35,1.35,0,0,0,.34.11.61.61,0,0,0,.81-.62,1.86,1.86,0,0,0,0-.47,3,3,0,0,1,.69-2.28c.28-.36.55-.74.81-1.11a2,2,0,0,0,.19-.35c-.18-.09-.26,0-.35.09a10.4,10.4,0,0,1-3.88,1.47,5.57,5.57,0,0,1-2.57,0,1.38,1.38,0,0,1,.08-.27,1.65,1.65,0,0,1,.14-.26,4.25,4.25,0,0,0,.59-2.46,1.92,1.92,0,0,1,.6-1.56c.22-.23.46-.43.7-.65a4,4,0,0,0,.31-.27.4.4,0,0,0,.08-.45.34.34,0,0,0-.38-.22,2.6,2.6,0,0,1-1.4-.23A2.12,2.12,0,0,1,512.82,85a4.13,4.13,0,0,0-.73-1.16c-.41-.48-.84-1-1.27-1.43-.18-.2-.38-.4-.56-.59,0-.18.17-.18.28-.2.72-.14,1.44-.27,2.17-.39.37-.07.74-.11,1.12-.17a7.32,7.32,0,0,1,2.72,0,1.57,1.57,0,0,0,.3.05.59.59,0,0,0,.69-.68,1.87,1.87,0,0,0-.09-.41,2.8,2.8,0,0,1,.28-2.19c.16-.3.33-.59.48-.9s.28-.6.43-.94a18.56,18.56,0,0,1,2.2,1.57,11.5,11.5,0,0,1,1.9,2,22.93,22.93,0,0,0-1.91-4.69,3.41,3.41,0,0,1-1.32-.62c-.35-.32-.67-.68-1-1l-.36.13a3.13,3.13,0,0,1-2.33,0c-.35-.15-.69-.32-1-.48s-.43-.33-.74-.33h.64a1.51,1.51,0,0,0,.8-.22.45.45,0,0,0,.23-.55l-.12-.64a.78.78,0,0,0-.76-.7l-.24,0a.2.2,0,0,1,0-.05s0,0,0,0h0a.69.69,0,0,0,.78,0,7.43,7.43,0,0,1,.73-.4c.33-.14.66-.25,1-.38l.29-.13-.63-1c0-.06-.1-.12-.14-.17s-.11,0-.12.07a1.28,1.28,0,0,1-.9.93,2.44,2.44,0,0,0-.48.25l-.43.27a.69.69,0,0,0-.61-.62c-.15,0-.3-.11-.45-.16a.88.88,0,0,0-1.14.57c-.06.16-.09.34-.15.55a1.08,1.08,0,0,1-.4-.5h0c.12-.06.1-.15.08-.25a5.19,5.19,0,0,1-.18-1.71,2.3,2.3,0,0,1,.93-1.8,1.73,1.73,0,0,1,1-.36.74.74,0,0,1,.75.37.86.86,0,0,0,.17.24.74.74,0,0,0,.84.18,19.25,19.25,0,0,0-.88-1.76h0s.14,0,.16,0,.17.27.25.41c.25.41.49.82.72,1.22.18,0,.34.08.49.13a.63.63,0,0,1,.48.61c0,.18,0,.36,0,.54a.9.9,0,0,0,0,.34c.18.31.38.61.57.91.08.11.12.25.31.31.08-.47.13-.93.22-1.39a12.35,12.35,0,0,1,.34-1.33c.15-.44.36-.87.55-1.33l-.39,0a9.46,9.46,0,0,1-1.07-.11,2.29,2.29,0,0,1-2.24-2.32l.59.25a10.22,10.22,0,0,0,2.81.78,1.87,1.87,0,0,0,.41,0,.27.27,0,0,0,.22-.26.28.28,0,0,0-.17-.29,1.87,1.87,0,0,0-.34-.08,10.13,10.13,0,0,1-3.39-1.09c-.1,0-.24-.06-.24-.26s.32-.25.5-.37q2.2-1.58,4.26-3.36a4.59,4.59,0,0,0,.39-.37.3.3,0,0,0-.39-.46c-.16.12-.31.25-.46.38-1.29,1.12-2.64,2.18-4,3.18l-.48.33a.38.38,0,0,1-.09-.13,1.31,1.31,0,0,1-.09-.28,21.3,21.3,0,0,1-.45-3.19c0-.14,0-.28,0-.41a.33.33,0,0,0-.31-.24.34.34,0,0,0-.28.27c0,.16,0,.32,0,.48a20.84,20.84,0,0,0,.43,3.13,4.92,4.92,0,0,1,.06.5,3.93,3.93,0,0,1-1.49-.82,1,1,0,0,1-.11-.2c-.12,0-.17-.06-.23-.15l-.51-.75c-.58,0-1.16.06-1.73.12-1.33.12-2.65.25-4,.39a1.17,1.17,0,0,0-.41.1.37.37,0,0,0-.16.22.26.26,0,0,0,.26.31c.3,0,.59,0,.89-.1,1.53-.22,3.08-.31,4.63-.41a1.8,1.8,0,0,1,.37,0c0,.17-.08.3-.12.43a16.49,16.49,0,0,1-1.21,2.59,2.78,2.78,0,0,0-.22.42.24.24,0,0,0,.11.3.26.26,0,0,0,.33,0,1.06,1.06,0,0,0,.22-.29c.28-.54.58-1.08.84-1.64.2-.41.36-.84.52-1.27a.41.41,0,0,1,.39-.3.94.94,0,0,0,0,.29,2.48,2.48,0,0,0,.18.31,3,3,0,0,1,.36,2.29,5.17,5.17,0,0,1-.82,1.84,7.88,7.88,0,0,1-1.6,1.76c-.09.09-.17.2-.26.3l.26.22a1,1,0,0,1,.51,1,3.29,3.29,0,0,0,.18,1.28l.51.17ZM471.05,96.22a.13.13,0,0,0,0,.06.08.08,0,0,0,0,0,.38.38,0,0,1,0-.1c.12,0,.23.09.3-.07a1.36,1.36,0,0,0,.29,0l.74-.23a3.79,3.79,0,0,1,2.4,0,11.74,11.74,0,0,0,1.33.33,1,1,0,0,0,.65,0c-.93-.27-1.77-.63-2.66-.83a2.47,2.47,0,0,0-.77,0,4.69,4.69,0,0,0-1.84.63c-.06,0-.08.12-.13.18l-.3,0m-52.6,6.15.39-.1c.46-.14.9-.31,1.36-.43a4.45,4.45,0,0,1,2.7,0,9.78,9.78,0,0,0,1.21.32,8.24,8.24,0,0,0,1.94.24l-.45-.11-2.89-.92a3.65,3.65,0,0,0-1.64-.15,6.49,6.49,0,0,0-2.49.94c-.06,0-.08.12-.12.18l-.15,0,0,0,.11-.09m27.34,21.13.51-.14c.48-.17,1-.36,1.46-.51a5.55,5.55,0,0,1,3.51,0,13.44,13.44,0,0,0,2,.47,4.4,4.4,0,0,0,1.48.13c-.61-.17-1.14-.3-1.67-.47l-2.15-.71a4,4,0,0,0-2.12-.14,7.87,7.87,0,0,0-2.83,1.19.9.9,0,0,0-.15.18l-.1,0s0,0,.05,0a.36.36,0,0,1,0-.09m33.27-29.76a2.52,2.52,0,0,1,.33-.24,20.25,20.25,0,0,1,4.54-1.6,10.1,10.1,0,0,1,5.53.16,27,27,0,0,0,5.35,1.18,8,8,0,0,0,2,0,17.44,17.44,0,0,1-4.11-1c-1.19-.38-2.38-.78-3.56-1.19a7.71,7.71,0,0,0-4.23-.25,15.48,15.48,0,0,0-5.72,2.6.69.69,0,0,0-.13.11,1.62,1.62,0,0,1,0,.19s-.05,0-.09-.06,0,0-.06,0,0,0,0,0l.1,0m-31.24,1,.07.05-.09,0a1.28,1.28,0,0,0-.25-.15c-.69-.3-1.38-.62-2.09-.88a23.49,23.49,0,0,0-7.9-1.62,13.34,13.34,0,0,0-3,.23l-5.37,1.16c-1.28.27-2.56.54-3.87.7l-.59.08a1.55,1.55,0,0,0-.6.1,2.85,2.85,0,0,0,.65,0c.91,0,1.83-.08,2.73-.18q3.21-.34,6.36-1a15.4,15.4,0,0,1,3.38-.35,28.38,28.38,0,0,1,4.86.48,46.07,46.07,0,0,1,5.15,1.27c.16,0,.34.06.52.1m-29.89,35.64H418l0,0-.09,0c0-.21-.16-.21-.26-.26a20.13,20.13,0,0,0-3.86-1.22,21.64,21.64,0,0,0-3.84-.45l-.69,0c0-.66,0-1.3,0-1.93v-3.88c0-.65,0-1.31,0-2s0-1.27,0-1.91a23.12,23.12,0,0,0-5.91,2,27.74,27.74,0,0,0-5.42,3.13l.37,0a21.9,21.9,0,0,1,3.79.35,10.13,10.13,0,0,1,3.37,1.15l.37.25-.52.46-.49.45-.46.46-.45.48-.43.5-.41.51-.4.52c-.12.16-.23.32-.34.49s-.25.36-.37.54l-.36.55c-.12.18-.23.37-.34.56l-.33.57c-.11.19-.21.38-.31.57l-.31.59c-.09.19-.2.38-.28.58a1.31,1.31,0,0,0-.21.64l.4-.18a38.23,38.23,0,0,1,11.27-3.54,23.74,23.74,0,0,1,3.86-.22c.88,0,1.75.1,2.62.19m19.13-81.09c-.57-.55-1.11-1-1.62-1.58a1.61,1.61,0,0,1-.29-.51c-.31-.88-.61-1.77-.92-2.65a2.06,2.06,0,0,1-.12-.7V41.13c0-.13,0-.26,0-.4l.37-.12c1.72-.41,3.45-.81,5.16-1.23a1.06,1.06,0,0,1,.9.13c.85.52,1.71,1,2.57,1.53.11.06.21.19.39.09.05-.79,0-1.58,0-2.36a41.68,41.68,0,0,1,6.09-.65l2,2.54a5.13,5.13,0,0,0,1.29-.12c0-.44,0-.88,0-1.32a5.67,5.67,0,0,1,.06-1.3,1.41,1.41,0,0,1,.25,0h5.43a1.77,1.77,0,0,1,.3.06c0,.2,0,.38,0,.55,0,.56,0,1.12,0,1.67a3.56,3.56,0,0,0,.05.43h1.29L462.46,38c1.93.11,3.82.35,5.71.58a1.58,1.58,0,0,1,.31.1c0,.2,0,.4,0,.6v1.61c0,.09,0,.2.14.26l.49-.28c.8-.48,1.61-.95,2.4-1.44a1,1,0,0,1,.79-.14l5.33,1.3a1.59,1.59,0,0,1,.27.12c0,.13,0,.25,0,.37,0,.92,0,1.83,0,2.75a2.12,2.12,0,0,1-.14.75c-.19.49-.35,1-.52,1.47a8.57,8.57,0,0,1-.55,1.44,8.58,8.58,0,0,1-1,1.24,2.13,2.13,0,0,1-.54.54c-.36,0-.69-.17-1.06-.16a1.43,1.43,0,0,0,0,.21q5.55,18,11.1,36.06L488,86c.29.34.37.76.64,1,.26,0,.5,0,.74,0a15.74,15.74,0,0,1,2.91.16,20.51,20.51,0,0,1,8.25,3.43.76.76,0,0,1,.35.53,40.69,40.69,0,0,1,.69,4.12c.13,1.18.23,2.37.3,3.56a29.54,29.54,0,0,1-.2,6,27.32,27.32,0,0,1-1.48,5.77c-.06.16-.11.33-.16.51a6.91,6.91,0,0,0,1.26.6c.05-.12.1-.21.14-.3a28.27,28.27,0,0,0,1.93-9.49,46.62,46.62,0,0,0-.8-9.86,45.54,45.54,0,0,0-3.67-11.26,18.74,18.74,0,0,1-1-2.6,47.32,47.32,0,0,1-2-12,45.83,45.83,0,0,1,.08-5.37,47.66,47.66,0,0,1,.9-6.62,48.28,48.28,0,0,1,6-15.37l.27-.48-.46-.48L485.55,20.81c-.56-.56-.37-.47-1.14-.47h-56.3c-.82,0-.6-.1-1.19.49q-5.22,5.22-10.43,10.43l-6.68,6.67a1.37,1.37,0,0,0-.42.5l.46.77a49.17,49.17,0,0,1,6.89,23.4,44.47,44.47,0,0,1-.72,9.63,46.35,46.35,0,0,1-3,10,48.41,48.41,0,0,0-2.45,7.29,47.73,47.73,0,0,0-1.35,8.9,33.76,33.76,0,0,0,.26,7,28.93,28.93,0,0,0,1.59,5.92c.05.12.12.23.19.37a6.37,6.37,0,0,0,1.24-.66l-.22-.58a27.28,27.28,0,0,1-1.58-7.09,33.84,33.84,0,0,1,0-4.83,48.9,48.9,0,0,1,.9-6.92c.11-.54.25-1.08.37-1.6a6,6,0,0,1,1.3-.38A85.89,85.89,0,0,1,422.36,88a.48.48,0,0,0,.42-.29c.17-.35.38-.7.54-1.06a.9.9,0,0,1,.71-.55c.94-.19,1.87-.4,2.8-.6l.52-.14c.07-.2.14-.39.2-.58q5-16.07,10-32.13c.34-1.1.69-2.2,1-3.3,0-.13.12-.26,0-.39l-1.48.27m65.42,78c0-.16,0-.24,0-.32q0-6.7,0-13.43a.14.14,0,0,0,0-.06s0,0-.07-.1l-.51-.3a43.56,43.56,0,0,0-4.24-2,77.05,77.05,0,0,0-15-4.42c-1.68-.33-3.36-.62-5.05-.88s-3.23-.46-4.85-.66c-1.38-.16-2.77-.29-4.15-.4-1.65-.13-3.3-.24-4.94-.34-1.24-.07-2.47-.09-3.7-.15-2.05-.1-4.1-.09-6.15,0-1.83,0-3.65.12-5.48.21q-2,.09-4.05.27c-1.76.16-3.52.34-5.28.55-1.58.18-3.16.4-4.73.64q-3.66.57-7.26,1.39a77,77,0,0,0-10.73,3.23,45.73,45.73,0,0,0-5.73,2.66c-.18.11-.41.17-.52.38-.07,1.51,0,13.2,0,13.76a2.13,2.13,0,0,0,.27-.08l.77-.34a100.77,100.77,0,0,1,16.11-5.53q4.79-1.2,9.64-2c1.92-.31,3.85-.56,5.79-.78q3.21-.34,6.42-.53c2.11-.13,4.21-.19,6.32-.19,3.05,0,6.09,0,9.13.25,2,.13,4,.3,6,.53q3.5.41,7,1c2.75.49,5.46,1.08,8.16,1.77A100.36,100.36,0,0,1,502,127c.14.07.29.12.5.2M444.2,42.07l-4.09.68c-.18,0-.35,0-.56.06a3.65,3.65,0,0,1-.05-.42c0-.6,0-1.2,0-1.8a1.72,1.72,0,0,0-.07-.34c-1.57.34-3.1.68-4.63,1.11,0,.39,0,.75,0,1.1a8.2,8.2,0,0,0,0,1.49,8.56,8.56,0,0,0,.55,1.51c.05.14.13.28.2.43l.5-.09c1.82-.33,3.63-.69,5.46-1s3.39-.44,5.09-.65c1.93-.23,3.88-.36,5.83-.42a85.23,85.23,0,0,1,9.72.18c2,.15,3.92.34,5.88.6,2.4.32,4.79.71,7.17,1.19.41.09.81.16,1.25.24.19-.47.36-.91.55-1.35a2.85,2.85,0,0,0,.28-1.38c0-.46,0-.92,0-1.37,0-.16,0-.32,0-.48a1.78,1.78,0,0,0-.23-.09q-2.08-.52-4.17-1a1.68,1.68,0,0,0-.31,0c0,.44,0,.83,0,1.23a5.6,5.6,0,0,1-.06,1.28l-4.6-.77c-.11-.87,0-1.73-.08-2.56a20.58,20.58,0,0,0-3.67-.5,3.1,3.1,0,0,0-1,0c0,.21,0,.39,0,.56,0,.56,0,1.12,0,1.67a2.11,2.11,0,0,1-.05.35,11.52,11.52,0,0,1-1.57-.06l-1.5,0a11.91,11.91,0,0,1-1.56-.08c0-.21,0-.38,0-.56,0-.56,0-1.11,0-1.67,0-.13,0-.26,0-.38a32.78,32.78,0,0,0-4.65,0c-.09.85,0,1.73-.07,2.58a.76.76,0,0,1-.19.07l-4.18.18-.22,0A1.13,1.13,0,0,1,449,41c0-.56,0-1.12,0-1.67a2,2,0,0,0-.08-.36c-1.55.12-3.07.28-4.61.51-.08.87,0,1.73-.06,2.64m-23.67,81.86c.25.19.39.32.55.43a28.74,28.74,0,0,0,6.54,3.54,29.08,29.08,0,0,0,6.82,1.68,33.4,33.4,0,0,0,3.75.2,29.59,29.59,0,0,1,6.21.73,30.54,30.54,0,0,1,11.46,5.26l.44.29a4.85,4.85,0,0,0,.41-.29,30,30,0,0,1,17.78-6,34,34,0,0,0,4-.26,28.45,28.45,0,0,0,6.68-1.74,28.87,28.87,0,0,0,6.21-3.41c.15-.11.34-.19.44-.44l-1.56-.49-.16.07-.35.23a26.84,26.84,0,0,1-15.13,4.58,30.51,30.51,0,0,0-6.11.61A31.57,31.57,0,0,0,456.68,134l-.4.26-.51-.34a31.92,31.92,0,0,0-18.19-5.61,26,26,0,0,1-4.57-.41,26.85,26.85,0,0,1-10.22-4.11l-.6-.39-1.66.53M438,87.52c.63.06,1.1.09,1.57.15,1.23.13,2.46.26,3.68.42s2.6.36,3.9.54,2.63.37,3.95.54c1.13.15,2.25.29,3.38.42s2,.22,3,.3,2.07.14,3.1.19c.48,0,1,0,1.43,0,1.08,0,2.15.09,3.22.09,1.77,0,3.54-.08,5.3-.24,1.41-.13,2.82-.29,4.2-.54,2-.36,3.9-.77,5.85-1.17,0,0,.08-.05.15-.08s-.12-.1-.17-.11A150.8,150.8,0,0,0,455,86.33a148.29,148.29,0,0,0-17,1.19m56.44,42.84.76-.08c.86-.05,1.71-.14,2.56-.13a27.79,27.79,0,0,1,6.84.95,40.51,40.51,0,0,1,7.53,2.78c.15.07.29.21.52.16a7.88,7.88,0,0,0-.62-1.35c-.22-.44-.46-.88-.71-1.31s-.51-.85-.78-1.27-.56-.82-.86-1.22-.61-.79-.93-1.16-.69-.72-1-1.09a14.91,14.91,0,0,1-1.07-1,6.31,6.31,0,0,1,1.5-.78,14.42,14.42,0,0,1,3.95-.83c.74-.06,1.47-.08,2.21-.12.06,0,.12-.05.23-.09-.21-.14-.35-.25-.5-.34a41.06,41.06,0,0,0-5.5-3,30.42,30.42,0,0,0-4.72-1.67.77.77,0,0,0-.54,0,2,2,0,0,0-.05.26v8.72a1.28,1.28,0,0,1-.08.66,25.3,25.3,0,0,0-4.43.45,15.87,15.87,0,0,0-4.29,1.5M429.39,81.78c.12,0,.16.06.19,0q6-1,12.06-1.58l.05,0,0,0a25.3,25.3,0,0,0,.39-3.41s-.07,0-.1,0c-3.7.35-7.38.88-11,1.53-.17,0-.34.09-.54.14-.35,1.12-.7,2.23-1.05,3.38m52.77-3.51c-1.86-.37-3.68-.68-5.51-.93s-3.86-.47-5.8-.69h-.17l-.06,0-.07.06c.13,1.12.24,2.26.43,3.41.83.15,1.65.17,2.45.26l2.49.29c.81.1,1.61.2,2.42.32s1.65.24,2.48.36,1.59.31,2.47.39c-.38-1.19-.73-2.32-1.13-3.48m-45.19-5a.23.23,0,0,0-.07.1c-.19,1-.37,2-.55,3a1.24,1.24,0,0,0,0,.32c3.46-.52,6.89-.86,10.33-1.17l.06,0,.08-.08c0-.49.12-1,.13-1.55a6.45,6.45,0,0,0,.08-1.58,87.47,87.47,0,0,0-10.08,1m-4.05-3.37c-.31,1-.61,2-.91,3a.13.13,0,0,0,0,.06s0,0,.11.09c3.56-.63,7.2-1.09,10.88-1.42a8.25,8.25,0,0,0,.24-1.61,5.8,5.8,0,0,0,.13-1.63c-3.52.34-7,.83-10.46,1.49m32.7,2.26c0,.26,0,.44,0,.61.07.75.13,1.5.21,2.25a2.79,2.79,0,0,0,.06.33,1.31,1.31,0,0,0,.22,0l4.15.35c1.94.18,3.87.42,5.8.7a2,2,0,0,0,.32,0c-.11-.58-.19-1.13-.31-1.67a8,8,0,0,0-.36-1.64c-3.33-.45-6.67-.77-10.09-1m4-.61c3.64.33,7.22.76,10.77,1.43h.24l.05,0a25.25,25.25,0,0,0-1.08-3.08,72.35,72.35,0,0,0-10.32-1.46c0,.13,0,.27,0,.4.11.9.22,1.81.34,2.75M440.32,61c1.24-.13,2.38-.33,3.52-.44l3.38-.35,3.42-.28a12.65,12.65,0,0,0,.18-2.55,4.49,4.49,0,0,0-.82,0l-2.55.19c-2.09.13-4.16.36-6.23.62-.13,0-.26.07-.4.1-.16.89-.32,1.75-.5,2.71m4.25,2.78c.06-.44.12-.89.17-1.35a6.65,6.65,0,0,0,.13-1.44c-3.19.3-6.31.75-9.43,1.34-.28.93-.6,1.82-.84,2.74.07,0,.11,0,.14,0,3.2-.51,6.41-1,9.64-1.25a.48.48,0,0,0,.19-.08m32.58-1.52a3,3,0,0,0-.32-.1c-.73-.13-1.45-.27-2.17-.38-1.3-.2-2.59-.38-3.89-.56-.79-.11-1.58-.19-2.37-.27a.75.75,0,0,0-.57,0,11.14,11.14,0,0,0,.4,2.77l1.94.19c.65.06,1.3.14,1.95.22l2,.26c.65.1,1.29.22,1.94.3A17.59,17.59,0,0,0,478,65a14.27,14.27,0,0,0-.85-2.76m-38,3-.51,2.82s0,.1.07.19q4.28-.61,8.57-1a1.41,1.41,0,0,0,.22-.06,1.26,1.26,0,0,0,.11-.65,3.11,3.11,0,0,1,.38-1.43l.27-.53a1.74,1.74,0,0,0,.05-.22,72.38,72.38,0,0,0-9.16.85M462,59.8a1.91,1.91,0,0,0,.26.05c.68,0,1.35.07,2,.13,1.09.08,2.18.15,3.27.27,1.44.16,2.88.36,4.32.53a2.54,2.54,0,0,0,.39,0,12.35,12.35,0,0,0-.51-2.64c-2.9-.41-5.85-.65-8.81-.8a4.28,4.28,0,0,0-1.18,0c.14.83.08,1.64.23,2.44m63.71,42.39a.72.72,0,0,1,.09-.52c.11-.32.24-.63.36-1a16,16,0,0,1,1.44-3c0-.08.11-.17.15-.25a.32.32,0,0,0-.11-.42.3.3,0,0,0-.38,0,2.14,2.14,0,0,0-.28.39,16,16,0,0,0-1.45,3.07,4.39,4.39,0,0,0-.13.52,38,38,0,0,1-1.43,5.11q-.68,1.88-1.53,3.69c-.06.11-.18.23-.06.4l.26-.11c.3-.14.6-.3.92-.43a11,11,0,0,1,4.17-.88c.13,0,.28.05.39-.12-.15-.09-.29-.16-.41-.25-.37-.24-.73-.48-1.08-.75a3.3,3.3,0,0,1-.9-1,2.8,2.8,0,0,1-.14-2.64,1.23,1.23,0,0,1,.38.49,9.56,9.56,0,0,0,2.15,2.38,2.56,2.56,0,0,0,.35.22.29.29,0,0,0,.35-.15.27.27,0,0,0,0-.33.91.91,0,0,0-.17-.17l-.42-.34a10.1,10.1,0,0,1-2.3-3.09s0-.07,0-.14l.38-.05c1.25-.09,2.5-.16,3.75-.27,1-.1,2-.25,3-.38a1.35,1.35,0,0,0,.34-.11.26.26,0,0,0,.14-.3.28.28,0,0,0-.22-.25,1.09,1.09,0,0,0-.36,0,61.66,61.66,0,0,1-6.64.65,1.3,1.3,0,0,1-.65,0M464.32,64.3a5.2,5.2,0,0,0,.24.52,4.06,4.06,0,0,1,.57,2,1.39,1.39,0,0,0,.08.36c2.91.21,5.79.51,8.66.92a.45.45,0,0,0,.16,0,15.1,15.1,0,0,0-.56-2.92c-2.92-.42-5.87-.66-8.82-.85a2.13,2.13,0,0,0-.33,0m-8.24-10.39a68.89,68.89,0,0,0-9.51.49c-.09.8-.23,1.61-.27,2.42.08,0,.11.07.15.06,3.15-.19,6.3-.38,9.45-.4a.75.75,0,0,0,.16,0,10.57,10.57,0,0,0,0-2.53m0-7.1a61.21,61.21,0,0,0-8.57.62,1.38,1.38,0,0,0-.08.25c-.1.77-.2,1.54-.29,2.31,0,0,0,.07,0,.12a.94.94,0,0,0,.16,0c2.91-.28,5.82-.38,8.73-.46a12.56,12.56,0,0,0,0-2.88m-4.84,3.76a90.22,90.22,0,0,0-9.13.94c-.11.57-.22,1.11-.32,1.65-.06.29-.1.59-.15.88,0,0,0,.07.07.14l3.11-.38c1-.11,2.09-.19,3.14-.29s2.1-.11,3.14-.24a12.36,12.36,0,0,0,.14-2.7m5.46,3.33a10.7,10.7,0,0,0,0,1.26,4.3,4.3,0,0,0,.07,1.33c3.12,0,6.21.09,9.29.35h.3l.09-.07c-.05-.38-.07-.79-.14-1.2a5.79,5.79,0,0,0-.21-1.29c-3-.27-6-.41-8.94-.4a4,4,0,0,0-.44,0m-4.95-.67a2.35,2.35,0,0,0,.75,0c2.72-.13,5.44-.12,8.16,0a1.84,1.84,0,0,0,.33,0,9.56,9.56,0,0,0-.21-2.64l-.22,0c-2-.12-4-.12-6-.09-.85,0-1.7.08-2.56.12l-.05,0s0,0-.06.07a.86.86,0,0,0-.05.26c-.05.73-.09,1.46-.13,2.2a.45.45,0,0,0,.06.13m5-6.38a16.38,16.38,0,0,0-.07,2.62c0,.07.05.14.07.22,1.51,0,3,.07,4.49.14s2.74.2,4.11.3h.17l.08-.08c0-.4-.08-.83-.15-1.26a5.61,5.61,0,0,0-.23-1.37,59.63,59.63,0,0,0-7.9-.6,1,1,0,0,0-.57.05m4.84,6.4.72,0c1.3.09,2.61.16,3.92.28,1.52.15,3,.35,4.55.53a2.11,2.11,0,0,0,.32,0c-.17-.87-.32-1.7-.48-2.56-.24,0-.45-.1-.67-.13-1.08-.13-2.16-.29-3.25-.39-1.64-.16-3.28-.29-4.92-.42a1.55,1.55,0,0,0-.35,0c0,.88.08,1.73.16,2.64m4.89,29.58.25.07c1.72.16,3.44.3,5.16.47,1.19.13,2.37.28,3.56.43.75.09,1.49.2,2.24.3a2.52,2.52,0,0,0,.39,0c-.11-.76-.25-1.48-.41-2.18l-.2-.07-4.39-.51q-1.67-.18-3.33-.3c-1-.08-2.06-.14-3.09-.2-.09,0-.19,0-.3,0,0,.67.11,1.29.12,2M451.42,57.31c0,.87-.18,1.66-.14,2.45,0,0,.05.06.09.12l2.3-.08a2,2,0,0,0,.41-.08,9.06,9.06,0,0,1,4.42,0,2,2,0,0,0,.41.06l2.15.08a3.31,3.31,0,0,0,.33,0,11.3,11.3,0,0,0-.15-2.48,2.44,2.44,0,0,0-.39-.06c-3.12-.05-6.24-.09-9.43.07m-16.77,26.8c1.35-.18,2.6-.35,3.86-.5s2.57-.3,3.85-.43,2.53-.22,3.77-.32A7,7,0,0,0,446.3,81,99.2,99.2,0,0,0,435,82.05a20,20,0,0,0-.39,2.06m2.88-28.48a10.2,10.2,0,0,0-.73,2.5c1-.15,1.95-.31,2.93-.45s2-.27,3-.39,2-.22,3-.33a11.74,11.74,0,0,0,.16-1.26,4,4,0,0,0,.09-1.28,69.52,69.52,0,0,0-8.44,1.21m37.62-.09c-.19,0-.34-.09-.5-.11-1.7-.28-3.41-.55-5.12-.81-.76-.11-1.54-.18-2.31-.26a.69.69,0,0,0-.55.08c.1.79.2,1.59.3,2.36a1,1,0,0,0,.6.16l1.73.16c2.09.25,4.17.52,6.25.9a2.29,2.29,0,0,0,.39,0l-.79-2.49m-28.26-8a50.61,50.61,0,0,0-7.3,1.33l-.6,1.91a3.58,3.58,0,0,0-.09.35s0,0,0,0,0,0,.08.08c2.39-.41,4.82-.8,7.28-1a.53.53,0,0,0,.17,0s0,0,.05,0l.09-.08c.1-.8.2-1.64.31-2.53m19.25,2.61.7.09c1.37.18,2.76.35,4.13.55.79.11,1.57.27,2.35.4.13,0,.27.09.4-.08l-.63-2a3.24,3.24,0,0,0-.13-.33l-.24-.09c-2.09-.46-4.2-.87-6.32-1.19a.9.9,0,0,0-.56,0c.05.86.21,1.69.3,2.61m-83.4-1.47a2.47,2.47,0,0,0,1.73-.29,3,3,0,0,0,1.13,1.38,1.54,1.54,0,0,0,.14-.22,4.21,4.21,0,0,0,.38-1.25c0-.17,0-.37.17-.5a2.3,2.3,0,0,0,2.19-.82,3.17,3.17,0,0,0-2-1,1.81,1.81,0,0,1,0-.62,2.59,2.59,0,0,0-.24-1.5,2.56,2.56,0,0,0-.2-.26,4.62,4.62,0,0,0-1.71,1.9,2.43,2.43,0,0,0-1.9-.08A1.59,1.59,0,0,0,383.52,47a2,2,0,0,0-.78,1.72M524.57,97.24c0-.21.11-.42.13-.63A34.34,34.34,0,0,0,525,93.1a35.26,35.26,0,0,0-.11-4.11c0-.08,0-.2-.11-.24-1.29,1.47-2.23,1.46-3.34.86-.18.17-.37.35-.54.54s-.46.3-.57.59l.79.74a14.89,14.89,0,0,1,2.46,2.91,6,6,0,0,1,1,2.85m-93-23.11c-.31,1.1-.64,2.22-1,3.34,0,0,0,0,0,.06s0,0,.08.08l2.36-.44c.82-.15,1.64-.26,2.43-.43a28.44,28.44,0,0,0,.63-3.39h-.35a35.08,35.08,0,0,0-4.19.78m45.48,2.41,2.65.5,1.69.33c.17,0,.35.11.53,0-.32-1.12-.65-2.25-1-3.34a36.69,36.69,0,0,0-4.2-.76l-.32,0c.21,1.11.41,2.18.62,3.28m-16.41-16c.58.46,1.15.87,1.65,1.34s1,1,1.44,1.58a16.68,16.68,0,0,0,3.74.17c0-.45-.08-.9-.16-1.35a7.78,7.78,0,0,0-.21-1.38,51.12,51.12,0,0,0-6.46-.36m-8.62,0h-.55l-1.07.07-4.22.28a1.76,1.76,0,0,0-.72.15c0,.31-.07.62-.11.93s-.08.6-.11.89a2.5,2.5,0,0,0-.06,1h.38c.95-.07,1.9-.15,2.85-.2a.83.83,0,0,0,.73-.39,9.56,9.56,0,0,1,2.59-2.44l.29-.24m61.33,57.71c-.31.16-.31.16-.52.16a20.52,20.52,0,0,1-4.29-.23.92.92,0,0,0-.29,0,.3.3,0,0,0-.25.23.25.25,0,0,0,.13.3.93.93,0,0,0,.33.12c.61.08,1.22.19,1.83.22s1.43,0,2.15,0c.09,0,.2,0,.28.12a2.16,2.16,0,0,1-.56.65,4.63,4.63,0,0,1-.68.48c-.25.14-.52.23-.84.37a6.89,6.89,0,0,0,1.08.55l.26-.24c1.13-1.16,2.2-2.36,3.23-3.6a8.4,8.4,0,0,0,1.53-3,1,1,0,0,0,.06-.35.27.27,0,0,0-.2-.26.26.26,0,0,0-.32.1,2.66,2.66,0,0,0-.16.39,16,16,0,0,1-.62,1.48,12.59,12.59,0,0,1-1.45,2s-.07,0-.15,0c-.1-.19-.21-.4-.3-.61a58.91,58.91,0,0,0-2.74-5.37,4.4,4.4,0,0,0-.3-.45.26.26,0,0,0-.37-.06.31.31,0,0,0-.13.36,3.24,3.24,0,0,0,.17.32,54.24,54.24,0,0,1,2.89,5.69l.23.54M466.27,79.83l3.65.24.21,0a21,21,0,0,0-.39-3.48c-.22,0-.45-.07-.68-.09l-2.85-.2a1.33,1.33,0,0,0-.21,0,22.94,22.94,0,0,0,.27,3.53m-19.55-3.5c-1.3.1-2.53.17-3.77.31-.08.61-.18,1.18-.24,1.75a8.6,8.6,0,0,0-.15,1.76H443l3.33-.26.05,0,.08-.1c.08-1,.18-2,.26-3.09a2.22,2.22,0,0,0,0-.35M434.27,66c-.3,1-.6,2-.89,3,0,0,0,.1.06.15l4.49-.76c.22-1,.4-2,.56-3a24.31,24.31,0,0,0-4.22.61m40-.72a7.82,7.82,0,0,0,.23,1.45,8.46,8.46,0,0,0,.31,1.43c.51.14,4.18.76,4.52.77a19.89,19.89,0,0,0-.93-3,24.73,24.73,0,0,0-4.13-.67M478.51,82a3.89,3.89,0,0,0,.15,1.18,3.8,3.8,0,0,0,.25,1.07c1.75.37,5,.91,5.44.92A5.4,5.4,0,0,0,484,84a4.26,4.26,0,0,0-.44-1.17c-1.66-.3-3.32-.6-5.06-.81m-13.42,20.54a.53.53,0,0,0-.13-.13,15.6,15.6,0,0,0-5.43-2.53,8.07,8.07,0,0,0-4.69.25c-1,.39-2.11.72-3.17,1.07a22.86,22.86,0,0,1-3.74,1l-.3,0-.27,0a12.32,12.32,0,0,0,3.21-.23,36.89,36.89,0,0,0,4.74-1.18,7.5,7.5,0,0,1,2.06-.31,13.58,13.58,0,0,1,3.64.53,21.64,21.64,0,0,1,3.58,1.32c.15.07.29.23.5.13m-36.7-17.43c.05,0,.11.05.16,0l5.25-.94a.55.55,0,0,0,.08-.18c.11-.56.22-1.13.32-1.69a.71.71,0,0,0,0-.21A46.11,46.11,0,0,0,429,83a11.79,11.79,0,0,0-.65,2.15M465.27,68c0,.28,0,.5,0,.71.07.73.13,1.46.2,2.19,0,.12,0,.22.09.37l1.68.09a6.84,6.84,0,0,0,1.69.07,20.5,20.5,0,0,0-.42-3.17c-1-.12-2.1-.18-3.24-.26m-18.08,3.3c.09-1,.18-2,.25-2.91a1.26,1.26,0,0,0,0-.27,12.63,12.63,0,0,0-3.28.33c-.11.92-.24,1.84-.35,2.76a1.8,1.8,0,0,0,0,.37c1.13-.11,2.24-.14,3.38-.28m-6.94-12.93a26.2,26.2,0,0,0-3.77.63,17.68,17.68,0,0,0-.83,2.72s.07.05.1.05l3.76-.62a1,1,0,0,0,.24-.1c.18-.87.36-1.74.5-2.68m32.66,2.55a4.22,4.22,0,0,0,.46.11l3.46.61a1,1,0,0,0,.26,0c-.31-.93-.56-1.84-.91-2.73-1.18-.21-2.33-.43-3.49-.56a.92.92,0,0,0-.26,0c.16.86.32,1.7.48,2.57m-31.4-9.3c-1,.16-2,.3-2.91.51l-.3.91c-.09.29-.18.57-.26.86a2.76,2.76,0,0,0-.22,1l3.21-.54c.16-.88.35-1.73.48-2.69m30.17,2.61,2.95.5a.85.85,0,0,0,.22,0c-.26-.86-.53-1.71-.82-2.55a7.07,7.07,0,0,0-1.41-.29,4.49,4.49,0,0,0-1.44-.17c.16.87.29,1.71.5,2.55m7.23,47.92s.1,0,.15,0c.35,0,.71,0,1.07-.08a26.49,26.49,0,0,0,3.83-.86c.34-.1.68-.21,1-.29a7.39,7.39,0,0,1,3.07.07,16.29,16.29,0,0,1,3.62,1.17c.15.07.3.2.51.15a1.67,1.67,0,0,0-.12-.13,12.54,12.54,0,0,0-3.79-1.83,6.53,6.53,0,0,0-4.21.14l-.4.14a42.86,42.86,0,0,1-4.73,1.41s0,0,0,.07m32.39-44,.08,0c0-.23-.05-.47-.07-.71a.77.77,0,0,0-.2-.48l-1.31-1.31a.56.56,0,0,0-.15-.1.26.26,0,0,0-.32.07.25.25,0,0,0,0,.33,2.65,2.65,0,0,0,.29.29,9.1,9.1,0,0,1,1.55,1.73,2,2,0,0,0,.17.23m8.89,29.47-1.53,1.25a.34.34,0,0,0-.09.46.28.28,0,0,0,.32.09,1.37,1.37,0,0,0,.3-.19c.37-.29.74-.6,1.1-.91a3,3,0,0,0,.28-.31l-.38-.39m1.32-5.9c.2-.06.41,0,.58-.2l-.58-1.11a1.37,1.37,0,0,0-.13-.2.29.29,0,0,0-.41-.1.29.29,0,0,0-.1.41c.2.38.4.76.64,1.2m-9.89-32.33a1.87,1.87,0,0,0,.07.79.35.35,0,0,0,.6.17,2.47,2.47,0,0,0,.56-.91c-.44,0-.82-.08-1.23,0m-46.26,53.42,0,0v0Z"/><path class="cls-1" d="M461.07,0c0,1.25,0,2.51,0,3.76a1.57,1.57,0,0,0,.05.25c.66.08,1.32,0,2,.08L466.35.28c3.1.22,6.17.53,9.26.93a3.75,3.75,0,0,1,.05.47c0,.87,0,1.75,0,2.62v.58c.18.12.29,0,.41-.06l3.12-1.76c.43-.24.87-.47,1.29-.74a1.2,1.2,0,0,1,1-.15c1.15.26,2.3.49,3.44.75,1.63.37,3.25.77,4.87,1.15.17,0,.34.11.53.16,0,.17,0,.33,0,.49,0,1.39,0,2.78,0,4.18a2,2,0,0,1-.09.64c-.44,1.19-.89,2.38-1.34,3.57a2.4,2.4,0,0,1-.11.23,1.39,1.39,0,0,1-.64.06H424a3.36,3.36,0,0,1-.19-.38q-.63-1.68-1.23-3.36a1.74,1.74,0,0,1-.13-.58c0-1.55,0-3.1,0-4.66a.93.93,0,0,1,0-.19,1.15,1.15,0,0,1,.25-.12c2.84-.69,5.69-1.32,8.56-1.91a1.26,1.26,0,0,1,1,.16c1.41.81,2.84,1.6,4.27,2.39.14.08.28.23.52.17,0-.61,0-1.22,0-1.83s0-1.19,0-1.76c.88-.24,7.74-.95,9.29-1a1.8,1.8,0,0,1,.49.5l2.31,2.73a3.51,3.51,0,0,0,.36.4.43.43,0,0,0,.31.14c.57,0,1.15,0,1.76-.06,0-.17.05-.32.06-.47V.64a1.28,1.28,0,0,1,.08-.64Zm8.57,9.17c0-.15,0-.25.05-.34.06-.68.13-1.35.19-2a1.43,1.43,0,0,1,.06-.35,1.48,1.48,0,0,1,1.52-.93,1.42,1.42,0,0,1,1.21,1.28c.05.44.07.87.12,1.31A8.88,8.88,0,0,0,473,9.54q5.61.66,11.16,1.63s.08,0,.15,0,.06-.29.07-.44c0-.55.09-1.11.14-1.66a1.41,1.41,0,0,1,2.8-.12c0,.18,0,.36,0,.53.06.7.11,1.39.17,2.09a2.33,2.33,0,0,0,.09.29l.4,0c.05-.08.09-.12.12-.18.35-.84.7-1.69,1.06-2.53a1.56,1.56,0,0,0,.1-.64V5.66c0-.16,0-.32,0-.48A5.42,5.42,0,0,0,488,4.84l-5.7-1.29c-.1,0-.22-.09-.37.05V4.81c0,.4,0,.79,0,1.19a5.62,5.62,0,0,1-.07,1.28l-2.41-.4-2.36-.38c-.8-.13-1.61-.2-2.43-.37,0-.23,0-.43,0-.62,0-.92,0-1.83,0-2.75,0-.15,0-.31,0-.48-.83-.17-1.65-.21-2.46-.31s-1.58-.15-2.37-.25a8.89,8.89,0,0,0-2.45-.11c-.07.63,0,1.26,0,1.89a18.15,18.15,0,0,1-.05,1.94H467l-4.89-.19-1.73-.07-.3-.06c0-.23,0-.43,0-.62V1.68c0-.15,0-.32-.1-.44-.56-.05-5.87-.08-6.92,0a1.51,1.51,0,0,0-.26,0,9.74,9.74,0,0,0,0,1.32c0,.41,0,.83,0,1.25a7.92,7.92,0,0,1,0,1.29c-.06,0-.09.06-.13.06l-6.55.3c-.14,0-.28,0-.42,0l-.05,0-.08-.08c0-.6,0-1.23,0-1.86a14.46,14.46,0,0,0-.05-2c-.83.07-1.64.13-2.44.22L440.55,2a22.52,22.52,0,0,0-2.42.3,9.27,9.27,0,0,0,0,1.28c0,.44,0,.87,0,1.31A5.44,5.44,0,0,1,438,6.17l-.7.13-6.19,1a1.49,1.49,0,0,1-.36,0V6c0-.4,0-.8,0-1.2a5.61,5.61,0,0,0,0-1.23,70.78,70.78,0,0,0-7.23,1.62,1.3,1.3,0,0,0,0,.21c0,1.1,0,2.19,0,3.29a1.63,1.63,0,0,0,.13.57c.29.74.6,1.48.9,2.21a2.48,2.48,0,0,0,.18.31,2.86,2.86,0,0,0,.94-.18,2,2,0,0,0,.11-.72c.06-.69.09-1.39.18-2.08a1.42,1.42,0,0,1,2.8.11c.05.54.08,1.07.13,1.61,0,.15,0,.31.07.54,3.61-.63,7.2-1.17,10.81-1.59a2,2,0,0,0,.1-.61c.05-.58.09-1.16.14-1.73a1.46,1.46,0,0,1,1-1.21,1.36,1.36,0,0,1,1.46.45,1.37,1.37,0,0,1,.35.86c0,.54.08,1.07.13,1.61a2.1,2.1,0,0,0,.09.36c3.83-.34,7.64-.55,11.46-.6,0,0,.07,0,.13-.07s0-.21,0-.33c.06-.57.11-1.15.16-1.72a1.35,1.35,0,0,1,.59-1,1.28,1.28,0,0,1,1.35-.16,1.35,1.35,0,0,1,.86,1.13c.05.52.09,1,.13,1.55a1,1,0,0,0,.16.61c3.81,0,7.64.26,11.46.62l.28,0"/><path class="cls-1" d="M372.37,77.63a3.39,3.39,0,0,1,1.11.91,15.68,15.68,0,0,1,2.07,2.91c.64,1.12,1.18,2.3,1.71,3.48.62,1.39,1.25,2.79,1.91,4.18a17,17,0,0,0,1.82,3A11.72,11.72,0,0,0,384.18,95l.32.22c-.09,0-.13.09-.18.09a14.77,14.77,0,0,1-4.28-.67,8,8,0,0,1-3.77-2.52,12.75,12.75,0,0,1-2.65-5.09,11.44,11.44,0,0,1-.29-2.67c0-.85,0-1.71,0-2.56a10.43,10.43,0,0,0-.79-3.78c-.05-.14-.11-.29-.17-.43"/><path class="cls-1" d="M407.89,56.17a.8.8,0,0,1,.11.59,14.06,14.06,0,0,1-.65,3.86,15.9,15.9,0,0,1-2.89,5.45,10.83,10.83,0,0,1-4.52,3.39,9.13,9.13,0,0,1-4,.59l-.33,0a.42.42,0,0,1,0-.42,9.25,9.25,0,0,1,1.61-3.23,15.13,15.13,0,0,1,2.38-2.42c.87-.7,1.76-1.36,2.63-2s1.64-1.26,2.43-1.93a14.48,14.48,0,0,0,3.13-3.58,1.72,1.72,0,0,1,.15-.2"/><path class="cls-1" d="M389.77,84.72c.13-.17.18-.25.25-.33a39.8,39.8,0,0,1,3-3.2A15.67,15.67,0,0,1,395.9,79c1.09-.63,2.19-1.22,3.28-1.84s1.91-1,2.85-1.62a15.53,15.53,0,0,0,4-3.29s.07,0,.1-.05.05.23,0,.32c-.16.53-.32,1.07-.52,1.58a13.86,13.86,0,0,1-1.39,2.57,28,28,0,0,1-3.84,4.7,11.55,11.55,0,0,1-6,3.21,11.29,11.29,0,0,1-2.25.22c-.61,0-1.23,0-1.85,0-.13,0-.26,0-.49-.07"/><path class="cls-1" d="M379.21,63.19a.91.91,0,0,1,.07.14,14.59,14.59,0,0,0,1.64,4.27c.71,1.26,1.48,2.5,2.23,3.74.41.68.84,1.35,1.25,2a17.89,17.89,0,0,1,2,4.69c.28,1.08.54,2.16.8,3.25a5.76,5.76,0,0,1,.1.66c-.09,0-.15,0-.19,0a13.18,13.18,0,0,1-4.34-2.79,11.8,11.8,0,0,1-2.92-5,28.25,28.25,0,0,1-1.15-5.9,14.14,14.14,0,0,1,.2-4.4c.05-.21.12-.41.19-.62,0,0,.06-.05.1-.08"/><path class="cls-1" d="M370.68,97c.32.14.51.22.7.32a14.53,14.53,0,0,1,3.17,2.21c.79.73,1.56,1.48,2.3,2.25.95,1,1.85,2,2.79,3a23.26,23.26,0,0,0,2.59,2.37,12.05,12.05,0,0,0,4.76,2.37,1.07,1.07,0,0,1,.22.1s0,.09-.07.09a14,14,0,0,1-4.16.66,7.9,7.9,0,0,1-3.41-.76,11.72,11.72,0,0,1-4.77-4,11.55,11.55,0,0,1-1.25-2.69c-.21-.6-.4-1.21-.61-1.81a11.88,11.88,0,0,0-2-3.64l-.26-.39"/><path class="cls-1" d="M388.13,97.4c0-.13,0-.27,0-.4a11.4,11.4,0,0,1,3.74-8.66,7.31,7.31,0,0,1,2.62-1.51,19.25,19.25,0,0,1,3.35-.81c1.39-.24,2.8-.39,4.17-.71a.38.38,0,0,1,.13,0,1.62,1.62,0,0,1-.35.54,12.57,12.57,0,0,1-1.92,1.87,28.5,28.5,0,0,1-2.72,1.93L395,91a21.78,21.78,0,0,0-6,5.46l-.74.93-.11,0"/><path class="cls-1" d="M388.72,98.16c.06-.1.09-.17.13-.23a27.18,27.18,0,0,1,3.63-4.1,23.47,23.47,0,0,1,2.73-2L398,90.05a25,25,0,0,0,2.51-1.81,14.14,14.14,0,0,0,1.86-1.85c.08-.1.14-.25.34-.28,0,.16,0,.32-.05.46a10.87,10.87,0,0,1-.88,2.41,24.25,24.25,0,0,1-4.08,5.91A10.21,10.21,0,0,1,392.16,98a13.74,13.74,0,0,1-3.26.23.74.74,0,0,1-.18-.07"/><path class="cls-1" d="M384.31,54.52l.57.48a9.91,9.91,0,0,1,1.71,2.21,26.57,26.57,0,0,1,1.28,2.63c.51,1.16,1,2.33,1.55,3.48a10.12,10.12,0,0,0,1.16,1.88A7.67,7.67,0,0,0,393,67.34l.31.17s0,.09-.06.1a6.82,6.82,0,0,1-2.1.37,3.64,3.64,0,0,1-2.14-.64,5.4,5.4,0,0,1-1.9-2.25,11.33,11.33,0,0,1-.83-2.67c-.2-1.05-.39-2.11-.58-3.17a16.43,16.43,0,0,0-1.4-4.48s0-.07,0-.25"/><path class="cls-1" d="M528.58,83.35a.61.61,0,0,0-.49-.59c-.19-.05-.37-.14-.56-.19a.89.89,0,0,0-1.14.59c-.06.17-.1.34-.15.53a.73.73,0,0,1-.34-.61,9.69,9.69,0,0,0-.16-1.06,3.34,3.34,0,0,1,.06-1.3,2.13,2.13,0,0,1,1.42-1.57,1.85,1.85,0,0,1,.41-.07.79.79,0,0,1,.76.37c.34.49.56.58,1.1.41a1,1,0,0,1,.81.11.46.46,0,0,1,.27.36,1.64,1.64,0,0,1,0,.54,6.55,6.55,0,0,1-.2,1,1.24,1.24,0,0,1-.82.94,6.36,6.36,0,0,0-1,.56"/><path class="cls-1" d="M511.5,73.84A4.57,4.57,0,0,1,510,75.91a2,2,0,0,1-2.24.13.71.71,0,0,1-.4-.79.76.76,0,0,0-.52-.94.85.85,0,0,1-.22-.09c-.42-.33-.53-.66-.22-1.06a2.28,2.28,0,0,1,.37-.39,5.17,5.17,0,0,1,.69-.46,5.55,5.55,0,0,1,3.2-.54c-.18.12-.35.22-.5.34-.3.24-.34.41-.17.78a6.38,6.38,0,0,0,.32.57.85.85,0,0,0,.81.4l.37,0"/><path class="cls-1" d="M528.25,86.28c.27,0,.46-.07.65-.12a2.1,2.1,0,0,0,.49-.2.43.43,0,0,0,.19-.52,1.86,1.86,0,0,1-.08-.41.9.9,0,0,0-.53-.88,5.63,5.63,0,0,1,2.49-1.05,2.11,2.11,0,0,1,.71.05.89.89,0,0,1,.43.29.47.47,0,0,1,.07.6.88.88,0,0,0,.14,1.23.82.82,0,0,1,0,1.3,2.57,2.57,0,0,1-1.46.63,3.19,3.19,0,0,1-1.75-.23c-.34-.15-.68-.32-1-.49-.08,0-.15-.11-.29-.2"/><path class="cls-1" d="M512.34,73.94a3.61,3.61,0,0,0,.27.37.71.71,0,0,0,.91.21c.17-.07.32-.15.48-.23.37-.2.37-.2.49-.67.27.13.54.27.82.38a.91.91,0,0,1,.44.38,4.23,4.23,0,0,1,.58,1.43,2.41,2.41,0,0,1,0,.6.74.74,0,0,1-.68.64.54.54,0,0,1-.18,0,.91.91,0,0,0-1.05.58.69.69,0,0,1-.69.38,1.27,1.27,0,0,1-.87-.34,1.93,1.93,0,0,1-.67-1.1,5.48,5.48,0,0,1,.14-2.63"/><path class="cls-1" d="M526,90.3a7.79,7.79,0,0,1,.16-2.72,5,5,0,0,0,.32.44.69.69,0,0,0,.86.18l.48-.24c.41-.21.41-.21.48-.7.25.13.51.27.78.38a1,1,0,0,1,.43.31,3.6,3.6,0,0,1,.67,1.82c0,.69-.29,1-1,1a.86.86,0,0,0-.88.47.84.84,0,0,1-1.15.43,1.7,1.7,0,0,1-.91-.82c-.1-.17-.18-.35-.28-.52l0,0"/><path class="cls-1" d="M514.32,43.81l-1.1.24c-.08-.53-.16-1-.24-1.58a.84.84,0,0,1,1,0,.82.82,0,0,1,.41.75c0,.18,0,.35,0,.56"/><path class="cls-1" d="M507,42.78l-.33,1.16-1.43-.3a.77.77,0,0,1,.21-.83.75.75,0,0,1,.82-.18,6.24,6.24,0,0,0,.73.15"/><path class="cls-1" d="M511.64,41.4h-.52c.34-.17.34-.17.52,0"/><path class="cls-1" d="M526.24,86.58a.66.66,0,0,1,0,.2s-.07.07-.11.1,0,0,0,0a.13.13,0,0,1,0-.11,1.58,1.58,0,0,1,.14-.16"/><path class="cls-1" d="M527.78,86.15a.54.54,0,0,1,.19,0s0,.09.06.13-.1,0-.14,0-.06-.08-.11-.14"/><path class="cls-1" d="M528.51,83.9l0,.16h-.05c-.11-.09,0-.11.08-.16"/><path class="cls-1" d="M512.4,73a1.59,1.59,0,0,1-.07.2h-.09a.11.11,0,0,1,0-.05l.12-.18.06,0"/><path class="cls-1" d="M510.43,41.63l-.08,0,0,0,.08,0,0,0"/><path class="cls-1" d="M512,69.52a2.1,2.1,0,0,0-.26-.13h0l.24.13Z"/><path class="cls-1" d="M514.61,70.31s0-.06,0-.09,0,0,0,0,0,0,0,0h0"/><path class="cls-1" d="M510.27,71l.06.06h0a.13.13,0,0,1,0-.06Z"/><polyline class="cls-1" points="396.85 54.38 396.86 54.27 396.83 54.37 396.85 54.38"/><path class="cls-1" d="M483.36,112.5,482,117.58l-.09.06-1.06-.27a1.69,1.69,0,0,1-.3-.13c.6-2.37,1.24-4.7,1.84-7,0-.13.1-.25.15-.39l.48.1,1.11.3c0,.16.11.3.15.45q.64,2.43,1.3,4.84c0,.15.1.3.19.56.5-1.73.87-3.37,1.35-5a8.06,8.06,0,0,1,1.43.35,2.94,2.94,0,0,1,0,.35c-.58,2.23-1.17,4.46-1.75,6.69,0,.14-.09.27-.14.42a11,11,0,0,1-1.5-.37,1.52,1.52,0,0,1-.23-.62q-.66-2.41-1.31-4.84c0-.13-.09-.25-.18-.51"/><path class="cls-1" d="M437.69,112.51a1.7,1.7,0,0,1,1.1,1.5c0,.28.12.55.17.82a1.3,1.3,0,0,0,.45.88s0,.08,0,.11a4.88,4.88,0,0,1-1.67.38,1.22,1.22,0,0,1-.33-.67c-.1-.36-.16-.73-.25-1.1-.21-.9-.48-1.09-1.39-.92l-1.43.27a2.94,2.94,0,0,0,0,.42l.39,2c0,.15,0,.31.06.48a7.71,7.71,0,0,1-1.47.31,1.61,1.61,0,0,1-.2-.69q-.58-3.1-1.16-6.22c0-.21-.06-.42-.1-.64a4.9,4.9,0,0,1,1.25-.29c.8-.17,1.6-.3,2.4-.44a5,5,0,0,1,.65-.07,2.18,2.18,0,0,1,2,3,4.23,4.23,0,0,1-.54.78m-3.59,0,1.75-.33a2.18,2.18,0,0,0,.51-.17.79.79,0,0,0,.45-.83,2,2,0,0,0-.13-.52.77.77,0,0,0-.78-.52,3.81,3.81,0,0,0-.59.05l-1.11.2c-.15,0-.3.09-.5.14a18.28,18.28,0,0,0,.4,2"/><path class="cls-1" d="M430.52,115.23a3.3,3.3,0,0,1-.25,1.39,3.16,3.16,0,0,1-1.69,1.77,5.09,5.09,0,0,1-1.66.43,3.21,3.21,0,0,1-3-1.4A5.45,5.45,0,0,1,423,115a4.23,4.23,0,0,1,0-1.42,3.18,3.18,0,0,1,1.85-2.53,4.91,4.91,0,0,1,2-.47,3.18,3.18,0,0,1,2.57,1.17,3.32,3.32,0,0,1,.46.69,5.7,5.7,0,0,1,.72,2.8m-6-1a4.52,4.52,0,0,0,.62,2.11,2.58,2.58,0,0,0,.49.6,2,2,0,0,0,3.2-1.12,3.07,3.07,0,0,0,0-1.13,4.12,4.12,0,0,0-.63-1.72,2,2,0,0,0-1.28-.91,2,2,0,0,0-2.38,1.77c0,.11,0,.23,0,.4"/><path class="cls-1" d="M468.48,115.24a1.28,1.28,0,0,1,0-.26q.5-3.66,1-7.28a.64.64,0,0,1,.56-.07l2.06.29,1,.16a2.8,2.8,0,0,1,2.43,2.64,5.86,5.86,0,0,1-.47,3,3.73,3.73,0,0,1-.71,1.09,2.59,2.59,0,0,1-2,.9,2.33,2.33,0,0,1-.53,0l-2.78-.38c-.17,0-.34-.07-.53-.1m1.7-1.12a14.23,14.23,0,0,0,1.88.21,1.42,1.42,0,0,0,1-.52,2.59,2.59,0,0,0,.52-.93,4.89,4.89,0,0,0,.24-2.11,1.35,1.35,0,0,0-1.19-1.36c-.54-.11-1.1-.16-1.65-.23,0,0-.07,0-.15.06-.23,1.57-.46,3.18-.68,4.88"/><path class="cls-1" d="M495.36,117a7.73,7.73,0,0,1-.44,1.22,3.44,3.44,0,0,1-.41-.11l-2.57-.94-.53-.18a14.17,14.17,0,0,0-.65,1.79c.15.07.28.15.42.21l3,1.09a1.06,1.06,0,0,1,.55.29,9,9,0,0,1-.47,1.23c-.94-.3-1.84-.67-2.75-1l-2.7-1a1.86,1.86,0,0,1,.05-.3l2.47-6.72a2,2,0,0,1,.13-.24c.9.27,1.75.63,2.62.94s1.75.64,2.64,1a5.13,5.13,0,0,1-.42,1.29c-.68-.18-1.29-.45-1.92-.67l-1.87-.68a9.74,9.74,0,0,0-.6,1.46c.18.08.31.16.45.21l2.58,1,.45.19"/><path class="cls-1" d="M465.05,107.22c.54,0,1,.06,1.58.06a2.11,2.11,0,0,1,0,.32c-.1,1.63-.2,3.26-.32,4.88a4.29,4.29,0,0,1-.2.93,2.29,2.29,0,0,1-2,1.58,4.73,4.73,0,0,1-2.24-.17,2.26,2.26,0,0,1-1.69-2,5.76,5.76,0,0,1-.06-1c.07-1.35.16-2.7.24-4,0-.26.05-.51.07-.76a3.46,3.46,0,0,1,1.61.09.9.9,0,0,1,0,.16c-.09,1.47-.19,2.94-.28,4.41a3.78,3.78,0,0,0,.05,1.06,1.07,1.07,0,0,0,.88.87,4.39,4.39,0,0,0,.89,0,1,1,0,0,0,.86-.64,2.29,2.29,0,0,0,.15-.51c0-.3.08-.6.1-.89.09-1.35.17-2.7.25-4,0-.1,0-.19,0-.31"/><path class="cls-1" d="M420.7,115.74l.45,1.25c-1,.46-2.12.76-3.15,1.21a14.47,14.47,0,0,0,.52,1.53c.17.48.35,1,.54,1.47a6.89,6.89,0,0,1-1.44.54s-.06,0-.07,0a.1.1,0,0,1-.05,0c0-.09-.08-.18-.11-.27l-2.5-6.79a1.17,1.17,0,0,1,.25-.16l4.75-1.75H420a4.21,4.21,0,0,1,.46,1.2,5.72,5.72,0,0,1-1.15.48c-.41.16-.82.3-1.23.45l-1.2.45a13.08,13.08,0,0,0,.54,1.6c.17,0,.31,0,.43-.09l2.24-.82.57-.2"/><path class="cls-1" d="M456,114.61a7.66,7.66,0,0,1-1.59,0c-.1-2.09-.06-4.17-.11-6.29-.15,0-.26,0-.37,0-.5,0-1,0-1.49,0l-.38,0a4.82,4.82,0,0,1-.08-1.32,2.8,2.8,0,0,1,.36,0l3.58,0,1.91,0h.38a5,5,0,0,1,0,1.34c-.75.08-1.48,0-2.23.08-.06.73,0,1.42,0,2.11s0,1.39,0,2.09.05,1.39,0,2.14"/><path class="cls-1" d="M440.05,108c2.1-.27,4.13-.49,6.19-.72a3.77,3.77,0,0,1,.16,1.33c-.72.2-1.47.14-2.21.34.05,1.07.23,2.1.33,3.14s.26,2,.34,3.11a5.47,5.47,0,0,1-1.56.19,9.25,9.25,0,0,1-.23-1.54c-.08-.53-.12-1.07-.18-1.6s-.13-1-.19-1.54-.11-1-.2-1.54c-.77-.08-1.49.2-2.22.13-.15-.2-.1-.43-.14-.64s-.05-.39-.09-.66"/><path class="cls-1" d="M478.27,109c.5,0,1,.19,1.49.26,0,.15,0,.26,0,.37-.31,1.56-.61,3.12-.92,4.68-.14.72-.28,1.44-.43,2.17,0,.11-.06.22-.1.36a7,7,0,0,1-1.49-.27c0-.07-.06-.11-.05-.14q.71-3.63,1.43-7.26a.71.71,0,0,1,.09-.17"/><path class="cls-1" d="M449.83,107.1a.52.52,0,0,1,.07.15c.15,2.42.31,4.84.46,7.26a1.66,1.66,0,0,1,0,.26l-.77.07a2.6,2.6,0,0,1-.74,0c-.15-1.27-.19-2.54-.28-3.8s-.17-2.53-.25-3.79a3.92,3.92,0,0,1,1.55-.16"/><path class="cls-1" d="M514.63,64.44a2.39,2.39,0,0,0-.13-.21h0c.15,0,.21.07.12.22Z"/><path class="cls-1" d="M514.51,64.23c0-.08-.07-.17-.11-.25h0c.16,0,.14.13.1.24h0"/><path class="cls-1" d="M514.39,64a.19.19,0,0,0,0-.08l0,0s0,0,0,.05h0"/></g></g></g></g></svg>