<svg xmlns="http://www.w3.org/2000/svg" viewBox="0 0 656.52 233.73"><title>Logo_CONJUNTA_Simp_Ver_Mono_Preto</title><g id="Layer_2" data-name="Layer 2"><g id="PACK_DE_LOGOS" data-name="PACK DE LOGOS"><g id="Logo_CONJUNTA_Simp_Ver_Mono_Preto"><rect y="155.77" width="5.71" height="38.85"/><path d="M20.1,160.4H14.27v15.37H19.8a12,12,0,0,0,6.81-1.8q2.7-1.8,2.88-5.86,0-4.4-2.52-6.05a12.38,12.38,0,0,0-6.87-1.66M8.56,194.62V155.77h11.6A20,20,0,0,1,31,158.57q4.43,2.81,4.43,9.31t-4.79,9.46a20.25,20.25,0,0,1-11.09,3H14.27v14.28Z"/><polygon points="62.49 194.62 37.82 194.62 37.82 155.77 43.53 155.77 43.53 190.34 61.78 190.34 62.49 194.62"/><path d="M81.52,163.14,75,179.82H88.18Zm2.68-7.37,15.58,38-5.65.8-4.22-10.4H73.44l-4,10.4H63.8L79,155.77Z"/><polygon points="100.97 194.62 100.97 155.77 106.02 155.77 124.16 180.22 127.01 184.51 127.01 155.77 132.78 155.77 132.78 194.62 127.66 194.62 108.93 169.08 106.67 165.66 106.67 194.62 100.97 194.62"/><polygon points="161.97 179.94 148.53 179.94 148.53 194.62 137.71 194.62 137.71 155.83 163.94 155.83 164.95 164 148.53 164 148.53 171.77 160.96 171.77 161.97 179.94"/><path d="M174.28,175.31a15.66,15.66,0,0,0,2,8.17q2,3.26,6.54,3.26a7.62,7.62,0,0,0,6.43-3c1.5-2,2.26-4.9,2.26-8.82a15.16,15.16,0,0,0-2-8.09q-2-3.23-6.51-3.22a7.42,7.42,0,0,0-6.36,3.2,14,14,0,0,0-2.32,8.45m-11.12.06q0-9,5.29-14.68T182.84,155q9.87,0,14.81,5.83A21.19,21.19,0,0,1,202.59,175q0,9-5.24,14.74t-14.51,5.71q-9.69,0-14.68-5.86a21.12,21.12,0,0,1-5-14.19"/><path d="M221,163.94h-5.83v10.28h5.95a5.87,5.87,0,0,0,4.1-1.45,4.83,4.83,0,0,0,1.61-3.74,4.65,4.65,0,0,0-1.55-3.83,6.6,6.6,0,0,0-4.28-1.26m-16.65,30.68V155.77h17a21.51,21.51,0,0,1,11.68,3.12q5,3.11,5,10.14a11.81,11.81,0,0,1-1.51,6.11,12.55,12.55,0,0,1-4,4.17l8.92,15.31H228.93l-6.54-12.23h-7.2v12.23Z"/><polygon points="244.02 183.25 244.02 194.58 257.68 194.58 257.68 173.88 244.02 183.25"/><polygon points="290.12 169.13 290.12 194.58 276.46 194.58 276.46 159.76 290.12 169.13"/><polygon points="260.24 158.97 260.24 194.58 273.9 194.58 273.9 149.6 260.24 158.97"/><g id="Logo_PMF_Ver_Preto"><path d="M416.9,217.24h-2.31v6.57H417a4.46,4.46,0,0,0,2.71-.76,3.47,3.47,0,0,0,.12-5.06,4.89,4.89,0,0,0-2.89-.75m-6,16.49V214.12H417a9.92,9.92,0,0,1,5.47,1.46,5.29,5.29,0,0,1,2.28,4.83,5.42,5.42,0,0,1-2.45,4.92,10.14,10.14,0,0,1-5.56,1.57h-2.17v6.83Z"/><path d="M439,217.24h-2.31v6h2.37a5.18,5.18,0,0,0,2.76-.68,2.43,2.43,0,0,0,1.1-2.24,2.68,2.68,0,0,0-1-2.36,5,5,0,0,0-2.88-.72m5.36,16.49-4.15-7.49-.66,0h-2.86v7.44H433V214.12h6.14a9.88,9.88,0,0,1,5.48,1.47,5.05,5.05,0,0,1,2.28,4.56,5.22,5.22,0,0,1-.94,3.13,6.31,6.31,0,0,1-2.4,2l4.81,8.42Z"/><polygon points="469.42 233.73 455.69 233.73 455.69 214.12 467.4 214.12 467.98 217.06 459.41 217.06 459.41 222.34 464.66 222.34 465.26 225.31 459.41 225.31 459.41 230.82 468.81 230.82 469.42 233.73"/><polygon points="486.29 225.43 480.75 225.43 480.75 233.73 477.03 233.73 477.03 214.12 488.13 214.12 488.71 217.06 480.75 217.06 480.75 222.52 485.74 222.52 486.29 225.43"/><polygon points="509.79 233.73 496.06 233.73 496.06 214.12 507.77 214.12 508.35 217.06 499.78 217.06 499.78 222.34 505.03 222.34 505.64 225.31 499.78 225.31 499.78 230.82 509.18 230.82 509.79 233.73"/><rect x="517.4" y="214.12" width="3.72" height="19.61"/><polygon points="528.33 214.12 544.19 214.12 544.8 217.07 538.08 217.07 538.08 233.73 534.3 233.73 534.3 217.07 528.33 217.07 528.33 214.12"/><path d="M555.58,213.81V226a4.69,4.69,0,0,0,1.19,3.56,4.29,4.29,0,0,0,3.05,1.11,4.2,4.2,0,0,0,3.08-1.16,4.76,4.76,0,0,0,1.16-3.51v-12.2h3.78v12.48a7.1,7.1,0,0,1-2.18,5.31,8,8,0,0,1-5.89,2.13A7.91,7.91,0,0,1,554,231.6a7.18,7.18,0,0,1-2.15-5.31V213.81Z"/><path d="M583.18,217.24h-2.3v6h2.36a5.19,5.19,0,0,0,2.77-.68,2.43,2.43,0,0,0,1.1-2.24,2.68,2.68,0,0,0-1-2.36,5,5,0,0,0-2.89-.72m5.37,16.49-4.15-7.49-.67,0h-2.85v7.44h-3.72V214.12h6.14a9.9,9.9,0,0,1,5.48,1.47,5.05,5.05,0,0,1,2.28,4.56,5.29,5.29,0,0,1-.94,3.13,6.42,6.42,0,0,1-2.41,2l4.82,8.42Z"/><path d="M606.74,219.26l-2.56,6.83h5.19Zm1.68-5.14L616,233.21l-3.75.52-1.76-4.61h-7.44l-1.73,4.61H597.6l7.64-19.61Z"/><path d="M398.52,174.74h-16v19.82H370.38V144.07h31.33c.25,1.59.48,3.2.71,4.83s.43,3.24.63,4.83H382.56v11.43h14.62Z"/><path d="M420.05,184.54a7.19,7.19,0,0,0,5.49-2.12q2-2.11,2-6.49a11.44,11.44,0,0,0-1.82-6.69,6,6,0,0,0-5.23-2.6A6.77,6.77,0,0,0,415,169q-1.94,2.3-1.93,6.6a10.78,10.78,0,0,0,1.78,6.61,6.09,6.09,0,0,0,5.2,2.38m.22-28q9,0,14.44,5t5.46,14.33q0,8.91-5.79,13.77t-14.48,4.86q-8.61,0-14-4.82t-5.42-14.19q0-8.91,5.64-14a20.45,20.45,0,0,1,14.18-5"/><path d="M463.56,158.55l2.45,9.8a17.71,17.71,0,0,0-5.57,1,17.22,17.22,0,0,0-5.49,3.09v22.12H442.7V158.63h6.16l3.26,4.23a27.08,27.08,0,0,1,5.35-3,15.43,15.43,0,0,1,6.09-1.34"/><path d="M490.51,194.56a19.38,19.38,0,0,1-11.62-3.49Q474,187.59,474,180.68V168.05h-5.27v-9.5H474V149.2l12.17-1.78v11.13h7.95l1.86,9.5H486.2v11.07a5.77,5.77,0,0,0,1.3,3.93,4.79,4.79,0,0,0,3.83,1.49,9,9,0,0,0,2.26-.34,12,12,0,0,0,2.49-.93l3.49,8.4a10.41,10.41,0,0,1-4,2,17.1,17.1,0,0,1-5.05.85"/><path d="M514.94,184.83a7.22,7.22,0,0,0,2.93-.67,12.06,12.06,0,0,0,2.93-1.85v-3.64h-5.27a3.8,3.8,0,0,0-2.75,1,3.24,3.24,0,0,0-1,2.41,2.49,2.49,0,0,0,.93,1.93,3.3,3.3,0,0,0,2.27.82m2.89-28.29q7,0,11.07,4A14,14,0,0,1,533,171v22.72h-5.64l-2.45-2.82a15.11,15.11,0,0,1-4.46,2.6,15.3,15.3,0,0,1-5.57,1q-6.75,0-10.06-3.34a11.94,11.94,0,0,1-3.3-8.77q0-5.79,3.86-8.57t10.1-2.79h5.27a4.44,4.44,0,0,0-1.6-3.11,5.26,5.26,0,0,0-3.45-1.12,20.09,20.09,0,0,0-4.79.67,28.36,28.36,0,0,0-4.72,1.56L502.91,160a32,32,0,0,1,6.87-2.38,34.21,34.21,0,0,1,8.05-1"/><polygon points="550.8 142.14 550.8 194.56 538.62 194.56 538.62 142.96 550.8 142.14"/><path d="M573.82,166.5a5,5,0,0,0-3.67,1.41,7.34,7.34,0,0,0-2,3.93h11.28a7.45,7.45,0,0,0-1.63-3.71,4.87,4.87,0,0,0-4-1.63m.3-9.95q8.61,0,12.81,5.6a21.43,21.43,0,0,1,4.19,13.18v4.09H568.4a6.45,6.45,0,0,0,2.86,3.89,9.8,9.8,0,0,0,5.23,1.3,22.8,22.8,0,0,0,4.68-.48,19.76,19.76,0,0,0,4.61-1.6l3.41,8.39a16.59,16.59,0,0,1-7.16,2.9,41.92,41.92,0,0,1-6.5.74q-9,0-14.66-4.68t-5.69-14.1q0-8.91,5.39-14.07a18.79,18.79,0,0,1,13.55-5.16"/><path d="M622.45,165.38q-3.72,4.91-7.47,9.8t-7.53,9.73h15.07l1.11,9.65H593.19c-.2-1-.43-2.09-.7-3.15s-.54-2.12-.78-3.16l15.07-20H594.53l-1.41-9.73h28.73a1,1,0,0,0,0,.3,1.53,1.53,0,0,1,0,.3l.3,3.11c.1,1,.18,2.08.23,3.12"/><path d="M638.48,184.83a7.41,7.41,0,0,0,2.94-.66,12.42,12.42,0,0,0,2.93-1.86v-3.64h-5.27a3.79,3.79,0,0,0-2.75,1,3.22,3.22,0,0,0-1,2.41,2.5,2.5,0,0,0,.93,1.93,3.32,3.32,0,0,0,2.26.81m2.9-28.28q7,0,11.06,4A14,14,0,0,1,656.52,171v22.72h-5.64l-2.45-2.82a14.84,14.84,0,0,1-4.45,2.6,15.3,15.3,0,0,1-5.57,1q-6.76,0-10.06-3.34a11.94,11.94,0,0,1-3.31-8.76q0-5.79,3.86-8.58T639,171.1h5.27a4.48,4.48,0,0,0-1.59-3.12,5.33,5.33,0,0,0-3.45-1.11,20,20,0,0,0-4.79.67,28.4,28.4,0,0,0-4.72,1.55L626.46,160a31.42,31.42,0,0,1,6.86-2.37,33.77,33.77,0,0,1,8.06-1"/><path d="M569.37,68.52a.58.58,0,0,0-.64.16.47.47,0,0,1-.13.11,1.37,1.37,0,0,0-.66,1.27h0c-.51,0-1,0-1.53,0a.85.85,0,0,1-.38-.12,2,2,0,0,1-.88-2.54l0-.15-.4-.06a1.82,1.82,0,0,1,0-.33,3.5,3.5,0,0,0-.25-2.19,1.82,1.82,0,0,1,.09-1.7c.11-.19.23-.37.32-.56a1.12,1.12,0,0,0,.13-.39.35.35,0,0,0-.45-.38,1.45,1.45,0,0,0-.22.09,2.07,2.07,0,0,1-2.29-.4,6.45,6.45,0,0,0-1.1-.78c-.58-.33-1.19-.61-1.78-.91l-.13-.09c0-.14.08-.18.16-.23,1-.57,1.91-1.15,2.89-1.7a3.91,3.91,0,0,1,1.73-.55c.57-.05,1-.43.49-1.11q-.2-.27-.36-.54a1.56,1.56,0,0,1-.23-1.07c0-.34.13-.66.18-1s.08-.62.11-.93a5.47,5.47,0,0,1,1.52.3,12,12,0,0,1,1.39.48c.46.19.91.43,1.36.65,0,0,0-.06,0-.08-.13-.53-.23-1.07-.39-1.59a2.86,2.86,0,0,0-.47-.81,1.51,1.51,0,0,0-1.33-.61,2.7,2.7,0,0,1-1.42-.35,1.6,1.6,0,0,1-.77-.79c-.14-.34-.31-.67-.48-1l-.53-.15a2.26,2.26,0,0,1-1.27-.9,1.65,1.65,0,0,1-.31-.93.71.71,0,0,1,.48-.78.73.73,0,0,0,.47-.86,1.74,1.74,0,0,0,0-.22A.66.66,0,0,1,563,44a2.42,2.42,0,0,1,1.45.4.4.4,0,0,1,.17.23,8.49,8.49,0,0,0,2,3.4s0,.07,0,.14a12.81,12.81,0,0,1-1.48.47l1.32.86a2.07,2.07,0,0,0,.25.15.36.36,0,0,0,.42-.12.29.29,0,0,0,0-.33,3.14,3.14,0,0,1-.18-.31,1.86,1.86,0,0,1-.21-1,2.46,2.46,0,0,0,0-.81,1.16,1.16,0,0,0-.2-.42c-.22-.34-.47-.67-.68-1a4.39,4.39,0,0,1-.59-1.53A2.1,2.1,0,0,1,566,42a1,1,0,0,1,1.3-.18l.21.11a.8.8,0,0,0,1,0,.89.89,0,0,1,.61-.17.6.6,0,0,1,.58.34,3.58,3.58,0,0,1,.24.72,4,4,0,0,1,0,1.25,7,7,0,0,0-2.37,2.82,2.07,2.07,0,0,0,.69.36c.1-.16.2-.31.28-.46a6.22,6.22,0,0,1,2.33-2.28,2.36,2.36,0,0,1,.89-.31.81.81,0,0,1,.89.42.59.59,0,0,1,.08.39c-.07.58,0,.81.54,1a.7.7,0,0,1,.46.74.88.88,0,0,1-.11.45,3.13,3.13,0,0,1-.5.65,2.61,2.61,0,0,0-.46.59,3.35,3.35,0,0,1-.64.76,8.42,8.42,0,0,1-1.21.84,2.21,2.21,0,0,0-1,1.23,6.29,6.29,0,0,0-.32,1.55v0a.15.15,0,0,0,.17-.12c.15-.32.29-.64.45-1a6.81,6.81,0,0,1,1.07-1.55c.08-.08.17-.14.28-.24.11.21.2.38.28.56a3.7,3.7,0,0,0,1.4,1.63,1.9,1.9,0,0,1,.91,1.56c0,.27,0,.55.07.82a1,1,0,0,0,.09.34.39.39,0,0,0,.65.06,1.32,1.32,0,0,0,.12-.2,2.16,2.16,0,0,1,.81-.75,1.91,1.91,0,0,1,1.42-.24,6.79,6.79,0,0,0,2.11,0c.51,0,1-.13,1.52-.19h.26a1.67,1.67,0,0,1-.07.3c-.54,1.09-1.07,2.19-1.63,3.27a4.49,4.49,0,0,1-1.19,1.45,1.29,1.29,0,0,0-.17.16.6.6,0,0,0,.16,1,3.2,3.2,0,0,0,.6.26A2,2,0,0,1,580,61.28c.2.54.45,1,.68,1.57a5.62,5.62,0,0,1-1.88.73c-.64.16-1.29.29-1.93.44-.06.11,0,.19.07.26a3.78,3.78,0,0,0,1.79,1.39A2,2,0,0,1,580,67.13c.06.23.12.46.2.68a1.1,1.1,0,0,0,.2.35.39.39,0,0,0,.64-.1,1.55,1.55,0,0,0,.08-.23,2.29,2.29,0,0,1,1-1.19,1.51,1.51,0,0,1,.77-.26,8.08,8.08,0,0,0,2.58-.54l1.49-.51a4.21,4.21,0,0,1-.06.55c-.26,1-.51,2.09-.78,3.14a5.55,5.55,0,0,1-1,2,1.37,1.37,0,0,0-.13.2.58.58,0,0,0,.34.93,5.45,5.45,0,0,0,.58.14l.46.09a1.75,1.75,0,0,1,1.08.76,8,8,0,0,0,1.2,1.56,3.31,3.31,0,0,1-.34.27,13.84,13.84,0,0,1-3.45,1.75,5.61,5.61,0,0,1-2.15.3,2.54,2.54,0,0,1-2.28-1.6.71.71,0,0,1,0-.15l.39,0a9.85,9.85,0,0,0,3.16.18,2.11,2.11,0,0,0,.35,0,.31.31,0,0,0,.18-.33.28.28,0,0,0-.23-.24,2.46,2.46,0,0,0-.47,0,10,10,0,0,1-3.44-.34.83.83,0,0,1-.22-.08s-.05,0-.1-.11l.41-.48A51.65,51.65,0,0,0,584,69.58c.09-.12.19-.25.27-.38a.31.31,0,0,0-.08-.42.34.34,0,0,0-.43,0,4.08,4.08,0,0,0-.25.33c-1,1.44-2.19,2.82-3.38,4.16-.11.13-.25.25-.37.37s0,0-.1,0l-.18-.33a20.09,20.09,0,0,1-1.14-3.09,1.58,1.58,0,0,0-.15-.38.26.26,0,0,0-.3-.13.3.3,0,0,0-.24.3,3.21,3.21,0,0,0,.11.52,25.33,25.33,0,0,0,1.05,2.87c.72,1.78,1.61,3.5,2.23,5.32a.82.82,0,0,0,.47.56,1.85,1.85,0,0,1,.34.23,1.09,1.09,0,0,1,.52,1,8.72,8.72,0,0,0,.15,1.46c-.15.15-.38.34-.58.55a.87.87,0,0,0-.12,1.17.61.61,0,0,0-.47-.2,8.77,8.77,0,0,0-.89,0c-.32,0-.65,0-1,0a1.86,1.86,0,0,1-.61-.19l-.95-.3c-1.58-.5-3.16-.95-4.78-1.29a1,1,0,0,0-.34,0,.27.27,0,0,0-.24.23.24.24,0,0,0,.14.29,2.55,2.55,0,0,0,.39.13c.69.16,1.38.3,2.06.5,1.38.4,2.74.84,4.11,1.25a.36.36,0,0,1,.3.38l1.1-.2a7.84,7.84,0,0,0,1.17-.11c0-.18,0-.34,0-.49l.58.51c-.19.09-.36.14-.51.23a3.14,3.14,0,0,0-.51.39.35.35,0,0,0-.06.43,5.51,5.51,0,0,0,.36.68.85.85,0,0,0,1.06.39l.22-.07c.19.09.17.26.19.41.08.76.29,1.5.31,2.27a.33.33,0,0,0,.07.16l0,0c0,.4,0,.79,0,1.18a31.85,31.85,0,0,1,.07,3.24c0,.15,0,.3,0,.54.26-.26.44-.46.63-.64s.36-.37.55-.54l.63-.53c.22-.16.44-.33.67-.48s.43-.27.66-.4l.73-.37c.23-.1.47-.2.71-.28s.53-.13.84-.21c0,.16,0,.27,0,.38a6.43,6.43,0,0,0-.05,1.52,4.25,4.25,0,0,0,.39,1.36,1.82,1.82,0,0,1,.07,1.53,10.29,10.29,0,0,1-.46,1l-.25.47a.36.36,0,0,0,.07.43.33.33,0,0,0,.47.1,2.68,2.68,0,0,1,1.71-.27,1.82,1.82,0,0,1,1.21.55,5.32,5.32,0,0,0,1.42,1c.68.36,1.38.68,2.06,1l.39.2c-.09.09-.13.15-.19.2-.26.18-.51.37-.78.52-.9.53-1.8,1.05-2.71,1.55a6.1,6.1,0,0,1-2.22.76,1.54,1.54,0,0,0-.46.11.51.51,0,0,0-.35.6,1.43,1.43,0,0,0,.22.54,3.22,3.22,0,0,1,.63,2.56c-.08.62-.13,1.25-.19,1.9a17.54,17.54,0,0,1-3.13-.8,1.71,1.71,0,0,0-.22.25,4.46,4.46,0,0,0-.83,2.66,1.73,1.73,0,0,1-.5,1.28,12,12,0,0,1-.92.82c-.14.12-.29.21-.42.32a.4.4,0,0,0-.12.48.38.38,0,0,0,.43.25,2.19,2.19,0,0,1,1.3.29,2.22,2.22,0,0,1,1.24,1.34,4.49,4.49,0,0,0,.72,1.28c.48.62,1,1.23,1.47,1.84l.29.37c-.14.16-.31.12-.45.16a3,3,0,0,1-.41.08c-1.17.1-2.34.22-3.52.3a5.9,5.9,0,0,1-2.21-.24,1.87,1.87,0,0,0-.46-.09.53.53,0,0,0-.61.44,1.35,1.35,0,0,0,0,.4,3.85,3.85,0,0,0,.08.47,2.84,2.84,0,0,1-.38,1.93l-.24.4-.92,1.55-.26-.15a17.63,17.63,0,0,1-2.41-2.08,9.37,9.37,0,0,1-1.53-2,4.19,4.19,0,0,1-.55-1.72,2.78,2.78,0,0,1,.87-2.29s.06,0,.14,0c0,.15.06.3.08.45a9.47,9.47,0,0,0,.93,3.08,2.27,2.27,0,0,0,.17.31.31.31,0,0,0,.42.1.29.29,0,0,0,.14-.35c-.05-.13-.11-.25-.17-.38a7.25,7.25,0,0,1-.78-2.7c0-.37-.09-.74-.13-1.11a2.62,2.62,0,0,1,0-.28,1.07,1.07,0,0,1,.65.17c1.62.65,3.25,1.26,4.92,1.78l1.24.37a1,1,0,0,0,.35,0,.27.27,0,0,0,.23-.23.27.27,0,0,0-.12-.31A1.74,1.74,0,0,0,584,117a59.79,59.79,0,0,1-6.27-2.22l-.47-.21a2.69,2.69,0,0,1,.21-.35,20.16,20.16,0,0,1,3.44-3l.19-.14a.31.31,0,0,0-.34-.51,2.12,2.12,0,0,0-.36.21c-.47.35-1,.68-1.4,1.07s-.92.85-1.39,1.28c-.17.15-.28.37-.53.44s-.16.16-.23.26a49,49,0,0,1-5.29,6.47,3.85,3.85,0,0,0-.29.35l1.72,1.14c.55.38,1.09.77,1.59,1.19-.05.16-.16.12-.25.12-.67,0-1.33-.09-2-.09a20.19,20.19,0,0,0-5.14.54,6.47,6.47,0,0,0-1.52.55,4,4,0,0,0,.6.67c.2.22.41.43.6.65s.41.47.61.72.37.46.54.7.35.47.52.71l.49.74.49.8.44.77c.14.26.28.52.41.78s.27.53.39.8.26.57.38.86.23.54.33.82a3.42,3.42,0,0,1,.27.9l-.53-.28a38,38,0,0,0-11.59-4.15,23.54,23.54,0,0,0-4.81-.38,17.44,17.44,0,0,0-4.42.66l-.66.18a.65.65,0,0,1,0-.54c.21-1.44.43-2.88.64-4.31,0-.14,0-.27,0-.43-.24,0-.37.14-.53.25a30.35,30.35,0,0,1-12.67,4.8,41.62,41.62,0,0,1-4.87.31,28.08,28.08,0,0,0-16.17,5.56c-.42.31-.81.63-1.2,1a.79.79,0,0,0-.16.23h-.12a27.72,27.72,0,0,0-6-3.9,28.6,28.6,0,0,0-8.24-2.56,28.22,28.22,0,0,0-4.11-.31,30.37,30.37,0,0,1-13.37-3,31.05,31.05,0,0,1-3.63-2.09c-.15-.11-.32-.21-.55-.35.09,1,.25,1.86.38,2.74s.25,1.75.38,2.67a3,3,0,0,1-.38-.05,17.21,17.21,0,0,0-2.58-.58,19.14,19.14,0,0,0-4.41-.14,36.41,36.41,0,0,0-13.5,4.08l-1.14.61-.09,0a2.63,2.63,0,0,1,.24-.84c.09-.27.21-.55.33-.82l.38-.86.39-.79c.13-.26.27-.53.41-.78s.29-.52.44-.77.32-.54.49-.81.32-.49.49-.73l.52-.72c.17-.24.35-.47.54-.7l.61-.72c.19-.22.4-.43.6-.65a5.84,5.84,0,0,0,.62-.67c-.17-.08-.31-.16-.44-.21a12.69,12.69,0,0,0-3-.71,25.48,25.48,0,0,0-4.94-.11,1.19,1.19,0,0,1-.61,0,3.83,3.83,0,0,1,.61-.5l.61-.46a3.08,3.08,0,0,0,.58-.51l-.32,0a13,13,0,0,1-2.33.29,11.75,11.75,0,0,1-5.84-1.37,20.05,20.05,0,0,1-3-1.93,24.39,24.39,0,0,1-3.9-3.49,11.4,11.4,0,0,1-1.45-2c-.08-.13-.13-.27-.2-.41s.11,0,.12,0a19,19,0,0,0,5.81,2.53c1.47.41,3,.78,4.44,1.18.53.14,1,.3,1.58.47a15,15,0,0,1,3.32,1.49c1,.64,2.06,1.29,3.1,1.94l.38.24c.12-.11,0-.16,0-.2l-2.41-2.26a2.77,2.77,0,0,0-.48-.34,17.92,17.92,0,0,0-4.53-1.93c-1.46-.4-2.92-.78-4.39-1.17a29,29,0,0,1-3.63-1.18,13.44,13.44,0,0,1-2.69-1.46l-.32-.28.53-.06.47-.07,3.09-.43a26.21,26.21,0,0,1,4.33-.39c.51,0,1,.07,1.53.1l.34,0a1.46,1.46,0,0,0-.06-.23,36.32,36.32,0,0,1-1.89-3.6,1.45,1.45,0,0,0-.15-.23c-.11.2,0,.38-.09.54a.65.65,0,0,1-.51,0,10.05,10.05,0,0,1-3.27-1.11,14.19,14.19,0,0,1-3-2.23c-.91-.87-1.78-1.78-2.66-2.68s-1.73-1.83-2.61-2.72a19.71,19.71,0,0,0-2.45-2.12A14.27,14.27,0,0,0,430.5,95a1.82,1.82,0,0,1-.31-.16.25.25,0,0,1,0-.09,5.89,5.89,0,0,1,1-.16,17.79,17.79,0,0,1,7.4,1.13,16.89,16.89,0,0,1,4.71,2.63,12.9,12.9,0,0,1,2.3,2.37l.29.35c-.05-.64-.21-1.16-.28-1.68s-.17-1.09-.23-1.63-.11-1.14-.15-1.71-.06-1.1-.07-1.65,0-1.09,0-1.74c-.26.31-.21.64-.43.89a2.67,2.67,0,0,1-.36-.14A10.2,10.2,0,0,1,441.4,91a15.41,15.41,0,0,1-2.11-3.26c-.53-1.08-1-2.17-1.51-3.26s-1.07-2.37-1.64-3.53a16.5,16.5,0,0,0-3-4.29c-.17-.19-.36-.36-.53-.55,0,0,0,0,0-.1.21,0,.42.07.62.12A15.63,15.63,0,0,1,437.5,78,18.07,18.07,0,0,1,443,83a12.55,12.55,0,0,1,2.13,4.81c.09.44.14.89.23,1.43,0-.17.07-.26.09-.35s0-.23.07-.35a42.2,42.2,0,0,1,1.83-7.49c.06-.16.11-.33.17-.49l-.25-.06c-.14-.59-.25-1.18-.41-1.77-.29-1.06-.58-2.12-.9-3.17a15.49,15.49,0,0,0-1.54-3.3c-.62-1.05-1.28-2.08-1.92-3.11a37.29,37.29,0,0,1-2.1-3.69,14.23,14.23,0,0,1-1.05-3c0-.14,0-.3-.07-.51l.25.13c1.06.75,2.12,1.49,3.17,2.25.72.52,1.45,1,2.13,1.58s1.06.94,1.56,1.44a8.48,8.48,0,0,1,2.09,3.9,12.69,12.69,0,0,1,0,6.36c-.05.17-.08.34-.12.5s0,0,0,0a.05.05,0,0,0,.05,0c1-1.66,1.84-3.38,2.67-5.11a44.06,44.06,0,0,0,2.15-5.29c.14-.43.26-.87.38-1.3a1.48,1.48,0,0,0,0-.2l-.42-.18a6.28,6.28,0,0,1-2.56-1.84,10.63,10.63,0,0,1-1.59-2.54c-.39-.82-.72-1.65-1.09-2.48s-.78-1.76-1.22-2.62a10,10,0,0,0-2-2.8c-.19-.19-.41-.36-.61-.54s-.13-.14-.24-.26a5.36,5.36,0,0,1,1,.14,8.17,8.17,0,0,1,2,.77,13.26,13.26,0,0,1,6.56,7.84c.14.45.21.92.32,1.38a1.22,1.22,0,0,0,.07.25c.06-.08.11-.11.13-.15a2.58,2.58,0,0,1,.14-.39,3.68,3.68,0,0,0,.32-2c-.06-.8-.15-1.6-.22-2.41a1.23,1.23,0,0,0-.09-.24,1.63,1.63,0,0,0-.5.16.8.8,0,0,1-.87-.17,3.2,3.2,0,0,1-.55-.61c-.21-.33-.39-.68-.57-1s-.44-.83-.65-1.25a.5.5,0,0,1,0-.15c.6.5,1,1.21,1.73,1.69a1,1,0,0,0-.07-.28c-.49-.69-1-1.38-1.49-2.06-.33-.45-.68-.91-1-1.35a3.1,3.1,0,0,0-1.2-.92c-.36-.16-.72-.32-1.07-.51a4.7,4.7,0,0,1-.82-.55,2.09,2.09,0,0,1-.47-2.34,1.46,1.46,0,0,1,.24-.33,3.87,3.87,0,0,1,.26-.31l-.44-.08-.38,0c0,.48-.06.94-.13,1.4a13.13,13.13,0,0,1-.32,1.38,5.36,5.36,0,0,1-.55,1.33A4.47,4.47,0,0,1,444,50.77a3.45,3.45,0,0,1-.54-1.74.19.19,0,0,0-.29,0l-.18.15a3.25,3.25,0,0,1-2.24.9,6.61,6.61,0,0,1-.89,0,1.81,1.81,0,0,1-.35-.09,5.28,5.28,0,0,1,.53-1.94,2.05,2.05,0,0,1,1.12-1,2.9,2.9,0,0,0,.76-.31,1.44,1.44,0,0,0-.57-.33,6.36,6.36,0,0,1-1.3-.79,3.26,3.26,0,0,1-1.13-1.89,1.11,1.11,0,0,1,0-.17.69.69,0,0,1,0-.16,4.22,4.22,0,0,1,1.42-.14,4.44,4.44,0,0,1,1.45.22,4.56,4.56,0,0,1,1.3.76,3.48,3.48,0,0,0,.14-.49,3.8,3.8,0,0,1,.7-1.67,11.07,11.07,0,0,1,2.49-2.38,1.9,1.9,0,0,1,.19.32,6.28,6.28,0,0,1,.24,4.21c-.05.17-.1.34-.14.51a1.1,1.1,0,0,0,0,.16,7.14,7.14,0,0,1,2.85.56c.48.26.94.57,1.4.87a2.56,2.56,0,0,1,.3.28,4.59,4.59,0,0,1-2.87,1.5,1.28,1.28,0,0,0,.11.21,4.88,4.88,0,0,1,.85,1.35c.22.52.44,1.05.62,1.58a5.59,5.59,0,0,0,1,1.76c.5.62,1,1.24,1.54,1.85l1,1.13c0-.11.09-.19.07-.24a2.92,2.92,0,0,0-.23-.47l-.59-.93c.31.1.31.1.66.47l.58.59c.19.19.37.4.54.59.06,0,.11,0,.12-.07.43-.73.85-1.46,1.27-2.19,0,0,.07,0,.1-.06l0,0c0,.2-.05.39-.09.58-.1.38-.21.76-.32,1.14a1,1,0,0,0,0,.61c.05,0,.1-.07.11-.11.33-1.31.76-2.6,1-3.94a5.06,5.06,0,0,0,0-1.23c-.05-.55-.16-1.09-.24-1.64a1.37,1.37,0,0,0-1-.18,4.27,4.27,0,0,1-1.47.05,3.11,3.11,0,0,1-1.9-1,2.28,2.28,0,0,1,.22-.28c.43-.35.84-.71,1.29-1a3.71,3.71,0,0,1,1.64-.64l.23,0a.4.4,0,0,0,.25-.42.88.88,0,0,0-.07-.23,5.25,5.25,0,0,1-.27-3.18c.08-.46.2-.92.32-1.38a2.62,2.62,0,0,1,.13-.35,2.7,2.7,0,0,1,.38.17,6.4,6.4,0,0,1,2.59,2.9,3,3,0,0,0,.24.47.34.34,0,0,0,.47.1c.15-.08.3-.18.45-.28a6,6,0,0,1,3.7-.91.43.43,0,0,1,.13,0,.53.53,0,0,1,0,.22,4.63,4.63,0,0,1-2,3.22l-.54.36c-.36.25-.4.42-.12.77a8.09,8.09,0,0,1,1.3,2.75l.09.41a1.19,1.19,0,0,1,0,.19,2.72,2.72,0,0,1-1.17,0,4.51,4.51,0,0,1-1.07-.31,8.37,8.37,0,0,1-1-.58s-.06,0-.07,0a8.81,8.81,0,0,0-1.32,2.21c-.25.72-.51,1.44-.75,2.17-.17.5-.33,1-.5,1.51,0,.13-.07.25-.13.44.14,0,.23,0,.26-.06a2.6,2.6,0,0,0,.28-.45c.12-.24.23-.5.36-.74a2.26,2.26,0,0,1,.2-.27,12.3,12.3,0,0,1-.5,2.23,2.87,2.87,0,0,1-.34.62,1.18,1.18,0,0,1-1.56.42,5,5,0,0,1-.52-.26.37.37,0,0,0-.25.51c.12.54.21,1.08.3,1.62,0,.23.06.47.09.7l.1.66c.14-.15.23-.23.31-.33a11.51,11.51,0,0,1,2.2-2.21,8.34,8.34,0,0,1,3.05-1.49c.61-.16,1.22-.31,1.83-.44a10.56,10.56,0,0,0,3.42-1.4,2.34,2.34,0,0,1,.29-.13c-.1.18-.14.28-.2.37A11.39,11.39,0,0,1,464,57.78c-.76.68-1.53,1.35-2.33,2-1,.78-2,1.52-3,2.3a18.42,18.42,0,0,0-2.26,2.06,10.56,10.56,0,0,0-1.76,2.5,2.8,2.8,0,0,0-.27.71,34.87,34.87,0,0,1-2.19,6.28,1.25,1.25,0,0,0-.2.57,1.31,1.31,0,0,0,.48-.37,8.9,8.9,0,0,1,2.48-1.68,13.13,13.13,0,0,1,2.13-.66,29.76,29.76,0,0,1,3.5-.49c1.29-.12,2.59-.2,3.86-.44h.23c-.08.13-.12.23-.18.32a13.2,13.2,0,0,1-2.14,2,23.72,23.72,0,0,1-2.72,1.75c-1,.57-2,1.11-3,1.67-.67.37-1.34.76-2,1.15a16,16,0,0,0-3.33,2.62c-.8.83-1.59,1.69-2.38,2.53l-.23.24c-.18-.07-.12-.2-.12-.31s0-.23,0-.35c-.19,0-.18.21-.22.34a36.16,36.16,0,0,0-.92,3.83,33.52,33.52,0,0,0-.55,6.16,30.25,30.25,0,0,0,3.16,13.3,2.49,2.49,0,0,0,.2.32c.14-.06.1-.15.1-.21a7.73,7.73,0,0,1,1-3.67,13.49,13.49,0,0,1,3-3.79c.9-.83,1.85-1.59,2.79-2.37l3.19-2.6.19-.13c.09.17,0,.29-.08.4-.37.74-.71,1.49-1.14,2.19-.84,1.35-1.74,2.67-2.61,4s-1.57,2.4-2.31,3.63a17.31,17.31,0,0,0-1.64,3.58,14,14,0,0,0-.47,2,.67.67,0,0,0,.11.55l.41.58a.44.44,0,0,0,.13,0,2.7,2.7,0,0,0,.08-.39,11.4,11.4,0,0,1,1.05-4,22.32,22.32,0,0,1,1.77-3.26c.87-1.33,1.76-2.65,2.65-4a37.33,37.33,0,0,0,2.34-3.88c.13-.26.26-.52.38-.78.17,0,.13.16.13.25,0,.69,0,1.38,0,2.06,0,1.38,0,2.76,0,4.13a20.16,20.16,0,0,1-.24,3.29,9.8,9.8,0,0,1-.84,2.57,7.21,7.21,0,0,1-3.48,3.39,10.59,10.59,0,0,1-2.81.84,4.85,4.85,0,0,0-.74.15,26.06,26.06,0,0,0,3.18,4,12.34,12.34,0,0,0,1.45,1.44c0-.34.07-.6.11-.87a12.36,12.36,0,0,1,1.28-3.83,32.4,32.4,0,0,1,1.81-3c.64-1,1.27-2,1.9-3,.05-.08.11-.15.21-.28a1.35,1.35,0,0,1,0,.69c-.16.85-.31,1.7-.52,2.54-.36,1.41-.77,2.8-1.15,4.2a26.47,26.47,0,0,0-.72,3.52,12.14,12.14,0,0,0,0,2.41,1.1,1.1,0,0,0,0,.18.28.28,0,0,0,.36.21c.14-.06.27-.14.42-.22a1.55,1.55,0,0,0,0-.3,14.17,14.17,0,0,1,.43-4.26c.36-1.45.76-2.89,1.16-4.33a28.54,28.54,0,0,0,.9-4.2.64.64,0,0,1,.05-.16,2.23,2.23,0,0,1,.17.25q1.1,2.61,2.17,5.22a7.93,7.93,0,0,1,.32.89,6.44,6.44,0,0,1-.21,4.39c-.07.17-.14.35-.24.58.72-.14,1.37-.36,2-.5a3.41,3.41,0,0,0,.05-.42c0-1.35,0-2.71,0-4.07a1.9,1.9,0,0,0-.17-.74,28.91,28.91,0,0,1-1.56-5.18,31.51,31.51,0,0,1-.59-7.44c.06-1.46.15-2.91.33-4.35a50.15,50.15,0,0,1,1.45-7.28,49.36,49.36,0,0,1,2.19-6.22,44.16,44.16,0,0,0,3-10.38,42.5,42.5,0,0,0,.58-8A46.59,46.59,0,0,0,466,38a2.56,2.56,0,0,1-.35-.63c.1-.12.2-.24.31-.35l3.26-3.24L477.07,26c2.55-2.54,5.11-5.07,7.65-7.61a1.1,1.1,0,0,1,.88-.36h57.83c.87,0,.6-.1,1.22.51l9.06,9,8.53,8.49,1,1,.29.33c-.09.15-.17.31-.27.45a47.07,47.07,0,0,0-7.14,19.78,47.22,47.22,0,0,0-.29,8.06,45.2,45.2,0,0,0,2,11.47,8.6,8.6,0,0,0,.52,1.3A46.68,46.68,0,0,1,562.56,91a48.81,48.81,0,0,1,.78,9.5,29.9,29.9,0,0,1-2.12,10.52,2.55,2.55,0,0,0-.21,1c0,.79,0,1.58,0,2.36,0,0,0,.08,0,.16a1.09,1.09,0,0,0,.26,0,2.84,2.84,0,0,0,1.09-.78,2.24,2.24,0,0,1,2.08-.71l.76.09a1.43,1.43,0,0,0,.29,0,.38.38,0,0,0,.25-.63c-.06-.07-.15-.13-.22-.2a2.78,2.78,0,0,1-.74-1.93,1.51,1.51,0,0,1,.13-.63,7.39,7.39,0,0,0,.53-2.41c0-.6.09-1.21.14-1.86a1.26,1.26,0,0,1,.28.11c.22.14.43.28.63.43.84.66,1.67,1.31,2.49,2a5.63,5.63,0,0,1,1.43,1.71l.09.15c.35.51.74.53,1.14.05.1-.12.18-.26.27-.39a2.62,2.62,0,0,1,1.44-1.07l.34-.1,1.9-.54a2.72,2.72,0,0,1,.17.82c.07.3.09.62.13.93s0,.59.05.88a6.88,6.88,0,0,0,.06.89,14.17,14.17,0,0,0,1.94-3.1,36.82,36.82,0,0,0,4-11.43,3.49,3.49,0,0,1-1.05,1.39c-.16-.08-.12-.21-.13-.31a9.68,9.68,0,0,0-.66-3.28,2.48,2.48,0,0,0-.17-.37.3.3,0,0,0-.36-.12.28.28,0,0,0-.19.32,3,3,0,0,0,.15.45,10.52,10.52,0,0,1,.55,4.13,1,1,0,0,1-.62-.2c-1.18-.57-2.36-1.16-3.56-1.71-.73-.34-1.48-.63-2.22-.93l-.45-.15a.29.29,0,0,0-.33.18.29.29,0,0,0,.09.36,1.33,1.33,0,0,0,.32.15,60.13,60.13,0,0,1,6,2.75,1.07,1.07,0,0,1,.5.34,1.81,1.81,0,0,1-.25.3c-.62.51-1.24,1-1.89,1.5s-1.09.7-1.64,1c-.11.08-.24.14-.35.22a.29.29,0,0,0-.06.37.32.32,0,0,0,.35.16,4.11,4.11,0,0,0,.42-.21,15.89,15.89,0,0,0,2.8-1.94,3.46,3.46,0,0,1,.6-.47,2,2,0,0,1,0,1.12,4,4,0,0,1-1.23,2,6.76,6.76,0,0,1-1.71,1.15,11,11,0,0,1-5.5,1,5.35,5.35,0,0,1-1.72-.37c0-.22.15-.32.25-.45a4.89,4.89,0,0,0,.93-1.83,5.47,5.47,0,0,0,.13-.81,1.75,1.75,0,0,1,.64-1.22c.3-.25.63-.47.95-.69.13-.09.28-.16.4-.25a.42.42,0,0,0,.21-.5.37.37,0,0,0-.4-.28,2.54,2.54,0,0,1-1.23-.38,2.25,2.25,0,0,1-1.16-1.48,4.72,4.72,0,0,0-.63-1.39c-.43-.68-.89-1.34-1.34-2l-.21-.35c.28,0,.51-.09.74-.09,1.26,0,2.52,0,3.77,0a5.61,5.61,0,0,1,2.13.45,1.6,1.6,0,0,0,.33.11A.61.61,0,0,0,576,94a1.84,1.84,0,0,0,0-.47,3,3,0,0,1,.68-2.26c.28-.35.54-.72.8-1.09a1.83,1.83,0,0,0,.18-.34c-.17-.09-.25,0-.34.08a10.26,10.26,0,0,1-3.83,1.46,5.73,5.73,0,0,1-2.54,0,2.76,2.76,0,0,1,.08-.27c0-.09.09-.17.14-.26a4.21,4.21,0,0,0,.59-2.42,1.93,1.93,0,0,1,.58-1.55c.22-.22.46-.43.7-.63l.31-.28a.39.39,0,0,0,.07-.44.34.34,0,0,0-.38-.22,2.41,2.41,0,0,1-1.37-.23,2.1,2.1,0,0,1-1.15-1.12,4.08,4.08,0,0,0-.72-1.14c-.41-.48-.83-1-1.25-1.41l-.56-.59c0-.18.17-.18.27-.2l2.15-.38c.36-.07.73-.11,1.1-.17a7.21,7.21,0,0,1,2.7,0,1.35,1.35,0,0,0,.29,0,.58.58,0,0,0,.68-.67,1.87,1.87,0,0,0-.09-.41,2.81,2.81,0,0,1,.27-2.16c.16-.3.33-.58.48-.88s.28-.6.43-.94a19.26,19.26,0,0,1,2.17,1.55,11.64,11.64,0,0,1,1.88,1.95,23.55,23.55,0,0,0-1.89-4.63,3.3,3.3,0,0,1-1.31-.62c-.34-.31-.65-.66-1-1l-.36.13a3,3,0,0,1-2.3,0c-.34-.14-.68-.31-1-.47s-.44-.32-.74-.32h.64a1.44,1.44,0,0,0,.78-.22.44.44,0,0,0,.23-.54c0-.21-.07-.43-.11-.64a.79.79,0,0,0-.76-.69l-.23,0s0,0,0,0,0,0,0,0h0a.68.68,0,0,0,.77,0c.23-.13.47-.28.72-.39s.65-.25,1-.38l.29-.12-.62-1c0-.06-.1-.12-.14-.17s-.11,0-.12.07a1.24,1.24,0,0,1-.89.91,4.23,4.23,0,0,0-.47.25l-.42.27a.69.69,0,0,0-.6-.61c-.15,0-.3-.11-.45-.15a.87.87,0,0,0-1.13.56,4.65,4.65,0,0,0-.14.54,1,1,0,0,1-.4-.5l0,0c.12-.06.1-.16.08-.25a5.38,5.38,0,0,1-.18-1.69,2.27,2.27,0,0,1,.92-1.77,1.57,1.57,0,0,1,1-.36.73.73,0,0,1,.75.37.76.76,0,0,0,.17.23.72.72,0,0,0,.83.17c-.26-.61-.57-1.16-.88-1.73h0c.06,0,.14,0,.16,0a3.42,3.42,0,0,1,.26.4l.7,1.21a4.09,4.09,0,0,1,.48.13.62.62,0,0,1,.48.6c0,.18,0,.36,0,.53a.9.9,0,0,0,0,.34c.18.31.37.6.57.9.07.11.11.25.3.31.07-.47.12-.93.22-1.38a12,12,0,0,1,.33-1.31c.15-.44.35-.86.54-1.32L576,64c-.35,0-.71-.05-1.05-.11a2.59,2.59,0,0,1-2.19-2,1.42,1.42,0,0,1,0-.33l.59.25a10.28,10.28,0,0,0,2.77.77,1.41,1.41,0,0,0,.41,0,.26.26,0,0,0,.21-.25.28.28,0,0,0-.16-.29,1.36,1.36,0,0,0-.35-.07A10.38,10.38,0,0,1,572.82,61c-.1-.05-.24-.07-.24-.26l.49-.37q2.19-1.56,4.21-3.32a3.33,3.33,0,0,0,.39-.36.3.3,0,0,0-.39-.45,5.19,5.19,0,0,0-.45.37q-1.92,1.66-4,3.14l-.47.32c0-.06-.09-.08-.1-.12a2.29,2.29,0,0,1-.08-.28,19.58,19.58,0,0,1-.44-3.15c0-.13,0-.27,0-.41a.32.32,0,0,0-.3-.23.33.33,0,0,0-.28.27c0,.15,0,.31,0,.47a19,19,0,0,0,.43,3.09c0,.14,0,.3.05.49a3.88,3.88,0,0,1-1.47-.8.63.63,0,0,1-.1-.2c-.12,0-.18-.06-.23-.15l-.5-.74c-.58,0-1.15.06-1.72.11l-3.92.39a1.47,1.47,0,0,0-.4.1.37.37,0,0,0-.16.21.25.25,0,0,0,.26.31c.29,0,.59-.05.88-.09,1.51-.22,3-.31,4.57-.41a1.65,1.65,0,0,1,.36,0,3.08,3.08,0,0,1-.12.42,16.08,16.08,0,0,1-1.19,2.56c-.08.13-.15.27-.22.41a.25.25,0,0,0,.12.31.24.24,0,0,0,.32,0,.94.94,0,0,0,.21-.28c.29-.54.58-1.07.84-1.62s.35-.83.51-1.25a.41.41,0,0,1,.39-.3.66.66,0,0,0,0,.28,1.59,1.59,0,0,0,.17.31,3,3,0,0,1,.36,2.26,5.24,5.24,0,0,1-.81,1.82,8.17,8.17,0,0,1-1.58,1.74,3.79,3.79,0,0,0-.26.29l.26.22a1,1,0,0,1,.5,1,3.4,3.4,0,0,0,.17,1.26l.52.16ZM529.22,95s0,0,0,.06,0,0,0,0V95c.11,0,.23.09.29-.07a2.58,2.58,0,0,0,.29,0l.73-.23a3.77,3.77,0,0,1,2.37,0,11.41,11.41,0,0,0,1.31.33,1,1,0,0,0,.64,0c-.92-.27-1.75-.62-2.62-.82a2.42,2.42,0,0,0-.76,0,4.4,4.4,0,0,0-1.82.63c-.06,0-.08.11-.13.17Zm-51.94,6.07.39-.1c.45-.14.89-.3,1.35-.42a4.39,4.39,0,0,1,2.66,0,12.23,12.23,0,0,0,1.19.31,8.11,8.11,0,0,0,1.92.25c-.22-.06-.33-.08-.44-.12l-2.86-.9a3.56,3.56,0,0,0-1.62-.16,6.37,6.37,0,0,0-2.45.94c-.06,0-.09.11-.13.17l-.14,0,0,0,.1-.09m27,20.87.5-.14c.48-.17,1-.36,1.45-.5a5.49,5.49,0,0,1,3.47,0,12.48,12.48,0,0,0,1.94.47,4.55,4.55,0,0,0,1.46.13c-.6-.17-1.13-.3-1.65-.47-.71-.22-1.42-.46-2.12-.7a4.12,4.12,0,0,0-2.09-.14,7.71,7.71,0,0,0-2.8,1.18.83.83,0,0,0-.15.17l-.09,0a.1.1,0,0,0,0,0s0,0,0-.08m32.86-29.39a1.86,1.86,0,0,1,.32-.23,19.75,19.75,0,0,1,4.48-1.59,10,10,0,0,1,5.46.16,26,26,0,0,0,5.28,1.16,7,7,0,0,0,1.94,0,16.64,16.64,0,0,1-4.06-.94c-1.18-.38-2.35-.77-3.51-1.18a7.63,7.63,0,0,0-4.18-.24,15.32,15.32,0,0,0-5.65,2.56,1.5,1.5,0,0,0-.13.11c0,.08,0,.13,0,.19a.47.47,0,0,0-.09-.06s0,0-.07,0,0,0,.06,0l.1,0m-30.86,1,.08.06-.09,0a1.28,1.28,0,0,0-.25-.15c-.68-.3-1.36-.61-2.06-.87a23.2,23.2,0,0,0-7.8-1.6,13.69,13.69,0,0,0-2.93.23l-5.29,1.14c-1.27.27-2.54.54-3.83.69l-.58.08a1.76,1.76,0,0,0-.6.1,2.81,2.81,0,0,0,.64,0c.9,0,1.81-.08,2.7-.17,2.11-.23,4.21-.56,6.28-1a15,15,0,0,1,3.34-.35,27.7,27.7,0,0,1,4.8.48,42.3,42.3,0,0,1,5.08,1.25,4.17,4.17,0,0,0,.51.09m-29.5,35.2h.05l0,0-.09,0c0-.2-.15-.2-.26-.25a20.34,20.34,0,0,0-3.81-1.21,22.92,22.92,0,0,0-3.79-.44c-.21,0-.42,0-.68,0,0-.65,0-1.27,0-1.9v-3.83c0-.65,0-1.29,0-1.94s0-1.26,0-1.88a22.71,22.71,0,0,0-5.83,2,26.6,26.6,0,0,0-5.35,3.09l.36,0a22.44,22.44,0,0,1,3.75.34,10.07,10.07,0,0,1,3.32,1.14l.36.25-.51.46-.48.44-.45.45-.45.48-.42.49c-.14.17-.28.33-.41.5l-.39.52-.34.48c-.13.17-.25.35-.37.53s-.24.36-.35.55l-.34.55c-.11.19-.22.37-.32.56s-.21.38-.31.57l-.3.57c-.1.2-.2.39-.28.59a1.35,1.35,0,0,0-.21.63l.4-.18a37.24,37.24,0,0,1,11.12-3.5,24.41,24.41,0,0,1,3.82-.22c.87,0,1.73.1,2.59.19m18.88-80.07c-.56-.54-1.09-1-1.6-1.56a1.3,1.3,0,0,1-.28-.5c-.31-.87-.61-1.75-.91-2.62a2,2,0,0,1-.12-.69c0-.88,0-1.77,0-2.65,0-.13,0-.27,0-.41s.25-.09.37-.11c1.7-.41,3.4-.8,5.09-1.22a1.11,1.11,0,0,1,.89.13c.84.52,1.69,1,2.53,1.51.11.06.22.19.39.09.05-.77,0-1.56,0-2.33a42.13,42.13,0,0,1,6-.64l2,2.51a5.46,5.46,0,0,0,1.27-.11c0-.45,0-.88,0-1.31a4.66,4.66,0,0,1,.06-1.29,2.4,2.4,0,0,1,.24,0h5.36a1.77,1.77,0,0,1,.3.06c0,.2,0,.37,0,.55v1.65a3.85,3.85,0,0,0,.06.42h1.27l2-2.51c1.9.1,3.77.34,5.64.56a1.58,1.58,0,0,1,.31.1v.59c0,.53,0,1.06,0,1.59,0,.09,0,.2.13.26l.48-.27c.8-.48,1.6-.94,2.38-1.43a.94.94,0,0,1,.78-.13l5.26,1.28a1.59,1.59,0,0,1,.27.12c0,.13,0,.25,0,.36v2.72a2.06,2.06,0,0,1-.13.74c-.18.48-.34,1-.52,1.45a7.94,7.94,0,0,1-.54,1.43,8.28,8.28,0,0,1-1,1.22,2.42,2.42,0,0,1-.53.53c-.36,0-.69-.17-1-.16a.72.72,0,0,0,0,.21l11,35.6,2.73.61c.29.34.36.74.63,1h.73a14.57,14.57,0,0,1,2.88.15,20.28,20.28,0,0,1,8.15,3.39.78.78,0,0,1,.34.52,40.17,40.17,0,0,1,.68,4.07c.13,1.17.23,2.34.3,3.52a28.76,28.76,0,0,1-.2,5.94,27.27,27.27,0,0,1-1.46,5.7c-.06.16-.11.33-.16.5a6.37,6.37,0,0,0,1.24.59l.14-.29a27.91,27.91,0,0,0,1.91-9.37,45.5,45.5,0,0,0-.8-9.74,44.34,44.34,0,0,0-3.62-11.11,19.71,19.71,0,0,1-1-2.58,46.51,46.51,0,0,1-2-11.88,49.29,49.29,0,0,1,.08-5.3,48.17,48.17,0,0,1,6.84-21.71c.09-.15.17-.31.27-.48l-.46-.48L543.54,20.55c-.55-.56-.36-.46-1.12-.46h-55.6c-.81,0-.59-.1-1.17.48q-5.16,5.15-10.3,10.3-3.3,3.29-6.59,6.58a1.37,1.37,0,0,0-.42.5l.45.76a48.42,48.42,0,0,1,6.81,23.1,44,44,0,0,1-.71,9.51,45.82,45.82,0,0,1-3,9.91,48.72,48.72,0,0,0-2.42,7.2,47.26,47.26,0,0,0-1.32,8.78,32.22,32.22,0,0,0,.25,6.94A28.89,28.89,0,0,0,470,110c.05.12.12.23.19.36a6.46,6.46,0,0,0,1.22-.65c-.08-.21-.15-.39-.21-.57a26.7,26.7,0,0,1-1.57-7,33,33,0,0,1,0-4.77,47.62,47.62,0,0,1,.88-6.83c.11-.54.25-1.07.37-1.58a6,6,0,0,1,1.28-.38,86.37,86.37,0,0,1,9-1.66.46.46,0,0,0,.41-.28c.17-.35.38-.69.54-1a.87.87,0,0,1,.7-.54c.92-.19,1.84-.4,2.76-.6l.52-.13.19-.57L496.14,52c.34-1.09.69-2.18,1-3.26,0-.13.12-.26,0-.39l-1.46.27m64.6,77c0-.16,0-.23,0-.31q0-6.63,0-13.27a.14.14,0,0,0,0-.06l-.07-.1c-.13-.08-.31-.19-.5-.29a41.44,41.44,0,0,0-4.19-2,76.69,76.69,0,0,0-14.83-4.36c-1.66-.33-3.32-.61-5-.87s-3.19-.46-4.78-.65c-1.37-.16-2.74-.29-4.11-.4-1.62-.13-3.25-.24-4.88-.33-1.21-.07-2.43-.09-3.65-.15-2-.1-4-.09-6.07,0-1.8,0-3.61.12-5.41.21-1.34.06-2.67.14-4,.27-1.74.15-3.48.33-5.21.53-1.56.19-3.12.4-4.67.64-2.41.38-4.8.83-7.17,1.38A75,75,0,0,0,475.14,109a43.39,43.39,0,0,0-5.66,2.63c-.19.1-.41.17-.51.37-.08,1.5-.06,13,0,13.59a2.13,2.13,0,0,0,.27-.08l.76-.34a99.87,99.87,0,0,1,15.91-5.45c3.14-.79,6.31-1.45,9.51-2,1.9-.31,3.81-.55,5.72-.77,2.11-.23,4.22-.4,6.34-.53s4.16-.18,6.24-.18c3,0,6,0,9,.24,2,.14,4,.3,5.92.53,2.3.27,4.6.6,6.88,1,2.7.48,5.39,1.06,8.05,1.75a97.33,97.33,0,0,1,16.16,5.65l.49.19M502.72,41.54l-4.05.67-.55.07a3.8,3.8,0,0,1-.05-.43V40.08a3.21,3.21,0,0,0-.08-.34c-1.55.34-3.06.67-4.57,1.1,0,.38,0,.74,0,1.09a8,8,0,0,0,0,1.47,9.53,9.53,0,0,0,.54,1.49c.06.14.13.27.21.42l.49-.08c1.79-.33,3.58-.69,5.38-1s3.35-.44,5-.64c1.91-.23,3.83-.36,5.76-.42a87.88,87.88,0,0,1,9.6.18c1.94.15,3.87.34,5.8.59,2.37.31,4.74.71,7.08,1.18l1.24.23c.19-.46.35-.9.54-1.33a2.78,2.78,0,0,0,.27-1.37c0-.45,0-.9,0-1.35,0-.16,0-.31,0-.47a2,2,0,0,0-.23-.1l-4.12-1a1.19,1.19,0,0,0-.31,0c0,.43,0,.82,0,1.21a6.11,6.11,0,0,1-.05,1.27l-4.55-.76c-.1-.87,0-1.71-.07-2.54a20.59,20.59,0,0,0-3.62-.49,3.41,3.41,0,0,0-1,0c0,.21,0,.38,0,.55v1.66c0,.11,0,.22-.06.34a11.29,11.29,0,0,1-1.55-.06l-1.47,0a10,10,0,0,1-1.54-.09c0-.2,0-.37,0-.54V38.63a2.32,2.32,0,0,0-.05-.38,33.44,33.44,0,0,0-4.59,0c-.08.84,0,1.7-.06,2.54a.8.8,0,0,1-.2.07l-4.12.18-.22,0a1.13,1.13,0,0,1-.07-.6c0-.55,0-1.1,0-1.65a2,2,0,0,0-.07-.35c-1.54.12-3,.28-4.56.5-.08.87,0,1.71,0,2.61m-23.38,80.83.54.43a28.62,28.62,0,0,0,6.46,3.49,28.94,28.94,0,0,0,6.73,1.66,35.32,35.32,0,0,0,3.71.2,28.83,28.83,0,0,1,6.13.72,30.32,30.32,0,0,1,11.32,5.19l.43.29.41-.29a29.71,29.71,0,0,1,17.55-5.93,33.43,33.43,0,0,0,4-.25,28,28,0,0,0,6.59-1.72,27.66,27.66,0,0,0,6.12-3.37c.15-.11.35-.19.44-.43l-1.54-.48-.16.07-.34.23a26.59,26.59,0,0,1-14.94,4.52,30.52,30.52,0,0,0-6,.6,31.08,31.08,0,0,0-11.72,5l-.4.26-.5-.33a31.46,31.46,0,0,0-18-5.54,26.53,26.53,0,0,1-14.6-4.47l-.6-.38-1.64.52m17.27-35.95,1.55.14c1.21.14,2.42.27,3.62.42s2.57.36,3.85.54l3.91.53c1.11.15,2.22.28,3.33.41s2,.22,2.93.3,2,.13,3.06.19c.47,0,.94,0,1.41,0,1.06,0,2.12.09,3.18.09,1.75,0,3.49-.08,5.24-.24,1.39-.13,2.77-.29,4.14-.54,1.93-.35,3.85-.76,5.77-1.15a.59.59,0,0,0,.16-.08.78.78,0,0,0-.18-.11,149.09,149.09,0,0,0-25.24-1.71,147.22,147.22,0,0,0-16.73,1.17m55.72,42.3c.25,0,.5-.06.76-.07.84-.05,1.68-.14,2.52-.14a27.07,27.07,0,0,1,6.75.94,40.24,40.24,0,0,1,7.44,2.74c.15.08.28.21.51.16a7.65,7.65,0,0,0-.61-1.33c-.22-.44-.46-.87-.7-1.29s-.51-.85-.78-1.26-.55-.81-.84-1.2-.6-.78-.92-1.15-.68-.71-1-1.07a12.73,12.73,0,0,1-1.05-1,6.53,6.53,0,0,1,1.48-.77,14.13,14.13,0,0,1,3.9-.82c.72-.06,1.45-.08,2.18-.12.06,0,.11,0,.22-.09l-.48-.33a41.33,41.33,0,0,0-5.44-2.94,29.27,29.27,0,0,0-4.66-1.64.81.81,0,0,0-.54,0c0,.08,0,.18,0,.27v8.6a1.28,1.28,0,0,1-.08.66,25.81,25.81,0,0,0-4.38.44,15.89,15.89,0,0,0-4.23,1.48m-64.24-48c.12,0,.16.06.19,0q5.93-1,11.9-1.56l.05,0,0,0a25,25,0,0,0,.39-3.37.24.24,0,0,0-.1,0c-3.65.35-7.28.88-10.9,1.52a4.81,4.81,0,0,0-.54.14l-1,3.33m52.11-3.47c-1.84-.36-3.64-.67-5.44-.91s-3.82-.46-5.73-.69a1,1,0,0,0-.17,0l-.06,0-.07.06c.13,1.1.24,2.23.42,3.36.82.15,1.63.17,2.43.26l2.45.28,2.39.32c.82.11,1.63.24,2.45.36s1.57.3,2.44.38c-.37-1.17-.72-2.29-1.11-3.44m-44.63-5s-.06.06-.06.09c-.19,1-.37,2-.55,3a1.17,1.17,0,0,0,0,.31c3.42-.51,6.81-.84,10.2-1.15l.06,0,.07-.08c.05-.48.12-1,.14-1.53a6.29,6.29,0,0,0,.08-1.56,90.2,90.2,0,0,0-10,1m-4-3.33c-.31,1-.6,2-.89,3a0,0,0,0,0,0,0s0,0,.11.09c3.52-.62,7.12-1.08,10.75-1.4a9,9,0,0,0,.24-1.59,6.49,6.49,0,0,0,.13-1.61c-3.48.34-6.89.82-10.34,1.47m32.29,2.23c0,.26,0,.43,0,.61l.21,2.22a3,3,0,0,0,.06.32l.21,0,4.11.35c1.91.17,3.82.41,5.72.69a1.84,1.84,0,0,0,.31,0c-.1-.58-.18-1.12-.29-1.65a9.63,9.63,0,0,0-.36-1.62c-3.3-.44-6.59-.76-10-.94m4-.6c3.58.32,7.12.76,10.63,1.41h.18l.05,0,0,0a24.6,24.6,0,0,0-1.06-3,71.93,71.93,0,0,0-10.19-1.44,2.54,2.54,0,0,0,0,.39c.11.9.22,1.79.34,2.72m-29-10.41c1.23-.13,2.35-.32,3.48-.43s2.22-.24,3.33-.34,2.27-.19,3.38-.28a11.65,11.65,0,0,0,.17-2.52,4.28,4.28,0,0,0-.8,0l-2.52.18c-2.06.14-4.11.36-6.15.62-.13,0-.26.07-.4.1-.16.87-.31,1.72-.49,2.67m4.2,2.74c.06-.43.11-.87.17-1.32a7.21,7.21,0,0,0,.13-1.42c-3.15.29-6.23.73-9.31,1.31-.29.92-.6,1.81-.83,2.71a.79.79,0,0,0,.13,0c3.16-.51,6.33-1,9.52-1.24a.79.79,0,0,0,.19-.09m32.16-1.49a2.26,2.26,0,0,0-.31-.1c-.71-.13-1.43-.26-2.14-.37-1.28-.2-2.56-.39-3.84-.56-.78-.11-1.56-.18-2.34-.26-.19,0-.39-.09-.57,0a10.83,10.83,0,0,0,.4,2.74l1.91.18,1.93.22,2,.26c.64.09,1.27.22,1.91.3a17.58,17.58,0,0,0,1.91.28,14.33,14.33,0,0,0-.85-2.73m-37.53,3c-.17.94-.34,1.86-.51,2.78,0,0,0,.11.07.19q4.23-.6,8.47-1a.65.65,0,0,0,.21-.06,1.21,1.21,0,0,0,.11-.64,3.15,3.15,0,0,1,.37-1.41c.1-.17.18-.34.27-.52a1.74,1.74,0,0,0,.05-.22,70.19,70.19,0,0,0-9,.84m22.6-5.39.26.05,2,.12c1.07.08,2.15.16,3.23.27,1.42.16,2.84.35,4.26.53h.39a12.07,12.07,0,0,0-.5-2.61c-2.87-.4-5.78-.65-8.7-.79a4.2,4.2,0,0,0-1.17,0c.14.82.08,1.62.23,2.41m62.91,41.86a.71.71,0,0,1,.09-.52c.11-.31.23-.62.35-.94a15.87,15.87,0,0,1,1.42-3c0-.08.11-.16.16-.25a.32.32,0,0,0-.12-.41.29.29,0,0,0-.38.05,3.28,3.28,0,0,0-.27.38,16.43,16.43,0,0,0-1.43,3,4.39,4.39,0,0,0-.13.52,38.46,38.46,0,0,1-1.41,5,38.89,38.89,0,0,1-1.51,3.65c-.06.11-.18.22-.06.39l.25-.1c.31-.14.6-.3.91-.43a11,11,0,0,1,4.12-.87c.13,0,.27,0,.39-.11l-.41-.25c-.36-.25-.72-.48-1.06-.74a3.35,3.35,0,0,1-.89-1,2.77,2.77,0,0,1-.14-2.61,1.27,1.27,0,0,1,.37.48,9.5,9.5,0,0,0,2.12,2.35,1.86,1.86,0,0,0,.35.22.29.29,0,0,0,.35-.15.27.27,0,0,0,0-.33.81.81,0,0,0-.16-.16c-.14-.11-.28-.22-.41-.34a9.92,9.92,0,0,1-2.28-3s0-.06,0-.14l.38,0c1.24-.08,2.47-.15,3.7-.26,1-.1,2-.25,3-.38a1,1,0,0,0,.33-.1.27.27,0,0,0,.14-.3.28.28,0,0,0-.22-.25,1,1,0,0,0-.35,0,57.75,57.75,0,0,1-6.57.64,1.22,1.22,0,0,1-.63,0M522.58,63.49a5,5,0,0,0,.24.51,4.08,4.08,0,0,1,.56,2,1.88,1.88,0,0,0,.07.36c2.88.2,5.72.5,8.56.9a.45.45,0,0,0,.16,0,14.69,14.69,0,0,0-.56-2.88c-2.88-.41-5.79-.65-8.71-.84l-.32,0m-8.13-10.26a67.22,67.22,0,0,0-9.4.49c-.08.79-.22,1.59-.26,2.39a.62.62,0,0,0,.14.06c3.11-.2,6.22-.38,9.34-.4a.75.75,0,0,0,.16,0,10.85,10.85,0,0,0,0-2.5m0-7a61.16,61.16,0,0,0-8.46.61,1.38,1.38,0,0,0-.08.25c-.1.76-.19,1.52-.28,2.28,0,0,0,.07,0,.12a.83.83,0,0,0,.15,0c2.87-.28,5.75-.38,8.62-.45a12.3,12.3,0,0,0,0-2.85m-4.78,3.72a87.85,87.85,0,0,0-9,.92c-.11.56-.22,1.1-.32,1.63-.05.29-.1.58-.14.87,0,0,0,.07.06.14,1-.12,2-.26,3.07-.37s2.07-.19,3.11-.3,2.07-.1,3.09-.23a11.43,11.43,0,0,0,.14-2.66m5.4,3.28a7.51,7.51,0,0,0,0,1.25,4.19,4.19,0,0,0,.07,1.31c3.07,0,6.12.09,9.17.34a1.92,1.92,0,0,0,.24,0h0l.09-.07c0-.38-.06-.78-.14-1.18a5.34,5.34,0,0,0-.21-1.29c-2.94-.26-5.88-.4-8.82-.38l-.43,0m-4.89-.66a2.28,2.28,0,0,0,.74,0c2.68-.13,5.37-.12,8.06,0a1.65,1.65,0,0,0,.32,0,9.74,9.74,0,0,0-.2-2.6l-.22,0c-2-.11-4-.12-6-.08-.84,0-1.68.07-2.52.11l-.06,0-.06.07c0,.07,0,.16,0,.26l-.12,2.17a.45.45,0,0,0,.06.13m4.93-6.3a17.44,17.44,0,0,0-.06,2.59.58.58,0,0,0,.07.21c1.49,0,3,.07,4.43.15s2.7.19,4.05.29h.17l.08-.07c0-.4-.07-.83-.14-1.25a6.47,6.47,0,0,0-.23-1.35,58.27,58.27,0,0,0-7.8-.6,1.1,1.1,0,0,0-.57,0m4.79,6.32.7,0c1.29.08,2.59.15,3.87.27,1.51.14,3,.34,4.5.52a1.89,1.89,0,0,0,.31,0c-.16-.86-.31-1.68-.47-2.53-.24,0-.45-.1-.66-.12-1.07-.14-2.13-.29-3.21-.39-1.62-.16-3.24-.28-4.86-.42a1.4,1.4,0,0,0-.34,0,25.74,25.74,0,0,0,.16,2.61m4.82,29.21a1.64,1.64,0,0,0,.25.06c1.7.16,3.4.31,5.1.48,1.17.12,2.34.27,3.51.41l2.22.31c.1,0,.22,0,.37,0-.11-.76-.24-1.47-.4-2.16l-.2-.07c-1.44-.17-2.88-.35-4.33-.5-1.09-.12-2.19-.22-3.28-.3s-2-.13-3.06-.19a1.13,1.13,0,0,0-.3,0c0,.65.12,1.27.12,1.92m-14.86-25.2c0,.86-.17,1.63-.14,2.42,0,0,.05.06.1.12l2.26-.08a3,3,0,0,0,.41-.08,8.86,8.86,0,0,1,4.37,0,1.84,1.84,0,0,0,.4.06l2.12.07a1.84,1.84,0,0,0,.33,0,11.07,11.07,0,0,0-.15-2.45,2.63,2.63,0,0,0-.39-.06c-3.08-.05-6.16-.09-9.31.07M493.28,83.05c1.33-.17,2.57-.35,3.81-.49s2.54-.3,3.81-.43,2.49-.21,3.72-.31a6.76,6.76,0,0,0,.17-1.88A96.82,96.82,0,0,0,493.66,81c-.15.64-.26,1.29-.38,2m2.85-28.12a10.48,10.48,0,0,0-.73,2.47c1-.15,1.93-.31,2.9-.44s2-.27,3-.39,1.94-.22,2.94-.33c.06-.43.15-.84.17-1.24a3.83,3.83,0,0,0,.08-1.26,70.34,70.34,0,0,0-8.33,1.19m37.14-.09c-.18,0-.33-.09-.49-.11-1.68-.27-3.36-.54-5-.79-.76-.11-1.52-.18-2.28-.26a.62.62,0,0,0-.55.08c.1.77.2,1.57.29,2.33a1.09,1.09,0,0,0,.6.16c.57,0,1.14.09,1.7.15,2.07.25,4.13.51,6.17.89a2.46,2.46,0,0,0,.4,0l-.79-2.46M505.37,47a50.76,50.76,0,0,0-7.21,1.32l-.59,1.88c0,.12-.06.23-.09.34a.07.07,0,0,0,0,.06s0,0,.08.07c2.36-.4,4.76-.79,7.18-1a.58.58,0,0,0,.18,0l.05,0,.08-.08c.1-.78.2-1.62.31-2.5m19,2.58.68.09c1.37.18,2.73.35,4.09.54.77.11,1.54.27,2.32.39.12,0,.27.1.39-.08-.21-.64-.41-1.29-.62-1.94,0-.11-.09-.22-.13-.32l-.23-.09c-2.07-.46-4.15-.86-6.24-1.18a.9.9,0,0,0-.56,0c0,.85.2,1.67.3,2.58M442,48.11a2.43,2.43,0,0,0,1.71-.29,3,3,0,0,0,1.1,1.37A2.19,2.19,0,0,0,445,49a4.22,4.22,0,0,0,.37-1.24c0-.17,0-.36.18-.49a2.26,2.26,0,0,0,2.15-.81,3.08,3.08,0,0,0-2-.94,1.74,1.74,0,0,1,0-.61,2.55,2.55,0,0,0-.24-1.49,1.11,1.11,0,0,0-.2-.24A4.56,4.56,0,0,0,443.61,45a2.36,2.36,0,0,0-1.87-.08,1.58,1.58,0,0,0,1.06,1.47,1.87,1.87,0,0,0-.77,1.7m140,47.9a6.19,6.19,0,0,0,.13-.62,33.38,33.38,0,0,0,.28-3.46,34.41,34.41,0,0,0-.11-4.06c0-.08,0-.2-.11-.23-1.28,1.45-2.2,1.44-3.3.84l-.53.53c-.18.2-.46.3-.57.59l.79.73a14.4,14.4,0,0,1,2.42,2.87,5.78,5.78,0,0,1,1,2.81M490.29,73.2l-1,3.3a.07.07,0,0,0,0,.06l.07.07,2.33-.43c.81-.15,1.62-.26,2.4-.42a26.26,26.26,0,0,0,.62-3.35,1.93,1.93,0,0,0-.34,0,33.09,33.09,0,0,0-4.14.77m44.91,2.38,2.61.49c.56.11,1.12.23,1.68.33.16,0,.34.11.52,0-.32-1.11-.64-2.22-1-3.3a35.44,35.44,0,0,0-4.15-.75,1.89,1.89,0,0,0-.31,0c.2,1.09.4,2.15.61,3.24M519,59.74c.57.46,1.13.85,1.63,1.32s.94,1,1.42,1.56a16.23,16.23,0,0,0,3.69.17c0-.44-.08-.89-.15-1.33a7.68,7.68,0,0,0-.22-1.37,49.54,49.54,0,0,0-6.37-.35m-8.51,0h-.55l-1.06.07-4.16.27a1.85,1.85,0,0,0-.71.15c0,.31-.07.62-.11.93s-.08.58-.11.87a2.44,2.44,0,0,0-.06.94h.37c.94-.07,1.88-.16,2.82-.2a.84.84,0,0,0,.72-.38A9.48,9.48,0,0,1,510.2,60l.29-.24m60.55,57c-.3.16-.3.16-.52.16a19.86,19.86,0,0,1-4.22-.23,1,1,0,0,0-.29,0,.28.28,0,0,0-.25.22.25.25,0,0,0,.12.3,1,1,0,0,0,.33.12c.6.08,1.21.18,1.81.21s1.42,0,2.13,0c.08,0,.19,0,.27.12a2.21,2.21,0,0,1-.55.64,6.2,6.2,0,0,1-.67.47c-.25.13-.52.23-.83.37a8.16,8.16,0,0,0,1.06.54c.09-.09.18-.16.26-.25,1.12-1.13,2.17-2.32,3.19-3.55a8.26,8.26,0,0,0,1.51-2.91,1.35,1.35,0,0,0,.06-.34.26.26,0,0,0-.2-.26.25.25,0,0,0-.31.1,2.54,2.54,0,0,0-.16.38c-.2.49-.37,1-.61,1.46a11.49,11.49,0,0,1-1.44,2s-.07,0-.14,0c-.1-.19-.21-.4-.3-.61-.84-1.8-1.7-3.59-2.71-5.3a4.17,4.17,0,0,0-.29-.44.26.26,0,0,0-.37-.06.29.29,0,0,0-.12.36,2.29,2.29,0,0,0,.16.31,55.88,55.88,0,0,1,2.85,5.62c.08.18.16.35.23.53M524.51,78.83l3.6.23a.76.76,0,0,0,.21,0,20.46,20.46,0,0,0-.39-3.43c-.21,0-.44-.07-.67-.09l-2.82-.2-.2,0a22.47,22.47,0,0,0,.27,3.49M505.2,75.37c-1.28.09-2.49.17-3.72.31-.09.6-.18,1.16-.23,1.72a9.16,9.16,0,0,0-.16,1.74c.18,0,.31,0,.45,0l3.28-.26.06,0,.07-.09c.09-1,.18-2,.27-3,0-.1,0-.19,0-.35M492.91,65.18c-.3,1-.6,2-.88,2.93,0,0,0,.1.06.15l4.44-.75c.21-1,.39-2,.54-2.93a23.43,23.43,0,0,0-4.16.6m39.44-.71a7.75,7.75,0,0,0,.23,1.43,8.23,8.23,0,0,0,.31,1.41c.5.14,4.12.76,4.46.76a20.6,20.6,0,0,0-.92-2.94,25,25,0,0,0-4.08-.66M536.59,81a3.78,3.78,0,0,0,.15,1.17,3.42,3.42,0,0,0,.25,1.06c1.72.36,4.9.9,5.37.9a5.24,5.24,0,0,0-.34-1.17,4.11,4.11,0,0,0-.43-1.15c-1.65-.29-3.28-.6-5-.81m-13.25,20.29a.53.53,0,0,0-.13-.13,15.45,15.45,0,0,0-5.36-2.49,7.87,7.87,0,0,0-4.63.25c-1,.37-2.08.7-3.13,1a23.38,23.38,0,0,1-3.7,1l-.29,0-.27.05a12.42,12.42,0,0,0,3.17-.22,39.48,39.48,0,0,0,4.68-1.16,7,7,0,0,1,2-.31,13.62,13.62,0,0,1,3.6.52,22.06,22.06,0,0,1,3.54,1.3c.15.07.28.22.49.13M487.1,84.06s.11,0,.16,0l5.19-.93a1.22,1.22,0,0,0,.08-.17c.1-.56.21-1.12.31-1.68a.78.78,0,0,0,0-.21,47.32,47.32,0,0,0-5.06.83,12,12,0,0,0-.64,2.12m36.42-17c0,.29,0,.5,0,.71.06.72.13,1.44.2,2.16a3.47,3.47,0,0,0,.08.36l1.66.1a7.19,7.19,0,0,0,1.67.06,20,20,0,0,0-.41-3.13c-1-.12-2.08-.18-3.2-.26m-17.85,3.26c.08-1,.17-1.94.25-2.87a1.09,1.09,0,0,0-.05-.26,11.86,11.86,0,0,0-3.23.32c-.12.9-.24,1.81-.35,2.73a2.6,2.6,0,0,0,0,.36c1.13-.11,2.22-.13,3.35-.28m-6.86-12.76a24.46,24.46,0,0,0-3.72.62,17.19,17.19,0,0,0-.82,2.68s.07.06.1.05l3.72-.61a1.78,1.78,0,0,0,.23-.09c.18-.86.35-1.72.49-2.65m32.26,2.52.45.11,3.41.59a1.58,1.58,0,0,0,.26,0c-.31-.92-.55-1.83-.9-2.7-1.17-.21-2.3-.42-3.45-.55a.85.85,0,0,0-.25,0c.16.85.31,1.67.48,2.54m-31-9.19c-1,.16-1.94.29-2.88.51-.1.31-.2.6-.29.9s-.18.56-.26.84a3,3,0,0,0-.22.94c1.08-.18,2.11-.34,3.17-.54.16-.87.35-1.7.48-2.65m29.78,2.58,2.92.49a.85.85,0,0,0,.22,0c-.26-.85-.53-1.68-.82-2.51a6.88,6.88,0,0,0-1.39-.29,4.33,4.33,0,0,0-1.41-.17c.15.86.28,1.69.48,2.52M537,100.83a.44.44,0,0,0,.15,0c.35,0,.71,0,1.06-.08a25.84,25.84,0,0,0,3.78-.86c.34-.1.67-.2,1-.28a7.54,7.54,0,0,1,3,.06,16.67,16.67,0,0,1,3.58,1.17c.15.07.29.2.5.15a.94.94,0,0,0-.12-.14,12.49,12.49,0,0,0-3.75-1.8,6.42,6.42,0,0,0-4.15.13l-.39.14a38.46,38.46,0,0,1-4.67,1.39l0,.07m32-43.44.07,0c0-.23,0-.47-.06-.7a.77.77,0,0,0-.2-.48l-1.29-1.29a.38.38,0,0,0-.15-.09.24.24,0,0,0-.31.06.24.24,0,0,0,0,.32,2,2,0,0,0,.28.3,8.88,8.88,0,0,1,1.53,1.71l.17.22m8.78,29.1-1.51,1.23a.35.35,0,0,0-.1.46.28.28,0,0,0,.32.08,1.49,1.49,0,0,0,.3-.18c.36-.29.73-.59,1.08-.9a2.17,2.17,0,0,0,.28-.31l-.37-.38m1.3-5.83c.2-.06.4,0,.57-.2-.2-.37-.38-.73-.57-1.09l-.13-.2a.3.3,0,0,0-.41-.1.3.3,0,0,0-.09.41c.19.38.4.75.63,1.18m-9.77-31.92a1.81,1.81,0,0,0,.07.78.35.35,0,0,0,.6.16,2.37,2.37,0,0,0,.55-.89c-.43,0-.81-.08-1.22,0m-45.67,52.74,0,0v0Z"/><path d="M519.37,0c0,1.24,0,2.48,0,3.71a1.38,1.38,0,0,0,0,.25c.66.08,1.3,0,2,.08l3.2-3.77c3.07.22,6.1.53,9.15.93a3.41,3.41,0,0,1,0,.46V4.82c.18.12.29,0,.4-.06L537.26,3c.43-.24.86-.46,1.28-.73a1.17,1.17,0,0,1,1-.15c1.13.26,2.26.48,3.39.74,1.61.37,3.21.76,4.81,1.14.17,0,.34.1.52.16,0,.17,0,.32,0,.48V8.79a2.24,2.24,0,0,1-.1.63c-.43,1.18-.88,2.35-1.32,3.53l-.11.23a1.49,1.49,0,0,1-.63.05H482.76a3.09,3.09,0,0,1-.18-.37c-.41-1.11-.82-2.21-1.22-3.32a1.62,1.62,0,0,1-.12-.57c0-1.54,0-3.07,0-4.6a2,2,0,0,1,0-.2,1.89,1.89,0,0,1,.25-.11c2.81-.69,5.62-1.31,8.45-1.89a1.27,1.27,0,0,1,.95.16c1.4.8,2.81,1.58,4.21,2.36.15.08.28.23.53.17,0-.6,0-1.21,0-1.81s0-1.17,0-1.74c.87-.24,7.65-.94,9.18-.95a1.87,1.87,0,0,1,.48.49l2.28,2.7a3.33,3.33,0,0,0,.36.39.47.47,0,0,0,.3.14c.57,0,1.13,0,1.74,0a4.62,4.62,0,0,0,0-.48c0-1,0-1.92,0-2.89a1.24,1.24,0,0,1,.08-.63Zm8.47,9.05c0-.15,0-.24,0-.34.06-.66.13-1.33.19-2a1.35,1.35,0,0,1,.06-.35,1.46,1.46,0,0,1,1.5-.92,1.42,1.42,0,0,1,1.2,1.26c0,.43.07.87.11,1.3a9,9,0,0,0,.18,1.42c3.7.42,7.37,1,11,1.6,0,0,.08,0,.15,0s.05-.28.07-.43c0-.55.09-1.1.14-1.65a1.39,1.39,0,0,1,2.76-.11,4.53,4.53,0,0,1,0,.53c.06.68.11,1.37.17,2.05a1.57,1.57,0,0,0,.08.29l.4.05.12-.17c.35-.84.69-1.67,1-2.5a1.56,1.56,0,0,0,.09-.64V5.58c0-.15,0-.31,0-.47a5.79,5.79,0,0,0-1.2-.33l-5.62-1.27a.32.32,0,0,0-.37,0v1.2c0,.39,0,.78,0,1.18a5,5,0,0,1-.06,1.26l-2.38-.4-2.33-.37c-.79-.13-1.59-.2-2.4-.37,0-.23,0-.42,0-.61,0-.91,0-1.81,0-2.71,0-.16,0-.31,0-.48-.82-.16-1.63-.21-2.43-.3S528.77,1.8,528,1.7a8.6,8.6,0,0,0-2.41-.11c-.08.62,0,1.25,0,1.87s0,1.25,0,1.91h-.31l-4.83-.2-1.71-.07a1.15,1.15,0,0,1-.29-.06c0-.22,0-.41,0-.61,0-.92,0-1.85,0-2.77,0-.15,0-.32-.1-.44-.55-.05-5.79-.07-6.83,0l-.26.05a11.34,11.34,0,0,0,0,1.3c0,.41,0,.82,0,1.23a8.91,8.91,0,0,1,0,1.27c-.06,0-.09.07-.13.07l-6.47.29h-.41l-.06,0-.08-.08c0-.59,0-1.21,0-1.84a15.85,15.85,0,0,0-.05-1.93c-.82.07-1.62.12-2.41.21s-1.57.16-2.35.24a22,22,0,0,0-2.39.3,7.69,7.69,0,0,0,0,1.26c0,.44,0,.87,0,1.3a5.29,5.29,0,0,1-.06,1.25c-.23,0-.46.1-.69.13l-6.11.94a1.48,1.48,0,0,1-.36,0V5.88c0-.39,0-.78,0-1.18a5.54,5.54,0,0,0,0-1.22c-.89.08-6.52,1.34-7.14,1.6a1.46,1.46,0,0,0,0,.22q0,1.62,0,3.24a1.63,1.63,0,0,0,.13.57c.29.73.59,1.45.89,2.18a3.4,3.4,0,0,0,.18.3,2.61,2.61,0,0,0,.93-.18,1.89,1.89,0,0,0,.1-.7c.06-.69.09-1.38.19-2.06a1.38,1.38,0,0,1,1.42-1.15,1.4,1.4,0,0,1,1.33,1.26c0,.53.09,1.06.14,1.59,0,.15,0,.3.07.53,3.56-.63,7.1-1.16,10.67-1.56a2,2,0,0,0,.1-.62c0-.56.08-1.13.14-1.7a1.43,1.43,0,0,1,1-1.19,1.33,1.33,0,0,1,1.43.44,1.28,1.28,0,0,1,.35.85c0,.53.09,1.06.13,1.59a1.81,1.81,0,0,0,.09.35c3.78-.33,7.54-.54,11.31-.59,0,0,.07,0,.13-.07a3.06,3.06,0,0,0,0-.32c.06-.57.11-1.14.16-1.7a1.32,1.32,0,0,1,.58-1,1.28,1.28,0,0,1,1.34-.16A1.36,1.36,0,0,1,516,6.33c0,.51.08,1,.13,1.53a.92.92,0,0,0,.15.6c3.76.06,7.54.26,11.32.61a1.63,1.63,0,0,0,.28,0"/><path d="M431.79,76.65a3.42,3.42,0,0,1,1.09.9,15.76,15.76,0,0,1,2.05,2.87c.63,1.11,1.16,2.27,1.68,3.44.62,1.38,1.24,2.76,1.88,4.13a17.64,17.64,0,0,0,1.81,3,11.32,11.32,0,0,0,3.15,2.9c.09.05.18.12.31.21-.08,0-.13.09-.17.09a14.55,14.55,0,0,1-4.24-.66A7.85,7.85,0,0,1,435.64,91,12.45,12.45,0,0,1,433,86a11.58,11.58,0,0,1-.28-2.63c0-.84,0-1.69,0-2.53a10.4,10.4,0,0,0-.77-3.73c-.06-.14-.11-.29-.17-.43"/><path d="M466.87,55.47a.76.76,0,0,1,.1.58,14.08,14.08,0,0,1-.64,3.81,15.75,15.75,0,0,1-2.85,5.38A10.75,10.75,0,0,1,459,68.59a9,9,0,0,1-4,.58l-.33,0a.4.4,0,0,1,0-.41,8.86,8.86,0,0,1,1.59-3.19,14.37,14.37,0,0,1,2.35-2.39c.85-.69,1.74-1.35,2.6-2s1.61-1.24,2.39-1.9a14.25,14.25,0,0,0,3.09-3.53,1.27,1.27,0,0,1,.16-.2"/><path d="M449,83.65c.13-.16.18-.24.24-.32a40.72,40.72,0,0,1,3-3.16A15.3,15.3,0,0,1,455,78.05c1.06-.62,2.15-1.21,3.23-1.82s1.89-1,2.82-1.6A15.66,15.66,0,0,0,465,71.39s.06,0,.09-.06.06.23,0,.32c-.16.52-.32,1-.52,1.56a14.47,14.47,0,0,1-1.37,2.54,28.2,28.2,0,0,1-3.8,4.64,11.34,11.34,0,0,1-5.93,3.17,11.16,11.16,0,0,1-2.23.21c-.61,0-1.21,0-1.82,0-.13,0-.26,0-.49-.08"/><path d="M438.54,62.39a.61.61,0,0,1,.07.14,14.42,14.42,0,0,0,1.62,4.22c.7,1.25,1.46,2.47,2.2,3.69.41.67.83,1.34,1.23,2a17.13,17.13,0,0,1,2,4.63c.28,1.07.53,2.13.79,3.2a6.12,6.12,0,0,1,.1.66c-.09,0-.15,0-.19,0a13.08,13.08,0,0,1-4.28-2.75,11.51,11.51,0,0,1-2.88-4.93,27.1,27.1,0,0,1-1.14-5.83,13.75,13.75,0,0,1,.2-4.34c.05-.21.12-.41.18-.62,0,0,.06,0,.1-.08"/><path d="M430.12,95.75l.69.31a14.55,14.55,0,0,1,3.13,2.19c.78.71,1.54,1.46,2.28,2.22.93,1,1.82,2,2.74,2.91a24.76,24.76,0,0,0,2.56,2.35,12.06,12.06,0,0,0,4.71,2.34,1.2,1.2,0,0,1,.21.09s0,.09-.06.1a13.67,13.67,0,0,1-4.11.64,7.81,7.81,0,0,1-3.37-.74,11.59,11.59,0,0,1-4.71-4,11.31,11.31,0,0,1-1.24-2.66c-.2-.6-.39-1.19-.6-1.79a11.93,11.93,0,0,0-2-3.6,4.26,4.26,0,0,1-.26-.38"/><path d="M447.35,96.17c0-.13,0-.26,0-.39A11.22,11.22,0,0,1,451,87.23a7.18,7.18,0,0,1,2.58-1.49,19,19,0,0,1,3.31-.8c1.38-.24,2.76-.39,4.12-.7,0,0,.08,0,.13,0a1.62,1.62,0,0,1-.35.54,12.72,12.72,0,0,1-1.89,1.85,26.61,26.61,0,0,1-2.69,1.9c-.7.45-1.39.89-2.09,1.32a21.87,21.87,0,0,0-5.95,5.39l-.72.93Z"/><path d="M447.93,96.93a1.17,1.17,0,0,1,.13-.23,26.48,26.48,0,0,1,3.58-4,22.9,22.9,0,0,1,2.7-2c.91-.58,1.82-1.15,2.73-1.74a24.4,24.4,0,0,0,2.48-1.79,14.46,14.46,0,0,0,1.84-1.83c.08-.1.13-.24.33-.27,0,.16,0,.31-.05.45a11.09,11.09,0,0,1-.86,2.38,24,24,0,0,1-4,5.84,10.09,10.09,0,0,1-5.45,3.07,13.37,13.37,0,0,1-3.22.23,1,1,0,0,1-.17-.07"/><path d="M443.58,53.84l.56.47a9.66,9.66,0,0,1,1.69,2.18,25,25,0,0,1,1.27,2.6c.5,1.15,1,2.3,1.53,3.44a9.8,9.8,0,0,0,1.14,1.85,7.47,7.47,0,0,0,2.43,2.11l.31.17s0,.09-.06.1a7.06,7.06,0,0,1-2.08.37,3.62,3.62,0,0,1-2.11-.64,5.31,5.31,0,0,1-1.88-2.21,11.34,11.34,0,0,1-.81-2.64c-.21-1-.39-2.09-.58-3.13a15.75,15.75,0,0,0-1.39-4.43s0-.07,0-.24"/><path d="M586,82.3a.6.6,0,0,0-.49-.58c-.19,0-.37-.14-.55-.19a.88.88,0,0,0-1.13.59c-.05.16-.09.33-.14.52a.73.73,0,0,1-.34-.61,9.71,9.71,0,0,0-.16-1,3.12,3.12,0,0,1,.07-1.29,2.07,2.07,0,0,1,1.39-1.54,1.14,1.14,0,0,1,.41-.07.76.76,0,0,1,.75.36c.34.49.55.57,1.09.4a1.07,1.07,0,0,1,.79.11.48.48,0,0,1,.27.36,1.6,1.6,0,0,1,0,.53,6.18,6.18,0,0,1-.2,1,1.21,1.21,0,0,1-.81.93,7,7,0,0,0-1,.55"/><path d="M569.17,72.92a4.64,4.64,0,0,1-1.48,2,2,2,0,0,1-2.21.12.69.69,0,0,1-.39-.77.76.76,0,0,0-.52-.93.85.85,0,0,1-.22-.09c-.41-.32-.52-.65-.21-1.05a1.91,1.91,0,0,1,.37-.38,4.51,4.51,0,0,1,.68-.46,5.56,5.56,0,0,1,3.16-.54c-.19.13-.35.23-.5.35-.3.24-.33.4-.16.76a3.36,3.36,0,0,0,.31.56.84.84,0,0,0,.8.4h.37"/><path d="M585.7,85.19a5.55,5.55,0,0,0,.64-.11,2.1,2.1,0,0,0,.49-.2.43.43,0,0,0,.19-.51,1.42,1.42,0,0,1-.08-.4.93.93,0,0,0-.53-.88,5.48,5.48,0,0,1,2.46-1,2.05,2.05,0,0,1,.7,0,.87.87,0,0,1,.43.28.47.47,0,0,1,.06.6.87.87,0,0,0,.14,1.21.81.81,0,0,1,0,1.28,2.47,2.47,0,0,1-1.43.62,3.24,3.24,0,0,1-1.74-.22c-.34-.15-.67-.32-1-.49a2.62,2.62,0,0,1-.29-.2"/><path d="M570,73a3.61,3.61,0,0,0,.27.37.69.69,0,0,0,.89.21c.17-.07.32-.16.48-.24.36-.19.36-.19.48-.66.27.13.53.27.81.38a1,1,0,0,1,.44.38,4.21,4.21,0,0,1,.56,1.41,2,2,0,0,1,0,.59.72.72,0,0,1-.67.63.54.54,0,0,1-.18,0,.9.9,0,0,0-1,.58.68.68,0,0,1-.69.37,1.28,1.28,0,0,1-.85-.33,1.89,1.89,0,0,1-.66-1.09A5.36,5.36,0,0,1,570,73"/><path d="M583.53,89.16a7.34,7.34,0,0,1,.15-2.68,4.8,4.8,0,0,0,.32.43.68.68,0,0,0,.85.18,4.16,4.16,0,0,0,.47-.24c.4-.2.4-.21.48-.68l.76.37a.89.89,0,0,1,.43.3,3.56,3.56,0,0,1,.66,1.8c0,.68-.28,1-1,.94a.88.88,0,0,0-.88.46.82.82,0,0,1-1.13.42,1.64,1.64,0,0,1-.9-.8c-.1-.17-.18-.34-.27-.52Z"/><path d="M572,43.26l-1.09.24c-.08-.53-.15-1-.24-1.57a.86.86,0,0,1,1,0,.8.8,0,0,1,.4.74c0,.17,0,.34,0,.55"/><path d="M564.71,42.24l-.33,1.15-1.41-.3a.76.76,0,0,1,.21-.82.74.74,0,0,1,.81-.18,4.56,4.56,0,0,0,.72.15"/><path d="M569.3,40.88h-.52c.34-.17.34-.17.52,0"/><path d="M583.72,85.49a.66.66,0,0,1,0,.2.36.36,0,0,1-.11.1s0,0,0,0a.14.14,0,0,1,0-.11l.14-.15"/><path d="M585.24,85.07c.08,0,.14,0,.18,0s.05.08.07.13-.1,0-.14,0-.06-.08-.11-.14"/><path d="M586,82.84l0,.16s0,0,0,0,0-.11.08-.16"/><path d="M570.05,72a1.59,1.59,0,0,1-.07.2h-.09s0,0,0,0A1,1,0,0,1,570,72l.06,0"/><path d="M568.11,41.11l-.08,0,0,0,.08,0,0,0"/><path d="M569.63,68.64l-.26-.13v0l.23.13Z"/><path d="M572.23,69.42s0-.06,0-.09,0,0,0,0l0,0h0"/><path d="M567.94,70.06l.07.06s0,0,0,0a.07.07,0,0,1,0,0Z"/><path d="M456,53.7s0-.08,0-.11l0,.09Z"/><path d="M541.38,111.09c-.48,1.76-.93,3.39-1.38,5,0,0,0,0-.08.06l-1-.27a2.07,2.07,0,0,1-.3-.12c.59-2.34,1.22-4.65,1.82-7a2.39,2.39,0,0,1,.15-.39l.47.1,1.1.3c0,.15.1.29.14.44.43,1.6.85,3.19,1.28,4.78,0,.15.1.29.19.55.5-1.71.86-3.33,1.34-5a8.43,8.43,0,0,1,1.4.35,3.27,3.27,0,0,1-.05.35c-.57,2.2-1.15,4.4-1.72,6.61,0,.13-.09.25-.14.4a12.82,12.82,0,0,1-1.48-.35,1.74,1.74,0,0,1-.23-.62c-.44-1.59-.86-3.19-1.3-4.78,0-.12-.08-.25-.17-.5"/><path d="M496.29,111.1a1.65,1.65,0,0,1,1.08,1.48c.05.27.12.54.17.81a1.29,1.29,0,0,0,.44.87s0,.07,0,.11a4.79,4.79,0,0,1-1.65.37,1.21,1.21,0,0,1-.32-.66c-.1-.36-.16-.73-.25-1.09-.2-.89-.47-1.07-1.37-.91l-1.41.27a2.8,2.8,0,0,0,0,.41c.12.67.26,1.35.38,2,0,.16,0,.31.06.49a8.31,8.31,0,0,1-1.45.3,1.61,1.61,0,0,1-.2-.68c-.39-2-.77-4.09-1.14-6.14,0-.21-.07-.42-.1-.64a4.82,4.82,0,0,1,1.23-.28c.79-.17,1.58-.3,2.38-.44.21,0,.42,0,.64-.07a2.15,2.15,0,0,1,2,3,5.09,5.09,0,0,1-.53.77m-3.55,0,1.73-.33a2.11,2.11,0,0,0,.5-.17.78.78,0,0,0,.45-.82,2.25,2.25,0,0,0-.13-.51.77.77,0,0,0-.77-.52,5.63,5.63,0,0,0-.59.05c-.36.06-.73.13-1.09.21l-.49.13a17.87,17.87,0,0,0,.39,2"/><path d="M489.2,113.78a3.28,3.28,0,0,1-.25,1.38,3.12,3.12,0,0,1-1.66,1.74,5.29,5.29,0,0,1-1.65.43,3.18,3.18,0,0,1-2.94-1.39,5.34,5.34,0,0,1-.94-2.39,4.45,4.45,0,0,1,0-1.41,3.14,3.14,0,0,1,1.83-2.5,4.93,4.93,0,0,1,1.93-.46,3.14,3.14,0,0,1,2.53,1.15,3.93,3.93,0,0,1,.47.68,5.81,5.81,0,0,1,.7,2.77m-5.91-1a4.54,4.54,0,0,0,.61,2.09,2.48,2.48,0,0,0,.49.58,1.79,1.79,0,0,0,1.92.36,1.83,1.83,0,0,0,1.24-1.45,3.24,3.24,0,0,0,0-1.12,4.16,4.16,0,0,0-.62-1.7,1.95,1.95,0,0,0-3.61.84c0,.12,0,.24,0,.4"/><path d="M526.69,113.79a1.19,1.19,0,0,1,0-.25c.32-2.41.65-4.82,1-7.19a.64.64,0,0,1,.56-.07l2,.28,1,.16a2.76,2.76,0,0,1,2.4,2.6,5.85,5.85,0,0,1-.46,3,4,4,0,0,1-.7,1.08,2.62,2.62,0,0,1-2,.89,4.7,4.7,0,0,1-.53,0l-2.74-.38c-.17,0-.34-.07-.52-.1m1.67-1.11a13.94,13.94,0,0,0,1.86.21,1.42,1.42,0,0,0,1-.51,2.71,2.71,0,0,0,.52-.92,4.9,4.9,0,0,0,.23-2.08,1.34,1.34,0,0,0-1.18-1.35c-.53-.11-1.08-.15-1.62-.23a.73.73,0,0,0-.16.07c-.22,1.55-.45,3.13-.67,4.81"/><path d="M553.22,115.5a7.14,7.14,0,0,1-.43,1.2l-.41-.1-2.54-.93-.51-.18a13.35,13.35,0,0,0-.65,1.77c.15.07.28.15.42.2l2.92,1.08a1.06,1.06,0,0,1,.55.29,8.71,8.71,0,0,1-.46,1.21c-.93-.3-1.82-.66-2.72-1l-2.67-1a1.76,1.76,0,0,1,.06-.3q1.22-3.31,2.44-6.63a1.77,1.77,0,0,1,.12-.24c.89.26,1.73.62,2.59.92s1.73.64,2.61,1a5.12,5.12,0,0,1-.42,1.27c-.67-.18-1.27-.45-1.9-.67l-1.84-.67a10.74,10.74,0,0,0-.59,1.45c.17.08.31.15.45.2l2.54.94.44.19"/><path d="M523.3,105.87c.53,0,1,.06,1.56.06a1.31,1.31,0,0,1,0,.32c-.1,1.6-.2,3.21-.32,4.82a3.62,3.62,0,0,1-.2.91,2.25,2.25,0,0,1-2,1.56,4.61,4.61,0,0,1-2.21-.16,2.25,2.25,0,0,1-1.67-2,6.71,6.71,0,0,1-.06-1q.1-2,.24-4c0-.26,0-.51.07-.76a3.61,3.61,0,0,1,1.58.09.45.45,0,0,1,0,.16l-.27,4.35a3.69,3.69,0,0,0,0,1.05,1.05,1.05,0,0,0,.87.86,3.21,3.21,0,0,0,.88,0,1,1,0,0,0,.85-.63,2.29,2.29,0,0,0,.15-.51c0-.29.07-.58.09-.88.09-1.33.17-2.66.25-4,0-.1,0-.19,0-.31"/><path d="M479.51,114.28l.44,1.23c-1,.47-2.09.76-3.11,1.21a12,12,0,0,0,.52,1.5l.52,1.46a6.42,6.42,0,0,1-1.41.53l-.08,0s0,0,0,0l-.12-.27q-1.22-3.33-2.46-6.7A1.43,1.43,0,0,1,474,113l4.7-1.72s.07,0,.15,0a4.45,4.45,0,0,1,.45,1.19,5.6,5.6,0,0,1-1.14.47c-.4.16-.81.3-1.21.45l-1.18.44a12.74,12.74,0,0,0,.53,1.58,3.38,3.38,0,0,0,.42-.09l2.21-.81.57-.2"/><path d="M514.32,113.17a7.48,7.48,0,0,1-1.57,0c-.1-2.07-.06-4.12-.11-6.21a2.63,2.63,0,0,0-.36,0l-1.47,0-.38,0a4.39,4.39,0,0,1-.07-1.31,2.45,2.45,0,0,1,.35,0l3.53,0c.63,0,1.26,0,1.88,0l.38,0a4.85,4.85,0,0,1,0,1.32c-.74.08-1.46,0-2.2.08-.06.72,0,1.4,0,2.08s0,1.38,0,2.07,0,1.37,0,2.11"/><path d="M498.61,106.64c2.08-.27,4.09-.48,6.12-.71a3.68,3.68,0,0,1,.15,1.32c-.71.19-1.44.13-2.18.33.06,1,.23,2.08.33,3.11s.26,2,.34,3.06a5.83,5.83,0,0,1-1.55.19,9,9,0,0,1-.22-1.52c-.09-.53-.12-1.06-.18-1.58s-.13-1-.19-1.52-.11-1-.2-1.52c-.76-.08-1.47.19-2.19.13-.15-.2-.1-.43-.14-.63s-.05-.39-.09-.66"/><path d="M536.35,107.59c.49,0,.95.18,1.47.26,0,.14,0,.25,0,.36-.3,1.54-.6,3.08-.91,4.62-.13.72-.28,1.43-.42,2.14a2.8,2.8,0,0,1-.1.36,7.16,7.16,0,0,1-1.48-.26c0-.07,0-.11,0-.14l1.41-7.17a1.47,1.47,0,0,1,.09-.17"/><path d="M508.27,105.75s.07.1.07.15l.45,7.17a1.38,1.38,0,0,1,0,.25l-.76.07a2.59,2.59,0,0,1-.74,0c-.14-1.26-.18-2.51-.27-3.76s-.16-2.5-.25-3.74a3.81,3.81,0,0,1,1.53-.16"/><path d="M572.26,63.63l-.12-.21h0c.15,0,.21.07.12.21Z"/><path d="M572.14,63.42l-.12-.24h0c.15,0,.13.13.09.24Z"/><path d="M572,63.18a.24.24,0,0,0,0-.08s0,0,0,0,0,0,0,0h0"/></g></g></g></g></svg>