<svg xmlns="http://www.w3.org/2000/svg" viewBox="0 0 838.32 136.88"><title>Logo_CONJUNTA_Full_Hor_Mono_Preto</title><g id="Layer_2" data-name="Layer 2"><g id="PACK_DE_LOGOS" data-name="PACK DE LOGOS"><g id="Logo_CONJUNTA_Full_Hor_Mono_Preto"><rect y="31.32" width="5.71" height="38.85"/><path d="M20.1,36H14.27V51.32H19.8a12,12,0,0,0,6.81-1.8q2.7-1.8,2.88-5.86,0-4.39-2.52-6A12.38,12.38,0,0,0,20.1,36M8.56,70.17V31.32h11.6A20,20,0,0,1,31,34.12q4.43,2.81,4.43,9.31t-4.79,9.46a20.25,20.25,0,0,1-11.09,3H14.27V70.17Z"/><polygon points="62.49 70.17 37.82 70.17 37.82 31.32 43.53 31.32 43.53 65.89 61.78 65.89 62.49 70.17"/><path d="M81.52,38.69,75,55.37H88.18Zm2.68-7.37L99.78,69.37l-5.65.8-4.22-10.4H73.44l-4,10.4H63.8L79,31.32Z"/><polygon points="100.97 70.17 100.97 31.32 106.02 31.32 124.16 55.77 127.01 60.06 127.01 31.32 132.78 31.32 132.78 70.17 127.66 70.17 108.93 44.63 106.67 41.21 106.67 70.17 100.97 70.17"/><polygon points="161.97 55.49 148.53 55.49 148.53 70.17 137.71 70.17 137.71 31.38 163.94 31.38 164.95 39.55 148.53 39.55 148.53 47.32 160.96 47.32 161.97 55.49"/><path d="M174.28,50.86a15.66,15.66,0,0,0,2,8.17q2,3.26,6.54,3.26a7.62,7.62,0,0,0,6.43-2.95c1.5-2,2.26-4.9,2.26-8.82a15.16,15.16,0,0,0-2-8.09q-2-3.23-6.51-3.22a7.42,7.42,0,0,0-6.36,3.2,14,14,0,0,0-2.32,8.45m-11.12.06q0-9,5.29-14.68t14.39-5.72q9.87,0,14.81,5.83a21.19,21.19,0,0,1,4.94,14.17q0,9-5.24,14.74T182.84,71q-9.69,0-14.68-5.86a21.12,21.12,0,0,1-5-14.19"/><path d="M221,39.49h-5.83V49.77h5.95a5.87,5.87,0,0,0,4.1-1.45,4.83,4.83,0,0,0,1.61-3.74,4.65,4.65,0,0,0-1.55-3.83A6.6,6.6,0,0,0,221,39.49M204.37,70.17V31.32h17a21.51,21.51,0,0,1,11.68,3.12q5,3.11,5,10.14a11.81,11.81,0,0,1-1.51,6.11,12.55,12.55,0,0,1-4,4.17l8.92,15.31H228.93l-6.54-12.23h-7.2V70.17Z"/><polygon points="244.02 58.8 244.02 70.13 257.68 70.13 257.68 49.43 244.02 58.8"/><polygon points="290.12 44.68 290.12 70.13 276.46 70.13 276.46 35.31 290.12 44.68"/><polygon points="260.24 34.52 260.24 70.13 273.9 70.13 273.9 25.15 260.24 34.52"/><path d="M2.51,90.12v8.44h-2V90.12Z"/><path d="M12.25,90.12v8.44H10.31c-.58-.8-1.16-1.62-1.74-2.45s-1.16-1.66-1.73-2.46v4.91h-2V90.12H6.74l3.47,5v-5Z"/><path d="M14.13,92.32A2.11,2.11,0,0,1,15,90.63,3.45,3.45,0,0,1,17.2,90a4.53,4.53,0,0,1,1.29.19,4.62,4.62,0,0,1,1.15.48L19,92.07c-.38-.14-.7-.24-1-.31a3.11,3.11,0,0,0-.84-.11,1.17,1.17,0,0,0-.71.19.57.57,0,0,0-.27.49.69.69,0,0,0,.41.59l1,.53a9.37,9.37,0,0,1,1.71,1.13,2.11,2.11,0,0,1,.82,1.71A2.15,2.15,0,0,1,19.3,98a3.78,3.78,0,0,1-2.41.69,6,6,0,0,1-1.44-.21A4.32,4.32,0,0,1,14.21,98l.62-1.57a4.23,4.23,0,0,0,.93.38,3.75,3.75,0,0,0,1.08.18,1.53,1.53,0,0,0,.91-.22.64.64,0,0,0,.31-.53c0-.19-.14-.38-.44-.57s-.61-.36-1-.54A11.05,11.05,0,0,1,15,94.06,2.08,2.08,0,0,1,14.13,92.32Z"/><path d="M21.12,90.12H28.2q.06.42.12.81l.12.81H25.67v6.82h-2V91.74H21.12Z"/><path d="M31.94,90.12v8.44h-2V90.12Z"/><path d="M33.41,90.12H40.5c0,.28.08.55.11.81s.08.53.12.81H38v6.82h-2V91.74H33.41Z"/><path d="M44.13,90.12v5.17a1.71,1.71,0,0,0,.46,1.31,1.65,1.65,0,0,0,1.17.44,1.62,1.62,0,0,0,1.17-.44,1.73,1.73,0,0,0,.46-1.31V90.12h2V95.4a3.07,3.07,0,0,1-1,2.43,3.88,3.88,0,0,1-2.66.88,3.93,3.93,0,0,1-2.66-.87,3.07,3.07,0,0,1-1-2.44V90.12Z"/><path d="M50.81,90.12h7.08q.06.42.12.81c0,.27.07.53.12.81H55.36v6.82h-2V91.74H50.81Z"/><path d="M63.27,89.94a3.65,3.65,0,0,1,3,1.27,4.83,4.83,0,0,1,1,3.08,4.77,4.77,0,0,1-1.07,3.21,3.73,3.73,0,0,1-3,1.24,3.63,3.63,0,0,1-3-1.28,4.79,4.79,0,0,1-1-3.08,4.69,4.69,0,0,1,1.08-3.19A3.78,3.78,0,0,1,63.27,89.94Zm0,7.1a1.71,1.71,0,0,0,1.44-.69,3.42,3.42,0,0,0,.51-2.06,3.57,3.57,0,0,0-.45-1.89,1.59,1.59,0,0,0-1.46-.75,1.67,1.67,0,0,0-1.43.75,3.33,3.33,0,0,0-.53,2,3.7,3.7,0,0,0,.45,1.91A1.59,1.59,0,0,0,63.26,97Z"/><path d="M75.94,98.56H72.48V90.12h3.46a3.71,3.71,0,0,1,3,1.18,4.43,4.43,0,0,1,1,3,4.35,4.35,0,0,1-1.09,3.12A3.77,3.77,0,0,1,75.94,98.56Zm0-6.8h-1.4v5.18h1.31a1.85,1.85,0,0,0,1.43-.64,3,3,0,0,0,.56-2,3.19,3.19,0,0,0-.48-1.83A1.62,1.62,0,0,0,75.92,91.76Z"/><path d="M87.88,98.56H81.79V90.12h5.4l.23,1.62h-3.6v1.78H86.3l.22,1.6h-2.7V97h3.82l.12.8Z"/><path d="M92.74,98.56V90.12H96a4,4,0,0,1,2.41.72,2.5,2.5,0,0,1,1,2.21,2.43,2.43,0,0,1-1.08,2.19,4.35,4.35,0,0,1-2.44.7H94.77v2.62Zm3.18-6.81H94.77v2.57h1.17a1.44,1.44,0,0,0,1-.33,1.14,1.14,0,0,0,.38-.9,1.31,1.31,0,0,0-.36-1A1.42,1.42,0,0,0,95.92,91.75Z"/><path d="M107.08,98.56H101.2V90.12h2V97h3.62Z"/><path d="M112.93,90.12l3.19,8.22-2,.22-.65-1.77h-3l-.64,1.77h-2L111,90.12Zm-1,2.54L111,95.17h1.85Z"/><path d="M125,90.12v8.44H123.1c-.58-.8-1.16-1.62-1.74-2.45s-1.16-1.66-1.73-2.46v4.91h-2V90.12h1.94l3.47,5v-5Z"/><path d="M133.42,98.56h-6.09V90.12h5.41l.22,1.62h-3.59v1.78h2.48l.22,1.6h-2.7V97h3.82c0,.27.08.53.11.8Z"/><path d="M137.23,90.12V96.6a1.87,1.87,0,0,1-.49,1.4,4.49,4.49,0,0,1-1.74.86c-.13-.26-.27-.52-.41-.78s-.28-.53-.41-.8a1.69,1.69,0,0,0,.84-.53,1.28,1.28,0,0,0,.16-.67v-6Z"/><path d="M143.81,90.12,147,98.34l-2,.22-.66-1.77h-3l-.64,1.77h-2l3.2-8.44Zm-1,2.54-.91,2.51h1.85Z"/><path d="M152.09,96.11l-1.58-2v4.44h-2V90.12h1.38l2.64,3.45c.41-.57.81-1.14,1.21-1.72l1.21-1.73h1.33v8.44h-2.05V94.22l-.64.89-.65.88-.4.05Z"/><path d="M164.62,98.56h-6.09V90.12h5.41l.23,1.62h-3.6v1.78h2.48l.22,1.6h-2.7V97h3.82l.12.8C164.54,98,164.58,98.3,164.62,98.56Z"/><path d="M173.68,90.12v8.44h-1.93c-.58-.8-1.16-1.62-1.75-2.45s-1.16-1.66-1.73-2.46v4.91h-2V90.12h1.93l3.48,5v-5Z"/><path d="M175.16,90.12h7.08q.06.42.12.81c0,.27.08.53.12.81h-2.77v6.82h-2V91.74h-2.52Z"/><path d="M187.63,89.94a3.62,3.62,0,0,1,3,1.27,4.83,4.83,0,0,1,1,3.08,4.76,4.76,0,0,1-1.06,3.21,3.76,3.76,0,0,1-3,1.24,3.62,3.62,0,0,1-3-1.28,4.74,4.74,0,0,1-1-3.08,4.69,4.69,0,0,1,1.08-3.19A3.79,3.79,0,0,1,187.63,89.94Zm0,7.1a1.69,1.69,0,0,0,1.43-.69,3.42,3.42,0,0,0,.51-2.06,3.57,3.57,0,0,0-.45-1.89,1.58,1.58,0,0,0-1.46-.75,1.65,1.65,0,0,0-1.42.75,3.26,3.26,0,0,0-.54,2,3.7,3.7,0,0,0,.45,1.91A1.62,1.62,0,0,0,187.62,97Z"/><path d="M200.29,98.56h-3.46V90.12h3.46a3.71,3.71,0,0,1,3,1.18,4.43,4.43,0,0,1,1,3,4.39,4.39,0,0,1-1.09,3.12A3.81,3.81,0,0,1,200.29,98.56Zm0-6.8h-1.4v5.18h1.31a1.83,1.83,0,0,0,1.43-.64,3,3,0,0,0,.56-2,3.19,3.19,0,0,0-.48-1.83A1.62,1.62,0,0,0,200.27,91.76Z"/><path d="M212.23,98.56h-6.09V90.12h5.41l.22,1.62h-3.6v1.78h2.48l.23,1.6h-2.71V97H212c0,.27.08.53.12.8Z"/><path d="M221.78,95.25h-2.66v3.31h-2V90.12h5.24c0,.27.08.54.11.81s.08.54.11.81h-3.42v1.91h2.44Z"/><path d="M227.73,89.94a3.64,3.64,0,0,1,3,1.27,4.83,4.83,0,0,1,1,3.08,4.77,4.77,0,0,1-1.07,3.21,3.73,3.73,0,0,1-3,1.24,3.65,3.65,0,0,1-3-1.28,4.79,4.79,0,0,1-1-3.08,4.69,4.69,0,0,1,1.08-3.19A3.79,3.79,0,0,1,227.73,89.94Zm0,7.1a1.7,1.7,0,0,0,1.44-.69,3.42,3.42,0,0,0,.51-2.06,3.57,3.57,0,0,0-.45-1.89,1.58,1.58,0,0,0-1.46-.75,1.68,1.68,0,0,0-1.43.75,3.33,3.33,0,0,0-.53,2,3.7,3.7,0,0,0,.45,1.91A1.6,1.6,0,0,0,227.71,97Z"/><path d="M238.74,98.56c-.25-.47-.51-.94-.75-1.42l-.75-1.42h-1.51v2.83h-2V90.12h3.24a4.35,4.35,0,0,1,2.42.67,2.35,2.35,0,0,1,1,2.13,2.43,2.43,0,0,1-.36,1.33,2.68,2.68,0,0,1-.88.89l1,1.72,1,1.7Zm-1.87-6.8h-1.14v2.35h1.16a1.48,1.48,0,0,0,1-.31,1,1,0,0,0,.38-.86,1.08,1.08,0,0,0-.37-.89A1.6,1.6,0,0,0,236.87,91.76Z"/><path d="M241.73,90.12h7.09l.12.81c0,.27.07.53.11.81h-2.76v6.82h-2V91.74h-2.52Z"/><path d="M254.87,90.12l3.19,8.22-2,.22-.66-1.77h-3l-.65,1.77h-2l3.2-8.44Zm-1,2.54-.9,2.51h1.85Z"/><path d="M265.43,98.56h-5.88V90.12h2V97h3.63Z"/><path d="M273,98.56h-6.09V90.12h5.41l.22,1.62H269v1.78h2.49l.22,1.6H269V97h3.83c0,.27.08.53.11.8Z"/><path d="M280.83,91.61c-.7.82-1.39,1.66-2.09,2.52s-1.49,1.81-2.38,2.84h4.27l.1.8c0,.26.06.53.1.79h-6.68l-.22-1.46,4.35-5.36h-3.79c0-.28-.07-.54-.1-.81s-.07-.53-.1-.81h6.31Z"/><path d="M286.81,90.12,290,98.34l-2,.22-.66-1.77h-3l-.64,1.77h-2l3.2-8.44Zm-1,2.54-.91,2.51h1.85Z"/><g id="Logo_PMF_Hor_Preto"><path d="M598.23,99.59h-2.31v6.58h2.37a4.44,4.44,0,0,0,2.71-.76,3.47,3.47,0,0,0,.12-5.07,4.87,4.87,0,0,0-2.89-.75m-6,16.52V96.46h6.16a10,10,0,0,1,5.49,1.46,5.32,5.32,0,0,1,2.28,4.84,5.43,5.43,0,0,1-2.46,4.93,10.06,10.06,0,0,1-5.57,1.57h-2.17v6.85Z"/><path d="M620.39,99.59h-2.31v6h2.37a5.1,5.1,0,0,0,2.77-.68,2.4,2.4,0,0,0,1.1-2.23,2.66,2.66,0,0,0-1-2.37,5,5,0,0,0-2.89-.72m5.38,16.52-4.16-7.51-.67,0-.69,0h-2.17v7.45h-3.73V96.46h6.16A9.84,9.84,0,0,1,626,97.94a5,5,0,0,1,2.28,4.56,5.23,5.23,0,0,1-.94,3.14,6.53,6.53,0,0,1-2.41,2l4.83,8.43Z"/><polygon points="650.85 116.11 637.1 116.11 637.1 96.47 648.83 96.47 649.4 99.41 640.82 99.41 640.82 104.7 646.08 104.7 646.69 107.67 640.82 107.67 640.82 113.19 650.24 113.19 650.85 116.11"/><polygon points="667.75 107.79 662.2 107.79 662.2 116.11 658.48 116.11 658.48 96.46 669.6 96.46 670.18 99.41 662.2 99.41 662.2 104.87 667.2 104.87 667.75 107.79"/><polygon points="691.3 116.11 677.54 116.11 677.54 96.47 689.28 96.47 689.86 99.41 681.27 99.41 681.27 104.7 686.53 104.7 687.14 107.67 681.27 107.67 681.27 113.19 690.69 113.19 691.3 116.11"/><rect x="698.93" y="96.46" width="3.73" height="19.65"/><polygon points="709.88 96.46 725.77 96.46 726.38 99.41 719.64 99.41 719.64 116.11 715.86 116.11 715.86 99.41 709.88 99.41 709.88 96.46"/><path d="M737.18,96.15v12.22a4.7,4.7,0,0,0,1.19,3.57,4.3,4.3,0,0,0,3.06,1.11,4.2,4.2,0,0,0,3.08-1.16,4.75,4.75,0,0,0,1.17-3.52V96.15h3.78v12.51a7.11,7.11,0,0,1-2.18,5.31,8,8,0,0,1-5.91,2.14,7.89,7.89,0,0,1-5.82-2.14,7.2,7.2,0,0,1-2.15-5.31V96.15Z"/><path d="M764.84,99.59h-2.32v6h2.37a5.14,5.14,0,0,0,2.78-.68,2.41,2.41,0,0,0,1.1-2.23,2.68,2.68,0,0,0-1-2.37,5,5,0,0,0-2.89-.72m5.37,16.52-4.16-7.51-.66,0-.7,0h-2.17v7.45H758.8V96.46H765a9.84,9.84,0,0,1,5.49,1.48,5,5,0,0,1,2.28,4.56,5.23,5.23,0,0,1-.94,3.14,6.46,6.46,0,0,1-2.41,2l4.83,8.43Z"/><path d="M788.44,101.61l-2.57,6.84h5.2Zm1.68-5.15,7.63,19.13-3.76.52-1.76-4.62h-7.46L783,116.11h-3.76l7.66-19.65Z"/><path d="M579.82,57h-16V76.86h-12.2V26.28H583c.25,1.59.49,3.2.71,4.83s.44,3.25.63,4.84H563.82V47.41h14.66Z"/><path d="M601.39,66.82a7.19,7.19,0,0,0,5.5-2.12q2-2.12,2-6.51a11.44,11.44,0,0,0-1.82-6.69,6,6,0,0,0-5.25-2.61,6.77,6.77,0,0,0-5.5,2.31c-1.29,1.54-1.93,3.74-1.93,6.62a10.83,10.83,0,0,0,1.78,6.62,6.1,6.1,0,0,0,5.21,2.38m.22-28q9,0,14.47,5t5.47,14.36q0,8.93-5.8,13.8t-14.51,4.87q-8.64,0-14.06-4.83t-5.43-14.21q0-8.93,5.65-14a20.53,20.53,0,0,1,14.21-5"/><path d="M645,40.78l2.45,9.83a18,18,0,0,0-11.08,4.09V76.86H624.08v-36h6.17l3.27,4.24a27.7,27.7,0,0,1,5.36-3,15.48,15.48,0,0,1,6.1-1.34"/><path d="M672,76.87a19.45,19.45,0,0,1-11.64-3.5q-4.87-3.5-4.87-10.42V50.31h-5.28V40.79h5.28V31.41l12.2-1.78V40.79h8l1.86,9.52h-9.82V61.39a5.79,5.79,0,0,0,1.3,4,4.82,4.82,0,0,0,3.83,1.48,9.47,9.47,0,0,0,2.27-.33,12.61,12.61,0,0,0,2.49-.93l3.5,8.4A10.25,10.25,0,0,1,677,76a17.15,17.15,0,0,1-5.06.86"/><path d="M696.46,67.11a7.41,7.41,0,0,0,2.94-.66,12.42,12.42,0,0,0,2.93-1.86V60.94h-5.28a3.78,3.78,0,0,0-2.75,1,3.26,3.26,0,0,0-1,2.42,2.51,2.51,0,0,0,.93,1.94,3.32,3.32,0,0,0,2.27.81m2.9-28.34q7,0,11.08,4a14,14,0,0,1,4.1,10.49V76h-5.66l-2.45-2.83a15.84,15.84,0,0,1-10,3.65q-6.76,0-10.08-3.35A12,12,0,0,1,683,64.73q0-5.81,3.87-8.59T697,53.35h5.28a4.45,4.45,0,0,0-1.6-3.12,5.29,5.29,0,0,0-3.46-1.12,20.69,20.69,0,0,0-4.8.67,29.32,29.32,0,0,0-4.72,1.56l-3.27-9.15a32.14,32.14,0,0,1,6.88-2.38,34.37,34.37,0,0,1,8.07-1"/><polygon points="732.39 24.34 732.39 76.86 720.19 76.86 720.19 25.16 732.39 24.34"/><path d="M755.46,48.74a5.05,5.05,0,0,0-3.69,1.42,7.44,7.44,0,0,0-2,3.94h11.31a7.46,7.46,0,0,0-1.64-3.72,4.88,4.88,0,0,0-4-1.64m.29-10q8.63,0,12.83,5.61a21.4,21.4,0,0,1,4.21,13.21v4.09H750a6.45,6.45,0,0,0,2.87,3.9,9.82,9.82,0,0,0,5.24,1.31,23,23,0,0,0,4.69-.49,19.61,19.61,0,0,0,4.61-1.6l3.42,8.41a16.58,16.58,0,0,1-7.17,2.9,42.14,42.14,0,0,1-6.51.74q-9,0-14.7-4.68T736.78,58q0-8.92,5.4-14.09a18.8,18.8,0,0,1,13.57-5.17"/><path d="M804.17,47.63q-3.72,4.9-7.47,9.82t-7.55,9.75h15.1l1.11,9.67h-30.5c-.2-1.05-.43-2.1-.7-3.17s-.54-2.12-.78-3.16l15.1-20H776.2l-1.41-9.75h28.79a1,1,0,0,0,0,.3,1.53,1.53,0,0,1,0,.3l.3,3.13c.1,1,.17,2.08.22,3.12"/><path d="M820.24,67.12a7.26,7.26,0,0,0,2.94-.67,12.68,12.68,0,0,0,2.94-1.86V60.94h-5.28a3.81,3.81,0,0,0-2.76,1,3.26,3.26,0,0,0-1,2.42A2.5,2.5,0,0,0,818,66.3a3.3,3.3,0,0,0,2.27.82m2.9-28.34q7,0,11.09,4a14.09,14.09,0,0,1,4.09,10.49V76.05h-5.66l-2.45-2.83a14.9,14.9,0,0,1-4.46,2.6,15.18,15.18,0,0,1-5.58,1q-6.78,0-10.08-3.34a11.93,11.93,0,0,1-3.31-8.78q0-5.8,3.86-8.59t10.12-2.79H826a4.49,4.49,0,0,0-1.6-3.13A5.32,5.32,0,0,0,821,49.12a20.15,20.15,0,0,0-4.79.67,27.31,27.31,0,0,0-4.73,1.56l-3.27-9.15a31.07,31.07,0,0,1,6.88-2.38,33.85,33.85,0,0,1,8.07-1"/><path d="M510.66,68.49a.57.57,0,0,0-.63.16.63.63,0,0,1-.13.11,1.37,1.37,0,0,0-.66,1.27h0c-.51,0-1,0-1.52,0a.74.74,0,0,1-.38-.12,2,2,0,0,1-.88-2.54l0-.15-.4,0a1.29,1.29,0,0,1,0-.34,3.51,3.51,0,0,0-.25-2.19A1.81,1.81,0,0,1,506,63c.1-.19.23-.37.32-.56a1.49,1.49,0,0,0,.13-.39.36.36,0,0,0-.46-.38l-.21.09a2.09,2.09,0,0,1-2.3-.4,6.06,6.06,0,0,0-1.09-.79c-.58-.33-1.19-.6-1.78-.91a.41.41,0,0,1-.13-.08c0-.14.08-.19.16-.23,1-.58,1.91-1.16,2.89-1.71a4.19,4.19,0,0,1,1.72-.55c.58,0,1-.42.49-1.11-.12-.17-.24-.35-.35-.54a1.49,1.49,0,0,1-.24-1.07c.06-.33.14-.65.19-1s.07-.62.11-.94a5.48,5.48,0,0,1,1.52.31,11.26,11.26,0,0,1,1.38.48c.47.19.91.43,1.37.65,0,0,0-.07,0-.08-.13-.53-.23-1.07-.4-1.59a2.64,2.64,0,0,0-.47-.81,1.48,1.48,0,0,0-1.33-.61,2.69,2.69,0,0,1-1.41-.35,1.6,1.6,0,0,1-.77-.79c-.15-.34-.31-.67-.48-1l-.53-.15a2.23,2.23,0,0,1-1.27-.9,1.65,1.65,0,0,1-.31-.93.71.71,0,0,1,.48-.78.72.72,0,0,0,.47-.85c0-.08,0-.16-.05-.23a.64.64,0,0,1,.6-.78,2.41,2.41,0,0,1,1.45.39.4.4,0,0,1,.17.23,8.58,8.58,0,0,0,2,3.4s0,.07,0,.14a12.81,12.81,0,0,1-1.48.47c.46.31.89.58,1.32.86a2.07,2.07,0,0,0,.25.15.36.36,0,0,0,.42-.12.29.29,0,0,0,0-.33c-.05-.1-.12-.2-.17-.31a1.76,1.76,0,0,1-.21-1,2.83,2.83,0,0,0-.05-.82,1,1,0,0,0-.2-.41c-.23-.35-.47-.68-.69-1a4.71,4.71,0,0,1-.58-1.54,2.1,2.1,0,0,1,.68-2.08,1,1,0,0,1,1.3-.18l.2.11a.82.82,0,0,0,1,0,.89.89,0,0,1,.61-.17A.61.61,0,0,1,511,42a2.77,2.77,0,0,1,.24.72,4.36,4.36,0,0,1,0,1.25,7.1,7.1,0,0,0-2.38,2.82,2.12,2.12,0,0,0,.7.36l.28-.46a6.15,6.15,0,0,1,2.33-2.28,2.32,2.32,0,0,1,.88-.31.85.85,0,0,1,.9.42.61.61,0,0,1,.07.4c-.07.57.05.81.55,1a.71.71,0,0,1,.46.74,1,1,0,0,1-.12.45,3.46,3.46,0,0,1-.49.65,3,3,0,0,0-.47.59,3.35,3.35,0,0,1-.64.76,8.33,8.33,0,0,1-1.2.84,2.14,2.14,0,0,0-1,1.23,6.3,6.3,0,0,0-.33,1.55.28.28,0,0,1,0,.09.38.38,0,0,1,0-.1c.09,0,.13,0,.17-.12q.21-.48.45-1a6.5,6.5,0,0,1,1.06-1.54c.08-.09.18-.15.29-.25.1.21.19.38.27.56a3.76,3.76,0,0,0,1.4,1.63,1.84,1.84,0,0,1,.91,1.56c0,.27,0,.55.07.82a1,1,0,0,0,.1.33.38.38,0,0,0,.64.07,1.32,1.32,0,0,0,.12-.2,2.19,2.19,0,0,1,.82-.75,1.89,1.89,0,0,1,1.41-.25,6.8,6.8,0,0,0,2.11.05c.51-.05,1-.13,1.52-.19h.26a1.11,1.11,0,0,1-.07.3c-.54,1.09-1.06,2.19-1.63,3.27a4.57,4.57,0,0,1-1.18,1.45l-.18.15c-.38.4-.32.78.17,1.06A6.21,6.21,0,0,0,520,60a2,2,0,0,1,1.23,1.26c.19.53.44,1,.67,1.56a5.41,5.41,0,0,1-1.88.73c-.64.17-1.29.3-1.93.44-.06.12,0,.19.08.27A3.86,3.86,0,0,0,520,65.65a2,2,0,0,1,1.32,1.46c.06.22.12.45.2.67a1,1,0,0,0,.21.35.38.38,0,0,0,.63-.1,1,1,0,0,0,.08-.22,2.31,2.31,0,0,1,1-1.2,1.44,1.44,0,0,1,.77-.25,8.36,8.36,0,0,0,2.58-.54l1.49-.52a4,4,0,0,1-.06.55c-.25,1.05-.51,2.1-.78,3.14a5.32,5.32,0,0,1-1,2l-.13.2a.58.58,0,0,0,.34.93,5.45,5.45,0,0,0,.58.14l.46.1a1.7,1.7,0,0,1,1.08.75,8,8,0,0,0,1.2,1.56,3.31,3.31,0,0,1-.34.27,13.51,13.51,0,0,1-3.45,1.75,5.58,5.58,0,0,1-2.14.3,2.56,2.56,0,0,1-2.29-1.6.71.71,0,0,1,0-.15l.39.05a10.17,10.17,0,0,0,3.16.19l.35-.06a.3.3,0,0,0,.18-.33.28.28,0,0,0-.23-.24,2.46,2.46,0,0,0-.47,0,10,10,0,0,1-3.44-.34,1,1,0,0,1-.22-.08s0-.05-.1-.11c.14-.15.27-.32.42-.48,1.24-1.36,2.4-2.8,3.5-4.28.09-.13.19-.25.27-.39a.32.32,0,0,0-.07-.42.35.35,0,0,0-.43,0,2.69,2.69,0,0,0-.26.33c-1.05,1.45-2.19,2.82-3.38,4.16a4.31,4.31,0,0,1-.37.37s0,0-.09,0a2.57,2.57,0,0,1-.18-.33,20.14,20.14,0,0,1-1.15-3.09,2.13,2.13,0,0,0-.14-.38.25.25,0,0,0-.31-.12A.32.32,0,0,0,519,70a3,3,0,0,0,.11.52,26.78,26.78,0,0,0,1,2.88c.72,1.78,1.61,3.49,2.23,5.31a.85.85,0,0,0,.47.56,2.54,2.54,0,0,1,.34.23,1.09,1.09,0,0,1,.52,1,7.84,7.84,0,0,0,.16,1.46c-.16.15-.39.34-.59.55a.87.87,0,0,0-.12,1.17.6.6,0,0,0-.47-.2,6.44,6.44,0,0,0-.88,0c-.33,0-.66,0-1,0a1.92,1.92,0,0,1-.62-.19l-.95-.3a46.66,46.66,0,0,0-4.77-1.29,1.45,1.45,0,0,0-.35,0,.3.3,0,0,0-.24.24.26.26,0,0,0,.15.29,1.61,1.61,0,0,0,.39.12c.68.17,1.38.31,2.05.51,1.38.4,2.74.84,4.11,1.25a.38.38,0,0,1,.31.38l1.1-.21a6.65,6.65,0,0,0,1.16-.1c0-.19,0-.34,0-.49l.58.51a4.11,4.11,0,0,0-.51.22,3.9,3.9,0,0,0-.51.4.34.34,0,0,0-.06.43A7.12,7.12,0,0,0,523,86a.87.87,0,0,0,1.07.4l.22-.07c.18.09.17.26.18.41.09.76.29,1.5.31,2.27a.43.43,0,0,0,.07.16l0,0c0,.39,0,.78,0,1.17a31.86,31.86,0,0,1,.08,3.24,3.85,3.85,0,0,0,0,.54l.62-.64c.18-.18.36-.36.55-.53s.42-.36.63-.53.44-.33.67-.48a6.31,6.31,0,0,1,.65-.4c.24-.13.49-.26.74-.37a6.22,6.22,0,0,1,.71-.29c.26-.08.53-.13.84-.21,0,.17,0,.27,0,.38a6.52,6.52,0,0,0-.05,1.53,4.18,4.18,0,0,0,.38,1.35,1.81,1.81,0,0,1,.08,1.54c-.13.35-.3.68-.46,1l-.25.47a.35.35,0,0,0,.07.43.32.32,0,0,0,.47.1,2.68,2.68,0,0,1,1.71-.27,1.86,1.86,0,0,1,1.21.55,5.59,5.59,0,0,0,1.42,1c.68.35,1.37.68,2.06,1,.12,0,.23.11.38.19a2.11,2.11,0,0,1-.18.2c-.26.18-.51.37-.78.53-.9.52-1.8,1-2.72,1.54a6,6,0,0,1-2.21.76,1.47,1.47,0,0,0-.46.11.51.51,0,0,0-.35.61,1.46,1.46,0,0,0,.22.53,3.26,3.26,0,0,1,.63,2.56c-.08.62-.13,1.24-.19,1.9a17.54,17.54,0,0,1-3.13-.8,1.71,1.71,0,0,0-.22.25,4.46,4.46,0,0,0-.83,2.66,1.73,1.73,0,0,1-.5,1.28,12,12,0,0,1-.92.82c-.13.11-.29.2-.42.32a.41.41,0,0,0-.12.48.39.39,0,0,0,.43.25,2.26,2.26,0,0,1,1.3.28,2.22,2.22,0,0,1,1.24,1.34,4.36,4.36,0,0,0,.72,1.28c.48.63,1,1.23,1.47,1.85.09.12.18.24.29.37-.14.16-.31.12-.45.16a2.93,2.93,0,0,1-.41.07c-1.17.11-2.34.22-3.52.3a5.7,5.7,0,0,1-2.21-.24,2.49,2.49,0,0,0-.46-.09.53.53,0,0,0-.61.44,1.39,1.39,0,0,0,0,.41,3.69,3.69,0,0,0,.08.46,2.84,2.84,0,0,1-.38,1.93l-.24.4-.92,1.56-.25-.16a17.66,17.66,0,0,1-2.41-2.07,9.62,9.62,0,0,1-1.53-2,4.25,4.25,0,0,1-.56-1.73,2.81,2.81,0,0,1,.87-2.29s.07,0,.14,0c0,.15.07.29.09.44a9.21,9.21,0,0,0,.92,3.09,3.14,3.14,0,0,0,.18.31.31.31,0,0,0,.55-.26,1.76,1.76,0,0,0-.17-.37,7.5,7.5,0,0,1-.78-2.7c0-.37-.09-.74-.13-1.11a2.62,2.62,0,0,1,0-.28,1.12,1.12,0,0,1,.65.16c1.62.65,3.26,1.27,4.92,1.79.41.13.83.25,1.25.36a.8.8,0,0,0,.34,0,.28.28,0,0,0,.23-.24.24.24,0,0,0-.12-.3,1.77,1.77,0,0,0-.38-.15,60.54,60.54,0,0,1-6.27-2.21l-.46-.21a1.48,1.48,0,0,1,.21-.35,21,21,0,0,1,3.43-3,.85.85,0,0,0,.19-.14.29.29,0,0,0,.07-.37.32.32,0,0,0-.41-.13,1.55,1.55,0,0,0-.35.21c-.48.35-1,.68-1.41,1.06s-.92.86-1.38,1.29c-.17.15-.29.36-.54.44-.09,0-.16.16-.23.26a49.62,49.62,0,0,1-5.29,6.47c-.09.09-.17.2-.29.34.6.39,1.17.76,1.73,1.15s1.08.76,1.59,1.18c-.06.16-.17.12-.26.12-.66,0-1.33-.09-2-.09a20.25,20.25,0,0,0-5.14.55,6.35,6.35,0,0,0-1.52.55,4.34,4.34,0,0,0,.61.66l.6.65.61.72.54.7c.18.23.35.47.52.72l.48.73c.17.27.34.54.5.81s.29.51.43.76.29.52.42.78l.39.8c.13.28.26.57.38.86s.23.54.33.82a4.38,4.38,0,0,1,.27.9l-.53-.28a38.1,38.1,0,0,0-11.59-4.15,23.48,23.48,0,0,0-4.81-.38,17.3,17.3,0,0,0-4.41.66l-.67.18a.65.65,0,0,1,0-.54c.21-1.44.43-2.87.64-4.31,0-.13,0-.27,0-.42-.24,0-.37.14-.52.24a30.35,30.35,0,0,1-12.67,4.8,44.08,44.08,0,0,1-4.87.32,28,28,0,0,0-16.17,5.55c-.41.31-.8.63-1.2,1a.89.89,0,0,0-.16.22H456a28.24,28.24,0,0,0-6-3.89,28.63,28.63,0,0,0-8.23-2.56,26.88,26.88,0,0,0-4.11-.3,30.17,30.17,0,0,1-17-5.15c-.16-.11-.32-.2-.55-.34.09,1,.25,1.85.38,2.74s.25,1.74.38,2.66a3,3,0,0,1-.38,0,16.09,16.09,0,0,0-2.58-.59,18.51,18.51,0,0,0-4.4-.13,36.16,36.16,0,0,0-13.5,4.07c-.39.19-.76.41-1.14.61l-.1,0a2.51,2.51,0,0,1,.25-.83c.09-.28.21-.56.32-.83s.25-.57.39-.86.25-.53.39-.79.27-.52.41-.78.29-.52.44-.77.32-.54.49-.8.32-.5.49-.74.33-.48.51-.72l.54-.7.61-.72.6-.65a5.06,5.06,0,0,0,.62-.67l-.44-.21a12.71,12.71,0,0,0-3-.7,25.48,25.48,0,0,0-4.94-.12,1.08,1.08,0,0,1-.61,0,3.12,3.12,0,0,1,.61-.51l.61-.46a2.46,2.46,0,0,0,.57-.51l-.31,0a14.12,14.12,0,0,1-2.34.29,11.8,11.8,0,0,1-5.84-1.37,22.34,22.34,0,0,1-2.95-1.93,24.46,24.46,0,0,1-3.9-3.5,11.47,11.47,0,0,1-1.45-2c-.07-.13-.13-.27-.2-.42s.11,0,.13,0a19,19,0,0,0,5.8,2.52c1.47.41,3,.79,4.43,1.18.54.15,1.06.31,1.58.48a14.43,14.43,0,0,1,3.33,1.49c1,.63,2.06,1.29,3.09,1.94l.38.23c.13-.11,0-.16,0-.2L397,118a2.72,2.72,0,0,0-.48-.33,17.52,17.52,0,0,0-4.54-1.94c-1.45-.4-2.92-.78-4.37-1.16a27.16,27.16,0,0,1-3.64-1.19,13.68,13.68,0,0,1-2.69-1.45l-.32-.28.53-.07.47-.06c1-.14,2.06-.28,3.09-.44a28.68,28.68,0,0,1,4.33-.39c.51,0,1,.07,1.53.11l.34,0a2.08,2.08,0,0,0-.06-.24,34.23,34.23,0,0,1-1.89-3.6,2.19,2.19,0,0,0-.15-.22c-.1.2,0,.38-.09.54a.65.65,0,0,1-.51,0,10.05,10.05,0,0,1-3.27-1.11,14.45,14.45,0,0,1-3-2.23c-.91-.87-1.78-1.78-2.65-2.68s-1.73-1.82-2.61-2.72a20.58,20.58,0,0,0-2.45-2.12A14,14,0,0,0,371.85,95a3.07,3.07,0,0,1-.31-.17s0,0-.05-.08a5.15,5.15,0,0,1,1-.16,17.4,17.4,0,0,1,7.39,1.13,16.59,16.59,0,0,1,4.72,2.63,12.8,12.8,0,0,1,2.29,2.36l.29.35c-.05-.64-.21-1.15-.28-1.68s-.17-1.09-.23-1.63-.11-1.14-.15-1.7-.06-1.1-.07-1.65,0-1.1,0-1.75c-.26.31-.21.65-.43.9-.11,0-.24-.09-.35-.15A10,10,0,0,1,382.74,91a15.35,15.35,0,0,1-2.11-3.25c-.52-1.08-1-2.18-1.51-3.26s-1.07-2.37-1.64-3.53a16.71,16.71,0,0,0-3-4.29l-.54-.55s0,0,0-.1c.21,0,.42.07.62.12a15.7,15.7,0,0,1,4.25,1.83A18.07,18.07,0,0,1,384.36,83a12.55,12.55,0,0,1,2.13,4.81c.09.44.14.89.23,1.42,0-.16.07-.26.09-.35s.05-.23.07-.34a42.86,42.86,0,0,1,1.83-7.49c.06-.16.11-.33.16-.5l-.25,0c-.13-.59-.24-1.18-.4-1.77-.29-1.06-.58-2.12-.9-3.17a15.49,15.49,0,0,0-1.54-3.3c-.62-1.05-1.28-2.08-1.92-3.11a37.14,37.14,0,0,1-2.1-3.68,14.64,14.64,0,0,1-1.05-3c0-.15,0-.3-.06-.51.12.06.19.08.25.12l3.17,2.25c.71.52,1.44,1,2.12,1.59a17.62,17.62,0,0,1,1.56,1.44,8.38,8.38,0,0,1,2.09,3.9,12.65,12.65,0,0,1,0,6.35c-.05.17-.08.34-.12.5s0,0,0,0a.05.05,0,0,0,.05,0c1-1.66,1.84-3.38,2.67-5.11a43.4,43.4,0,0,0,2.15-5.29c.14-.43.26-.87.38-1.3a1.42,1.42,0,0,0,0-.19c-.14-.06-.28-.13-.43-.18a6.41,6.41,0,0,1-2.55-1.84,10.83,10.83,0,0,1-1.59-2.54c-.39-.82-.72-1.66-1.09-2.48s-.78-1.76-1.22-2.62a10,10,0,0,0-2-2.8c-.2-.19-.42-.36-.62-.54s-.13-.14-.24-.26a4.62,4.62,0,0,1,1,.14,8.17,8.17,0,0,1,2,.77,13.18,13.18,0,0,1,6.55,7.84c.15.45.22.91.33,1.37a2.15,2.15,0,0,0,.06.25c.07-.07.12-.1.14-.15s.07-.27.13-.39a3.54,3.54,0,0,0,.32-2c-.05-.81-.14-1.61-.22-2.41a1.11,1.11,0,0,0-.08-.24,1.63,1.63,0,0,0-.5.16.84.84,0,0,1-.88-.17,4.45,4.45,0,0,1-.54-.61c-.22-.33-.39-.68-.58-1s-.43-.84-.64-1.26c0,0,0-.07,0-.14a15.6,15.6,0,0,0,1.74,1.69c-.05-.19,0-.25-.07-.28-.49-.69-1-1.38-1.49-2.06-.33-.46-.68-.91-1-1.35a3.1,3.1,0,0,0-1.2-.92c-.36-.16-.72-.32-1.07-.51a4.7,4.7,0,0,1-.82-.55,2.09,2.09,0,0,1-.47-2.34,1.78,1.78,0,0,1,.23-.33l.27-.31-.44-.08-.38,0c0,.48-.06.94-.13,1.4a12.58,12.58,0,0,1-.32,1.38,5.36,5.36,0,0,1-.55,1.33,4.47,4.47,0,0,1-1.36-1.38,3.55,3.55,0,0,1-.54-1.74.19.19,0,0,0-.29,0l-.18.15a3.23,3.23,0,0,1-2.24.9,6.47,6.47,0,0,1-.88,0,1.52,1.52,0,0,1-.36-.1,5.28,5.28,0,0,1,.53-1.93,2,2,0,0,1,1.13-1,3.52,3.52,0,0,0,.76-.32,1.51,1.51,0,0,0-.57-.33,6.43,6.43,0,0,1-1.31-.79,3.23,3.23,0,0,1-1.13-1.88,1.1,1.1,0,0,1,0-.18s0-.08,0-.16a4.22,4.22,0,0,1,1.42-.14,4.72,4.72,0,0,1,1.45.22,5.3,5.3,0,0,1,1.31.76c.05-.2.11-.34.13-.49a4,4,0,0,1,.7-1.67,11.24,11.24,0,0,1,2.49-2.37,1.86,1.86,0,0,1,.19.31,6.28,6.28,0,0,1,.24,4.21c0,.17-.1.34-.14.51a.48.48,0,0,0,0,.16,7.14,7.14,0,0,1,2.85.56c.48.26.93.57,1.4.87a2.56,2.56,0,0,1,.3.28,4.61,4.61,0,0,1-2.87,1.5,1,1,0,0,0,.11.21,4.88,4.88,0,0,1,.85,1.35c.22.52.44,1,.62,1.59a5.83,5.83,0,0,0,1,1.75c.51.62,1,1.24,1.55,1.85l1,1.13c0-.11.09-.19.07-.24a4.16,4.16,0,0,0-.24-.47l-.58-.94c.31.11.31.11.66.48l.58.59c.19.19.36.39.54.59l.12-.07c.43-.73.85-1.47,1.27-2.19,0,0,.06,0,.1-.06l0,0a5.86,5.86,0,0,1-.1.58c-.09.38-.2.76-.31,1.13a1,1,0,0,0,0,.61s.1-.06.1-.1c.34-1.31.77-2.6,1-3.94a5.61,5.61,0,0,0,0-1.23c-.05-.55-.16-1.09-.25-1.64a1.39,1.39,0,0,0-1-.18,4,4,0,0,1-1.47,0,3.05,3.05,0,0,1-1.9-1,1.6,1.6,0,0,1,.22-.28c.42-.35.84-.71,1.29-1a3.72,3.72,0,0,1,1.63-.64l.23,0a.37.37,0,0,0,.25-.42.86.86,0,0,0-.06-.23,5.25,5.25,0,0,1-.27-3.18c.07-.46.2-.91.31-1.37a2.9,2.9,0,0,1,.14-.36,2.56,2.56,0,0,1,.37.17,6.34,6.34,0,0,1,2.59,2.9c.08.16.15.32.24.47a.35.35,0,0,0,.47.11c.16-.09.3-.19.45-.29a6,6,0,0,1,3.71-.91.79.79,0,0,1,.13.05,1.62,1.62,0,0,1,0,.22,4.65,4.65,0,0,1-2,3.22l-.54.36c-.36.25-.4.42-.13.77a8.09,8.09,0,0,1,1.3,2.75,3,3,0,0,1,.09.41,1.19,1.19,0,0,1,0,.19,2.83,2.83,0,0,1-1.16,0,4.51,4.51,0,0,1-1.07-.31,8.91,8.91,0,0,1-1-.57s-.06,0-.07,0a8.52,8.52,0,0,0-1.32,2.21c-.26.72-.51,1.44-.76,2.17-.17.5-.33,1-.49,1.51,0,.12-.08.25-.13.44.13,0,.23,0,.26-.06a4.12,4.12,0,0,0,.27-.45c.13-.25.24-.5.36-.74a2.61,2.61,0,0,1,.2-.27,12.54,12.54,0,0,1-.49,2.23,3.74,3.74,0,0,1-.34.62,1.19,1.19,0,0,1-1.56.42,5,5,0,0,1-.52-.26c-.25.09-.31.25-.25.51.11.53.21,1.08.3,1.62,0,.23.06.46.09.7s.06.38.1.66c.14-.15.23-.24.31-.34a11.18,11.18,0,0,1,2.2-2.2,8.15,8.15,0,0,1,3-1.49l1.83-.45A10.54,10.54,0,0,0,407,55.36c.06,0,.13-.06.3-.14-.1.19-.15.29-.21.38a11,11,0,0,1-1.82,2.15c-.75.69-1.53,1.35-2.33,2-1,.79-2,1.53-3,2.3a19.19,19.19,0,0,0-2.26,2.07,10.89,10.89,0,0,0-1.76,2.49,3.83,3.83,0,0,0-.27.71,34.6,34.6,0,0,1-2.19,6.28,1.42,1.42,0,0,0-.19.57,1.31,1.31,0,0,0,.48-.37,8.66,8.66,0,0,1,2.48-1.67,12.24,12.24,0,0,1,2.13-.67,29.16,29.16,0,0,1,3.5-.48c1.29-.12,2.58-.2,3.86-.44a1.55,1.55,0,0,1,.22,0,2.13,2.13,0,0,1-.18.31,12.81,12.81,0,0,1-2.14,2,22.1,22.1,0,0,1-2.72,1.75c-1,.57-2,1.11-3.05,1.67-.67.37-1.33.76-2,1.15a16.18,16.18,0,0,0-3.32,2.62c-.8.83-1.59,1.68-2.38,2.53l-.23.24c-.18-.08-.12-.2-.12-.31s0-.23,0-.35c-.19,0-.18.21-.22.33a36.34,36.34,0,0,0-.92,3.84,33.33,33.33,0,0,0-.55,6.15,30.22,30.22,0,0,0,3.16,13.3,3.45,3.45,0,0,0,.2.32c.13-.06.1-.15.1-.22a7.73,7.73,0,0,1,1-3.66,13.49,13.49,0,0,1,3-3.79c.89-.82,1.85-1.59,2.78-2.36s2.13-1.74,3.2-2.61a1.22,1.22,0,0,1,.19-.12c.08.17,0,.28-.08.4-.37.73-.72,1.49-1.15,2.18-.84,1.36-1.74,2.67-2.6,4s-1.57,2.4-2.31,3.63a16.8,16.8,0,0,0-1.64,3.58,14,14,0,0,0-.48,2,.68.68,0,0,0,.12.55l.41.58a.44.44,0,0,0,.13,0,2.66,2.66,0,0,0,.07-.39,11.85,11.85,0,0,1,1.05-4A22.37,22.37,0,0,1,397,102.7c.87-1.33,1.76-2.65,2.64-4A34.82,34.82,0,0,0,402,94.85l.38-.78c.16.05.12.17.12.25,0,.69,0,1.38,0,2.07,0,1.37,0,2.75,0,4.12a19.1,19.1,0,0,1-.24,3.29,9.8,9.8,0,0,1-.84,2.57,7.19,7.19,0,0,1-3.47,3.39,10.7,10.7,0,0,1-2.81.84,6,6,0,0,0-.74.14,25.3,25.3,0,0,0,3.17,4,11.66,11.66,0,0,0,1.46,1.43c0-.33.06-.6.1-.86a12.53,12.53,0,0,1,1.29-3.84c.53-1,1.17-2,1.8-3l1.91-3c0-.08.11-.15.2-.28a1.25,1.25,0,0,1,0,.69c-.16.85-.3,1.7-.52,2.54-.35,1.4-.76,2.8-1.14,4.2a23.63,23.63,0,0,0-.72,3.52,12.12,12.12,0,0,0-.05,2.41,1.1,1.1,0,0,0,0,.18.25.25,0,0,0,.35.2,4.25,4.25,0,0,0,.43-.21c0-.11,0-.21,0-.3a13.64,13.64,0,0,1,.43-4.27c.36-1.44.76-2.88,1.15-4.32a28.54,28.54,0,0,0,.9-4.2s0-.08.06-.16a1.53,1.53,0,0,1,.16.26q1.1,2.59,2.18,5.21a9.37,9.37,0,0,1,.31.89,6.4,6.4,0,0,1-.2,4.38l-.25.59c.72-.14,1.37-.37,2.06-.51,0-.15,0-.28,0-.41,0-1.36,0-2.71,0-4.07a1.9,1.9,0,0,0-.17-.74,28.33,28.33,0,0,1-1.55-5.18,31,31,0,0,1-.59-7.44c0-1.46.14-2.91.32-4.35A50,50,0,0,1,409,86.86a51,51,0,0,1,2.19-6.22,44.16,44.16,0,0,0,3-10.38,42.44,42.44,0,0,0,.58-8A46.56,46.56,0,0,0,407.37,38a2.39,2.39,0,0,1-.35-.63c.11-.12.2-.24.31-.34l3.27-3.24L418.4,26,426,18.37a1.1,1.1,0,0,1,.88-.36h57.81c.88,0,.61-.1,1.22.51,3,3,6,6,9.07,9L503.54,36l1,1,.3.33c-.09.16-.17.31-.27.46A46.44,46.44,0,0,0,499,50.14a47.34,47.34,0,0,0-1.81,15.5,45.65,45.65,0,0,0,2,11.46,8.6,8.6,0,0,0,.52,1.3A46.31,46.31,0,0,1,503.85,91a48,48,0,0,1,.79,9.5A29.89,29.89,0,0,1,502.52,111a2.55,2.55,0,0,0-.21,1c0,.79,0,1.57,0,2.36,0,0,0,.08,0,.15a.75.75,0,0,0,.26,0,3,3,0,0,0,1.09-.78,2.22,2.22,0,0,1,2.08-.71l.76.09a.94.94,0,0,0,.29,0,.38.38,0,0,0,.25-.62c-.07-.08-.15-.13-.22-.2a2.84,2.84,0,0,1-.75-1.93,1.7,1.7,0,0,1,.14-.63,7.13,7.13,0,0,0,.52-2.41c.06-.6.1-1.21.15-1.86a1.49,1.49,0,0,1,.28.11c.21.14.43.27.63.43.83.66,1.67,1.31,2.48,2a5.49,5.49,0,0,1,1.43,1.71l.1.15c.34.51.74.53,1.13,0,.1-.12.19-.25.28-.38a2.6,2.6,0,0,1,1.43-1.07l.34-.1,1.91-.54a2.71,2.71,0,0,1,.16.82,7.18,7.18,0,0,1,.13.93c0,.29,0,.59.06.88s0,.58.05.89a14.31,14.31,0,0,0,1.95-3.1,37,37,0,0,0,4-11.43,3.59,3.59,0,0,1-1,1.4c-.16-.08-.12-.21-.13-.32a9.68,9.68,0,0,0-.66-3.28,3,3,0,0,0-.17-.37.31.31,0,0,0-.36-.12.29.29,0,0,0-.19.33,3.26,3.26,0,0,0,.15.44,10.34,10.34,0,0,1,.55,4.13,1,1,0,0,1-.62-.2c-1.18-.57-2.36-1.16-3.55-1.71-.73-.34-1.49-.62-2.23-.93a3,3,0,0,0-.45-.15.31.31,0,0,0-.23.55,2.2,2.2,0,0,0,.31.15,60.06,60.06,0,0,1,6,2.74,1.18,1.18,0,0,1,.51.34,2.48,2.48,0,0,1-.25.3c-.63.51-1.25,1-1.9,1.5s-1.09.7-1.63,1c-.12.08-.25.14-.36.22a.32.32,0,0,0-.06.37.3.3,0,0,0,.35.16l.43-.2a16.9,16.9,0,0,0,2.8-2,3.38,3.38,0,0,1,.59-.47,2,2,0,0,1,0,1.12,3.86,3.86,0,0,1-1.23,2,7,7,0,0,1-1.71,1.15,11,11,0,0,1-5.49,1,5.35,5.35,0,0,1-1.72-.37c0-.22.14-.32.24-.45a4.7,4.7,0,0,0,.93-1.82,4.54,4.54,0,0,0,.14-.82,1.75,1.75,0,0,1,.64-1.22,11.58,11.58,0,0,1,1-.69c.13-.09.27-.15.4-.24a.43.43,0,0,0,.2-.51.38.38,0,0,0-.4-.28,2.53,2.53,0,0,1-1.22-.38,2.27,2.27,0,0,1-1.17-1.48,4.26,4.26,0,0,0-.63-1.39c-.43-.68-.88-1.34-1.33-2l-.21-.34a5.49,5.49,0,0,1,.74-.09c1.25,0,2.51,0,3.77,0a5.59,5.59,0,0,1,2.12.44,1.42,1.42,0,0,0,.33.11.62.62,0,0,0,.81-.61,2.48,2.48,0,0,0,0-.47,3,3,0,0,1,.67-2.25c.28-.36.54-.72.81-1.09a3.65,3.65,0,0,0,.18-.34c-.17-.09-.25,0-.34.08a10.2,10.2,0,0,1-3.83,1.45,5.59,5.59,0,0,1-2.54,0,2.13,2.13,0,0,1,.07-.27c0-.09.1-.18.14-.26a4.25,4.25,0,0,0,.59-2.43,1.92,1.92,0,0,1,.59-1.54c.22-.23.46-.43.69-.64a4,4,0,0,0,.31-.27.38.38,0,0,0,.07-.44.32.32,0,0,0-.37-.22,2.53,2.53,0,0,1-1.38-.23,2,2,0,0,1-1.14-1.13,4,4,0,0,0-.73-1.13c-.4-.48-.83-1-1.25-1.42-.18-.2-.37-.39-.55-.58,0-.18.17-.18.27-.2l2.14-.39,1.11-.16a7.16,7.16,0,0,1,2.69,0,1.47,1.47,0,0,0,.29,0,.58.58,0,0,0,.68-.68,1.89,1.89,0,0,0-.08-.4,2.77,2.77,0,0,1,.27-2.16c.16-.29.32-.58.47-.88s.28-.6.43-.93a18,18,0,0,1,2.17,1.54,11.64,11.64,0,0,1,1.88,2,23.55,23.55,0,0,0-1.89-4.63,3.26,3.26,0,0,1-1.3-.62c-.35-.31-.66-.66-1-1l-.36.13a3.05,3.05,0,0,1-2.3,0c-.34-.14-.67-.31-1-.48s-.43-.32-.73-.32h.63a1.56,1.56,0,0,0,.79-.21.46.46,0,0,0,.23-.55l-.12-.64a.78.78,0,0,0-.75-.69l-.23,0s0,0,0,0,0,0,0,0h0a.68.68,0,0,0,.77,0A7.18,7.18,0,0,1,515,69c.32-.15.66-.26,1-.38l.28-.13c-.21-.36-.42-.69-.62-1a2.09,2.09,0,0,0-.14-.17s-.1,0-.11.07a1.27,1.27,0,0,1-.9.92,2.3,2.3,0,0,0-.46.25l-.43.26a.69.69,0,0,0-.6-.61c-.15,0-.29-.1-.44-.15a.87.87,0,0,0-1.13.56c-.06.16-.09.34-.15.55a1.27,1.27,0,0,1-.4-.5h0c.12-.06.1-.15.07-.25a5.34,5.34,0,0,1-.17-1.69,2.28,2.28,0,0,1,.91-1.77,1.73,1.73,0,0,1,1-.36.73.73,0,0,1,.74.37.82.82,0,0,0,1,.41c-.26-.61-.57-1.17-.87-1.73h0c.05,0,.14,0,.16,0s.17.26.25.39l.71,1.21.48.13a.62.62,0,0,1,.47.61c0,.17,0,.35,0,.52a.68.68,0,0,0,0,.35c.17.3.37.6.56.89.07.11.12.25.31.31.07-.46.12-.92.21-1.38a11.27,11.27,0,0,1,.34-1.3c.15-.44.35-.86.54-1.32l-.39,0a9.11,9.11,0,0,1-1-.11,2.59,2.59,0,0,1-2.19-2,2.77,2.77,0,0,1,0-.33l.58.25a9.91,9.91,0,0,0,2.77.76,1.13,1.13,0,0,0,.41,0,.25.25,0,0,0,.21-.25.27.27,0,0,0-.16-.28,1.4,1.4,0,0,0-.34-.08,10.12,10.12,0,0,1-3.35-1.08c-.09,0-.23-.06-.24-.26l.5-.36q2.18-1.56,4.21-3.32a4.27,4.27,0,0,0,.38-.36.31.31,0,0,0,0-.43.32.32,0,0,0-.38,0c-.16.12-.31.25-.46.38-1.27,1.11-2.6,2.15-4,3.14l-.48.32a.51.51,0,0,1-.09-.12c0-.09-.06-.19-.09-.28a20.94,20.94,0,0,1-.44-3.15c0-.14,0-.27,0-.41a.34.34,0,0,0-.31-.23.32.32,0,0,0-.27.26,2.48,2.48,0,0,0,0,.47,18.82,18.82,0,0,0,.42,3.09c0,.15,0,.3.06.5a3.63,3.63,0,0,1-1.47-.81,1.18,1.18,0,0,1-.11-.19c-.12,0-.17-.07-.23-.15l-.5-.74c-.58,0-1.15.06-1.71.11-1.31.12-2.61.25-3.92.39a1.12,1.12,0,0,0-.4.1.34.34,0,0,0-.16.21.26.26,0,0,0,.26.31c.29,0,.58,0,.88-.1,1.51-.21,3-.31,4.56-.4a2.73,2.73,0,0,1,.37,0c-.05.17-.07.3-.12.43a15.58,15.58,0,0,1-1.19,2.55,4.23,4.23,0,0,0-.22.42.24.24,0,0,0,.11.3.27.27,0,0,0,.33,0,.86.86,0,0,0,.21-.29c.28-.53.57-1.07.83-1.62a12.62,12.62,0,0,0,.52-1.25.38.38,0,0,1,.38-.29.88.88,0,0,0,0,.28,1.83,1.83,0,0,0,.18.3,3,3,0,0,1,.36,2.27,5.38,5.38,0,0,1-.81,1.81,8.44,8.44,0,0,1-1.58,1.74,1.93,1.93,0,0,0-.26.3,2,2,0,0,0,.25.21,1,1,0,0,1,.51,1,3.42,3.42,0,0,0,.17,1.27l.51.16ZM470.53,95s0,0,0,.06,0,0,0,0V95c.11.06.23.1.29-.06a1.35,1.35,0,0,0,.29,0l.73-.22a3.7,3.7,0,0,1,2.37,0,11.38,11.38,0,0,0,1.31.32.94.94,0,0,0,.64,0c-.92-.26-1.75-.62-2.62-.81a2.42,2.42,0,0,0-.76,0,4.7,4.7,0,0,0-1.82.63c-.06,0-.08.11-.13.17l-.3,0M418.61,101l.39-.1c.45-.14.89-.3,1.35-.42a4.39,4.39,0,0,1,2.66,0,8.33,8.33,0,0,0,1.19.31,8.1,8.1,0,0,0,1.91.25l-.43-.12-2.86-.9a3.7,3.7,0,0,0-1.62-.16,6.41,6.41,0,0,0-2.45.94c-.06,0-.09.11-.13.17l-.14,0,0,0,.1-.09m27,20.86a4.1,4.1,0,0,0,.5-.14c.48-.16,1-.36,1.45-.5a5.53,5.53,0,0,1,3.46,0,11.92,11.92,0,0,0,1.94.47,4.33,4.33,0,0,0,1.46.13c-.59-.17-1.12-.3-1.64-.46-.72-.23-1.42-.46-2.12-.71a4,4,0,0,0-2.09-.13,7.54,7.54,0,0,0-2.8,1.18c-.06,0-.1.11-.15.17l-.09,0,0,0,0-.09m32.84-29.38c.11-.07.21-.17.32-.23a20.48,20.48,0,0,1,4.49-1.58,9.94,9.94,0,0,1,5.46.16A26.33,26.33,0,0,0,494,92a7.34,7.34,0,0,0,1.93,0,16.47,16.47,0,0,1-4.05-1c-1.18-.37-2.36-.76-3.52-1.17a7.63,7.63,0,0,0-4.18-.25,15.37,15.37,0,0,0-5.64,2.57.69.69,0,0,0-.13.11c0,.07,0,.13.05.18l-.09-.06s-.05,0-.07,0h.06l.09,0m-30.84,1,.08.06-.09-.05a2.07,2.07,0,0,0-.25-.15c-.68-.29-1.36-.6-2.06-.86a23.21,23.21,0,0,0-7.8-1.61,13.13,13.13,0,0,0-2.93.24c-1.76.38-3.52.77-5.29,1.14-1.26.27-2.53.53-3.82.69l-.58.08a1.55,1.55,0,0,0-.6.1,2.3,2.3,0,0,0,.64,0c.9,0,1.81-.07,2.7-.17a60.73,60.73,0,0,0,6.28-1,16.23,16.23,0,0,1,3.33-.35,28.71,28.71,0,0,1,4.8.48,46.48,46.48,0,0,1,5.08,1.25,2.88,2.88,0,0,0,.51.1m-29.49,35.18s0,0,0,0l0,0-.09,0c0-.21-.15-.21-.26-.25a19.76,19.76,0,0,0-3.8-1.21,21.18,21.18,0,0,0-3.8-.44l-.67,0c-.05-.66,0-1.28,0-1.9V121c0-.65,0-1.3,0-2s0-1.25,0-1.87a22.24,22.24,0,0,0-5.84,2,26.15,26.15,0,0,0-5.34,3.09l.35,0a21.45,21.45,0,0,1,3.75.35,9.85,9.85,0,0,1,3.32,1.14c.11.06.22.14.37.24l-.52.46-.47.44c-.16.15-.31.3-.46.46s-.3.31-.44.47l-.43.49-.4.51-.4.51-.34.48-.36.53-.35.55c-.12.18-.23.37-.34.55l-.33.56-.31.57c-.1.19-.2.38-.29.57s-.2.39-.29.59a1.35,1.35,0,0,0-.21.63l.41-.18a37.06,37.06,0,0,1,11.12-3.5,24.21,24.21,0,0,1,3.81-.22c.87,0,1.72.1,2.59.19m18.87-80c-.56-.54-1.09-1-1.59-1.56a1.46,1.46,0,0,1-.29-.5c-.31-.87-.6-1.74-.91-2.62a2,2,0,0,1-.12-.69c0-.88,0-1.77,0-2.65,0-.13,0-.26,0-.4l.36-.12c1.7-.4,3.4-.79,5.1-1.21a1.05,1.05,0,0,1,.88.13c.84.51,1.69,1,2.53,1.5.11.07.22.2.39.09.05-.77,0-1.55,0-2.32a40.73,40.73,0,0,1,6-.64l2,2.5a5.46,5.46,0,0,0,1.27-.11c0-.44,0-.88,0-1.31a5.52,5.52,0,0,1,.06-1.28,1.29,1.29,0,0,1,.25,0h5.36a1.77,1.77,0,0,1,.29,0c0,.2,0,.38,0,.55,0,.55,0,1.1,0,1.65a3.65,3.65,0,0,0,.05.42H460l2-2.51c1.91.1,3.78.35,5.65.57a1.17,1.17,0,0,1,.3.1c0,.2,0,.39,0,.58v1.6c0,.09,0,.2.13.25l.49-.27c.79-.47,1.59-.94,2.37-1.43a1,1,0,0,1,.78-.13L477,40.1a2,2,0,0,1,.27.12c0,.13,0,.25,0,.37V43.3a2.15,2.15,0,0,1-.13.75c-.19.47-.34,1-.52,1.44a7.94,7.94,0,0,1-.54,1.43,8.28,8.28,0,0,1-1,1.22,2.26,2.26,0,0,1-.54.53c-.35,0-.68-.17-1-.16a.72.72,0,0,0,0,.21Q479,66.51,484.5,84.31l2.74.6c.28.34.36.75.63,1,.26,0,.49,0,.73,0a15.31,15.31,0,0,1,2.87.16,20.22,20.22,0,0,1,8.15,3.39A.78.78,0,0,1,500,90a39.52,39.52,0,0,1,.68,4.06c.13,1.17.23,2.35.3,3.52a28.09,28.09,0,0,1-.21,5.94,26.21,26.21,0,0,1-1.45,5.7c-.06.16-.11.32-.16.5a6.37,6.37,0,0,0,1.24.59l.14-.3a27.81,27.81,0,0,0,1.91-9.36,45.41,45.41,0,0,0-.8-9.73A44.34,44.34,0,0,0,498,79.82a19.71,19.71,0,0,1-1-2.58,46,46,0,0,1-2-11.88,46.9,46.9,0,0,1,.07-5.3,48.19,48.19,0,0,1,6.84-21.7l.27-.48-.46-.47L484.85,20.53c-.55-.54-.37-.45-1.13-.45H428.15c-.81,0-.59-.1-1.18.48L416.68,30.85q-3.3,3.3-6.59,6.59a1.19,1.19,0,0,0-.41.5l.45.75a48.44,48.44,0,0,1,6.8,23.1,43.86,43.86,0,0,1-.71,9.5,46.36,46.36,0,0,1-3,9.91,47.29,47.29,0,0,0-3.75,16,32.2,32.2,0,0,0,.26,6.94,28.22,28.22,0,0,0,1.56,5.85c.05.12.12.23.19.36a6.74,6.74,0,0,0,1.22-.65c-.07-.21-.14-.39-.21-.57a27.45,27.45,0,0,1-1.57-7,33,33,0,0,1,0-4.77,45.91,45.91,0,0,1,.89-6.83c.1-.54.24-1.07.36-1.58a6,6,0,0,1,1.28-.39,83.8,83.8,0,0,1,9-1.65.49.49,0,0,0,.41-.28c.17-.36.37-.69.53-1a.87.87,0,0,1,.71-.54c.92-.19,1.84-.4,2.76-.6l.51-.13c.07-.2.14-.39.19-.57L437.47,52c.34-1.09.68-2.18,1-3.26,0-.13.13-.26,0-.39l-1.46.27m64.58,77c0-.15,0-.23,0-.31q0-6.63,0-13.26a.13.13,0,0,0,0-.06s0,0-.07-.1-.31-.19-.5-.29a41.44,41.44,0,0,0-4.19-2A76.6,76.6,0,0,0,482,105.17c-1.66-.32-3.32-.61-5-.87s-3.19-.46-4.78-.65c-1.37-.16-2.74-.28-4.11-.39-1.62-.14-3.25-.25-4.87-.34-1.22-.07-2.44-.09-3.65-.15-2-.09-4.05-.09-6.07,0-1.8,0-3.61.12-5.41.21-1.34.06-2.67.15-4,.27-1.74.15-3.48.33-5.21.54-1.56.18-3.12.39-4.67.63-2.4.38-4.79.83-7.17,1.38a74.88,74.88,0,0,0-10.58,3.18,43.39,43.39,0,0,0-5.66,2.63c-.18.1-.4.17-.51.37-.08,1.5-.06,13,0,13.58a2.29,2.29,0,0,0,.28-.08c.25-.1.5-.22.75-.33a98.92,98.92,0,0,1,15.91-5.46q4.71-1.19,9.5-2c1.9-.31,3.81-.56,5.72-.77,2.11-.23,4.22-.4,6.34-.53s4.16-.18,6.24-.18c3,0,6,0,9,.24,2,.13,3.95.3,5.92.53,2.3.26,4.6.6,6.88,1,2.7.48,5.39,1.06,8.05,1.74a99.4,99.4,0,0,1,16.15,5.65l.49.19M444,41.52l-4,.68-.55.06c0-.16,0-.29-.05-.42V40.07a1.65,1.65,0,0,0-.08-.34c-1.54.33-3.05.67-4.56,1.09,0,.39,0,.74,0,1.09a8,8,0,0,0,0,1.47,9.17,9.17,0,0,0,.54,1.49c.06.14.14.27.21.42l.49-.08c1.79-.33,3.58-.69,5.39-1s3.34-.44,5-.64c1.91-.23,3.83-.36,5.75-.42a87.88,87.88,0,0,1,9.6.18c1.94.15,3.87.34,5.8.59q3.57.48,7.08,1.18l1.24.24c.19-.47.35-.91.54-1.33a2.83,2.83,0,0,0,.27-1.37c0-.45,0-.91,0-1.36l0-.46a2,2,0,0,0-.23-.1l-4.12-1a1.11,1.11,0,0,0-.31,0c0,.43,0,.82,0,1.21a5.51,5.51,0,0,1-.06,1.27l-4.54-.76c-.1-.87,0-1.71-.07-2.53a19.61,19.61,0,0,0-3.62-.49,3.39,3.39,0,0,0-1,0c0,.21,0,.39,0,.56,0,.55,0,1.1,0,1.65a2.15,2.15,0,0,1-.05.34,13.34,13.34,0,0,1-1.56-.05l-1.47,0a11.61,11.61,0,0,1-1.54-.08c0-.2,0-.38,0-.55,0-.55,0-1.1,0-1.65,0-.13,0-.26,0-.37a31.94,31.94,0,0,0-4.59,0c-.09.84,0,1.7-.07,2.54a.5.5,0,0,1-.19.07L449,41a1.46,1.46,0,0,1-.22,0,1.11,1.11,0,0,1-.07-.59c0-.55,0-1.1,0-1.65a1.73,1.73,0,0,0-.08-.35c-1.53.12-3,.27-4.55.49-.08.87,0,1.71-.06,2.61m-23.36,80.8.54.43a28.23,28.23,0,0,0,13.19,5.15,32.51,32.51,0,0,0,3.7.2,29.41,29.41,0,0,1,6.13.72A30.21,30.21,0,0,1,455.54,134l.44.29c.15-.11.28-.19.4-.29a29.85,29.85,0,0,1,17.55-5.92,33.14,33.14,0,0,0,4-.26,27.7,27.7,0,0,0,6.59-1.72,28.11,28.11,0,0,0,6.13-3.36c.15-.11.34-.19.43-.43l-1.53-.49a.93.93,0,0,0-.17.08l-.34.22a26.57,26.57,0,0,1-14.94,4.52,30.5,30.5,0,0,0-6,.6,31.24,31.24,0,0,0-11.72,5l-.39.26-.51-.33a31.43,31.43,0,0,0-17.95-5.54,26.6,26.6,0,0,1-14.6-4.46l-.59-.39-1.64.52m17.26-35.94,1.55.15c1.21.14,2.42.26,3.62.42s2.57.36,3.85.53,2.6.37,3.91.54l3.33.41c1,.11,1.95.22,2.93.3s2,.13,3.05.19l1.41,0c1.06,0,2.12.09,3.18.09,1.75,0,3.49-.08,5.24-.24,1.39-.12,2.77-.28,4.14-.53,1.93-.35,3.85-.76,5.77-1.15,0,0,.08-.05.15-.09a.66.66,0,0,0-.17-.1,149,149,0,0,0-25.23-1.72,147.22,147.22,0,0,0-16.73,1.17m55.7,42.29c.25,0,.5-.06.76-.07.84,0,1.68-.14,2.52-.14a27.54,27.54,0,0,1,6.75.94,39.82,39.82,0,0,1,7.44,2.75c.14.07.28.2.5.15A7.61,7.61,0,0,0,511,131c-.22-.44-.46-.87-.71-1.29s-.5-.84-.77-1.25-.55-.82-.84-1.21-.61-.77-.93-1.15-.67-.71-1-1.07a12.73,12.73,0,0,1-1.05-1,5.77,5.77,0,0,1,1.48-.76,14,14,0,0,1,3.9-.83c.72-.06,1.45-.07,2.17-.11a1.21,1.21,0,0,0,.23-.1l-.49-.33a40,40,0,0,0-5.43-2.93,29.66,29.66,0,0,0-4.66-1.65.76.76,0,0,0-.54,0,2,2,0,0,0,0,.26v8.6a1.28,1.28,0,0,1-.08.66,25.81,25.81,0,0,0-4.38.44,15.89,15.89,0,0,0-4.23,1.48M429.41,80.72c.12,0,.16.06.19,0q5.92-1,11.9-1.56l.05,0,0,0a25,25,0,0,0,.39-3.37s-.07,0-.1,0c-3.65.34-7.28.87-10.89,1.51a4.81,4.81,0,0,0-.54.14c-.34,1.1-.69,2.2-1,3.33m52.1-3.47c-1.84-.36-3.64-.67-5.44-.91s-3.82-.46-5.73-.69a1,1,0,0,0-.17,0l-.06,0-.07.06c.13,1.1.24,2.23.43,3.36.82.15,1.62.17,2.42.26l2.45.28,2.39.32c.82.11,1.63.24,2.44.36s1.57.3,2.45.38c-.38-1.18-.72-2.29-1.11-3.44m-44.62-5a.33.33,0,0,0-.06.1c-.19,1-.37,2-.55,2.94a1.26,1.26,0,0,0,0,.32c3.42-.51,6.81-.85,10.2-1.16l.06,0,.07-.08c.05-.48.12-1,.14-1.53a6.26,6.26,0,0,0,.08-1.56,90.2,90.2,0,0,0-10,1m-4-3.33c-.31,1-.6,2-.9,3a.07.07,0,0,0,0,0s0,0,.11.09c3.51-.61,7.11-1.08,10.74-1.4a9,9,0,0,0,.24-1.59,6.41,6.41,0,0,0,.13-1.6c-3.48.33-6.89.82-10.33,1.46m32.28,2.24a5.94,5.94,0,0,0,0,.6c.06.74.13,1.48.2,2.22a1.65,1.65,0,0,0,.07.32l.21,0,4.1.34c1.91.17,3.82.41,5.72.69a1.9,1.9,0,0,0,.31,0c-.1-.58-.18-1.12-.3-1.65a8.7,8.7,0,0,0-.35-1.62c-3.3-.44-6.59-.75-10-.93m4-.61c3.58.33,7.12.76,10.63,1.41H480l.06,0,.05,0a27,27,0,0,0-1.06-3,71.93,71.93,0,0,0-10.19-1.44,2.67,2.67,0,0,0,0,.4c.11.89.22,1.78.34,2.71m-29-10.4c1.23-.13,2.35-.33,3.48-.44s2.22-.23,3.33-.34l3.38-.27a11.69,11.69,0,0,0,.17-2.52,3.57,3.57,0,0,0-.8,0l-2.52.18c-2.06.13-4.11.36-6.15.62a2.79,2.79,0,0,0-.39.1c-.16.87-.32,1.72-.5,2.67m4.2,2.74c.06-.43.11-.88.17-1.33a7.14,7.14,0,0,0,.13-1.42c-3.15.3-6.23.74-9.31,1.32-.28.92-.59,1.8-.83,2.7.07,0,.1.06.14,0,3.16-.51,6.32-1,9.51-1.24a.55.55,0,0,0,.19-.08m32.15-1.5a2.29,2.29,0,0,0-.31-.09c-.72-.13-1.43-.27-2.14-.38-1.28-.19-2.56-.38-3.84-.55-.78-.11-1.56-.19-2.34-.27a.75.75,0,0,0-.57,0,10.91,10.91,0,0,0,.4,2.74l1.92.18,1.92.22c.66.08,1.32.16,2,.26s1.28.21,1.92.29a17.58,17.58,0,0,0,1.91.28,14.78,14.78,0,0,0-.85-2.73m-37.52,3c-.17.94-.34,1.86-.5,2.79,0,0,0,.1.06.18q4.23-.6,8.47-.95l.21-.06a1.25,1.25,0,0,0,.11-.65,3.11,3.11,0,0,1,.37-1.4l.27-.53a1.19,1.19,0,0,0,.05-.22,72,72,0,0,0-9,.84M461.62,59l.26,0,2,.12c1.08.08,2.15.15,3.23.27,1.42.16,2.84.35,4.26.52a2.54,2.54,0,0,0,.39,0,12,12,0,0,0-.5-2.61c-2.87-.4-5.78-.65-8.7-.79a4.21,4.21,0,0,0-1.17,0c.14.82.08,1.62.23,2.41m62.89,41.84c-.07-.19,0-.35.09-.52s.23-.62.35-.93a15.29,15.29,0,0,1,1.42-3c0-.09.11-.17.15-.26a.31.31,0,0,0-.11-.41.3.3,0,0,0-.38,0,3.28,3.28,0,0,0-.27.38,16.22,16.22,0,0,0-1.43,3,4.23,4.23,0,0,0-.13.51,36.57,36.57,0,0,1-1.41,5c-.44,1.24-.95,2.46-1.51,3.65,0,.11-.18.22-.06.39l.26-.11c.3-.14.59-.29.9-.42a11,11,0,0,1,4.12-.87c.13,0,.27,0,.39-.11l-.41-.25c-.36-.24-.72-.48-1.06-.74a3.35,3.35,0,0,1-.89-1,2.77,2.77,0,0,1-.14-2.61,1.27,1.27,0,0,1,.37.48,9.35,9.35,0,0,0,2.13,2.35,1.52,1.52,0,0,0,.34.22.29.29,0,0,0,.35-.15.27.27,0,0,0,0-.33.81.81,0,0,0-.16-.16c-.14-.11-.28-.22-.41-.34a10,10,0,0,1-2.28-3s0-.07,0-.14.25,0,.38-.06c1.24-.08,2.47-.15,3.7-.26,1-.1,2-.25,3-.38a1,1,0,0,0,.34-.1.28.28,0,0,0,.14-.3.3.3,0,0,0-.22-.25,1,1,0,0,0-.35,0,57.75,57.75,0,0,1-6.57.64,1.23,1.23,0,0,1-.63,0m-60.62-37.4a5,5,0,0,0,.24.51,3.94,3.94,0,0,1,.56,2,2,2,0,0,0,.08.36c2.87.2,5.71.5,8.55.91a.94.94,0,0,0,.16,0,15,15,0,0,0-.56-2.88c-2.88-.41-5.79-.65-8.7-.83a2.19,2.19,0,0,0-.33,0m-8.13-10.26a67.15,67.15,0,0,0-9.39.49c-.08.79-.22,1.59-.26,2.38.07,0,.11.07.14.07,3.11-.2,6.22-.38,9.34-.4a.44.44,0,0,0,.15,0,10.23,10.23,0,0,0,0-2.49m0-7a61,61,0,0,0-8.46.61,1.38,1.38,0,0,0-.08.25c-.1.76-.19,1.52-.28,2.28,0,0,0,.07,0,.12a.66.66,0,0,0,.15,0c2.87-.28,5.75-.38,8.62-.45a13.52,13.52,0,0,0,0-2.85M451,49.92a87.85,87.85,0,0,0-9,.92c-.11.56-.22,1.1-.32,1.63-.05.29-.1.58-.14.87,0,0,0,.07.06.14,1-.12,2-.26,3.07-.37s2.07-.19,3.11-.3,2.07-.1,3.09-.23a11.43,11.43,0,0,0,.14-2.66m5.39,3.28a10.5,10.5,0,0,0,0,1.25,4.12,4.12,0,0,0,.08,1.3c3.07,0,6.12.1,9.16.35h.24l.06,0L466,56c0-.37-.06-.78-.13-1.17a6.54,6.54,0,0,0-.21-1.29c-2.95-.26-5.88-.4-8.82-.39l-.44,0m-4.88-.66a2.22,2.22,0,0,0,.73,0c2.69-.13,5.37-.12,8.06,0a1.66,1.66,0,0,0,.32,0,9.34,9.34,0,0,0-.2-2.6l-.22,0c-2-.11-4-.12-5.94-.08-.84,0-1.68.07-2.52.11l-.06,0-.06.06c0,.07,0,.16,0,.26l-.12,2.17a.45.45,0,0,0,.06.13m4.93-6.29a17.09,17.09,0,0,0-.07,2.58,1.72,1.72,0,0,0,.07.21c1.49.05,3,.07,4.43.15s2.7.19,4.05.29h.17l.08-.08c0-.39-.07-.82-.14-1.24a5.87,5.87,0,0,0-.23-1.35,59.84,59.84,0,0,0-7.8-.6,1,1,0,0,0-.56.06m4.78,6.31.71,0c1.29.09,2.58.15,3.87.28,1.5.14,3,.34,4.49.52a1.89,1.89,0,0,0,.31,0c-.16-.86-.31-1.68-.47-2.53-.24,0-.45-.1-.66-.12-1.07-.14-2.13-.29-3.21-.39-1.61-.16-3.24-.28-4.86-.42A2.54,2.54,0,0,0,461,50a25.74,25.74,0,0,0,.16,2.61M466,81.76a1.6,1.6,0,0,0,.24.06c1.7.16,3.4.3,5.1.48,1.17.11,2.34.26,3.51.41.74.09,1.47.21,2.21.3a2.28,2.28,0,0,0,.38,0c-.11-.76-.24-1.47-.4-2.16l-.2-.07c-1.44-.17-2.89-.35-4.33-.5-1.09-.12-2.19-.22-3.28-.3s-2-.13-3.06-.19a1.78,1.78,0,0,0-.3,0c0,.66.12,1.28.13,1.93M451.16,56.57c0,.86-.17,1.63-.14,2.42,0,0,.05.06.09.11l2.27-.07a1.79,1.79,0,0,0,.4-.09,9,9,0,0,1,4.37,0,2.7,2.7,0,0,0,.41.06l2.11.07.33,0a10.43,10.43,0,0,0-.15-2.45,2.32,2.32,0,0,0-.38-.06c-3.08,0-6.16-.09-9.31.07M434.61,83c1.33-.18,2.56-.35,3.81-.5s2.53-.29,3.8-.42,2.49-.21,3.72-.31a6.79,6.79,0,0,0,.17-1.89A99,99,0,0,0,435,81a20.16,20.16,0,0,0-.38,2m2.84-28.11a11,11,0,0,0-.73,2.47l2.9-.45,3-.39,2.94-.32c.06-.44.15-.84.17-1.25a3.79,3.79,0,0,0,.08-1.26,70.24,70.24,0,0,0-8.33,1.2m37.13-.09c-.19,0-.34-.09-.49-.11l-5-.8c-.76-.11-1.52-.17-2.28-.25a.6.6,0,0,0-.54.08c.09.77.19,1.56.28,2.33a1,1,0,0,0,.6.15l1.7.16c2.07.25,4.13.51,6.17.89a2.51,2.51,0,0,0,.39,0c-.26-.83-.51-1.61-.78-2.45M446.69,47a50.76,50.76,0,0,0-7.21,1.32l-.59,1.88c0,.11-.06.23-.09.34a.13.13,0,0,0,0,.06s0,0,.08.07c2.36-.4,4.76-.79,7.18-1a.47.47,0,0,0,.17,0,.09.09,0,0,0,.05,0l.09-.08c.1-.78.2-1.62.31-2.5m19,2.58.69.09c1.36.18,2.72.35,4.08.54.77.11,1.54.27,2.32.39.12,0,.27.1.39-.08-.21-.64-.41-1.29-.62-1.94,0-.11-.09-.22-.13-.32l-.23-.09c-2.07-.46-4.15-.86-6.24-1.18a.87.87,0,0,0-.55,0c.05.85.19,1.67.29,2.58m-82.32-1.45a2.43,2.43,0,0,0,1.71-.29,3,3,0,0,0,1.11,1.37c.06-.1.11-.16.14-.22a4.13,4.13,0,0,0,.37-1.24c0-.17,0-.36.17-.49a2.27,2.27,0,0,0,2.16-.81,3.13,3.13,0,0,0-2-.94,1.74,1.74,0,0,1,0-.61,2.53,2.53,0,0,0-.24-1.48,1,1,0,0,0-.2-.25A4.48,4.48,0,0,0,385,45a2.38,2.38,0,0,0-1.88-.08,1.57,1.57,0,0,0,1.06,1.47,1.87,1.87,0,0,0-.77,1.7M523.36,96a4.9,4.9,0,0,0,.13-.62,33.6,33.6,0,0,0,.28-3.46,32.34,32.34,0,0,0-.12-4.06c0-.08,0-.2-.1-.24-1.27,1.45-2.2,1.44-3.3.85-.17.17-.36.34-.53.53s-.45.3-.57.59l.79.73a13.86,13.86,0,0,1,2.42,2.87,5.74,5.74,0,0,1,1,2.81M431.62,73.17c-.32,1.08-.64,2.19-1,3.3a.13.13,0,0,0,0,.06l.08.07,2.33-.43c.8-.15,1.61-.25,2.4-.42a26.22,26.22,0,0,0,.61-3.35c-.11,0-.23,0-.34,0a32.5,32.5,0,0,0-4.13.77m44.89,2.38,2.61.49c.56.11,1.11.23,1.67.33.16,0,.34.11.53,0-.33-1.11-.65-2.22-1-3.3a37.65,37.65,0,0,0-4.15-.75l-.31,0c.2,1.09.4,2.15.61,3.24m-16.2-15.84c.57.46,1.14.86,1.63,1.33s.95,1,1.42,1.56a17,17,0,0,0,3.7.17c-.05-.44-.08-.9-.16-1.34a6.89,6.89,0,0,0-.22-1.36,51.57,51.57,0,0,0-6.37-.36m-8.51,0c-.25,0-.4,0-.55,0l-1.05.06L446,60a1.85,1.85,0,0,0-.71.15c0,.3-.07.61-.11.92s-.08.59-.11.88a2.4,2.4,0,0,0-.06.93h.37c.94-.06,1.88-.15,2.81-.19a.85.85,0,0,0,.73-.39,9.4,9.4,0,0,1,2.55-2.4c.08,0,.14-.12.29-.24m60.54,57c-.31.15-.31.16-.52.16a20.67,20.67,0,0,1-4.23-.23.92.92,0,0,0-.29,0,.29.29,0,0,0-.24.22.27.27,0,0,0,.12.31,1,1,0,0,0,.33.11c.6.08,1.2.19,1.81.22s1.41,0,2.12,0c.09,0,.2,0,.27.12a1.86,1.86,0,0,1-.55.64,3.51,3.51,0,0,1-.67.47,8.43,8.43,0,0,1-.83.37,7.09,7.09,0,0,0,1.06.54l.27-.24c1.11-1.14,2.17-2.33,3.19-3.55a8.6,8.6,0,0,0,1.51-2.91,1.33,1.33,0,0,0,0-.34.28.28,0,0,0-.51-.16c-.07.12-.1.25-.16.38a14.47,14.47,0,0,1-.61,1.46,11.82,11.82,0,0,1-1.43,2s-.07,0-.15,0c-.09-.2-.2-.4-.3-.61a58.64,58.64,0,0,0-2.7-5.3,4.17,4.17,0,0,0-.29-.44.26.26,0,0,0-.37-.06.3.3,0,0,0-.13.35,3.18,3.18,0,0,0,.16.32,54.79,54.79,0,0,1,2.86,5.61l.23.54M465.82,78.8l3.6.23a1.52,1.52,0,0,0,.21,0,20.46,20.46,0,0,0-.39-3.43c-.21,0-.44-.07-.67-.09l-2.81-.2a1.33,1.33,0,0,0-.21,0,22.55,22.55,0,0,0,.27,3.49m-19.3-3.46c-1.28.1-2.49.17-3.72.31-.09.6-.18,1.16-.23,1.72a9.16,9.16,0,0,0-.16,1.74c.18,0,.31,0,.45,0l3.28-.26.05,0s0,0,.08-.09c.09-1,.18-2,.26-3a2.22,2.22,0,0,0,0-.35M434.23,65.16c-.3,1-.59,2-.88,2.93,0,0,0,.09.06.14l4.44-.74c.21-1,.39-2,.54-2.94a22.77,22.77,0,0,0-4.16.61m39.43-.72a8.53,8.53,0,0,0,.23,1.43,8.34,8.34,0,0,0,.31,1.42c.5.13,4.12.75,4.46.76a20.7,20.7,0,0,0-.92-3,26.32,26.32,0,0,0-4.08-.66M477.9,81a3.82,3.82,0,0,0,.15,1.17,3.42,3.42,0,0,0,.25,1.06c1.72.36,4.9.9,5.36.9a5.22,5.22,0,0,0-.33-1.17,4.2,4.2,0,0,0-.44-1.16c-1.64-.29-3.27-.59-5-.8m-13.25,20.28a.77.77,0,0,0-.12-.13,15.45,15.45,0,0,0-5.36-2.49,7.91,7.91,0,0,0-4.64.25c-1,.38-2.08.71-3.12,1a23.41,23.41,0,0,1-3.7,1l-.29,0-.27,0a12,12,0,0,0,3.17-.22A37.63,37.63,0,0,0,455,99.59a7.34,7.34,0,0,1,2-.31,13.29,13.29,0,0,1,3.6.53,21,21,0,0,1,3.53,1.29c.15.07.29.23.49.13M428.43,84a.45.45,0,0,0,.16,0l5.18-.92a.91.91,0,0,0,.08-.18c.11-.55.21-1.11.31-1.67a.52.52,0,0,0,0-.21,45.11,45.11,0,0,0-5.05.83,11.77,11.77,0,0,0-.64,2.12m36.4-16.94c0,.28,0,.49,0,.7.06.72.13,1.44.2,2.16a3.47,3.47,0,0,0,.08.36l1.66.1a7.88,7.88,0,0,0,1.68.07,21.57,21.57,0,0,0-.42-3.14c-1-.12-2.08-.17-3.2-.25M447,70.35c.09-1,.18-1.94.25-2.88a.78.78,0,0,0,0-.26,12.28,12.28,0,0,0-3.23.32c-.12.91-.24,1.82-.35,2.73a2.49,2.49,0,0,0,0,.36c1.13-.11,2.22-.13,3.34-.27m-6.85-12.76a26.17,26.17,0,0,0-3.72.61,18.81,18.81,0,0,0-.82,2.69s.07,0,.1,0l3.72-.61a2,2,0,0,0,.23-.1c.18-.86.35-1.72.49-2.64m32.24,2.51a4.22,4.22,0,0,0,.46.11l3.41.6a.91.91,0,0,0,.25,0c-.3-.91-.54-1.82-.89-2.69-1.17-.21-2.3-.42-3.45-.55a.85.85,0,0,0-.25,0c.16.85.31,1.67.47,2.53m-31-9.18c-1,.16-1.94.29-2.88.51-.1.3-.2.6-.29.9s-.18.56-.26.84a3,3,0,0,0-.22.93c1.08-.17,2.11-.33,3.17-.53.16-.87.35-1.7.48-2.65m29.78,2.58,2.91.49a.85.85,0,0,0,.22,0c-.26-.85-.53-1.69-.82-2.51a6.88,6.88,0,0,0-1.39-.29,4.62,4.62,0,0,0-1.41-.18c.16.87.28,1.7.49,2.53m7.13,47.29a.44.44,0,0,0,.15,0c.35,0,.71,0,1.05-.08a25.52,25.52,0,0,0,3.78-.85c.34-.1.68-.21,1-.28a7.25,7.25,0,0,1,3,.06,16.56,16.56,0,0,1,3.57,1.16c.15.07.29.2.5.15a.94.94,0,0,0-.12-.14,12.43,12.43,0,0,0-3.74-1.8,6.38,6.38,0,0,0-4.16.14l-.39.13a39.65,39.65,0,0,1-4.66,1.4s0,0,0,.06m32-43.42.08,0c0-.23,0-.47-.07-.7a.76.76,0,0,0-.19-.48l-1.29-1.29a.78.78,0,0,0-.15-.1.28.28,0,0,0-.32.07.25.25,0,0,0,0,.32,4.11,4.11,0,0,0,.29.3,9.16,9.16,0,0,1,1.53,1.7l.16.23M519,86.46l-1.51,1.22-.08.08a.3.3,0,0,0,0,.38.25.25,0,0,0,.31.09,1.49,1.49,0,0,0,.3-.18l1.09-.9a3,3,0,0,0,.27-.31l-.37-.38m1.3-5.83c.2-.06.41,0,.57-.2l-.57-1.09a1.37,1.37,0,0,0-.13-.2.29.29,0,1,0-.5.31l.63,1.18m-9.76-31.91a1.81,1.81,0,0,0,.07.78.35.35,0,0,0,.6.16,2.36,2.36,0,0,0,.54-.89c-.43,0-.8-.08-1.21-.05m-45.66,52.73,0,0v0Z"/><path d="M460.69,0c0,1.24,0,2.47,0,3.71a1.57,1.57,0,0,0,.05.25c.66.08,1.3,0,2,.07l3.2-3.76C469,.49,472,.8,475,1.19a3.8,3.8,0,0,1,0,.46V4.82c.18.12.29,0,.4-.06L478.57,3c.42-.24.86-.46,1.27-.73a1.19,1.19,0,0,1,1-.15c1.13.26,2.27.48,3.4.74L489,4c.17,0,.33.1.51.16,0,.17,0,.32,0,.48,0,1.37,0,2.75,0,4.12a1.67,1.67,0,0,1-.1.63c-.43,1.18-.87,2.36-1.32,3.53a1,1,0,0,1-.11.23,1.44,1.44,0,0,1-.62.05h-63.3c-.07-.13-.14-.25-.19-.37-.41-1.1-.81-2.21-1.21-3.32a1.62,1.62,0,0,1-.12-.57q0-2.29,0-4.59a.81.81,0,0,1,0-.2,1.12,1.12,0,0,1,.25-.11c2.8-.69,5.62-1.31,8.44-1.89a1.27,1.27,0,0,1,.95.16c1.4.8,2.81,1.58,4.22,2.36.14.08.28.22.52.16,0-.59,0-1.2,0-1.8s0-1.17,0-1.74c.87-.24,7.65-.94,9.18-.95a1.87,1.87,0,0,1,.48.49L449,3.51a3.46,3.46,0,0,0,.35.4.55.55,0,0,0,.31.14L451.36,4a4.19,4.19,0,0,0,.05-.47c0-1,0-1.92,0-2.89A1.24,1.24,0,0,1,451.5,0Zm8.46,9.05c0-.15,0-.24,0-.34.07-.67.13-1.33.19-2a1.35,1.35,0,0,1,.06-.35,1.46,1.46,0,0,1,1.5-.92,1.42,1.42,0,0,1,1.2,1.26c0,.43.07.86.11,1.29a8.76,8.76,0,0,0,.18,1.42c3.7.43,7.36,1,11,1.61a.61.61,0,0,0,.15,0c0-.13,0-.28.06-.43,0-.55.09-1.09.14-1.64a1.4,1.4,0,0,1,2.77-.12,4.91,4.91,0,0,1,0,.53c.06.69.11,1.37.17,2.06a1.8,1.8,0,0,0,.09.28l.39.06a.92.92,0,0,0,.12-.18L488.43,9a1.49,1.49,0,0,0,.1-.63V5.58c0-.15,0-.31,0-.47a5.79,5.79,0,0,0-1.2-.33l-5.63-1.27a.31.31,0,0,0-.37,0c0,.37,0,.78,0,1.19s0,.79,0,1.18a5.51,5.51,0,0,1-.06,1.27l-2.39-.4-2.32-.37c-.79-.13-1.59-.2-2.4-.37,0-.23,0-.42,0-.62,0-.9,0-1.8,0-2.71,0-.15,0-.3,0-.47-.82-.17-1.63-.21-2.42-.3s-1.57-.16-2.35-.25a8.6,8.6,0,0,0-2.41-.11c-.07.62,0,1.24,0,1.87a17.6,17.6,0,0,1,0,1.91h-.31l-4.83-.19L460,5.1a1.88,1.88,0,0,1-.29-.06c0-.22,0-.42,0-.61V1.66c0-.15,0-.32-.1-.44-.55-.05-5.79-.08-6.84,0-.07,0-.14,0-.25,0a11.44,11.44,0,0,0,0,1.3c0,.42,0,.83,0,1.24a10.67,10.67,0,0,1,0,1.27.45.45,0,0,1-.13.06l-6.47.3h-.42l-.05,0-.08-.08c0-.59,0-1.21,0-1.84a15.85,15.85,0,0,0-.05-1.93c-.82.07-1.62.12-2.41.21s-1.57.16-2.35.24a22,22,0,0,0-2.39.3,9,9,0,0,0,0,1.26c0,.43,0,.87,0,1.3a5.29,5.29,0,0,1-.06,1.25l-.68.13-6.11.94a1.48,1.48,0,0,1-.36,0V5.88c0-.39,0-.79,0-1.18a5,5,0,0,0,0-1.22c-.89.08-6.52,1.34-7.13,1.6a1.3,1.3,0,0,0,0,.21c0,1.09,0,2.17,0,3.25a1.58,1.58,0,0,0,.13.56c.29.73.59,1.46.89,2.18a2.38,2.38,0,0,0,.17.31,2.75,2.75,0,0,0,.93-.18,2,2,0,0,0,.11-.71c.06-.68.09-1.37.18-2a1.39,1.39,0,0,1,2.76.11c.05.53.09,1.05.13,1.58l.07.53c3.56-.62,7.11-1.15,10.67-1.56a2,2,0,0,0,.1-.61c.05-.57.08-1.14.14-1.7a1.42,1.42,0,0,1,1-1.19,1.33,1.33,0,0,1,1.43.44,1.28,1.28,0,0,1,.35.85c0,.53.08,1.06.13,1.58a2.1,2.1,0,0,0,.09.36c3.78-.33,7.54-.54,11.31-.59l.12-.07a2.79,2.79,0,0,0,.06-.33c0-.56.11-1.13.15-1.7a1.34,1.34,0,0,1,.59-1,1.26,1.26,0,0,1,1.33-.16,1.36,1.36,0,0,1,.85,1.12c.05.51.08,1,.13,1.53a.94.94,0,0,0,.16.6c3.75,0,7.53.26,11.31.61l.28,0"/><path d="M373.13,76.62a3.42,3.42,0,0,1,1.09.9,15.17,15.17,0,0,1,2,2.87c.63,1.11,1.16,2.27,1.69,3.44.61,1.38,1.23,2.76,1.88,4.12a16.67,16.67,0,0,0,1.8,3,11.58,11.58,0,0,0,3.15,2.89l.31.21c-.08,0-.13.09-.17.09a14.42,14.42,0,0,1-4.23-.65A7.92,7.92,0,0,1,377,91a12.46,12.46,0,0,1-2.61-5,11,11,0,0,1-.29-2.63c0-.84,0-1.69,0-2.53a10.4,10.4,0,0,0-.77-3.73c-.05-.14-.11-.29-.17-.43"/><path d="M408.2,55.45a.74.74,0,0,1,.1.57,13.71,13.71,0,0,1-.64,3.82,15.77,15.77,0,0,1-2.84,5.37,10.8,10.8,0,0,1-4.47,3.35,8.92,8.92,0,0,1-4,.58l-.32,0c-.11-.15-.05-.28,0-.41a9.13,9.13,0,0,1,1.6-3.19A13.93,13.93,0,0,1,400,63.11c.85-.7,1.73-1.35,2.59-2s1.62-1.25,2.4-1.91A14.06,14.06,0,0,0,408,55.64c0-.06.1-.11.16-.19"/><path d="M390.31,83.62c.12-.17.18-.25.24-.32a40.6,40.6,0,0,1,3-3.16A15.3,15.3,0,0,1,396.36,78c1.07-.62,2.16-1.21,3.24-1.82s1.89-1,2.81-1.59a15.56,15.56,0,0,0,3.93-3.25.16.16,0,0,1,.1,0c.12.09.05.22,0,.31-.16.53-.32,1.06-.52,1.56a14.42,14.42,0,0,1-1.36,2.54,28.2,28.2,0,0,1-3.8,4.64,11.44,11.44,0,0,1-5.94,3.17,11.76,11.76,0,0,1-2.22.21c-.61,0-1.22,0-1.82,0-.13,0-.26,0-.49-.07"/><path d="M379.89,62.37a.84.84,0,0,1,.06.14,14.47,14.47,0,0,0,1.62,4.21c.7,1.25,1.46,2.47,2.2,3.7l1.24,2a17.42,17.42,0,0,1,2,4.63c.28,1.07.53,2.13.79,3.2a6.12,6.12,0,0,1,.1.66c-.09,0-.15,0-.19,0a13.08,13.08,0,0,1-4.28-2.75,11.61,11.61,0,0,1-2.88-4.93,27.47,27.47,0,0,1-1.14-5.83,13.69,13.69,0,0,1,.2-4.33c0-.21.12-.42.18-.62,0,0,.06-.05.11-.08"/><path d="M371.46,95.71c.32.14.51.22.7.32a14.4,14.4,0,0,1,3.13,2.18c.78.72,1.53,1.46,2.27,2.22.93,1,1.83,1.95,2.75,2.91a23.77,23.77,0,0,0,2.56,2.35,11.87,11.87,0,0,0,4.7,2.33,2,2,0,0,1,.21.1s0,.09-.06.1a13.63,13.63,0,0,1-4.11.64,7.92,7.92,0,0,1-3.36-.74,11.59,11.59,0,0,1-4.71-4,10.92,10.92,0,0,1-1.24-2.66c-.21-.59-.4-1.19-.61-1.78a11.47,11.47,0,0,0-2-3.6c-.07-.09-.12-.18-.27-.39"/><path d="M388.69,96.14c0-.13,0-.26,0-.39a11.27,11.27,0,0,1,3.7-8.55,7.18,7.18,0,0,1,2.58-1.49,19,19,0,0,1,3.31-.8c1.37-.24,2.76-.39,4.12-.7,0,0,.07,0,.12,0a1.34,1.34,0,0,1-.34.53,12.78,12.78,0,0,1-1.89,1.86,31.11,31.11,0,0,1-2.69,1.9c-.7.44-1.39.89-2.1,1.32a21.66,21.66,0,0,0-5.94,5.39l-.72.92-.11,0"/><path d="M389.27,96.89a1.17,1.17,0,0,1,.13-.23,27,27,0,0,1,3.58-4,22.9,22.9,0,0,1,2.7-2l2.73-1.73a27.39,27.39,0,0,0,2.48-1.79,14.38,14.38,0,0,0,1.83-1.83c.08-.1.14-.24.34-.27a3.06,3.06,0,0,1-.06.45,10.5,10.5,0,0,1-.86,2.37,23.76,23.76,0,0,1-4,5.84,10,10,0,0,1-5.45,3.07,13.37,13.37,0,0,1-3.22.23,1,1,0,0,1-.17-.07"/><path d="M384.93,53.82l.55.47a9.66,9.66,0,0,1,1.69,2.18,24.83,24.83,0,0,1,1.27,2.59c.5,1.15,1,2.3,1.53,3.44a9.87,9.87,0,0,0,1.14,1.86,7.44,7.44,0,0,0,2.43,2.1l.3.17c0,.05,0,.1,0,.1a7.06,7.06,0,0,1-2.08.37,3.61,3.61,0,0,1-2.11-.63,5.4,5.4,0,0,1-1.88-2.22,11.53,11.53,0,0,1-.81-2.64c-.21-1-.39-2.08-.58-3.12A16,16,0,0,0,385,54.06s0-.07,0-.24"/><path d="M527.32,82.27a.6.6,0,0,0-.49-.58c-.19,0-.37-.14-.55-.19a.88.88,0,0,0-1.13.59c0,.16-.09.33-.14.52a.73.73,0,0,1-.34-.61,7.48,7.48,0,0,0-.16-1,3.13,3.13,0,0,1,.07-1.29,2.06,2.06,0,0,1,1.4-1.54,1.29,1.29,0,0,1,.4-.07.79.79,0,0,1,.75.36c.34.49.55.57,1.09.4a1.07,1.07,0,0,1,.79.11.48.48,0,0,1,.27.36,1.6,1.6,0,0,1,0,.53,6.18,6.18,0,0,1-.2,1,1.21,1.21,0,0,1-.81.93,7,7,0,0,0-1,.55"/><path d="M510.46,72.89a4.55,4.55,0,0,1-1.47,2,2,2,0,0,1-2.21.12.7.7,0,0,1-.4-.77.74.74,0,0,0-.51-.93.85.85,0,0,1-.22-.09c-.41-.32-.52-.65-.21-1.05a2.6,2.6,0,0,1,.36-.38,5.17,5.17,0,0,1,.69-.46,5.46,5.46,0,0,1,3.15-.53c-.18.12-.34.22-.49.34a.51.51,0,0,0-.17.76,5.24,5.24,0,0,0,.32.57.85.85,0,0,0,.8.4l.36,0"/><path d="M527,85.16c.27,0,.46-.06.64-.11a1.59,1.59,0,0,0,.48-.21.41.41,0,0,0,.2-.5,1.42,1.42,0,0,1-.08-.41.92.92,0,0,0-.53-.87,5.48,5.48,0,0,1,2.46-1,2.05,2.05,0,0,1,.7,0,.87.87,0,0,1,.43.28.47.47,0,0,1,.06.6.86.86,0,0,0,.14,1.21.81.81,0,0,1,0,1.28,2.54,2.54,0,0,1-1.44.62,3.22,3.22,0,0,1-1.73-.22l-1-.49c-.08,0-.15-.11-.29-.2"/><path d="M511.29,73c.11.15.18.26.27.36a.71.71,0,0,0,.9.21c.16-.07.32-.16.47-.24.37-.18.37-.19.48-.66l.81.39a.85.85,0,0,1,.44.37,4,4,0,0,1,.57,1.41,2.33,2.33,0,0,1,0,.59.72.72,0,0,1-.67.63.54.54,0,0,1-.18,0,.91.91,0,0,0-1,.58.67.67,0,0,1-.68.37,1.3,1.3,0,0,1-.86-.33,1.88,1.88,0,0,1-.65-1.09,5.43,5.43,0,0,1,.13-2.59"/><path d="M524.82,89.13a7.87,7.87,0,0,1,.15-2.69,3.84,3.84,0,0,0,.32.44.68.68,0,0,0,.85.18l.48-.24c.39-.21.39-.21.47-.69l.76.38a.83.83,0,0,1,.43.3,3.47,3.47,0,0,1,.66,1.8c0,.68-.28,1-1,.94a.84.84,0,0,0-.87.46.83.83,0,0,1-1.14.42,1.66,1.66,0,0,1-.9-.81l-.27-.51Z"/><path d="M513.25,43.25l-1.09.23c-.08-.53-.16-1-.24-1.56a.83.83,0,0,1,.95,0,.81.81,0,0,1,.4.74c0,.17,0,.35,0,.56"/><path d="M506,42.23l-.33,1.14-1.41-.29a.81.81,0,0,1,1-1,5.56,5.56,0,0,0,.72.16"/><path d="M510.6,40.86h-.52c.34-.16.34-.16.52,0"/><path d="M525,85.46a.66.66,0,0,1,0,.2s-.07.07-.11.1,0,0,0,0a.41.41,0,0,1,0-.11,1.67,1.67,0,0,1,.14-.15"/><path d="M526.53,85a.6.6,0,0,1,.19,0s0,.09.06.13a.22.22,0,0,1-.14,0s-.06-.07-.11-.13"/><path d="M527.25,82.81l0,.16s0,0-.05,0,0-.11.08-.16"/><path d="M511.35,72a1.18,1.18,0,0,1-.07.2h-.09s0,0,0,0l.12-.17.06,0"/><path d="M509.41,41.09l-.09,0,0,0,.08,0,0,0"/><path d="M510.92,68.62l-.26-.13v0l.24.12Z"/><path d="M513.53,69.4s0-.06,0-.09,0,0,0,0,0,0,0,0h0"/><path d="M509.24,70l.07.06h-.05a.13.13,0,0,0,0-.06Z"/><path d="M397.29,53.68l0-.11,0,.09v0"/><path d="M482.69,111.05c-.49,1.76-.93,3.38-1.38,5l-.09.06-1-.27a2,2,0,0,1-.29-.12c.59-2.34,1.22-4.65,1.81-7,0-.13.1-.25.15-.4l.48.11,1.09.29c.05.16.11.3.15.45.42,1.59.85,3.19,1.28,4.78,0,.14.09.29.18.54.5-1.7.87-3.32,1.34-5a7.85,7.85,0,0,1,1.41.35,3.27,3.27,0,0,1,0,.35c-.58,2.2-1.15,4.4-1.73,6.6,0,.13-.08.26-.13.41a10.68,10.68,0,0,1-1.48-.36,1.48,1.48,0,0,1-.24-.62l-1.29-4.77c0-.13-.09-.25-.17-.5"/><path d="M437.61,111.06a1.67,1.67,0,0,1,1.09,1.48c0,.27.11.54.16.81a1.36,1.36,0,0,0,.44.87s0,.07,0,.11a5,5,0,0,1-1.64.37,1.19,1.19,0,0,1-.33-.66c-.09-.36-.16-.73-.24-1.09-.21-.89-.48-1.07-1.38-.91l-1.41.27a2.8,2.8,0,0,0,0,.41c.13.67.26,1.35.38,2,0,.15,0,.31.06.48a6.68,6.68,0,0,1-1.45.3,1.85,1.85,0,0,1-.2-.67L432,108.71c0-.21-.06-.42-.09-.64a4.64,4.64,0,0,1,1.23-.28c.78-.17,1.58-.3,2.37-.44.21,0,.43,0,.64-.07a2.15,2.15,0,0,1,2,3,4.45,4.45,0,0,1-.53.77m-3.55,0c.62-.11,1.18-.21,1.74-.33a1.66,1.66,0,0,0,.49-.16.77.77,0,0,0,.45-.82,1.82,1.82,0,0,0-.13-.51.76.76,0,0,0-.77-.52,5.44,5.44,0,0,0-.58,0c-.37.06-.74.13-1.1.21l-.49.13a19.78,19.78,0,0,0,.39,2"/><path d="M430.53,113.73a3.59,3.59,0,0,1-.25,1.38,3,3,0,0,1-1.67,1.74,4.93,4.93,0,0,1-1.64.44,3.22,3.22,0,0,1-3-1.39,5.44,5.44,0,0,1-.93-2.39,4.45,4.45,0,0,1,0-1.41,3.18,3.18,0,0,1,1.84-2.5,4.93,4.93,0,0,1,1.93-.46,3.13,3.13,0,0,1,2.53,1.15,3.87,3.87,0,0,1,.46.68,5.78,5.78,0,0,1,.71,2.76m-5.91-1a4.58,4.58,0,0,0,.61,2.09,3,3,0,0,0,.48.58,1.93,1.93,0,0,0,3.16-1.1,3.18,3.18,0,0,0,0-1.11,4.11,4.11,0,0,0-.62-1.7,1.93,1.93,0,0,0-1.26-.9,2,2,0,0,0-2.35,1.74c0,.12,0,.24,0,.4"/><path d="M468,113.74a1.14,1.14,0,0,1,0-.25c.32-2.4.65-4.81,1-7.18a.64.64,0,0,1,.56-.07l2,.28,1,.16a2.74,2.74,0,0,1,2.39,2.6,5.69,5.69,0,0,1-.45,3,3.91,3.91,0,0,1-.7,1.09,2.62,2.62,0,0,1-2,.89,4.61,4.61,0,0,1-.53,0l-2.74-.38-.52-.11m1.67-1.1a13.94,13.94,0,0,0,1.86.21,1.42,1.42,0,0,0,1-.51,2.53,2.53,0,0,0,.51-.92,4.8,4.8,0,0,0,.24-2.09,1.34,1.34,0,0,0-1.18-1.34c-.53-.11-1.08-.16-1.62-.23a.73.73,0,0,0-.16.07c-.22,1.55-.45,3.13-.67,4.81"/><path d="M494.53,115.46a7.51,7.51,0,0,1-.44,1.2l-.4-.1-2.54-.94-.52-.18a12.93,12.93,0,0,0-.64,1.77,3.19,3.19,0,0,0,.41.21l2.93,1.08a1,1,0,0,1,.54.28,7.61,7.61,0,0,1-.46,1.21c-.93-.29-1.81-.65-2.71-1L488,118a2.24,2.24,0,0,1,.05-.31c.81-2.21,1.63-4.42,2.44-6.62a2.67,2.67,0,0,1,.12-.24c.89.26,1.74.61,2.6.92l2.6,1a5.19,5.19,0,0,1-.42,1.28c-.67-.18-1.27-.45-1.89-.67l-1.84-.67a10,10,0,0,0-.6,1.44c.18.08.31.16.45.21l2.54.94.45.19"/><path d="M464.62,105.83c.53,0,1,.06,1.55.06a2.51,2.51,0,0,1,0,.32c-.11,1.61-.21,3.21-.33,4.82a4.1,4.1,0,0,1-.19.91,2.27,2.27,0,0,1-2,1.56,4.6,4.6,0,0,1-2.21-.16,2.26,2.26,0,0,1-1.68-2,5.59,5.59,0,0,1,0-1c.06-1.33.15-2.66.23-4,0-.26.05-.51.07-.75a3.5,3.5,0,0,1,1.59.08.9.9,0,0,1,0,.16c-.09,1.45-.19,2.9-.28,4.35a3.71,3.71,0,0,0,.05,1,1.06,1.06,0,0,0,.87.86,3.71,3.71,0,0,0,.88,0,1,1,0,0,0,.85-.62,2.29,2.29,0,0,0,.15-.51,8.46,8.46,0,0,0,.09-.88c.09-1.33.17-2.66.25-4,0-.1,0-.19.05-.31"/><path d="M420.84,114.24l.44,1.23c-1,.46-2.09.75-3.11,1.2a12.2,12.2,0,0,0,.52,1.51l.52,1.45a7,7,0,0,1-1.41.54l-.08,0,0,0c0-.09-.08-.18-.11-.27l-2.47-6.7a1.43,1.43,0,0,1,.24-.16l4.69-1.73h.15a4.15,4.15,0,0,1,.46,1.19,5.6,5.6,0,0,1-1.14.47l-1.21.44-1.18.45a12.74,12.74,0,0,0,.53,1.58,2.9,2.9,0,0,0,.42-.1l2.21-.8.57-.2"/><path d="M455.64,113.13a9.12,9.12,0,0,1-1.57,0c-.1-2.07-.06-4.12-.11-6.21a2.94,2.94,0,0,0-.37,0l-1.47,0-.37,0a4.39,4.39,0,0,1-.08-1.31,2.8,2.8,0,0,1,.36,0l3.53,0,1.88,0,.38,0a5.3,5.3,0,0,1,0,1.32c-.74.08-1.46,0-2.2.08-.06.72,0,1.4,0,2.08s0,1.38,0,2.06,0,1.37,0,2.12"/><path d="M439.94,106.6c2.07-.27,4.08-.48,6.11-.71a3.68,3.68,0,0,1,.15,1.32c-.71.19-1.44.13-2.18.33.06,1,.23,2.07.33,3.1s.26,2,.34,3.07a6.27,6.27,0,0,1-1.55.19,9.13,9.13,0,0,1-.22-1.52c-.09-.53-.12-1.06-.18-1.58s-.13-1-.19-1.52-.1-1-.2-1.52c-.75-.08-1.46.19-2.18.13-.16-.2-.1-.43-.14-.63s-.06-.39-.09-.66"/><path d="M477.66,107.55c.49,0,.95.19,1.47.25a2,2,0,0,1,0,.37c-.29,1.54-.6,3.08-.9,4.62l-.42,2.14-.1.36a6.93,6.93,0,0,1-1.48-.27c0-.07-.05-.11,0-.14.46-2.39.94-4.77,1.41-7.16a.71.71,0,0,1,.09-.17"/><path d="M449.59,105.71a1,1,0,0,1,.07.15l.45,7.16a1.51,1.51,0,0,1,0,.26l-.76.07a2.22,2.22,0,0,1-.73,0c-.14-1.25-.18-2.5-.27-3.75s-.17-2.5-.25-3.74a3.81,3.81,0,0,1,1.53-.16"/><path d="M513.56,63.61l-.13-.21h0c.15,0,.2.07.12.22Z"/><path d="M513.43,63.4c0-.09-.07-.17-.11-.25h0c.15,0,.14.13.1.24h0"/><path d="M513.32,63.15s0,0,0-.08l0,0s0,0,0,0h0"/></g></g></g></g></svg>