<?xml version="1.0" encoding="utf-8"?>
<!-- Generator: Adobe Illustrator 24.0.2, SVG Export Plug-In . SVG Version: 6.00 Build 0)  -->
<svg version="1.1" id="Camada_1" xmlns="http://www.w3.org/2000/svg" xmlns:xlink="http://www.w3.org/1999/xlink" x="0px" y="0px"
	 viewBox="0 0 150 150" style="enable-background:new 0 0 150 150;" xml:space="preserve">
<style type="text/css">
	.st0{opacity:0.2;}
	.st1{fill:#00344C;}
	.st2{fill:#100534;}
	.st3{fill:#0089D4;}
	.st4{fill:#56ACE0;}
	.st5{fill:#FFFFFF;}
	.st6{fill:#92DBFF;}
	.st7{fill:#194F82;}
</style>
<title>Ativo 34</title>
<g>
	<g id="Camada_2_1_">
		<g id="Camada_35">
			<g class="st0">
				<path class="st1" d="M137.4,78c0,2.9,2.4,5.3,5.3,5.3c2.9,0,5.3-2.4,5.3-5.3c0-2.9-2.4-5.3-5.3-5.3c0,0,0,0,0,0
					C139.7,72.7,137.4,75.1,137.4,78z"/>
			</g>
			<g class="st0">
				<path class="st1" d="M74.5,146.9v-3.2c35.7-0.5,64.2-29.8,63.8-65.4c-0.5-35-28.7-63.3-63.8-63.8v-3.2
					c37.5,0.5,67.5,31.2,67,68.7C141,116.7,111.3,146.4,74.5,146.9z"/>
			</g>
			<path class="st2" d="M74.5,142.6v-3.2c35.7-0.5,64.2-29.8,63.8-65.4c-0.5-35-28.7-63.3-63.8-63.8V6.9c37.5,0.5,67.5,31.2,67,68.7
				C141,112.4,111.3,142.1,74.5,142.6z"/>
			<path class="st3" d="M74.5,146.4C35,146.9,2.5,115.2,2,75.6s31.2-72,70.8-72.5c0.6,0,1.2,0,1.8,0v10.8
				c-33.6-0.4-61.2,26.4-61.6,60c-0.4,33.6,26.4,61.2,60,61.6c0.5,0,1.1,0,1.6,0V146.4z"/>
			<path class="st3" d="M135.2,74.7c0,2.9,2.4,5.3,5.3,5.3s5.3-2.4,5.3-5.3c0-2.9-2.4-5.3-5.3-5.3c0,0,0,0,0,0
				C137.6,69.4,135.2,71.8,135.2,74.7z"/>
			<path class="st4" d="M93.6,82.4H82.3c-2.7,4.6-4.9,8-5.1,8.3c-0.5,0.8-1.5,1-2.3,0.5c-0.2-0.1-0.4-0.3-0.5-0.5
				c-0.2-0.4-2.4-3.7-5.1-8.3H57.8L50,97.6h51.4L93.6,82.4z"/>
			<path class="st5" d="M61.3,56c0.4,7.7,12.4,27.3,14.5,30.6c5-8.1,14.5-24.4,14.5-30.6c0-8-6.5-14.5-14.5-14.5
				C67.7,41.6,60.8,48.1,61.3,56z"/>
			<path class="st6" d="M75.7,44.9c-6.1,0-11.1,4.9-11.1,11.1c0,0,0,0,0,0c0,1.6,1.1,4.7,2.7,8.4h8.3c1,0,1.8,0.8,1.8,1.8
				c0,1-0.8,1.8-1.8,1.8H69c0.4,0.8,0.8,1.7,1.3,2.5h3.2c1-0.1,1.8,0.6,1.9,1.6c0.1,1-0.6,1.8-1.6,1.9c-0.1,0-0.2,0-0.3,0h-1.4
				c1.1,2.1,2.3,4.2,3.6,6.2c5.9-9.9,11.1-20.5,11.1-24.2C86.8,49.9,81.9,44.9,75.7,44.9z"/>
			<path class="st7" d="M105.9,98.4L96,79.8c-0.3-0.5-0.9-0.8-1.5-0.8H84.2c4.4-7.9,9.4-17.8,9.4-23c-0.2-9.9-8.4-17.6-18.3-17.4
				c-9.5,0.2-17.2,7.9-17.4,17.4c0,5.2,4.9,15.1,9.4,23H56.9c-0.6,0-1.1,0.3-1.5,0.8l-9.8,18.6c-0.5,0.8-0.2,1.8,0.6,2.3
				c0.3,0.2,0.6,0.2,0.9,0.2h57.4c0.9,0,1.7-0.8,1.7-1.7C106.1,99,106,98.7,105.9,98.4z M61.3,56c-0.4-8,6.5-14.5,14.5-14.5
				c8,0,14.5,6.5,14.5,14.5c0,6.3-9.4,22.6-14.5,30.6C73.6,83.4,61.7,63.7,61.3,56z M50,97.6L50,97.6l7.8-15.2h11.3
				c2.7,4.6,4.9,8,5.1,8.3c0.5,0.8,1.5,1,2.3,0.5c0.2-0.1,0.4-0.3,0.5-0.5c0.2-0.4,2.4-3.7,5.1-8.3h11.4l7.8,15.2H50z"/>
		</g>
	</g>
</g>
</svg>
