<?xml version="1.0" encoding="utf-8"?>
<!-- Generator: Adobe Illustrator 19.0.0, SVG Export Plug-In . SVG Version: 6.00 Build 0)  -->
<svg version="1.1" id="Camada_1" xmlns="http://www.w3.org/2000/svg" xmlns:xlink="http://www.w3.org/1999/xlink" x="0px" y="0px"
	 viewBox="0 0 128 128" style="enable-background:new 0 0 128 128;" xml:space="preserve">
<style type="text/css">
	.st0{fill:#B3B3B3;}
	.st1{fill:#A6120D;}
	.st2{fill:#DD1B16;}
	.st3{fill:#F2F2F2;}
</style>
<g>
	<g>
		<polygon id="XMLID_6_" class="st0" points="63.8,0 3.6,21.2 13.1,100.1 63.9,128 114.9,99.7 124.4,20.8 		"/>
		<polygon id="XMLID_5_" class="st1" points="118.4,25.4 63.7,6.7 63.7,121.3 109.5,95.9 		"/>
		<polygon id="XMLID_4_" class="st2" points="10.3,25.7 18.5,96.3 63.7,121.3 63.7,6.7 		"/>
		<path class="st3" d="M78.7,67.7l-15.1,7H47.8l-7.5,18.7l-13.9,0.3l37.2-82.8L78.7,67.7z M77.3,64.2L63.8,37.4L52.7,63.7h11
			L77.3,64.2z"/>
		<polygon id="XMLID_1_" class="st0" points="63.7,10.9 63.8,37.4 76.3,63.7 63.7,63.7 63.7,74.8 81.2,74.8 89.3,93.7 102.6,94 		
			"/>
	</g>
</g>
<g id="XMLID_7_">
</g>
<g id="XMLID_8_">
</g>
<g id="XMLID_9_">
</g>
<g id="XMLID_10_">
</g>
<g id="XMLID_11_">
</g>
<g id="XMLID_12_">
</g>
<g id="XMLID_13_">
</g>
<g id="XMLID_14_">
</g>
<g id="XMLID_15_">
</g>
<g id="XMLID_16_">
</g>
<g id="XMLID_17_">
</g>
<g id="XMLID_18_">
</g>
<g id="XMLID_19_">
</g>
<g id="XMLID_20_">
</g>
<g id="XMLID_21_">
</g>
</svg>
