<?xml version="1.0" encoding="utf-8"?>
<!-- Generator: Adobe Illustrator 24.0.2, SVG Export Plug-In . SVG Version: 6.00 Build 0)  -->
<svg version="1.1" id="Layer_1" xmlns="http://www.w3.org/2000/svg" xmlns:xlink="http://www.w3.org/1999/xlink" x="0px" y="0px"
	 viewBox="0 0 128 128" style="enable-background:new 0 0 128 128;" xml:space="preserve">
<style type="text/css">
	.st0{fill:#552681;}
	.st1{fill:#E3AF1B;}
</style>
<g>
	<path class="st0" d="M49.2,0.1C51.5,0.4,53.8,1,55.9,2c2.2,1.1,4.1,2.6,5.7,4.5c3.2,3.6,6.9,6.1,11.6,7.2c2.1,0.5,4.2,0.7,6.3,0.7
		c3,0,6.1,0,9.1,0c7.3,0.1,13.6,2.6,18.7,7.8c5.2,5.3,7.8,11.8,7.5,19.2c-0.4,9.8-5,17.1-13.4,22.1c-0.3,0.2-0.6,0.2-0.8,0.6
		c0.3,0.2,0.5,0.3,0.7,0.4c7.4,4.3,11.9,10.6,13.2,19.1c1.2,8.1-1,15.3-6.4,21.4c-4.2,4.8-9.6,7.5-15.9,8.4c-1,0.1-2,0.2-3.1,0.2
		c-3.3,0-6.6,0-9.9,0c-6.5,0-12.1,2.2-16.6,6.9c-0.7,0.7-1.3,1.5-2,2.2c-2.6,2.6-5.7,4.2-9.3,5c-0.3,0.1-0.6,0.1-0.9,0.2
		c-0.2,0.1-0.4,0.1-0.6,0.1c-0.1,0-0.3,0-0.4,0c-0.4,0-0.8-0.1-1.1,0.1c-2.7,0-5.4,0-8.1,0c-0.4-0.2-0.8,0-1.1-0.1
		c-0.1,0-0.3,0-0.4,0c-0.2,0-0.4,0-0.6,0c-5-0.5-9-2.9-11.9-6.9c-4.9-6.6-4.3-16,1.4-21.9c2.9-3,6.5-4.9,10.7-5.4
		c4-0.5,8.1-0.5,12.1,0c4.6,0.6,8.5,2.8,11.6,6.4c4.3,4.9,9.6,7.5,16.2,7.6c3.8,0,7.5,0,11.3,0c4.6,0,8.7-1.6,12.3-4.5
		c4.4-3.6,6.9-8.3,7.4-14c0.5-6-1.4-11.2-5.5-15.7c-3.5-3.7-7.8-5.7-12.8-6.3c-0.4,0-0.8,0-1.2,0c-3.5,0-7,0-10.5,0
		c-7.1,0-12.8,2.8-17.5,8.1c-3,3.4-6.8,5.4-11.3,6c-4,0.5-8.1,0.6-12,0c-6.5-1-11.5-4.3-14.1-10.5c-2.9-7-1-15.8,5.8-20.5
		c3.4-2.4,7.2-3.6,11.3-3.6c2.1,0,4.3,0,6.4,0c5.8,0.1,10.5,2.4,14.4,6.7c3.6,4.1,8.2,6.6,13.7,7.2c4.4,0.5,8.8,0.1,13.2,0.2
		c1.9,0,3.7-0.2,5.5-0.7c8-2.2,13.9-9.3,14.6-17.6c0.6-6.4-1.4-11.8-5.9-16.3c-3.9-3.9-8.6-5.9-14.1-5.9c-3.4,0-6.8,0-10.3,0
		c-7.1-0.1-12.7,3-17.3,8.2c-2.6,3-6,5-9.9,5.7c-5.3,0.9-10.6,1-15.9-0.3c-7.1-1.8-12.2-7.8-12.8-15.1c-0.7-8,4-15.2,11.6-17.9
		C36.1,0.4,37.6,0,39.3,0c0.2,0,0.5,0,0.7,0c2.8,0,5.7,0,8.5,0C48.7,0,49,0,49.2,0.1z"/>
	<path class="st1" d="M13.1,66.3c0-1.4,0-2.8,0-4.2c0.2-0.5,0.2-1.1,0.2-1.6c0.2-2.4,0.9-4.7,1.9-6.9c4-8.8,10.8-14,20.3-15.6
		c1.2-0.2,2.4-0.3,3.6-0.3c3.3,0,6.5,0,9.8,0c6.3,0,11.8-2.1,16.2-6.7c1.8-1.9,3.6-3.9,5.9-5.2c2.9-1.6,5.9-2.5,9.2-2.5
		c2.4,0,4.9-0.1,7.3,0c7.4,0.3,13,3.5,16.3,10.3c1.3,2.8,1.7,5.8,1.4,8.9c-0.3,3.2-1.3,6.1-3.3,8.5c-3.2,4-7.3,6.4-12.4,6.9
		c-4.1,0.4-8.3,0.5-12.4-0.2c-4.3-0.7-7.8-2.9-10.7-6.1c-4.1-4.6-9.2-7.3-15.4-7.7c-3.6-0.2-7.3-0.2-10.9-0.1c-6,0-11.2,2-15.4,6.4
		c-3,3.2-4.8,7-5.4,11.3c-0.8,6.1,0.9,11.5,4.9,16.1c4,4.6,9.1,6.9,15.2,6.9c3.4,0,6.7,0,10.1,0c5.7,0,10.8-1.9,15-5.9
		c1-1,2-2.1,3-3.1c2.9-2.9,6.5-4.7,10.6-5.2c4-0.5,8.1-0.5,12,0c7.3,1,13.6,6.2,15,13.8c1,5.8-0.3,11-4.4,15.2
		c-2.5,2.6-5.6,4.4-9.1,5c-5.3,0.9-10.7,1-16-0.2c-3.6-0.9-6.6-2.8-9.1-5.6c-3.7-4.2-8.2-6.9-13.9-7.6c-4.5-0.6-9-0.4-13.5-0.4
		c-2.8,0-5.6-0.4-8.2-1.4c-9.3-3.4-15.1-10-17.3-19.7c-0.1-0.5-0.2-1.1-0.2-1.6C13.3,67.3,13.4,66.8,13.1,66.3z"/>
</g>
</svg>
