<?xml version="1.0" encoding="utf-8"?>
<!-- Generator: Adobe Illustrator 19.0.0, SVG Export Plug-In . SVG Version: 6.00 Build 0)  -->
<svg version="1.1" id="Camada_1" xmlns="http://www.w3.org/2000/svg" xmlns:xlink="http://www.w3.org/1999/xlink" x="0px" y="0px"
	 viewBox="0 0 128 128" style="enable-background:new 0 0 128 128;" xml:space="preserve">
<style type="text/css">
	.st0{fill:#EE4323;}
</style>
<g>
	<path id="XMLID_2_" class="st0" d="M45,128c-7.7-3.3-14.9-11.7-14.9-20.4c0-9.4,5.9-17.4,13.4-22.6c-0.9,3.4-1.4,6.4,0.8,9.5
		c2.1,2.8,5.6,4.2,9,3.4c7.9-1.7,8.3-10.5,3.6-15.5c-4.6-5-9.1-10.7-7.4-18c0.9-3.7,3.1-7.1,6-9.5c-2.2,5.7,4,11.4,8.1,14.2
		c7.1,4.9,14.9,8.6,21.4,14.3C92,89.4,97,97.5,96,107c-1.1,10.3-9.3,17.4-18.4,21c19.3-4.3,39.3-19.3,39.7-40.7
		c0.3-17.6-11.8-31.2-26.7-39l-0.8-0.4c0.4,1,0.5,1.8,0.5,2.6c0.1-0.6,0.2-1.1,0.3-1.7c0,0.7-0.1,1.4-0.3,2.1l0-0.4
		c-0.2,1-0.6,1.8-1.1,2.6l0.2-0.2c-3,5-11.1,6-15.1,0.9c-6.4-8.3,0.1-17.2,1.1-25.9c1.1-11-5.7-21.6-14.2-28
		c4.7,7.6-1.5,17.6-6.4,23.2c-4.8,5.4-10.6,10-15.9,14.9C33.1,43.5,27.6,49.1,23,55.3C13.6,67.8,7.9,83.5,12.1,99
		C16.3,114.6,29.8,124.5,45,128L45,128z"/>
</g>
<g id="XMLID_1_">
</g>
<g id="XMLID_3_">
</g>
<g id="XMLID_4_">
</g>
<g id="XMLID_5_">
</g>
<g id="XMLID_6_">
</g>
<g id="XMLID_7_">
</g>
<g id="XMLID_8_">
</g>
<g id="XMLID_9_">
</g>
<g id="XMLID_10_">
</g>
<g id="XMLID_11_">
</g>
<g id="XMLID_12_">
</g>
<g id="XMLID_13_">
</g>
<g id="XMLID_14_">
</g>
<g id="XMLID_15_">
</g>
<g id="XMLID_16_">
</g>
</svg>
