<?xml version="1.0" encoding="utf-8"?>
<!-- Generator: Adobe Illustrator 24.0.2, SVG Export Plug-In . SVG Version: 6.00 Build 0)  -->
<svg version="1.1" id="Layer_1" xmlns="http://www.w3.org/2000/svg" xmlns:xlink="http://www.w3.org/1999/xlink" x="0px" y="0px"
	 viewBox="0 0 128 128" style="enable-background:new 0 0 128 128;" xml:space="preserve">
<style type="text/css">
	.st0{fill:#FBA919;}
	.st1{fill:#E78724;}
	.st2{fill:#FDC168;}
	.st3{fill:#FFFFFF;}
	.st4{fill:#C9C9C9;}
	.st5{fill:#463014;}
</style>
<g>
	<path class="st0" d="M21.7,31.1c0,0,2.2,8.5,2.5,11.3c0.3,2.8-5.6,9.1-5.6,12.2c0,3.1,1.3,8.8,8.1,11.6c6.9,2.8,7.8,10,7.8,14.4
		c0,4.4-2.5,12.8-2.5,12.8s-1.6,21,6.9,24.7c8.5,3.8,6.6,3.8,8.5,3.8c1.9,0,15.7,5.6,23.8,3.4c8.1-2.2,10.3-4.7,10.3-4.7
		s8.1,0.6,10.6-6.6c2.5-7.2,4.1-22.2,3.1-29.1c-0.9-6.9-2.2-16,3.4-19.1c5.6-3.1,11.6-6.9,10.6-10c-0.9-3.1-5.9-7.5-5.9-7.5
		s-1.3-7.8-0.3-9.7c0.9-1.9,6.6-6.6,3.4-10c-3.1-3.4-8.8-3.4-8.8-3.4l-7.2,0.6c0,0-12.2-11-28.2-10.3c-16,0.6-26,10.3-26,10.3
		s-5.3-1.9-10,0C21.7,27.7,20.7,25.8,21.7,31.1L21.7,31.1L21.7,31.1z"/>
	<path class="st1" d="M50.3,77.7c0,0-6.2,9.5-10.7,16.2c-0.7,1,4.5,1.1,4.5,1.1L50.3,77.7L50.3,77.7z"/>
	<path class="st1" d="M53.2,58.1c0,0-1.9,4.7-2.9,7.1c-1.1,2.7-5.3,4-5.3,4s2.2-2.3,2.2-8.1c0-2.4,3.2-3.4,3.2-3.4L53.2,58.1
		L53.2,58.1z"/>
	<path class="st1" d="M51.3,60.7c0,0-3.8,4.6-10.9,2c-7.1-2.6-7.8-11.7-7.8-14.2c0-2.6,13.5,2.6,15.3,3.6
		C49.7,53.2,53.2,57.6,51.3,60.7L51.3,60.7L51.3,60.7z"/>
	<path class="st1" d="M24.5,12c0,0,6.6-1.3,10.9,2.2c4.4,3.5,5.7,6.2,5.7,6.2l-7.4,5.8c0,0-3.6-1.7-4.7-6.4
		C27.9,15.1,28.7,12.9,24.5,12L24.5,12L24.5,12z"/>
	<path class="st1" d="M49.4,47.5c-2.8-4-7.5-5.8-11.2-6.1c-6.3-0.5-9.4,1.7-9.4,1.7s10.4,0.4,13.4,4.4c5.6,7.3,13.7,7.9,15,6.3
		c-1.5,0.1-3.2-0.7-4.9-2.3C51.2,50.5,50.3,48.8,49.4,47.5L49.4,47.5L49.4,47.5z"/>
	<path class="st1" d="M31.9,61.7c0,0-11.5-4-9.3-8c2.2-4,0.4-6.2,0.4-6.2s-6.4,4.8-4.8,9.9c1,3.1,2.7,5.4,12,9.8
		c4.5,8.3,0.9,23.2,1.1,23.2c0.4,0.1,6.3-2.9,5.8-16.8C37,69.3,36.7,63.5,31.9,61.7L31.9,61.7L31.9,61.7z"/>
	<path class="st1" d="M47,19.1C42.2,21.6,35.5,25,35.5,25l2.6,1.3c-0.2,0.4-0.4,0.6-0.4,0.6l2.7,1.2c0,0,6.5,4.7,10.5,7.8
		c-1.3-4.1-5.2-10.6-5.2-10.6S44.6,22.4,47,19.1L47,19.1L47,19.1z"/>
	<path class="st1" d="M63,119.2c-14.9,0-19.9-7.5-19.9-7.5l2.3,5.7c0.9,2.4,10.2,10.1,17.5,10.1"/>
	<path class="st1" d="M44.8,106.6c0,0,1.4,8.4,6.8,8.4c4.6,0,6-7.1,6-8.5L44.8,106.6L44.8,106.6z"/>
	<path class="st1" d="M35.7,94c0.5-1.3,2.2-6.7,2.7-11.7c0.7-5.9,0.4-14.5,0.4-14.5s-1.5,5.7-2.7,6.6c-1.3,0.9-3.6,7.1-3.6,7.1
		s-1.3,9.2-1.9,12.3C32.2,94.1,33.7,93.1,35.7,94L35.7,94L35.7,94z"/>
	<path class="st1" d="M22.5,57.4c0,0,3.1-1.1,4-7.8c0.9-6.7-1.1-12.6-1.1-12.6s0.2,9.3-0.9,11.1c-1.1,1.8-2,2.4-3.3,4.7
		C19.9,55.2,21.7,56.6,22.5,57.4L22.5,57.4L22.5,57.4z"/>
	<path class="st2" d="M26.2,13.6l-0.6-0.4C23.7,13.3,26.2,13.6,26.2,13.6L26.2,13.6L26.2,13.6z"/>
	<path class="st0" d="M49.5,17.1c0,0-2.9-0.5-4.4-2.7c-1.5-2.2-5.6-6.6-12.2-6.6c-6.6,0-13.1,1.8-13.1,1.8l5.7,3.6
		c0.6,0,1.7,0,3.4,0c7.1,0.2,8.2,7.3,8.2,7.3l25.2-3.5"/>
	<path class="st3" d="M51.9,56.1c0,0-3.4,3.4-8.6,2.3c-5.2-1.1-8.4-3.4-8.6-7.4c-0.2-4,1.1-5.6,1.1-5.6s5.8,1.8,8.6,4.3
		C47.2,52.1,49.3,56,51.9,56.1L51.9,56.1L51.9,56.1z"/>
	<path class="st4" d="M47.8,54.9c0,0-3,1.3-6.3,0.3c-4.3-1.4-4.6-5.9-4.6-5.9s-2.7,7.8,4.8,9.3c6,1.2,9.5-2.3,9.5-2.3L47.8,54.9
		L47.8,54.9z"/>
	<path class="st5" d="M49.9,15.5c-0.3-6.7,5.2-12,7-12.2c0.1,1.1-0.1,5.5,1.8,6.9c0.6-3.6,2.4-7.6,9.8-10.2C67,4.2,68.3,7.7,69,9.3
		c5-4.6,8.4-3.8,8.4-3.8s-3.5,6-2.1,10C65.2,14.7,50,16.6,49.9,15.5L49.9,15.5L49.9,15.5z"/>
	<path class="st5" d="M28.5,25.6c-2.4-2-0.6-3.9-0.8-6.1c-0.1-1.2-0.2-2.3-0.6-3C24.9,13,19.7,12,19.6,12l-2.5-0.5l1.6-1.9
		C19,9.3,25.7,3,36,6.3c7.2,2.3,12.6,10.2,12.8,10.5l-3.6,1.7c0-0.1-4.3-7.5-10.5-9.5c-5-1.6-9.6-0.1-11.6,0.9
		c2.1,0.8,4.8,2.4,6.5,5c0.8,1.2,0.9,2.8,1,4.3c0.2,2,0.3,3.9,1.8,5.1L28.5,25.6L28.5,25.6z"/>
	<path class="st5" d="M22.1,54.8c0,0,3-3.8,3.9-11.1c0.4-2.9-0.3-8.6-1.3-10.8c0.2,5.4-1.2,10.8-1.2,10.8S22.6,53.7,22.1,54.8
		L22.1,54.8L22.1,54.8z"/>
	<path class="st5" d="M38.1,21.8c0,0-1-4.3-3.7-6.4c-3.8-3-8.4-1.4-8.5-1.4L25.3,12c0.2-0.1,5.5-1.7,10.4,1.7
		c4.9,3.5,5.5,6.6,5.6,6.9L38.1,21.8L38.1,21.8z"/>
	<path class="st5" d="M31.6,52.1c0,0-1.6-2.3-1.3-4.8c0.1-1.2,0.7-2.5,1.7-3c1.9-0.8,2.7,1.3,2.7,1.3S32.1,46.4,31.6,52.1L31.6,52.1
		L31.6,52.1z"/>
	<path class="st5" d="M49.1,55.6c0.1,0.1,0.1,0.2,0.1,0.2s-5,3.7-10.1-0.1c-2.7-2-2.5-7-1.6-9.2c2.2,0.5,4,1.4,5.5,2.4
		c-1.9-1.7-3.6-3-3.6-3l-2.2-0.6l-4.3-1.5c-0.1,0.3-1.6,7.7,2.9,12.7c2,2.2,11.4,7.2,15.9-1.3L49.1,55.6L49.1,55.6z"/>
	<path class="st5" d="M48.6,56.1c2.8,4.3,9.8,1.8,9.7-2.7c0,0-4.7,2.6-8.9-2.2c-2.4-2.8-10.2-10.5-20.8-7.9
		C36,44.9,45.7,51.6,48.6,56.1L48.6,56.1L48.6,56.1z"/>
	<path class="st5" d="M27.7,68.1c0.7,0.4,3,2.8,3,6.5c0,1.8-0.2,11.1-1.1,16.7c1.4,0.9,2.3,1.1,3.7,2c0.7-6.5,1.2-16,0.9-19.9
		c-0.3-4.4-2.6-7.3-4.8-8.5c-0.7-0.4-1.4-0.8-2.1-1.2c-3.7-2-7.6-4.1-7.6-7.6c0-2.8,1.1-3.6,2.2-4.6l0.1-0.1
		c0.8-0.6,1.6-1.3,2.1-2.4C25.7,46,26,38,24.3,36c-0.8-1-3-4.4-2.3-6.6c0.2-0.9,0.8-1.5,1.7-2c0.9-0.5,2.2-0.7,3.8-0.7
		c3.1,0,6.5,0.9,8.2,1.5c6.3,2,13.8,7.7,16,9.4c0.1,0,0.1,0.1,0.1,0.1l1.4,1l-0.9-1.5c-0.1-0.1-5.6-9.1-15.4-12.4
		C35,24.1,31.3,23,27.6,23c-2.2,0-4.1,0.4-5.5,1.1c-1.8,0.9-3,2.4-3.5,4.2c-1.2,4.6,2.8,9.6,2.9,9.8c0.5,0.8,0.7,7-0.4,9.4
		c-0.1,0.3-0.6,0.7-1.1,1.1c-0.2,0.1-0.3,0.3-0.5,0.4c-1.5,1.2-3.9,2.9-3.9,7c0,5.5,5.6,8.5,10.1,10.9
		C26.4,67.4,27.1,67.8,27.7,68.1L27.7,68.1L27.7,68.1z"/>
	<path class="st5" d="M28.5,25.6c-2.4-2-0.6-3.9-0.8-6.1c-0.1-1.2-0.2-2.3-0.6-3C24.9,13,19.7,12,19.6,12l-2.5-0.5l1.6-1.9
		C19,9.3,25.7,3,36,6.3c7.2,2.3,12.6,10.2,12.8,10.5l-3.6,1.7c0-0.1-4.3-7.5-10.5-9.5c-5-1.6-9.6-0.1-11.6,0.9
		c2.1,0.8,4.8,2.4,6.5,5c0.8,1.2,0.9,2.8,1,4.3c0.2,2,0.3,3.9,1.8,5.1L28.5,25.6L28.5,25.6z"/>
	<path class="st5" d="M28.4,26.1l-0.2-0.1c-1.8-1.5-1.5-2.9-1.2-4.4c0.1-0.7,0.3-1.3,0.2-2c-0.1-1.2-0.2-2.3-0.5-2.8
		c-2.1-3.3-7.2-4.4-7.3-4.4l-3.1-0.6l2-2.4c0,0,4.3-4.4,11.6-4.4c2,0,4,0.3,6,1c7.5,2.4,12.9,10.6,13,10.7l0.2,0.3L45,19l-0.2-0.3
		c-0.5-0.8-4.5-7.5-10.3-9.3c-1.4-0.5-2.9-0.7-4.4-0.7c-2.8,0-5,0.8-6.2,1.3c2,0.9,4.4,2.4,5.9,4.8c0.8,1.3,1,2.9,1.1,4.5
		c0.2,1.9,0.3,3.7,1.7,4.8l0.5,0.4L28.4,26.1L28.4,26.1z"/>
	<path class="st5" d="M38.1,21.8c0,0-1-4.3-3.7-6.4c-3.8-3-8.4-1.4-8.5-1.4L25.3,12c0.2-0.1,5.5-1.7,10.4,1.7
		c4.9,3.5,5.5,6.6,5.6,6.9L38.1,21.8L38.1,21.8z"/>
	<path class="st5" d="M37.8,22.3l-0.1-0.4c0,0-1-4.1-3.5-6.2C32.7,14.6,31,14,28.9,14c-1.6,0-2.8,0.4-2.9,0.4l-0.3,0.1l-0.9-2.8
		l0.3-0.1c0.2,0,1.6-0.5,3.6-0.5c2.6,0,5.1,0.8,7.2,2.2c5,3.5,5.7,6.8,5.7,7.2l0,0.3L37.8,22.3L37.8,22.3z M28.9,13.2
		c2.2,0,4.1,0.7,5.7,1.9c2.3,1.8,3.4,5,3.7,6.2l2.5-1c-0.2-0.9-1.2-3.5-5.3-6.4c-2-1.4-4.3-2.1-6.8-2.1c-1.4,0-2.4,0.2-3,0.4
		l0.4,1.4C26.7,13.5,27.7,13.2,28.9,13.2L28.9,13.2L28.9,13.2z"/>
	<path class="st5" d="M51.4,112.9L51.4,112.9c-1.1,0-2.2-0.4-2.9-1.1c-0.6-0.5-2.6-2.3-3.4-4.5c-0.3-0.8-0.3-1.5,0.2-2
		c0.3-0.3,1-0.7,2.4-0.7l1,0c1.2,0,3.1,0,4.8,0H55c1,0,1.8,0.2,2.2,0.7c0.6,0.6,0.4,1.3,0.2,1.7c-0.3,0.7-1.4,2.8-3.3,4.8
		C53.5,112.5,52.5,112.9,51.4,112.9L51.4,112.9L51.4,112.9z"/>
	<path class="st5" d="M52.5,56.4l-3.9-0.3c0,0,1,1.8,1.6,4c0.7,2.6-0.7,6.3-0.7,6.3S54.8,60.6,52.5,56.4L52.5,56.4L52.5,56.4z"/>
	<path class="st5" d="M47.7,123.2C33.8,122.1,29,109,29,106.3l3.6,0l-1.8,0h1.8c0,1.2,3.7,12.4,15.4,13.3L47.7,123.2L47.7,123.2z"/>
	<path class="st3" d="M43.8,99.7c-0.2-1.3-0.2-2.4,0-3.6c-1.1-0.8-2.9-1.1-4.4-1.5c-1.2-0.7-7.1,0.8-11.4-4.5
		c-5.4-6.5-4.3-10.4-4.3-10.4c-1.4,1.5-2.7,1-4.8,8.1C16.9,95,20,100,25.7,105c2.7,2.4,6.6,3.3,9.9,3.7c-1.1-1.1,1.9-1.2,4-2
		c-0.2-1.7,0.1-3.3,1.4-4.6c0.8-0.8,1.7-1.3,2.7-1.6c0.1-0.1,0.1-0.2,0.2-0.4C43.8,100,43.8,99.9,43.8,99.7L43.8,99.7L43.8,99.7z"/>
	<path class="st4" d="M39.6,106.7c-0.1-0.4-0.2-0.7-0.3-1.1c-0.1-0.4-0.6-1.5,0-0.2c-0.2-0.3-0.3-0.7-0.3-1
		c-9.4,0-17.5-6.4-15.9-19.9c-1.2-1.6-2.9,3.3-2.9,3.3s-4.7,13.6,7.4,18.9c4,1.8,7.6,3,8.4,2.5c1.8,0.4,3.3-0.9,3.9-1.7
		C39.8,107.2,39.7,106.9,39.6,106.7L39.6,106.7L39.6,106.7z"/>
	<path class="st5" d="M43.6,97.8c0-1.1,0.2-2.2,0.8-3.3c0-0.1,0.1-0.1,0.1-0.2c-3.6,0-7.7-0.4-11.3-1.8c-3.9-1.6-8.7-6.9-9.6-13.1
		c0,0-7.3,5.6-5.2,17.7c2,11.3,11.5,15,22.3,15.7c0-0.1-1.2-2.6-0.8-4.1c-6.1,0.4-13-1.9-16.3-7.4c-3-5-2.2-13.5-0.9-14.8
		C25.8,96,36.7,97.9,43.6,97.8L43.6,97.8L43.6,97.8z"/>
	<path class="st5" d="M44.7,90.9c-1.9,5.7-5.9,10.3-5.9,10.3s5.5-0.2,5.8-1.2c0.2-0.7,4.9-11.8,6.7-24.7
		C49.6,78.1,44.9,90.4,44.7,90.9L44.7,90.9L44.7,90.9z"/>
	<path class="st1" d="M75.7,77.7c0,0,6.2,9.5,10.7,16.2c0.7,1-4.6,1.1-4.6,1.1L75.7,77.7L75.7,77.7z"/>
	<path class="st1" d="M72.8,58.1c0,0,1.9,4.7,2.9,7.1c1.1,2.7,5.3,4,5.3,4s-2.2-2.3-2.2-8.1c0-2.4-3.2-3.4-3.2-3.4L72.8,58.1
		L72.8,58.1z"/>
	<path class="st1" d="M74.7,60.7c0,0,3.8,4.6,10.9,2c7.1-2.6,7.8-11.7,7.8-14.2c0-2.6-13.5,2.6-15.3,3.6
		C76.3,53.2,72.8,57.6,74.7,60.7L74.7,60.7L74.7,60.7z"/>
	<path class="st1" d="M101.5,12c0,0-6.6-1.3-10.9,2.2c-4.4,3.5-5.7,6.2-5.7,6.2l7.4,5.8c0,0,3.6-1.7,4.7-6.4
		C98.1,15.1,97.3,12.9,101.5,12L101.5,12L101.5,12z"/>
	<path class="st1" d="M76.6,47.5c2.8-4,7.5-5.8,11.2-6.1c6.3-0.5,9.4,1.7,9.4,1.7s-10.4,0.4-13.4,4.4c-5.6,7.3-13.7,7.9-15,6.3
		c1.5,0.1,3.2-0.7,4.9-2.3C74.8,50.5,75.7,48.8,76.6,47.5L76.6,47.5L76.6,47.5z"/>
	<path class="st1" d="M94.1,61.7c0,0,11.5-4,9.3-8c-2.2-4-0.4-6.2-0.4-6.2s6.4,4.8,4.8,9.9c-1,3.1-2.7,5.4-12,9.8
		c-4.5,8.3-0.9,23.2-1.1,23.2c-0.4,0.1-6.3-2.9-5.8-16.8C89,69.3,89.3,63.5,94.1,61.7L94.1,61.7L94.1,61.7z"/>
	<path class="st1" d="M79,19.1c4.8,2.5,11.5,5.9,11.5,5.9l-2.6,1.3c0.2,0.4,0.4,0.6,0.4,0.6l-2.7,1.2c0,0-6.5,4.7-10.5,7.8
		c1.3-4.1,5.2-10.6,5.2-10.6S81.4,22.4,79,19.1L79,19.1L79,19.1z"/>
	<path class="st1" d="M63,119.2c14.8,0,19.9-7.5,19.9-7.5l-2.3,5.7c-0.9,2.4-10.2,10.1-17.5,10.1"/>
	<path class="st1" d="M81.2,106.6c0,0-1.4,8.4-6.8,8.4c-4.6,0-6-7.1-6-8.5L81.2,106.6L81.2,106.6z"/>
	<path class="st1" d="M90.3,94c-0.5-1.3-2.2-6.7-2.7-11.7c-0.7-5.9-0.4-14.5-0.4-14.5s1.5,5.7,2.7,6.6c1.3,0.9,3.6,7.1,3.6,7.1
		s1.3,9.2,1.9,12.3C93.8,94.1,92.3,93.1,90.3,94L90.3,94L90.3,94z"/>
	<path class="st1" d="M103.5,57.4c0,0-3.1-1.1-4-7.8c-0.9-6.7,1.1-12.6,1.1-12.6s-0.2,9.3,0.9,11.1c1.1,1.8,2,2.4,3.3,4.7
		C106.1,55.2,104.3,56.6,103.5,57.4L103.5,57.4L103.5,57.4z"/>
	<path class="st2" d="M99.8,13.6l0.6-0.4C102.3,13.3,99.8,13.6,99.8,13.6L99.8,13.6L99.8,13.6z"/>
	<path class="st0" d="M76.5,17.1c0,0,2.9-0.5,4.4-2.7c1.5-2.2,5.6-6.6,12.2-6.6c6.6,0,13.1,1.8,13.1,1.8l-5.7,3.6
		c-0.6,0-1.7,0-3.4,0c-7.1,0.2-8.2,7.3-8.2,7.3l-25.2-3.5"/>
	<path class="st3" d="M74.1,56.1c0,0,3.4,3.4,8.6,2.3c5.2-1.1,8.4-3.4,8.6-7.4c0.2-4-1.1-5.6-1.1-5.6s-5.8,1.8-8.6,4.3
		S76.7,56,74.1,56.1L74.1,56.1L74.1,56.1z"/>
	<path class="st4" d="M78.2,54.9c0,0,3,1.3,6.3,0.3c4.3-1.4,4.6-5.9,4.6-5.9s2.6,7.8-4.8,9.3c-6,1.2-9.5-2.3-9.5-2.3L78.2,54.9
		L78.2,54.9z"/>
	<path class="st5" d="M97.5,25.6c2.4-2,0.6-3.9,0.8-6.1c0.1-1.2,0.2-2.3,0.6-3c2.2-3.5,7.4-4.6,7.5-4.6l2.5-0.5l-1.6-1.9
		C107,9.3,100.3,3,90,6.3c-7.2,2.3-12.6,10.2-12.8,10.5l3.6,1.7c0-0.1,4.3-7.5,10.5-9.5c5-1.6,9.6-0.1,11.6,0.9
		c-2.1,0.8-4.8,2.4-6.5,5c-0.8,1.2-0.9,2.8-1,4.3c-0.2,2-0.3,3.9-1.8,5.1L97.5,25.6L97.5,25.6z"/>
	<path class="st5" d="M103.9,54.8c0,0-3-3.8-3.9-11.1c-0.4-2.9,0.3-8.6,1.3-10.8c-0.2,5.4,1.2,10.8,1.2,10.8S103.4,53.7,103.9,54.8
		L103.9,54.8L103.9,54.8z"/>
	<path class="st5" d="M87.9,21.8c0,0,1-4.3,3.7-6.4c3.8-3,8.4-1.4,8.5-1.4l0.7-2.1c-0.2-0.1-5.5-1.7-10.4,1.7
		c-4.9,3.5-5.5,6.6-5.6,6.9L87.9,21.8L87.9,21.8z"/>
	<path class="st5" d="M94.4,52.1c0,0,1.6-2.3,1.3-4.8c-0.1-1.2-0.7-2.5-1.7-3c-1.9-0.8-2.7,1.3-2.7,1.3S93.9,46.4,94.4,52.1
		L94.4,52.1L94.4,52.1z"/>
	<path class="st5" d="M76.9,55.6c-0.1,0.1-0.1,0.2-0.1,0.2s5,3.7,10.1-0.1c2.7-2,2.5-7,1.6-9.2c-2.2,0.5-4,1.4-5.5,2.4
		c1.9-1.7,3.6-3,3.6-3l2.2-0.6l4.3-1.5c0.1,0.3,1.6,7.7-2.9,12.7c-2,2.2-11.4,7.2-15.9-1.3L76.9,55.6L76.9,55.6z"/>
	<path class="st5" d="M77.4,56.1c-2.8,4.3-9.8,1.8-9.7-2.7c0,0,4.7,2.6,8.9-2.2c2.4-2.8,10.2-10.5,20.8-7.9
		C90,44.9,80.3,51.6,77.4,56.1L77.4,56.1L77.4,56.1z"/>
	<path class="st5" d="M98.3,68.1c-0.7,0.4-3,2.8-3,6.5c0,1.8,0.2,11.1,1.1,16.7c-1.4,0.9-2.3,1.1-3.7,2c-0.7-6.5-1.2-16-0.9-19.9
		c0.3-4.4,2.6-7.3,4.8-8.5c0.7-0.4,1.4-0.8,2.1-1.2c3.7-2,7.6-4.1,7.6-7.6c0-2.8-1.1-3.6-2.2-4.6l-0.1-0.1c-0.8-0.6-1.6-1.3-2.1-2.4
		c-1.4-3.1-1.6-11.1,0-13.1c0.8-1,3-4.4,2.3-6.6c-0.2-0.9-0.8-1.5-1.7-2c-0.9-0.5-2.2-0.7-3.8-0.7c-3.1,0-6.5,0.9-8.2,1.5
		c-6.3,2-13.8,7.7-16,9.4c-0.1,0-0.1,0.1-0.1,0.1l-1.4,1l0.9-1.5c0.1-0.1,5.6-9.1,15.4-12.4c1.9-0.6,5.7-1.7,9.4-1.7
		c2.2,0,4.1,0.4,5.5,1.1c1.8,0.9,3,2.4,3.5,4.2c1.2,4.6-2.8,9.6-2.9,9.8c-0.5,0.8-0.7,7,0.4,9.4c0.1,0.3,0.6,0.7,1.1,1.1
		c0.2,0.1,0.3,0.3,0.5,0.4c1.5,1.2,3.9,2.9,3.9,7c0,5.5-5.6,8.5-10.1,10.9C99.6,67.4,98.9,67.8,98.3,68.1L98.3,68.1L98.3,68.1z"/>
	<path class="st5" d="M91.6,25c-0.9-1.5-3.2-4.4-8.4-7c-5.9-2.9-12.6-4.3-20.2-4.3v0h0h0v0c-7.5,0-14.3,1.5-20.2,4.3
		c-5.3,2.6-7.5,5.5-8.4,7L34,25.5l4.5,1l0.1-0.2l0.1-0.2c0.1-0.3,0.7-1.9,5.7-4.3c5.4-2.6,11.6-3.9,18.6-3.9c7,0,13.2,1.3,18.6,3.9
		c5,2.4,5.6,4.1,5.7,4.3l0.1,0.2l0.1,0.2l4.5-1L91.6,25L91.6,25z"/>
	<path class="st5" d="M97.5,25.6c2.4-2,0.6-3.9,0.8-6.1c0.1-1.2,0.2-2.3,0.6-3c2.2-3.5,7.4-4.6,7.5-4.6l2.5-0.5l-1.6-1.9
		C107,9.3,100.3,3,90,6.3c-7.2,2.3-12.6,10.2-12.8,10.5l3.6,1.7c0-0.1,4.3-7.5,10.5-9.5c5-1.6,9.6-0.1,11.6,0.9
		c-2.1,0.8-4.8,2.4-6.5,5c-0.8,1.2-0.9,2.8-1,4.3c-0.2,2-0.3,3.9-1.8,5.1L97.5,25.6L97.5,25.6z"/>
	<path class="st5" d="M92.8,24.5l0.5-0.4c1.3-1.1,1.5-2.9,1.7-4.8c0.1-1.5,0.3-3.1,1.1-4.5c1.5-2.4,3.9-3.9,5.9-4.8
		c-1.2-0.5-3.4-1.3-6.2-1.3c-1.5,0-3,0.2-4.4,0.7c-5.7,1.9-9.8,8.6-10.3,9.3L81,19l-4.3-2l0.2-0.3c0.1-0.1,5.4-8.3,13-10.7
		c2-0.7,4-1,6-1c7.3,0,11.5,4.3,11.6,4.4l2,2.4l-3.1,0.6c-0.1,0-5.2,1.1-7.3,4.4c-0.3,0.6-0.4,1.6-0.5,2.8c-0.1,0.7,0.1,1.4,0.2,2
		c0.3,1.4,0.6,2.9-1.2,4.4l-0.2,0.1L92.8,24.5L92.8,24.5z"/>
	<path class="st5" d="M87.9,21.8c0,0,1-4.3,3.7-6.4c3.8-3,8.4-1.4,8.5-1.4l0.7-2.1c-0.2-0.1-5.5-1.7-10.4,1.7
		c-4.9,3.5-5.5,6.6-5.6,6.9L87.9,21.8L87.9,21.8z"/>
	<path class="st5" d="M84.4,20.8l0-0.3c0.1-0.4,0.7-3.6,5.7-7.2c2.1-1.5,4.6-2.2,7.2-2.2c2,0,3.4,0.4,3.6,0.5l0.3,0.1l-0.9,2.8
		l-0.3-0.1c-0.1,0-1.3-0.4-2.9-0.4c-2,0-3.8,0.6-5.3,1.8c-2.6,2-3.5,6.2-3.5,6.2l-0.1,0.4L84.4,20.8L84.4,20.8z M99.8,13.6l0.4-1.4
		c-0.5-0.1-1.6-0.4-3-0.4c-2.5,0-4.8,0.7-6.8,2.1c-4.1,2.9-5.1,5.5-5.4,6.4l2.5,1c0.3-1.2,1.4-4.4,3.7-6.2c1.6-1.3,3.6-1.9,5.7-1.9
		C98.3,13.2,99.3,13.5,99.8,13.6L99.8,13.6L99.8,13.6z"/>
	<path class="st5" d="M71.8,111.8c-1.9-2-3-4.2-3.3-4.8c-0.2-0.4-0.3-1.1,0.2-1.7c0.4-0.4,1.2-0.7,2.2-0.7h1.6c1.7,0,3.6,0,4.8,0
		l1,0c1.4,0,2,0.4,2.4,0.7c0.5,0.5,0.5,1.1,0.2,2c-0.9,2.2-2.8,4-3.4,4.5c-0.8,0.7-1.9,1.1-2.9,1.1l0,0
		C73.5,112.9,72.5,112.5,71.8,111.8L71.8,111.8L71.8,111.8z"/>
	<path class="st5" d="M73.5,56.4l3.9-0.3c0,0-1,1.8-1.6,4c-0.7,2.6,0.7,6.3,0.7,6.3S71.2,60.6,73.5,56.4L73.5,56.4L73.5,56.4z"/>
	<path class="st1" d="M63,42.5c-2.5,0-5.7-0.1-8.1-1.8c0,0,3.2,5.6,8.1,5.6l0-0.7l0,0.7c5,0,8.1-5.6,8.1-5.6
		C68.7,42.4,65.5,42.5,63,42.5L63,42.5L63,42.5z"/>
	<path class="st5" d="M69.8,42.5c-2.5,1.5-4.7,2-6.8,2.1c-2.1,0-4.3-0.6-6.8-2.1c0,0,3.6,4.4,6.8,4.5v0c0,0,0,0,0,0c0,0,0,0,0,0v0
		C66.2,46.9,69.8,42.5,69.8,42.5L69.8,42.5L69.8,42.5z"/>
	<path class="st5" d="M78.3,123.2l-0.3-3.6c11.7-0.9,15.4-12.1,15.4-13.3H97C97,109,92.2,122.1,78.3,123.2L78.3,123.2L78.3,123.2z"
		/>
	<path class="st3" d="M82.2,99.7c0.2-1.3,0.2-2.4,0-3.6c1.1-0.8,2.9-1.1,4.4-1.5c1.2-0.7,7.1,0.8,11.4-4.5
		c5.4-6.5,4.3-10.4,4.3-10.4c1.4,1.5,2.7,1,4.8,8.1c2.1,7.2-1,12.2-6.8,17.2c-2.7,2.4-6.6,3.3-9.9,3.7c1.1-1.1-1.9-1.2-4-2
		c0.2-1.7-0.1-3.3-1.4-4.6c-0.8-0.8-1.7-1.3-2.7-1.6c-0.1-0.1-0.1-0.2-0.2-0.4C82.2,100,82.2,99.9,82.2,99.7L82.2,99.7L82.2,99.7z"
		/>
	<path class="st4" d="M86.4,106.7c0.1-0.4,0.2-0.7,0.3-1.1c0.1-0.4,0.6-1.5,0-0.2c0.2-0.3,0.3-0.7,0.3-1c9.4,0,17.5-6.4,15.9-19.9
		c1.2-1.6,2.9,3.3,2.9,3.3s4.7,13.6-7.4,18.9c-4,1.8-7.6,3-8.4,2.5c-1.8,0.4-3.3-0.9-3.9-1.7C86.2,107.2,86.3,106.9,86.4,106.7
		L86.4,106.7L86.4,106.7z"/>
	<path class="st5" d="M82.4,97.8c0-1.1-0.2-2.2-0.8-3.3c0-0.1-0.1-0.1-0.1-0.2c3.6,0,7.7-0.4,11.3-1.8c3.9-1.6,8.7-6.9,9.6-13.1
		c0,0,7.3,5.6,5.2,17.7c-2,11.3-11.5,15-22.3,15.7c0-0.1,1.2-2.6,0.8-4.1c6.1,0.4,13-1.9,16.3-7.4c3-5,2.2-13.5,0.9-14.8
		C100.2,96,89.3,97.9,82.4,97.8L82.4,97.8L82.4,97.8z"/>
	<path class="st5" d="M86.8,100.6c-1.3-1.4-3.7-3.1-9.1-3.1c0,0-10.4,0-14.6,0l0,0h0h0c-4.2,0-14.6,0-14.6,0c-5.5,0-7.9,1.7-9.1,3.1
		c-1.9,2-2.2,4.9-0.9,8.4c3.5,9.4,8.3,19,24.6,19v0c0,0,0,0,0,0c0,0,0,0,0,0v0c16.3,0,21.2-9.6,24.6-19
		C88.9,105.5,88.6,102.7,86.8,100.6L86.8,100.6L86.8,100.6z M84.2,108.4c-1.6,4.7-6.1,16.2-21.2,16.2c-15.1,0-19.6-11.5-21.2-16.2
		c-0.9-2.6-0.8-4.6,0.2-5.8c0.7-0.8,2.4-1.8,6.2-1.8l3.9,0c2.9,0,6.6,0,10.9,0c4.3,0,8,0,10.9,0l3.9,0c3.8,0,5.4,1,6.2,1.8
		C85.1,103.8,85.1,105.7,84.2,108.4L84.2,108.4L84.2,108.4z"/>
	<path class="st5" d="M81.3,90.9c1.9,5.7,5.9,10.3,5.9,10.3s-5.5-0.2-5.8-1.2c-0.2-0.7-4.9-11.8-6.7-24.7
		C76.4,78.1,81.1,90.4,81.3,90.9L81.3,90.9L81.3,90.9z"/>
</g>
</svg>
