<?xml version="1.0" encoding="utf-8"?>
<!-- Generator: Adobe Illustrator 19.0.0, SVG Export Plug-In . SVG Version: 6.00 Build 0)  -->
<svg version="1.1" id="Camada_1" xmlns="http://www.w3.org/2000/svg" xmlns:xlink="http://www.w3.org/1999/xlink" x="0px" y="0px"
	 viewBox="0 0 128 128" style="enable-background:new 0 0 128 128;" xml:space="preserve">
<style type="text/css">
	.st0{fill:#B3B3B3;}
</style>
<g id="XMLID_1_">
	<path class="st0" d="M115.6,99.8c-1.9,4.5-4.2,8.6-6.9,12.4c-3.6,5.2-6.6,8.7-8.9,10.7c-3.5,3.3-7.3,4.9-11.4,5
		c-2.9,0-6.4-0.8-10.5-2.5c-4.1-1.7-7.9-2.5-11.3-2.5c-3.6,0-7.5,0.8-11.7,2.5c-4.2,1.7-7.5,2.6-10.1,2.6c-3.9,0.2-7.8-1.5-11.7-5.2
		c-2.5-2.2-5.6-5.9-9.3-11.1c-4-5.6-7.2-12.1-9.8-19.5c-2.7-8-4.1-15.7-4.1-23.2c0-8.6,1.9-16,5.6-22.2c2.9-5,6.8-8.9,11.7-11.8
		s10.1-4.4,15.8-4.4c3.1,0,7.1,1,12.2,2.8c5,1.9,8.3,2.8,9.7,2.8c1.1,0,4.6-1.1,10.7-3.3c5.7-2.1,10.6-2.9,14.6-2.6
		c10.8,0.9,18.9,5.1,24.2,12.8c-9.6,5.8-14.4,14-14.3,24.5c0.1,8.2,3,15,8.9,20.4c2.6,2.5,5.6,4.4,8.9,5.8
		C117.2,95.9,116.4,97.9,115.6,99.8L115.6,99.8z M91,2.6c0,6.4-2.3,12.4-7,17.9c-5.6,6.6-12.4,10.4-19.8,9.8
		C64,29.5,64,28.7,64,27.8c0-6.1,2.7-12.7,7.4-18.1c2.4-2.7,5.4-5,9-6.8c3.7-1.8,7.1-2.8,10.4-2.9C90.9,0.9,91,1.7,91,2.6L91,2.6z"
		/>
</g>
<g id="XMLID_4_">
</g>
<g id="XMLID_5_">
</g>
<g id="XMLID_6_">
</g>
<g id="XMLID_7_">
</g>
<g id="XMLID_8_">
</g>
<g id="XMLID_9_">
</g>
<g id="XMLID_10_">
</g>
<g id="XMLID_11_">
</g>
<g id="XMLID_12_">
</g>
<g id="XMLID_13_">
</g>
<g id="XMLID_14_">
</g>
<g id="XMLID_15_">
</g>
<g id="XMLID_16_">
</g>
<g id="XMLID_17_">
</g>
<g id="XMLID_18_">
</g>
</svg>
