<?xml version="1.0" encoding="utf-8"?>
<!-- Generator: Adobe Illustrator 19.0.0, SVG Export Plug-In . SVG Version: 6.00 Build 0)  -->
<svg version="1.1" id="Camada_1" xmlns="http://www.w3.org/2000/svg" xmlns:xlink="http://www.w3.org/1999/xlink" x="0px" y="0px"
	 viewBox="0 0 128 128" style="enable-background:new 0 0 128 128;" xml:space="preserve">
<style type="text/css">
	.st0{fill:#F7DF1E;}
</style>
<g>
	<polygon id="XMLID_3_" class="st0" points="119.4,96 64,128 8.6,96 8.6,32 64,0 119.4,32 	"/>
	<path id="XMLID_2_" d="M44.9,88.1l7.1-4.3c1.4,2.4,2.6,4.5,5.6,4.5c2.9,0,4.7-1.1,4.7-5.5V52.9h8.8v30c0,9.1-5.3,13.2-13.1,13.2
		C51.1,96.1,47,92.5,44.9,88.1"/>
	<path id="XMLID_1_" d="M76,87.2l7.1-4.1c1.9,3.1,4.3,5.3,8.7,5.3c3.6,0,6-1.8,6-4.3c0-3-2.4-4.1-6.4-5.8l-2.2-0.9
		c-6.3-2.7-10.5-6.1-10.5-13.2c0-6.6,5-11.6,12.9-11.6c5.6,0,9.6,1.9,12.5,7l-6.8,4.4c-1.5-2.7-3.1-3.8-5.6-3.8
		c-2.6,0-4.2,1.6-4.2,3.8c0,2.6,1.6,3.7,5.4,5.3l2.2,0.9c7.5,3.2,11.7,6.5,11.7,13.8c0,7.9-6.2,12.2-14.5,12.2
		C83.8,96.1,78.5,92.2,76,87.2"/>
</g>
<g id="XMLID_4_">
</g>
<g id="XMLID_5_">
</g>
<g id="XMLID_6_">
</g>
<g id="XMLID_7_">
</g>
<g id="XMLID_8_">
</g>
<g id="XMLID_9_">
</g>
<g id="XMLID_10_">
</g>
<g id="XMLID_11_">
</g>
<g id="XMLID_12_">
</g>
<g id="XMLID_13_">
</g>
<g id="XMLID_14_">
</g>
<g id="XMLID_15_">
</g>
<g id="XMLID_16_">
</g>
<g id="XMLID_17_">
</g>
<g id="XMLID_18_">
</g>
</svg>
