<?xml version="1.0" encoding="utf-8"?>
<!-- Generator: Adobe Illustrator 19.0.0, SVG Export Plug-In . SVG Version: 6.00 Build 0)  -->
<svg version="1.1" id="Camada_1" xmlns="http://www.w3.org/2000/svg" xmlns:xlink="http://www.w3.org/1999/xlink" x="0px" y="0px"
	 viewBox="0 0 128 128" style="enable-background:new 0 0 128 128;" xml:space="preserve">
<style type="text/css">
	.st0{fill:#E11F22;stroke:#E11F22;stroke-width:9.375000e-002;stroke-miterlimit:10;}
	.st1{fill:#0B6FB6;stroke:#0B6FB6;stroke-width:9.375000e-002;stroke-miterlimit:10;}
</style>
<g>
	<path id="XMLID_8_" class="st0" d="M76.9,0c2.9,3.3,3.9,8.1,3.1,12.4c-0.9,4.8-3.6,9.1-6.7,12.8c-2.5,3-5.4,5.6-8.4,8
		c-3.5,2.8-7,5.9-9.2,9.9c-1.9,3.2-2.3,7.2-1,10.8c2.1,6,7,10.5,9.6,16.2c-2.9-2.6-5.8-5.3-8.5-8.1c-2.8-3-5.5-6.2-7.2-9.9
		c-1.2-2.6-1.7-5.7-0.8-8.4c0.9-2.8,2.9-5.1,5-7.2c5.6-5.6,12.6-9.8,18.1-15.5c3.1-3.1,5.6-6.9,6.5-11.3C77.9,6.4,77.5,3.1,76.9,0
		L76.9,0z"/>
	<path id="XMLID_7_" class="st0" d="M72.3,35.5c6-4.5,13.1-7.3,20.3-9.4c-5.7,3.6-11.6,6.9-16.5,11.6c-1.8,1.7-3.5,3.7-4.2,6.1
		c-0.6,1.8-0.3,3.7,0.4,5.4c1.3,3,3.5,5.4,5.2,8.2c1.4,2.3,1.7,5.3,0.6,7.9c-1.7,3.7-4.9,6.4-8.3,8.6c-0.4,0.2-0.8,0.7-1.3,0.8
		c2.2-2,4-4.9,3.9-8c-0.1-2.3-1.3-4.3-2.8-6c-3.1-3.7-5.7-8.4-5.1-13.3C64.9,42.4,68.4,38.4,72.3,35.5L72.3,35.5z"/>
	<path id="XMLID_6_" class="st1" d="M93.7,71.6c1.3-1.6,3.4-2,5.3-2.2c3.3-0.4,6.8,0.4,9.3,2.7c2.1,1.8,3.2,4.7,2.8,7.5
		c-0.5,3.2-2.6,5.9-5.1,7.9c-4.4,3.5-9.8,5.6-15.2,7c0.3-0.3,0.7-0.7,1.1-0.9c4.1-2.2,8.2-4.8,11.2-8.4c1.8-2.2,3.3-5.2,2.7-8.1
		c-0.6-3.4-4-5.9-7.4-6.1C96.8,70.6,95.3,71.2,93.7,71.6L93.7,71.6z"/>
	<path id="XMLID_5_" class="st1" d="M31.1,74.4c5.7-2.5,12-4.1,18.2-4c-3.6,1.1-7.4,2-10.8,3.6c-0.8,0.4-1.7,0.8-2.2,1.7
		c-0.2,0.7,0.4,1.1,0.9,1.3c2.1,0.9,4.5,1,6.7,1.2c8,0.5,16,0.2,23.9-0.3c7.9-0.5,15.7-1.6,23.4-2.8c-1.7,0.8-3.5,1.6-5.1,2.7
		c-0.8,0.6-1.8,0.7-2.7,0.9c-9.5,2.1-19.3,2.8-29.1,2.9c-3.8,0-7.5,0-11.3-0.3c-4.2-0.3-8.4-0.6-12.5-1.7c-1.2-0.3-2.4-0.7-3.4-1.6
		c-0.5-0.4-0.5-1.1-0.1-1.6C28.3,75.5,29.8,75,31.1,74.4L31.1,74.4z"/>
	<path id="XMLID_4_" class="st1" d="M38.4,87.7c1.6-1.3,3.6-2,5.5-2.7c-0.6,0.7-1.5,1.5-1.6,2.5c0,0.7,0.5,1.2,1,1.5
		c1,0.5,2.2,0.7,3.3,0.9c6,0.6,12,1,18.1,0.6c5.5-0.3,11-1.2,16.5-2.2c1.5,1.4,3.3,2.4,5.1,3.2c-6.6,1.9-13.3,3.1-20.1,3.6
		c-6.4,0.4-12.9,0.4-19.3-0.6c-2.5-0.5-5.1-1-7.4-2.2c-0.9-0.5-2-1.2-2.3-2.2C37,89.1,37.7,88.2,38.4,87.7L38.4,87.7z"/>
	<path id="XMLID_3_" class="st1" d="M42,101.3c1.4-1.2,3.2-1.7,5-2.2c-0.6,0.5-1.6,1.2-1.1,2.1c0.8,1.1,2.4,1.2,3.6,1.5
		c5.3,0.7,10.6,1.1,15.9,0.7c4-0.2,7.9-1,11.8-1.7c2.2,1.3,4.6,2.4,7,3.4c-3.7,1.7-7.6,2.7-11.6,3.5c-6.7,1.2-13.6,1.3-20.3,0.3
		c-3-0.5-6-1.2-8.7-2.7c-1-0.6-2.1-1.3-2.6-2.4C40.7,102.8,41.3,101.9,42,101.3L42,101.3z"/>
	<path id="XMLID_2_" class="st1" d="M24.7,110.1c2.9-1,5.8-1.7,8.9-1.8c1.2,0,2.5,0,3.5,0.7c-3.6,0.2-7.2,1.1-10.5,2.8
		c-0.7,0.4-1.5,0.9-1.8,1.7c0,1,1.1,1.3,1.8,1.6c4.5,1.7,9.4,2.2,14.1,2.7c14.1,1.2,28.3,0.9,42.5-0.4c5.3-0.6,10.7-1.2,15.9-2.7
		c1.7-0.6,3.5-1.1,4.6-2.6c0.7-0.9,0.2-2-0.4-2.7c1.1,0.6,2.6,1.3,2.3,2.8c-0.4,1.5-1.9,2.3-3.2,3c-4,2-8.4,3.1-12.8,4
		c-12.7,2.5-25.7,3.1-38.6,2.7c-9.7-0.3-19.5-1.3-29.1-2.9c-1.7-0.4-3.6-0.7-4.9-2.1c-0.8-0.9-0.1-2.2,0.7-2.9
		C19.7,112,22.3,111,24.7,110.1L24.7,110.1z"/>
	<path id="XMLID_1_" class="st1" d="M102.4,120.8c3.1-1.1,6.5-2.2,8.9-4.7c-0.4,2.7-2.7,4.6-5.1,5.8c-4.4,2.3-9.4,3.4-14.3,4.2
		c-10.4,1.7-21,2.1-31.6,1.9c-7.2-0.2-14.5-0.5-21.5-2c-1.7-0.5-3.5-0.8-5-1.8c6.3,1.1,12.7,1.5,19.1,1.7c10.5,0.3,21-0.1,31.5-1.4
		C90.5,123.7,96.6,122.7,102.4,120.8L102.4,120.8z"/>
</g>
<g id="XMLID_9_">
</g>
<g id="XMLID_10_">
</g>
<g id="XMLID_11_">
</g>
<g id="XMLID_12_">
</g>
<g id="XMLID_13_">
</g>
<g id="XMLID_14_">
</g>
<g id="XMLID_15_">
</g>
<g id="XMLID_16_">
</g>
<g id="XMLID_17_">
</g>
<g id="XMLID_18_">
</g>
<g id="XMLID_19_">
</g>
<g id="XMLID_20_">
</g>
<g id="XMLID_21_">
</g>
<g id="XMLID_22_">
</g>
<g id="XMLID_23_">
</g>
</svg>
