<?xml version="1.0" encoding="utf-8"?>
<!-- Generator: Adobe Illustrator 24.0.2, SVG Export Plug-In . SVG Version: 6.00 Build 0)  -->
<svg version="1.1" id="Layer_1" xmlns="http://www.w3.org/2000/svg" xmlns:xlink="http://www.w3.org/1999/xlink" x="0px" y="0px"
	 viewBox="0 0 256 256" style="enable-background:new 0 0 256 256;" xml:space="preserve">
<style type="text/css">
	.st0{fill:#0D61A8;}
</style>
<g>
	<path class="st0" d="M16.3,62.6c-22.7,32.6-19.9,74.9-2.5,109.6c0.4,0.8,0.8,1.6,1.3,2.5c0.2,0.5,0.5,1.1,0.8,1.6
		c0.1,0.3,0.3,0.6,0.5,0.9c0.3,0.6,0.6,1.1,0.9,1.6c0.6,0.9,1.1,1.9,1.7,2.8c0.3,0.5,0.6,1,1,1.6c0.6,1,1.3,2,1.9,3
		c0.3,0.4,0.5,0.8,0.8,1.3c0.9,1.4,1.8,2.7,2.8,4c0,0,0,0.1,0.1,0.1c0.1,0.2,0.3,0.4,0.5,0.6c0.8,1.1,1.7,2.3,2.5,3.4
		c0.3,0.4,0.6,0.8,0.9,1.2c0.8,1,1.6,1.9,2.4,2.9c0.3,0.3,0.6,0.7,0.9,1.1c1,1.3,2.1,2.5,3.3,3.7c0,0,0,0,0.1,0.1
		c0,0,0.1,0.1,0.1,0.1c1.1,1.2,2.2,2.3,3.3,3.5c0.4,0.4,0.7,0.7,1.1,1.1c0.9,0.9,1.7,1.7,2.6,2.6c0.4,0.4,0.7,0.7,1.1,1
		c1.2,1.1,2.4,2.2,3.6,3.3c0,0,0,0,0.1,0c0.2,0.2,0.4,0.4,0.6,0.5c1.1,0.9,2.2,1.9,3.3,2.8c0.4,0.4,0.9,0.7,1.3,1.1
		c0.9,0.7,1.9,1.4,2.8,2.1c0.5,0.4,1,0.7,1.5,1.1c1,0.8,2,1.5,3.1,2.2c0.4,0.3,0.7,0.5,1.1,0.8c0.1,0.1,0.2,0.2,0.3,0.2
		c1,0.7,2,1.3,3,2c0.4,0.3,0.9,0.6,1.3,0.9c1.6,1,3.1,2,4.7,2.9c0.4,0.2,0.9,0.5,1.3,0.7c1.2,0.7,2.3,1.3,3.5,2c0.6,0.4,1.3,0.7,2,1
		c0.8,0.4,1.6,0.9,2.5,1.3c0.2,0.1,0.4,0.2,0.6,0.3c0.4,0.2,0.7,0.3,1,0.5c1.3,0.6,2.6,1.2,4,1.9c0.3,0.1,0.5,0.2,0.8,0.4
		c1.5,0.7,3.1,1.3,4.7,1.9c0.4,0.1,0.7,0.3,1.1,0.4c1.4,0.6,2.9,1.1,4.4,1.6c0.2,0.1,0.4,0.1,0.5,0.2c1.6,0.6,3.2,1.1,4.9,1.6
		c0.4,0.1,0.8,0.3,1.2,0.4c1.7,0.5,3.3,1.1,5.1,1.4c109.6,20,141.5-65.9,141.5-65.9c-26.8,34.8-74.2,44-119.2,33.8
		c-1.7-0.4-3.3-0.9-5-1.4c-0.4-0.1-0.8-0.2-1.2-0.4c-1.6-0.5-3.2-1-4.8-1.6c-0.2-0.1-0.5-0.2-0.7-0.3c-1.4-0.5-2.8-1-4.3-1.6
		c-0.4-0.2-0.8-0.3-1.2-0.5c-1.6-0.6-3.1-1.3-4.6-1.9c-0.3-0.1-0.6-0.3-0.9-0.4c-1.3-0.6-2.6-1.2-3.9-1.8c-0.4-0.2-0.7-0.4-1.1-0.5
		c-1-0.5-2-1-3-1.5c-0.7-0.4-1.4-0.7-2-1c-1.2-0.6-2.4-1.3-3.6-2c-0.4-0.3-0.8-0.5-1.2-0.7c-1.6-0.9-3.1-1.9-4.7-2.9
		c-0.4-0.3-0.9-0.6-1.3-0.8c-1.1-0.7-2.2-1.5-3.3-2.2c-0.4-0.3-0.7-0.5-1.1-0.8c-1.1-0.7-2.1-1.5-3.2-2.3c-0.4-0.4-0.9-0.7-1.4-1.1
		c-0.9-0.7-1.9-1.5-2.8-2.2c-0.4-0.3-0.8-0.7-1.2-1c-1.2-1-2.4-2-3.5-3c-0.1-0.1-0.3-0.2-0.4-0.3c-1.2-1.1-2.5-2.3-3.7-3.4
		c-0.4-0.4-0.7-0.7-1.1-1c-0.9-0.9-1.8-1.7-2.7-2.6c-0.4-0.4-0.7-0.7-1.1-1.1c-1.1-1.1-2.2-2.3-3.3-3.5c-0.1,0-0.1-0.1-0.2-0.2
		c-1.1-1.2-2.2-2.5-3.3-3.8c-0.3-0.3-0.6-0.7-0.9-1c-0.8-1-1.6-2-2.4-3c-0.3-0.4-0.6-0.7-0.9-1.1c-0.9-1.2-1.9-2.4-2.8-3.7
		c-25-34-34-81-14-119.6"/>
	<path class="st0" d="M86.6,35.2c-16.4,23.6-15.5,55.2-2.7,80.1c2.1,4.2,4.5,8.2,7.2,12.1c2.5,3.5,5.2,7.7,8.4,10.5
		c1.2,1.3,2.4,2.6,3.7,3.8c0.3,0.3,0.6,0.6,1,1c1.2,1.2,2.5,2.3,3.8,3.5c0,0,0.1,0.1,0.2,0.1c0,0,0,0,0,0c1.4,1.3,2.9,2.5,4.4,3.6
		c0.4,0.3,0.7,0.5,1,0.8c1.5,1.2,3,2.3,4.5,3.4c0.1,0,0.1,0.1,0.2,0.1c0.7,0.5,1.4,0.9,2.1,1.4c0.3,0.2,0.6,0.4,1,0.6
		c1.1,0.7,2.2,1.4,3.4,2.1c0.2,0.1,0.3,0.2,0.5,0.3c1,0.6,2,1.2,3,1.7c0.4,0.2,0.7,0.4,1.1,0.6c0.7,0.4,1.4,0.7,2.1,1.1
		c0.1,0,0.2,0.1,0.3,0.2c1.4,0.7,2.9,1.4,4.4,2c0.4,0.1,0.7,0.3,1,0.4c1.2,0.5,2.4,1,3.6,1.5c0.5,0.2,1,0.4,1.5,0.6
		c1.1,0.4,2.2,0.8,3.3,1.1c0.5,0.2,1,0.3,1.5,0.5c1.6,0.5,3.1,1.1,4.8,1.4c84.6,14,104.2-51.1,104.2-51.1
		c-17.6,25.4-51.7,37.5-88.1,28c-1.6-0.4-3.2-0.9-4.8-1.4c-0.5-0.1-0.9-0.3-1.4-0.5c-1.1-0.4-2.3-0.7-3.4-1.2
		c-0.5-0.2-1-0.4-1.5-0.6c-1.2-0.5-2.4-0.9-3.6-1.5c-0.4-0.1-0.7-0.3-1-0.4c-1.5-0.7-3-1.3-4.4-2c-0.7-0.4-1.5-0.8-2.2-1.1
		c-0.4-0.2-0.9-0.4-1.3-0.6c-1-0.5-1.9-1-2.8-1.6c-0.2-0.1-0.4-0.2-0.7-0.4c-1.1-0.7-2.3-1.4-3.4-2.1c-0.4-0.2-0.7-0.5-1-0.7
		c-0.7-0.5-1.5-0.9-2.2-1.5c-1.5-1.1-3-2.2-4.5-3.3c-0.4-0.3-0.7-0.5-1-0.8c-16-12.6-28.6-29.8-34.6-49.2c-6.3-20.2-4.9-42.9,6-61.3
		"/>
	<path class="st0" d="M145.8,14.7c-9.7,14.2-10.6,31.9-3.9,47.6c7.1,16.7,21.6,29.8,38.5,35.9c0.7,0.3,1.4,0.5,2.1,0.7
		c0.3,0.1,0.6,0.2,0.9,0.3c1,0.3,2,0.7,3,0.9c46.7,9,59.4-24,62.8-28.8c-11.1,16-29.8,19.8-52.7,14.3c-1.8-0.4-3.8-1.1-5.5-1.7
		c-2.2-0.8-4.4-1.7-6.6-2.7c-4-2-7.9-4.3-11.5-7C152.4,58.5,139.7,28.8,153,4.7"/>
</g>
</svg>
