<?xml version="1.0" encoding="utf-8"?>
<!-- Generator: Adobe Illustrator 19.0.0, SVG Export Plug-In . SVG Version: 6.00 Build 0)  -->
<svg version="1.1" id="Camada_1" xmlns="http://www.w3.org/2000/svg" xmlns:xlink="http://www.w3.org/1999/xlink" x="0px" y="0px"
	 viewBox="0 0 128 128" style="enable-background:new 0 0 128 128;" xml:space="preserve">
<style type="text/css">
	.st0{fill:url(#XMLID_105_);}
	.st1{fill:#1F84C9;}
	.st2{fill:url(#XMLID_106_);}
	.st3{display:none;fill:#FFFFFF;fill-opacity:0.15;}
	.st4{display:none;fill:url(#Component_2_);}
	.st5{display:none;fill:url(#XMLID_107_);}
	.st6{fill:#D4953B;}
	.st7{fill:url(#XMLID_109_);}
	.st8{fill:#FFFFFF;fill-opacity:0.15;}
	.st9{fill:#BDD85B;}
	.st10{fill:#A6BD4F;}
	.st11{fill:#A7BE4F;}
	.st12{fill:#A8BF4E;}
	.st13{fill:#A9BF4E;}
	.st14{fill:#A9C04E;}
	.st15{fill:#AAC04E;}
	.st16{fill:#ABC14D;}
	.st17{fill:#ACC24D;}
	.st18{fill:#ADC24D;}
	.st19{fill:#ADC34D;}
	.st20{fill:#AEC34C;}
	.st21{fill:#AFC44C;}
	.st22{fill:#B0C54C;}
	.st23{fill:#B1C54C;}
	.st24{fill:#B1C64B;}
	.st25{fill:#B2C64B;}
	.st26{fill:#B3C74B;}
	.st27{fill:#B4C84A;}
	.st28{fill:#B5C84A;}
	.st29{fill:#B5C94A;}
	.st30{fill:#B6C94A;}
	.st31{fill:#B7CA4A;}
	.st32{fill:#B7CA49;}
	.st33{fill:#B8CB49;}
	.st34{fill:#B9CB49;}
	.st35{fill:#B9CC49;}
	.st36{fill:#BACC49;}
	.st37{fill:#BBCD48;}
	.st38{fill:#BCCE48;}
	.st39{fill:#BDCF47;}
	.st40{fill:#BECF47;}
	.st41{fill:#BED047;}
	.st42{fill:#BFD047;}
	.st43{fill:#C0D147;}
	.st44{fill:#C0D146;}
	.st45{fill:#C1D246;}
	.st46{fill:#C2D246;}
	.st47{fill:#C2D346;}
	.st48{fill:#C3D346;}
	.st49{fill:#C4D445;}
	.st50{fill:#C5D545;}
	.st51{fill:#C6D545;}
	.st52{fill:#C6D644;}
	.st53{fill:#C7D644;}
	.st54{fill:#C8D744;}
	.st55{fill:#C9D844;}
	.st56{fill:#CAD843;}
	.st57{fill:#CAD943;}
	.st58{fill:#CBD943;}
	.st59{fill:#CCDA43;}
	.st60{fill:#CDDB42;}
	.st61{fill:#CEDB42;}
	.st62{fill:#CEDC42;}
	.st63{fill:#CFDC42;}
	.st64{fill:#D0DD41;}
	.st65{fill:#D1DE41;}
</style>
<g id="XMLID_85_">
	<g id="Blue">
		<g id="XMLID_205_">
			
				<linearGradient id="XMLID_105_" gradientUnits="userSpaceOnUse" x1="37.2907" y1="91.2358" x2="104.3888" y2="34.9338" gradientTransform="matrix(1 0 0 -1 0 130)">
				<stop  offset="0" style="stop-color:#6AAFD9"/>
				<stop  offset="0.2987" style="stop-color:#66ABD8"/>
				<stop  offset="0.6271" style="stop-color:#58A0D3"/>
				<stop  offset="0.9687" style="stop-color:#428DCC"/>
				<stop  offset="1" style="stop-color:#408BCB"/>
			</linearGradient>
			<path id="XMLID_83_" class="st0" d="M127.7,43.7c1.1-16.2-1.4-24.7-2.9-31.4l-22,3.4c-0.1,17.8-4,30.1-11.8,37.9
				C79.7,65,68.2,67.3,54.9,68.7c-17.6,2-28.6,0.7-42.7-0.2c-4.9,13.6-6,32.3-6,44c18.4,9.5,43.2,11.5,64.9,3.6
				C103.9,104.2,125.7,74.9,127.7,43.7z"/>
		</g>
		
			<image style="overflow:visible;enable-background:new    ;" width="395" height="353" id="XMLID_81_" xlink:href="C3BEA1C.png"  transform="matrix(0.3059 0 0 0.3059 6.5992 12.7697)">
		</image>
		<g id="XMLID_199_">
			<g id="XMLID_200_">
				<path id="XMLID_201_" class="st1" d="M124.8,12.4l-22,3.4c-0.1,17.8-4,30.1-11.8,37.9C79.7,65.1,68.2,67.3,54.9,68.8
					c-17.6,2-28.6,0.7-42.7-0.2c-4.9,13.6-6,32.3-6,44c18.4,9.5,43.2,11.5,64.9,3.6c32.7-11.9,54.5-41.3,56.6-72.5
					C128.8,27.6,126.3,19.1,124.8,12.4z M125.9,43.5c-1,15.1-6.7,29.8-16.4,42.5c-9.9,12.9-23.4,22.8-39,28.4
					c-8.8,3.2-18.1,4.8-27.8,4.8c0,0,0,0,0,0c-12.4,0-24.4-2.7-34.7-7.8c0.1-8.5,0.8-26.9,5.5-41c1.7,0.1,3.5,0.2,5.1,0.3
					c6.1,0.4,11.9,0.8,18.3,0.8c6,0,11.9-0.3,18.2-1.1c13.3-1.5,25.3-3.7,37.2-15.7c7.9-8,12-20.3,12.3-37.6l18.8-2.9
					c0,0.1,0,0.1,0.1,0.2C125,21,126.9,29.1,125.9,43.5z"/>
			</g>
		</g>
		<g id="XMLID_194_">
			<g id="XMLID_195_">
				
					<linearGradient id="XMLID_106_" gradientUnits="userSpaceOnUse" x1="37.2932" y1="91.1376" x2="104.3913" y2="34.8356" gradientTransform="matrix(1 0 0 -1 0 130)">
					<stop  offset="0" style="stop-color:#6AAFD9"/>
					<stop  offset="0.2987" style="stop-color:#66ABD8"/>
					<stop  offset="0.6271" style="stop-color:#58A0D3"/>
					<stop  offset="0.9687" style="stop-color:#428DCC"/>
					<stop  offset="1" style="stop-color:#408BCB"/>
				</linearGradient>
				<path id="XMLID_196_" class="st2" d="M124.8,12.4l-22,3.4c-0.1,17.8-4,30.1-11.8,37.9C79.7,65.1,68.2,67.3,54.9,68.8
					c-17.6,2-28.6,0.7-42.7-0.2c-4.9,13.6-6,32.3-6,44c18.4,9.5,43.2,11.5,64.9,3.6c32.7-11.9,54.5-41.3,56.6-72.5
					C128.8,27.6,126.3,19.1,124.8,12.4z M126.2,43.6c-1,15.2-6.7,29.9-16.5,42.6c-10,13-23.5,22.8-39.1,28.5
					c-8.8,3.2-18.2,4.8-27.9,4.8c-12.5,0-24.5-2.7-34.8-7.8l-0.2-0.1l0-0.2c0.1-9.4,0.9-27.2,5.5-41.1l0.1-0.2l0.2,0
					c1.7,0.1,3.3,0.2,4.9,0.3l0.2,0c6.1,0.4,11.9,0.8,18.3,0.8c6,0,11.9-0.3,18.2-1.1c13.3-1.5,25.2-3.7,37-15.6
					c7.9-7.9,11.9-20.2,12.2-37.4l0-0.3l19.3-3l0.1,0.5C125.3,21,127.2,29.1,126.2,43.6z"/>
			</g>
		</g>
		<path id="XMLID_76_" class="st3" d="M124,24.4c0-3.5-0.3-6.9-0.8-10.3L104.3,17l0,0.3C104,34.5,100,46.7,92.1,54.7
			c-11.8,11.9-23.7,14.1-37,15.6c-6.3,0.7-12.2,1.1-18.2,1.1c-6.4,0-12.2-0.4-18.3-0.8l-0.2,0c-1.6-0.1-3.3-0.2-4.9-0.3l-0.2,0
			l-0.1,0.2C10,80.1,8.6,91.7,8.1,101c6.9,1.3,14.1,2,21.4,2C81.7,103,124,67.8,124,24.4z"/>
	</g>
	<g id="Orange">
		
			<linearGradient id="Component_2_" gradientUnits="userSpaceOnUse" x1="43.473" y1="110.995" x2="68.6208" y2="67.4377" gradientTransform="matrix(1 0 0 -1 0 130)">
			<stop  offset="4.500000e-003" style="stop-color:#E3831A"/>
			<stop  offset="0.6411" style="stop-color:#E79A1A"/>
			<stop  offset="1" style="stop-color:#E9A91A"/>
		</linearGradient>
		<path id="Component_1_" class="st4" d="M74.1,59.1c-18.4,8.2-46.3,5.7-60.3,4.9c5-16.1,13-30.2,18.4-38.5
			c20.8-2.9,39.7-5.6,65.4-9.2C97.6,32.2,94.7,49.9,74.1,59.1z"/>
		
			<linearGradient id="XMLID_107_" gradientUnits="userSpaceOnUse" x1="45.171" y1="108.054" x2="68.6208" y2="67.4377" gradientTransform="matrix(1 0 0 -1 0 130)">
			<stop  offset="4.500000e-003" style="stop-color:#E3831A"/>
			<stop  offset="0.6411" style="stop-color:#E79A1A"/>
			<stop  offset="1" style="stop-color:#E9A91A"/>
		</linearGradient>
		<path id="XMLID_75_" class="st5" d="M41.2,24.2c0,0,0,0.1,0,0.1c0,5.7-4.6,10.3-10.3,10.3c-1.3,0-2.6-0.3-3.8-0.7
			C22.5,42,17.3,52.5,13.8,64c13.9,0.8,41.9,3.3,60.3-4.9c20.7-9.2,23.6-26.9,23.6-42.8C75.7,19.4,58.6,21.8,41.2,24.2z"/>
		
			<image style="overflow:visible;enable-background:new    ;" width="270" height="155" id="XMLID_74_" xlink:href="C3BEA1B.png"  transform="matrix(0.3059 0 0 0.3059 14.5526 17.3582)">
		</image>
		<path id="XMLID_186_" class="st6" d="M41.2,24.2c0,0,0,0.1,0,0.1c0,5.7-4.6,10.3-10.3,10.3c-1.3,0-2.6-0.3-3.8-0.7
			C22.5,42,17.3,52.5,13.8,64c13.9,0.8,41.9,3.3,60.3-4.9c20.7-9.2,23.6-26.9,23.6-42.8C75.7,19.4,58.6,21.8,41.2,24.2z M73.3,57.6
			c-8.7,3.9-20.5,5.7-36.1,5.7c-7.7,0-14.7-0.4-20.4-0.8c-0.2,0-0.4,0-0.6,0C19.1,54,23,45.2,28,36.3c1,0.2,2,0.4,3,0.4
			c6.2,0,11.3-4.7,12-10.7c12.7-1.8,25.2-3.5,39.6-5.5l13.2-1.8C95.5,33.4,92.2,49.2,73.3,57.6z"/>
		
			<linearGradient id="XMLID_109_" gradientUnits="userSpaceOnUse" x1="45.171" y1="108.054" x2="68.6208" y2="67.4377" gradientTransform="matrix(1 0 0 -1 0 130)">
			<stop  offset="0" style="stop-color:#E8B874"/>
			<stop  offset="0.2379" style="stop-color:#E8B670"/>
			<stop  offset="0.4995" style="stop-color:#E9B162"/>
			<stop  offset="0.7715" style="stop-color:#EBA94C"/>
			<stop  offset="1" style="stop-color:#EDA034"/>
		</linearGradient>
		<path id="XMLID_183_" class="st7" d="M41.2,24.2c0,0,0,0.1,0,0.1c0,5.7-4.6,10.3-10.3,10.3c-1.3,0-2.6-0.3-3.8-0.7
			C22.5,42,17.3,52.5,13.8,64c13.9,0.8,41.9,3.3,60.3-4.9c20.7-9.2,23.6-26.9,23.6-42.8C75.7,19.4,58.6,21.8,41.2,24.2z M73.4,57.9
			c-8.7,3.9-20.6,5.8-36.2,5.8c-7.7,0-14.7-0.4-20.4-0.8c-0.3,0-0.6,0-1-0.1c2.9-8.7,6.9-17.7,12-26.8c1,0.3,2.1,0.4,3.1,0.4
			c6.1,0,11.2-4.7,11.8-10.6c12.7-1.8,25.3-3.6,39.8-5.6l13.5-1.9C95.8,33.3,92.6,49.4,73.4,57.9z"/>
		<path id="XMLID_69_" class="st8" d="M27.8,46.9c21.3,0,39.1-10.8,43.6-25.2c-10,1.4-19.3,2.7-28.7,4c-0.6,6-5.7,10.6-11.8,10.6
			c-1.1,0-2.1-0.1-3.1-0.4c-2,3.6-3.8,7.1-5.5,10.7C24.1,46.8,25.9,46.9,27.8,46.9z"/>
	</g>
	<g id="Green">
		<path id="XMLID_68_" class="st9" d="M34,22.7L124,10c-0.3-1.1-0.7-2.1-1.1-3.2L34,19.4V22.7z"/>
		<path id="XMLID_67_" class="st9" d="M25.5,24.4C9.9,49,0.6,78.1,0,109.3c1.1,0.6,2.2,1.3,3.3,1.9c0.3-32,9.9-61.8,26.2-86.8
			L25.5,24.4L25.5,24.4z"/>
		<g id="XMLID_86_">
			<path id="XMLID_66_" class="st10" d="M30.9,16.5c4.3,0,7.9,3.5,7.9,7.9c0,4.3-3.5,7.9-7.9,7.9c-4.3,0-7.8-3.5-7.8-7.9
				C23.1,20,26.6,16.5,30.9,16.5z"/>
			<path id="XMLID_65_" class="st11" d="M30.9,16.6c4.3,0,7.8,3.5,7.8,7.8c0,4.3-3.5,7.8-7.8,7.8c-4.3,0-7.8-3.5-7.8-7.8
				C23.1,20.1,26.6,16.6,30.9,16.6z"/>
			<path id="XMLID_64_" class="st11" d="M30.9,16.6c4.3,0,7.8,3.5,7.8,7.8c0,4.3-3.5,7.8-7.8,7.8c-4.3,0-7.7-3.5-7.7-7.8
				C23.2,20.1,26.6,16.6,30.9,16.6z"/>
			<path id="XMLID_63_" class="st12" d="M30.9,16.6c4.3,0,7.7,3.5,7.7,7.7c0,4.3-3.5,7.7-7.7,7.7c-4.3,0-7.7-3.5-7.7-7.7
				C23.2,20.1,26.7,16.6,30.9,16.6z"/>
			<path id="XMLID_62_" class="st13" d="M30.9,16.7c4.3,0,7.7,3.5,7.7,7.7c0,4.2-3.4,7.7-7.7,7.7c-4.2,0-7.7-3.5-7.7-7.7
				C23.3,20.1,26.7,16.7,30.9,16.7z"/>
			<path id="XMLID_61_" class="st14" d="M30.9,16.7c4.2,0,7.6,3.4,7.6,7.6c0,4.2-3.4,7.6-7.6,7.6c-4.2,0-7.6-3.4-7.6-7.6
				C23.3,20.2,26.7,16.7,30.9,16.7z"/>
			<path id="XMLID_60_" class="st15" d="M30.9,16.8c4.2,0,7.6,3.4,7.6,7.6c0,4.2-3.4,7.6-7.6,7.6c-4.2,0-7.6-3.4-7.6-7.6
				C23.3,20.2,26.7,16.8,30.9,16.8z"/>
			<path id="XMLID_59_" class="st16" d="M30.9,16.8c4.2,0,7.6,3.4,7.6,7.6c0,4.2-3.4,7.6-7.6,7.6c-4.2,0-7.5-3.4-7.5-7.6
				C23.4,20.2,26.8,16.8,30.9,16.8z"/>
			<path id="XMLID_58_" class="st16" d="M30.9,16.8c4.2,0,7.5,3.4,7.5,7.5c0,4.1-3.4,7.5-7.5,7.5c-4.1,0-7.5-3.4-7.5-7.5
				C23.4,20.2,26.8,16.8,30.9,16.8z"/>
			<path id="XMLID_57_" class="st17" d="M30.9,16.9c4.1,0,7.5,3.4,7.5,7.5c0,4.1-3.3,7.5-7.5,7.5c-4.1,0-7.5-3.4-7.5-7.5
				C23.5,20.2,26.8,16.9,30.9,16.9z"/>
			<path id="XMLID_56_" class="st18" d="M30.9,16.9c4.1,0,7.4,3.3,7.4,7.4c0,4.1-3.3,7.4-7.4,7.4c-4.1,0-7.4-3.3-7.4-7.4
				C23.5,20.3,26.8,16.9,30.9,16.9z"/>
			<path id="XMLID_55_" class="st19" d="M30.9,17c4.1,0,7.4,3.3,7.4,7.4c0,4.1-3.3,7.4-7.4,7.4c-4.1,0-7.4-3.3-7.4-7.4
				C23.5,20.3,26.8,17,30.9,17z"/>
			<path id="XMLID_54_" class="st20" d="M30.9,17c4.1,0,7.4,3.3,7.4,7.4c0,4.1-3.3,7.4-7.4,7.4c-4.1,0-7.3-3.3-7.3-7.4
				C23.6,20.3,26.9,17,30.9,17z"/>
			<path id="XMLID_53_" class="st21" d="M30.9,17c4.1,0,7.3,3.3,7.3,7.3c0,4-3.3,7.3-7.3,7.3c-4,0-7.3-3.3-7.3-7.3
				C23.6,20.3,26.9,17,30.9,17z"/>
			<path id="XMLID_52_" class="st21" d="M30.9,17.1c4,0,7.3,3.3,7.3,7.3c0,4-3.3,7.3-7.3,7.3c-4,0-7.3-3.3-7.3-7.3
				C23.7,20.4,26.9,17.1,30.9,17.1z"/>
			<path id="XMLID_51_" class="st22" d="M30.9,17.1c4,0,7.2,3.3,7.2,7.2c0,4-3.2,7.2-7.2,7.2c-4,0-7.2-3.3-7.2-7.2
				C23.7,20.4,26.9,17.1,30.9,17.1z"/>
			<path id="XMLID_50_" class="st23" d="M30.9,17.2c4,0,7.2,3.2,7.2,7.2c0,4-3.2,7.2-7.2,7.2c-4,0-7.2-3.2-7.2-7.2
				C23.7,20.4,27,17.2,30.9,17.2z"/>
			<path id="XMLID_49_" class="st24" d="M30.9,17.2c4,0,7.2,3.2,7.2,7.2c0,3.9-3.2,7.2-7.2,7.2c-3.9,0-7.1-3.2-7.1-7.2
				C23.8,20.4,27,17.2,30.9,17.2z"/>
			<path id="XMLID_48_" class="st25" d="M30.9,17.3c3.9,0,7.1,3.2,7.1,7.1c0,3.9-3.2,7.1-7.1,7.1c-3.9,0-7.1-3.2-7.1-7.1
				C23.8,20.4,27,17.3,30.9,17.3z"/>
			<path id="XMLID_47_" class="st26" d="M30.9,17.3c3.9,0,7.1,3.2,7.1,7.1c0,3.9-3.2,7.1-7.1,7.1c-3.9,0-7.1-3.2-7.1-7.1
				C23.9,20.5,27,17.3,30.9,17.3z"/>
			<path id="XMLID_46_" class="st26" d="M30.9,17.3c3.9,0,7,3.2,7,7c0,3.9-3.1,7-7,7c-3.9,0-7-3.2-7-7C23.9,20.5,27,17.3,30.9,17.3z
				"/>
			<path id="XMLID_45_" class="st27" d="M30.9,17.4c3.9,0,7,3.1,7,7c0,3.9-3.1,7-7,7c-3.9,0-7-3.1-7-7
				C23.9,20.5,27.1,17.4,30.9,17.4z"/>
			<path id="XMLID_44_" class="st28" d="M30.9,17.4c3.8,0,7,3.1,7,7c0,3.8-3.1,7-7,7c-3.8,0-6.9-3.1-6.9-7
				C24,20.5,27.1,17.4,30.9,17.4z"/>
			<path id="XMLID_43_" class="st29" d="M30.9,17.5c3.8,0,6.9,3.1,6.9,6.9c0,3.8-3.1,6.9-6.9,6.9c-3.8,0-6.9-3.1-6.9-6.9
				C24,20.6,27.1,17.5,30.9,17.5z"/>
			<path id="XMLID_42_" class="st30" d="M30.9,17.5c3.8,0,6.9,3.1,6.9,6.9c0,3.8-3.1,6.9-6.9,6.9c-3.8,0-6.9-3.1-6.9-6.9
				C24.1,20.6,27.1,17.5,30.9,17.5z"/>
			<path id="XMLID_41_" class="st31" d="M30.9,17.5c3.8,0,6.8,3.1,6.8,6.8c0,3.8-3.1,6.8-6.8,6.8c-3.8,0-6.8-3.1-6.8-6.8
				C24.1,20.6,27.2,17.5,30.9,17.5z"/>
			<path id="XMLID_40_" class="st32" d="M30.9,17.6c3.8,0,6.8,3,6.8,6.8c0,3.7-3,6.8-6.8,6.8c-3.7,0-6.8-3-6.8-6.8
				C24.1,20.6,27.2,17.6,30.9,17.6z"/>
			<path id="XMLID_39_" class="st33" d="M30.9,17.6c3.7,0,6.7,3,6.7,6.7c0,3.7-3,6.7-6.7,6.7c-3.7,0-6.7-3-6.7-6.7
				C24.2,20.6,27.2,17.6,30.9,17.6z"/>
			<path id="XMLID_38_" class="st34" d="M30.9,17.7c3.7,0,6.7,3,6.7,6.7c0,3.7-3,6.7-6.7,6.7c-3.7,0-6.7-3-6.7-6.7
				C24.2,20.7,27.2,17.7,30.9,17.7z"/>
			<path id="XMLID_37_" class="st35" d="M30.9,17.7c3.7,0,6.7,3,6.7,6.7c0,3.7-3,6.7-6.7,6.7c-3.7,0-6.6-3-6.6-6.7
				C24.3,20.7,27.2,17.7,30.9,17.7z"/>
			<path id="XMLID_36_" class="st36" d="M30.9,17.7c3.7,0,6.6,3,6.6,6.6c0,3.7-3,6.6-6.6,6.6c-3.6,0-6.6-3-6.6-6.6
				C24.3,20.7,27.3,17.7,30.9,17.7z"/>
			<path id="XMLID_35_" class="st37" d="M30.9,17.8c3.6,0,6.6,3,6.6,6.6c0,3.6-2.9,6.6-6.6,6.6c-3.6,0-6.6-3-6.6-6.6
				C24.4,20.7,27.3,17.8,30.9,17.8z"/>
			<path id="XMLID_34_" class="st37" d="M30.9,17.8c3.6,0,6.5,2.9,6.5,6.5c0,3.6-2.9,6.5-6.5,6.5c-3.6,0-6.5-2.9-6.5-6.5
				C24.4,20.8,27.3,17.8,30.9,17.8z"/>
			<path id="XMLID_33_" class="st38" d="M30.9,17.9c3.6,0,6.5,2.9,6.5,6.5c0,3.6-2.9,6.5-6.5,6.5c-3.6,0-6.5-2.9-6.5-6.5
				C24.4,20.8,27.3,17.9,30.9,17.9z"/>
			<path id="XMLID_32_" class="st38" d="M30.9,17.9c3.6,0,6.5,2.9,6.5,6.5c0,3.6-2.9,6.5-6.5,6.5c-3.6,0-6.4-2.9-6.4-6.5
				C24.5,20.8,27.4,17.9,30.9,17.9z"/>
			<path id="XMLID_31_" class="st39" d="M30.9,17.9c3.5,0,6.4,2.9,6.4,6.4c0,3.5-2.9,6.4-6.4,6.4c-3.5,0-6.4-2.9-6.4-6.4
				C24.5,20.8,27.4,17.9,30.9,17.9z"/>
			<path id="XMLID_30_" class="st40" d="M30.9,18c3.5,0,6.4,2.9,6.4,6.4c0,3.5-2.9,6.4-6.4,6.4c-3.5,0-6.4-2.9-6.4-6.4
				C24.6,20.9,27.4,18,30.9,18z"/>
			<path id="XMLID_29_" class="st41" d="M30.9,18c3.5,0,6.3,2.8,6.3,6.3c0,3.5-2.8,6.3-6.3,6.3c-3.5,0-6.3-2.8-6.3-6.3
				C24.6,20.9,27.4,18,30.9,18z"/>
			<path id="XMLID_28_" class="st42" d="M30.9,18.1c3.5,0,6.3,2.8,6.3,6.3c0,3.5-2.8,6.3-6.3,6.3c-3.5,0-6.3-2.8-6.3-6.3
				C24.6,20.9,27.5,18.1,30.9,18.1z"/>
			<path id="XMLID_27_" class="st43" d="M30.9,18.1c3.5,0,6.3,2.8,6.3,6.3c0,3.4-2.8,6.3-6.3,6.3c-3.4,0-6.2-2.8-6.2-6.3
				C24.7,20.9,27.5,18.1,30.9,18.1z"/>
			<path id="XMLID_26_" class="st44" d="M30.9,18.2c3.4,0,6.2,2.8,6.2,6.2c0,3.4-2.8,6.2-6.2,6.2c-3.4,0-6.2-2.8-6.2-6.2
				C24.7,20.9,27.5,18.2,30.9,18.2z"/>
			<path id="XMLID_25_" class="st45" d="M30.9,18.2c3.4,0,6.2,2.8,6.2,6.2c0,3.4-2.8,6.2-6.2,6.2c-3.4,0-6.2-2.8-6.2-6.2
				C24.8,21,27.5,18.2,30.9,18.2z"/>
			<path id="XMLID_24_" class="st46" d="M30.9,18.2c3.4,0,6.1,2.8,6.1,6.1c0,3.4-2.7,6.1-6.1,6.1c-3.4,0-6.1-2.8-6.1-6.1
				C24.8,21,27.5,18.2,30.9,18.2z"/>
			<path id="XMLID_23_" class="st47" d="M30.9,18.3c3.4,0,6.1,2.7,6.1,6.1c0,3.4-2.7,6.1-6.1,6.1c-3.4,0-6.1-2.7-6.1-6.1
				C24.8,21,27.6,18.3,30.9,18.3z"/>
			<path id="XMLID_22_" class="st48" d="M30.9,18.3c3.3,0,6.1,2.7,6.1,6.1c0,3.3-2.7,6.1-6.1,6.1c-3.3,0-6-2.7-6-6.1
				C24.9,21,27.6,18.3,30.9,18.3z"/>
			<path id="XMLID_21_" class="st49" d="M30.9,18.4c3.3,0,6,2.7,6,6c0,3.3-2.7,6-6,6c-3.3,0-6-2.7-6-6
				C24.9,21.1,27.6,18.4,30.9,18.4z"/>
			<path id="XMLID_20_" class="st49" d="M30.9,18.4c3.3,0,6,2.7,6,6c0,3.3-2.7,6-6,6c-3.3,0-6-2.7-6-6C25,21.1,27.6,18.4,30.9,18.4z
				"/>
			<path id="XMLID_19_" class="st50" d="M30.9,18.4c3.3,0,5.9,2.7,5.9,5.9c0,3.3-2.7,5.9-5.9,5.9c-3.3,0-5.9-2.7-5.9-5.9
				C25,21.1,27.7,18.4,30.9,18.4z"/>
			<path id="XMLID_18_" class="st51" d="M30.9,18.5c3.3,0,5.9,2.6,5.9,5.9c0,3.2-2.6,5.9-5.9,5.9c-3.2,0-5.9-2.6-5.9-5.9
				C25,21.1,27.7,18.5,30.9,18.5z"/>
			<path id="XMLID_17_" class="st52" d="M30.9,18.5c3.2,0,5.8,2.6,5.8,5.8c0,3.2-2.6,5.8-5.8,5.8c-3.2,0-5.8-2.6-5.8-5.8
				C25.1,21.1,27.7,18.5,30.9,18.5z"/>
			<path id="XMLID_16_" class="st53" d="M30.9,18.6c3.2,0,5.8,2.6,5.8,5.8c0,3.2-2.6,5.8-5.8,5.8c-3.2,0-5.8-2.6-5.8-5.8
				C25.1,21.2,27.7,18.6,30.9,18.6z"/>
			<path id="XMLID_15_" class="st54" d="M30.9,18.6c3.2,0,5.8,2.6,5.8,5.8c0,3.2-2.6,5.8-5.8,5.8c-3.2,0-5.7-2.6-5.7-5.8
				C25.2,21.2,27.7,18.6,30.9,18.6z"/>
			<path id="XMLID_14_" class="st54" d="M30.9,18.6c3.2,0,5.7,2.6,5.7,5.7c0,3.2-2.6,5.7-5.7,5.7c-3.1,0-5.7-2.6-5.7-5.7
				C25.2,21.2,27.8,18.6,30.9,18.6z"/>
			<path id="XMLID_13_" class="st55" d="M30.9,18.7c3.1,0,5.7,2.6,5.7,5.7c0,3.1-2.5,5.7-5.7,5.7c-3.1,0-5.7-2.6-5.7-5.7
				C25.3,21.2,27.8,18.7,30.9,18.7z"/>
			<path id="XMLID_12_" class="st56" d="M30.9,18.7c3.1,0,5.6,2.5,5.6,5.6c0,3.1-2.5,5.6-5.6,5.6c-3.1,0-5.6-2.5-5.6-5.6
				C25.3,21.3,27.8,18.7,30.9,18.7z"/>
			<path id="XMLID_11_" class="st57" d="M30.9,18.8c3.1,0,5.6,2.5,5.6,5.6c0,3.1-2.5,5.6-5.6,5.6c-3.1,0-5.6-2.5-5.6-5.6
				C25.3,21.3,27.8,18.8,30.9,18.8z"/>
			<path id="XMLID_10_" class="st58" d="M30.9,18.8c3.1,0,5.6,2.5,5.6,5.6c0,3.1-2.5,5.6-5.6,5.6c-3.1,0-5.5-2.5-5.5-5.6
				C25.4,21.3,27.9,18.8,30.9,18.8z"/>
			<path id="XMLID_9_" class="st59" d="M30.9,18.8c3,0,5.5,2.5,5.5,5.5c0,3-2.5,5.5-5.5,5.5c-3,0-5.5-2.5-5.5-5.5
				C25.4,21.3,27.9,18.8,30.9,18.8z"/>
			<path id="XMLID_8_" class="st59" d="M30.9,18.9c3,0,5.5,2.5,5.5,5.5c0,3-2.5,5.5-5.5,5.5c-3,0-5.5-2.5-5.5-5.5
				C25.5,21.3,27.9,18.9,30.9,18.9z"/>
			<path id="XMLID_7_" class="st60" d="M30.9,18.9c3,0,5.4,2.4,5.4,5.4c0,3-2.4,5.4-5.4,5.4c-3,0-5.4-2.4-5.4-5.4
				C25.5,21.4,27.9,18.9,30.9,18.9z"/>
			<path id="XMLID_6_" class="st61" d="M30.9,19c3,0,5.4,2.4,5.4,5.4c0,3-2.4,5.4-5.4,5.4c-3,0-5.4-2.4-5.4-5.4
				C25.5,21.4,28,19,30.9,19z"/>
			<path id="XMLID_5_" class="st62" d="M30.9,19c3,0,5.4,2.4,5.4,5.4c0,3-2.4,5.4-5.4,5.4c-2.9,0-5.3-2.4-5.3-5.4
				C25.6,21.4,28,19,30.9,19z"/>
			<path id="XMLID_4_" class="st63" d="M30.9,19.1c2.9,0,5.3,2.4,5.3,5.3c0,2.9-2.4,5.3-5.3,5.3c-2.9,0-5.3-2.4-5.3-5.3
				C25.6,21.4,28,19.1,30.9,19.1z"/>
			<path id="XMLID_3_" class="st64" d="M30.9,19.1c2.9,0,5.3,2.4,5.3,5.3c0,2.9-2.4,5.3-5.3,5.3c-2.9,0-5.3-2.4-5.3-5.3
				C25.7,21.5,28,19.1,30.9,19.1z"/>
			<path id="XMLID_2_" class="st64" d="M30.9,19.1c2.9,0,5.2,2.3,5.2,5.2c0,2.9-2.3,5.2-5.2,5.2c-2.9,0-5.2-2.3-5.2-5.2
				C25.7,21.5,28,19.1,30.9,19.1z"/>
			<path id="XMLID_1_" class="st65" d="M30.9,29.6c-2.9,0-5.2-2.3-5.2-5.2s2.3-5.2,5.2-5.2c2.9,0,5.2,2.3,5.2,5.2
				S33.8,29.6,30.9,29.6L30.9,29.6z"/>
		</g>
	</g>
</g>
<g id="XMLID_82_">
</g>
<g id="XMLID_84_">
</g>
<g id="XMLID_87_">
</g>
<g id="XMLID_88_">
</g>
<g id="XMLID_89_">
</g>
<g id="XMLID_90_">
</g>
<g id="XMLID_91_">
</g>
<g id="XMLID_95_">
</g>
<g id="XMLID_97_">
</g>
<g id="XMLID_98_">
</g>
<g id="XMLID_99_">
</g>
<g id="XMLID_100_">
</g>
<g id="XMLID_101_">
</g>
<g id="XMLID_102_">
</g>
<g id="XMLID_103_">
</g>
</svg>
