<?xml version="1.0" encoding="utf-8"?>
<!-- Generator: Adobe Illustrator 19.0.0, SVG Export Plug-In . SVG Version: 6.00 Build 0)  -->
<svg version="1.1" id="Camada_2" xmlns="http://www.w3.org/2000/svg" xmlns:xlink="http://www.w3.org/1999/xlink" x="0px" y="0px"
	 viewBox="0 0 128 128" style="enable-background:new 0 0 128 128;" xml:space="preserve">
<style type="text/css">
	.st0{fill:#00618A;}
</style>
<g id="XMLID_16_">
	<g id="XMLID_22_" transform="translate(241.59, -4.64258)">
		<path id="XMLID_6_" class="st0" d="M-123.7,103c-7-0.2-12.3,0.5-16.9,2.4c-1.3,0.5-3.4,0.6-3.6,2.2c0.7,0.7,0.8,1.9,1.4,2.8
			c1.1,1.8,2.9,4.1,4.6,5.4c1.8,1.4,3.6,2.8,5.6,4c3.4,2.1,7.2,3.3,10.5,5.4c1.9,1.2,3.9,2.8,5.8,4.2c0.9,0.7,1.6,1.8,2.8,2.2
			c0-0.1,0-0.1,0-0.2c-0.6-0.8-0.8-1.9-1.4-2.8c-0.9-0.9-1.7-1.7-2.6-2.6c-2.5-3.3-5.7-6.3-9.1-8.7c-2.7-1.9-8.8-4.6-9.9-7.7
			c-0.1-0.1-0.1-0.1-0.2-0.2c1.9-0.2,4.2-0.9,6-1.4c3-0.8,5.7-0.6,8.7-1.4c1.4-0.4,2.8-0.8,4.2-1.2c0-0.3,0-0.5,0-0.8
			c-1.6-1.6-2.7-3.7-4.4-5.2c-4.4-3.8-9.3-7.6-14.3-10.7c-2.8-1.7-6.2-2.9-9.1-4.4c-1-0.5-2.7-0.8-3.4-1.6c-1.5-2-2.4-4.5-3.6-6.8
			c-2.5-4.8-4.9-10-7.1-15.1c-1.5-3.4-2.5-6.8-4.4-9.9c-9-14.8-18.7-23.8-33.8-32.6c-3.2-1.9-7-2.6-11.1-3.6
			c-2.2-0.1-4.4-0.3-6.6-0.4c-1.3-0.6-2.7-2.2-4-3c-5-3.1-17.8-10-21.4-1c-2.3,5.7,3.5,11.2,5.6,14.1c1.5,2,3.3,4.3,4.4,6.6
			c0.7,1.5,0.8,3,1.4,4.6c1.4,3.9,2.7,8.1,4.6,11.7c0.9,1.8,2,3.7,3.2,5.4c0.7,1,2,1.4,2.2,3c-1.2,1.7-1.3,4.4-2,6.6
			c-3.1,9.8-1.9,21.9,2.6,29.2c1.4,2.2,4.6,7,9.1,5.2c3.9-1.6,3-6.6,4.2-10.9c0.3-1,0.1-1.7,0.6-2.4c0,0.1,0,0.1,0,0.2
			c1.2,2.4,2.4,4.8,3.6,7.1c2.6,4.3,7.3,8.7,11.3,11.7c2.1,1.6,3.7,4.3,6.4,5.2c0-0.1,0-0.1,0-0.2c-0.1,0-0.1,0-0.2,0
			c-0.5-0.8-1.3-1.1-2-1.8c-1.6-1.5-3.3-3.4-4.6-5.2c-3.6-4.9-6.8-10.3-9.7-15.9c-1.4-2.7-2.6-5.6-3.8-8.3c-0.5-1-0.4-2.6-1.4-3.2
			c-1.3,2-3.2,3.6-4.2,6c-1.6,3.8-1.8,8.3-2.4,13.1c-0.3,0.1-0.2,0-0.4,0.2c-2.8-0.7-3.7-3.5-4.8-6c-2.6-6.2-3.1-16.1-0.8-23.2
			c0.6-1.8,3.3-7.6,2.2-9.3c-0.5-1.7-2.2-2.7-3.2-4c-1.2-1.6-2.4-3.7-3.2-5.6c-2.1-4.8-3.1-10.2-5.4-15.1c-1.1-2.3-2.9-4.7-4.4-6.8
			c-1.6-2.3-3.5-4-4.8-6.8c-0.5-1-1.1-2.6-0.4-3.6c0.2-0.7,0.5-1,1.2-1.2c1.2-0.9,4.4,0.3,5.6,0.8c3.2,1.3,5.8,2.6,8.5,4.4
			c1.3,0.9,2.6,2.5,4.2,3c0.6,0,1.2,0,1.8,0c2.8,0.6,5.9,0.2,8.5,1c4.6,1.4,8.8,3.6,12.5,6c11.4,7.2,20.8,17.5,27.2,29.8
			c1,2,1.5,3.9,2.4,6c1.8,4.2,4.1,8.6,6,12.7c1.8,4.1,3.6,8.3,6.2,11.7c1.4,1.8,6.6,2.8,8.9,3.8c1.7,0.7,4.4,1.4,6,2.4
			c3,1.8,5.9,4,8.7,6C-128.3,99.1-123.9,101.2-123.7,103z"/>
	</g>
	<g id="XMLID_20_" transform="translate(272.504, 24.8027)">
		<path id="XMLID_5_" class="st0" d="M-243.4-2c-1.5,0-2.5,0.2-3.6,0.4c0,0.1,0,0.1,0,0.2c0.1,0,0.1,0,0.2,0
			c0.7,1.4,1.9,2.3,2.8,3.6c0.7,1.4,1.3,2.8,2,4.2c0.1-0.1,0.1-0.1,0.2-0.2c1.2-0.9,1.8-2.3,1.8-4.4c-0.5-0.5-0.6-1.2-1-1.8
			C-241.6-0.9-242.7-1.4-243.4-2z"/>
	</g>
</g>
<g id="XMLID_1_">
</g>
<g id="XMLID_2_">
</g>
<g id="XMLID_3_">
</g>
<g id="XMLID_4_">
</g>
<g id="XMLID_7_">
</g>
<g id="XMLID_8_">
</g>
<g id="XMLID_9_">
</g>
<g id="XMLID_10_">
</g>
<g id="XMLID_11_">
</g>
<g id="XMLID_12_">
</g>
<g id="XMLID_13_">
</g>
<g id="XMLID_14_">
</g>
<g id="XMLID_15_">
</g>
<g id="XMLID_17_">
</g>
<g id="XMLID_18_">
</g>
</svg>
