<?xml version="1.0" encoding="utf-8"?>
<!-- Generator: Adobe Illustrator 27.0.1, SVG Export Plug-In . SVG Version: 6.00 Build 0)  -->
<svg version="1.1" id="Camada_1" xmlns="http://www.w3.org/2000/svg" xmlns:xlink="http://www.w3.org/1999/xlink" x="0px" y="0px"
	 viewBox="0 0 128 128" style="enable-background:new 0 0 128 128;" xml:space="preserve">
<style type="text/css">
	.st0{fill:#DC352D;}
</style>
<g>
	<path class="st0" d="M110.7,48.3c3,3.1,5.8,7.1,7,11.2c5.6,19.7-15.1,42.3-45.6,51c-30.5,8.7-60,0.3-65.6-19.4
		c-1.2-4.1-0.9-9,0-13.2c1.5-6.8-9.6,7.9-5.6,22c6.5,22.8,38.1,31.7,73.4,21.7c35.3-10,59.2-34.8,52.7-57.5
		C122.9,49.9,105.8,43.3,110.7,48.3"/>
	<path class="st0" d="M110.9,2.4C91.8,22.5,119.7,65.6,78,85.9c22.4-29.9,5-63.7,10.2-74C93.4,1.6,110.9,2.4,110.9,2.4 M80.3,10.2
		C64.6,33,79.4,68.7,69.7,82.3c-9.7,13.6-19.8,3.3-21.2-0.1C70.3,93.9,34.7,28.4,80.3,10.2"/>
	<path class="st0" d="M67.9,84.5c-11.4,12.1-29.4,10.6-51.3,4.9c9.7-11.6,3.8-27.2,6.3-41.7C25.2,34,39.3,22,55,17.3
		C35.5,33.2,37.5,60.4,40.7,71.1C46.4,90.4,67.9,84.5,67.9,84.5"/>
</g>
</svg>
