<?xml version="1.0" encoding="utf-8"?>
<!-- Generator: Adobe Illustrator 19.0.0, SVG Export Plug-In . SVG Version: 6.00 Build 0)  -->
<svg version="1.1" id="Camada_2" xmlns="http://www.w3.org/2000/svg" xmlns:xlink="http://www.w3.org/1999/xlink" x="0px" y="0px"
	 viewBox="0 0 128 128" style="enable-background:new 0 0 128 128;" xml:space="preserve">
<style type="text/css">
	.st0{fill:#005CA8;}
</style>
<path id="XMLID_1_" class="st0" d="M62.3,3.1c30.7,0.2,56.3,19.6,63.7,48.4c6.8,26.7-4.8,54.7-28.2,66.9c-23.9,12.5-54,6.7-68.8-17
	C15.9,80.2,21.6,50.1,46,38.8c18.1-8.4,40.6-1.2,47.6,18.3c5,13.8-1.9,29.6-14.8,33.7c-7.8,2.5-14.9,1-20.6-5.1
	c-4-4.3-4.4-11.2-1.1-15.7c2-2.7,5-3.8,7.6-3.1c2.3,0.7,3.4,2.2,3.8,4.5c0.6,3.1,2.8,3.9,5.4,1.9c3.9-3,4.8-8.1,2.3-12.9
	c-3.8-7.2-13.8-10.6-22.6-7.4c-9.1,3.3-14,10.4-15.8,19.5C34.6,89,45.1,105,62.3,110c21.3,6.2,43.9-5.9,51.7-27.9
	c9.4-26.2-4.4-55.7-31.1-66.4c-24.3-9.7-51.9-3.3-70,16.4c-2.9,3.2-5.4,6.7-8.1,10c-0.6,0.7-1.1,1.6-1.8,2c-0.7,0.4-1.7,0.5-2.5,0.3
	c-0.3-0.1-0.5-1.4-0.3-2.1c0.3-1.1,0.7-2.3,1.3-3.3C12.7,19,29.9,7.2,52.8,3.9C55.9,3.5,59.2,3.4,62.3,3.1z"/>
<g id="XMLID_2_">
</g>
<g id="XMLID_3_">
</g>
<g id="XMLID_4_">
</g>
<g id="XMLID_5_">
</g>
<g id="XMLID_6_">
</g>
<g id="XMLID_7_">
</g>
<g id="XMLID_8_">
</g>
<g id="XMLID_9_">
</g>
<g id="XMLID_11_">
</g>
<g id="XMLID_13_">
</g>
<g id="XMLID_14_">
</g>
<g id="XMLID_15_">
</g>
<g id="XMLID_16_">
</g>
<g id="XMLID_17_">
</g>
<g id="XMLID_18_">
</g>
</svg>
