<?xml version="1.0" encoding="utf-8"?>
<!-- Generator: Adobe Illustrator 19.0.0, SVG Export Plug-In . SVG Version: 6.00 Build 0)  -->
<svg version="1.1" id="Camada_1" xmlns="http://www.w3.org/2000/svg" xmlns:xlink="http://www.w3.org/1999/xlink" x="0px" y="0px"
	 viewBox="0 0 128 128" style="enable-background:new 0 0 128 128;" xml:space="preserve">
<style type="text/css">
	.st0{fill:#6682BA;}
	.st1{fill:#FFFFFF;}
</style>
<g>
	<polygon id="XMLID_6_" class="st0" points="119.4,96 64,128 8.6,96 8.6,32 64,0 119.4,32 	"/>
	<g>
		<path class="st1" d="M34.8,57.4c2.7,0,4.5,0.5,5.4,1.5c0.9,1,1.1,2.7,0.6,5.1c-0.5,2.5-1.4,4.3-2.8,5.4c-1.4,1.1-3.5,1.6-6.4,1.6
			h-4.3L30,57.4H34.8z M17.6,84.7h7.1l1.7-8.6h6.1c2.7,0,4.9-0.3,6.6-0.8c1.7-0.6,3.3-1.5,4.7-2.8c1.2-1.1,2.1-2.3,2.9-3.6
			c0.7-1.3,1.3-2.8,1.6-4.4c0.7-3.9,0.2-6.9-1.7-9c-1.9-2.1-4.9-3.2-9-3.2H23.9L17.6,84.7z"/>
		<path class="st1" d="M56.3,43.6h7l-1.7,8.6h6.3c3.9,0,6.7,0.7,8.1,2.1c1.5,1.4,1.9,3.6,1.3,6.7l-2.9,15.1h-7.1l2.8-14.4
			c0.3-1.6,0.2-2.8-0.4-3.3c-0.6-0.6-1.7-0.9-3.5-0.9h-5.6L57,76.1h-7L56.3,43.6z"/>
		<path class="st1" d="M95.4,57.4c2.7,0,4.5,0.5,5.4,1.5c0.9,1,1.1,2.7,0.6,5.1c-0.5,2.5-1.4,4.3-2.8,5.4c-1.4,1.1-3.5,1.6-6.4,1.6
			h-4.3l2.6-13.6H95.4z M78.2,84.7h7.1l1.7-8.6H93c2.7,0,4.9-0.3,6.6-0.8c1.7-0.6,3.3-1.5,4.7-2.8c1.2-1.1,2.1-2.3,2.9-3.6
			c0.7-1.3,1.3-2.8,1.6-4.4c0.7-3.9,0.2-6.9-1.7-9c-1.9-2.1-4.9-3.2-9-3.2H84.5L78.2,84.7z"/>
	</g>
</g>
<g id="XMLID_7_">
</g>
<g id="XMLID_8_">
</g>
<g id="XMLID_9_">
</g>
<g id="XMLID_10_">
</g>
<g id="XMLID_11_">
</g>
<g id="XMLID_12_">
</g>
<g id="XMLID_13_">
</g>
<g id="XMLID_14_">
</g>
<g id="XMLID_15_">
</g>
<g id="XMLID_16_">
</g>
<g id="XMLID_17_">
</g>
<g id="XMLID_18_">
</g>
<g id="XMLID_19_">
</g>
<g id="XMLID_20_">
</g>
<g id="XMLID_21_">
</g>
</svg>
