<?xml version="1.0" encoding="utf-8"?>
<!-- Generator: Adobe Illustrator 19.0.0, SVG Export Plug-In . SVG Version: 6.00 Build 0)  -->
<svg version="1.1" id="Camada_2" xmlns="http://www.w3.org/2000/svg" xmlns:xlink="http://www.w3.org/1999/xlink" x="0px" y="0px"
	 viewBox="0 0 128 128" style="enable-background:new 0 0 128 128;" xml:space="preserve">
<style type="text/css">
	.st0{fill:#336791;}
	.st1{fill:#FFFFFF;}
	.st2{fill:none;stroke:#FFFFFF;stroke-width:3;stroke-linecap:round;stroke-linejoin:round;}
</style>
<g>
	<g id="orginal_1_">
	</g>
	<g id="Layer_x0020_3_1_">
		<g>
			<g>
				<path id="XMLID_21_" d="M94.7,93.2c0.8-6.8,0.6-7.8,5.6-6.7l1.3,0.1c3.9,0.2,9-0.6,12-2c6.4-3,10.2-8,3.9-6.7
					c-14.5,3-15.4-1.9-15.4-1.9c15.3-22.6,21.6-51.4,16.1-58.4c-15-19.2-41-10.1-41.5-9.9l-0.1,0c-2.9-0.6-6.1-0.9-9.6-1
					c-6.5-0.1-11.5,1.7-15.3,4.6c0,0-46.4-19.1-44.2,24c0.5,9.2,13.2,69.5,28.3,51.2c5.5-6.7,10.9-12.3,10.9-12.3
					c2.7,1.8,5.8,2.7,9.2,2.3l0.3-0.2c-0.1,0.8,0,1.6,0.1,2.6c-3.9,4.4-2.8,5.1-10.6,6.7c-7.9,1.6-3.3,4.5-0.2,5.3
					c3.7,0.9,12.2,2.2,17.9-5.8L63,86.1c1.5,1.2,1.4,8.8,1.6,14.2c0.2,5.4,0.6,10.5,1.7,13.4c1.1,3,2.4,10.6,12.7,8.5
					C87.6,120.4,94.1,117.8,94.7,93.2"/>
			</g>
			<g>
				<path d="M75.7,128c-4.7,0-7.7-1.8-9.6-3.6c-2.8-2.6-3.9-6-4.5-8c-0.1-0.3-0.2-0.6-0.3-0.8c-1.3-3.5-1.8-8.6-2-15.1
					c0-1-0.1-2-0.1-3c0-0.6,0-1.4-0.1-2.2c-4.4,1.9-9.6,2.3-15.1,0.9c-2.5-0.6-5-1.9-6.6-3.8c-4.4,3.7-8.6,3.1-10.9,2.3
					c-4.1-1.4-7.8-5.2-11.2-11.7c-2.4-4.6-4.7-10.5-6.9-17.7C4.7,53.1,2.3,39.9,2.1,35.6C1.4,22,5.1,12.3,13,6.7
					c6.5-4.6,15.5-6,26.6-4.2c4.7,0.8,8.8,2,11.4,2.9c4.6-2.7,10-4.1,16.1-4c3.3,0.1,6.4,0.3,9.2,0.8c3.1-1,9-2.3,15.8-2.2
					c12.7,0.2,23.2,5.1,30.4,14.3c4.9,6.3,3.1,18.7,0.7,28c-2.7,10.4-7.4,21.5-13.1,31.2c1.5,0,3.6-0.3,6.4-0.8c7-1.4,9,2.7,9.4,4
					c2.2,6.6-7.1,11.5-10,12.8c-3.7,1.7-9.6,2.7-14.5,2.5l-0.2,0l-0.9-0.1c0,0.2-0.1,0.4-0.1,0.7c0,0.3-0.1,0.7-0.1,1
					c-0.3,12.5-2.1,20.5-5.8,25.8c-3.9,5.6-9.3,7.1-14.1,8.2C78.5,127.8,77,128,75.7,128z M66.4,81.9c3.1,2.5,3.3,6.9,3.6,15.3
					c0,1,0.1,2,0.1,2.9c0.1,2.7,0.4,9.1,1.4,11.8c0.1,0.4,0.3,0.8,0.4,1.2c1.1,3.4,1.6,4.8,6.1,3.9c4-0.9,6-1.6,7.6-3.8
					c2.3-3.3,3.7-10.1,3.9-20.1l5.4,0.1l-5.3-0.6c0.1-0.4,0.1-0.8,0.1-1.2c0.5-4,0.8-7.2,3.7-9.2c1.8-1.3,3.8-1.5,5.6-1.3
					c-1.5-1.5-1.9-3-2.1-3.7l-0.4-2.2l1.3-1.9c6.7-9.9,12.2-22,15.1-33.3c3-11.5,2.1-17.6,1.3-18.8c-11.9-15.3-32.7-9-35-8.3
					l-0.4,0.2l-2,0.4l-1-0.2c-2.6-0.5-5.5-0.8-8.6-0.9c-4.8-0.1-8.7,1.1-11.9,3.5l-2.5,1.9l-2.8-1.2c-5.6-2.3-21.9-6.9-30.4-0.8
					c-4.7,3.3-6.9,9.9-6.4,19.6C13,38.4,15.2,51,19,63c5.1,16.6,9.7,21.2,11,21.6c0.2-0.1,0.7-0.4,1.6-1.5
					c5.6-6.7,10.9-12.3,11.1-12.6l3.1-3.3l3.8,2.5c1.3,0.9,2.7,1.4,4.2,1.5l8.9-7.6L61.4,77c0,0.3,0,0.6,0.1,1.2l0.4,2.5l-1.7,1.9
					c0,0,0,0,0,0.1l4.2,1.9L66.4,81.9z"/>
			</g>
		</g>
		<g>
			<path id="XMLID_18_" class="st0" d="M117.5,78c-14.5,3-15.5-1.9-15.5-1.9c15.3-22.6,21.6-51.4,16.1-58.4
				c-15-19.2-41-10.1-41.5-9.9l-0.1,0c-2.9-0.6-6.1-0.9-9.6-1c-6.5-0.1-11.5,1.7-15.3,4.6c0,0-46.4-19.1-44.2,24
				c0.5,9.2,13.2,69.5,28.3,51.2c5.5-6.7,10.9-12.3,10.9-12.3c2.7,1.8,5.8,2.7,9.2,2.3l0.3-0.2c-0.1,0.8,0,1.6,0.1,2.6
				c-3.9,4.4-2.8,5.1-10.6,6.7c-7.9,1.6-3.3,4.5-0.2,5.3c3.7,0.9,12.2,2.2,17.9-5.8L63,86.1c1.5,1.2,2.6,8,2.4,14.1
				c-0.2,6.1-0.3,10.3,0.9,13.6s2.4,10.6,12.7,8.5c8.6-1.8,13-6.6,13.6-14.5c0.4-5.6,1.4-4.8,1.5-9.9l0.8-2.4
				c0.9-7.6,0.1-10.1,5.4-9l1.3,0.1c3.9,0.2,9-0.6,12-2C120,81.6,123.8,76.6,117.5,78L117.5,78z"/>
		</g>
		<g>
			<path id="XMLID_17_" class="st1" d="M76.2,124.7c-8.6,0-11.4-6.8-12.5-9.6c-1.6-4.1-2-19.4-1.6-32.8c0-1,0.8-1.8,1.8-1.7
				c1,0,1.8,0.9,1.7,1.8c-0.4,14.9,0.2,28.3,1.4,31.3c1.9,4.6,4.7,8.7,12.6,7c7.7-1.6,10.4-4.4,11.6-11.8c1-5.6,2.9-21.7,3.1-24.9
				c0.1-1,0.9-1.7,1.9-1.7c1,0.1,1.7,0.9,1.7,1.9c-0.2,3.3-2.2,19.4-3.2,25.3c-1.5,8.8-5.4,12.8-14.4,14.7
				C78.9,124.5,77.5,124.7,76.2,124.7z"/>
		</g>
		<g>
			<path id="XMLID_16_" class="st1" d="M29.9,91.6c-0.8,0-1.6-0.2-2.2-0.4c-5.6-1.9-10.9-10.9-15.8-27c-3.7-12.2-6.1-24.9-6.3-29
				C4.9,23,8.1,14.3,15,9.4c13.6-9.6,36.3-0.5,37.3-0.1c0.9,0.4,1.4,1.4,1,2.3c-0.4,0.9-1.4,1.4-2.3,1C50.7,12.5,29,3.9,17,12.3
				c-5.8,4.1-8.5,11.8-7.9,22.7c0.2,3.5,2.4,15.8,6.1,28.2c4.3,14.2,9.3,23.2,13.5,24.6c0.7,0.2,2.6,0.9,5.5-2.6
				c5.5-6.6,10.6-11.9,10.6-12c0.7-0.7,1.8-0.7,2.5-0.1c0.7,0.7,0.7,1.8,0.1,2.5c0,0.1-5,5.3-10.5,11.8
				C34.4,90.7,31.9,91.6,29.9,91.6z"/>
		</g>
		<g>
			<path id="XMLID_15_" class="st1" d="M102,77.7c-0.3,0-0.7-0.1-1-0.3c-0.8-0.6-1-1.7-0.5-2.5c15.4-22.9,20.8-50.4,16.2-56.3
				c-5.8-7.4-14-11.3-24.4-11.5c-7.7-0.2-13.8,1.8-14.8,2.1c-0.1,0-0.2,0.1-0.3,0.1c-1.1,0.3-1.9-0.3-2.2-1
				c-0.4-0.8-0.1-1.8,0.7-2.3c0.7-0.4,7.7-2.7,16.2-2.6C103.4,3.5,113,8,119.5,16.3c4.4,5.6,1.5,19.3,0,24.9
				c-3.1,12.1-9,25.1-16.1,35.6C103.1,77.4,102.5,77.7,102,77.7z"/>
		</g>
		<g>
			<path class="st1" d="M102.7,88.2c-2.7,0-5.1-0.4-6.5-1.2c-1.5-0.9-1.8-2.1-1.8-2.8c-0.4-6.9,3.3-8.2,5.3-8.8
				c-0.3-0.4-0.6-0.8-1-1.2c-1.1-1.4-2.7-3.4-3.9-6.3c-0.2-0.5-0.8-1.5-1.5-2.7c-3.7-6.7-11.5-20.6-6.5-27.8
				c2.3-3.3,6.9-4.6,13.5-3.9c-0.9-2.6-3.1-7.5-7.2-12.4C88.5,15.3,80,8.6,66.8,8.4c-6.7-0.1-12.2,1.9-16.3,6.1
				c-9.3,9.3-8.9,26.3-8.9,26.5c0,1-0.8,1.8-1.7,1.8c-1,0-1.8-0.8-1.8-1.7c0-0.8-0.4-18.7,10-29.1c4.8-4.9,11.2-7.3,18.9-7.2
				C81.3,5,90.5,12.3,95.8,18.4c5.7,6.6,8.5,14,8.7,16.4c0.2,2-1.3,2.3-1.5,2.4l-0.6,0c-4.5-0.7-10.3-0.9-12.5,2.1
				c-3.7,5.3,3.6,18.4,6.7,24c0.8,1.4,1.4,2.5,1.6,3.1c1,2.5,2.4,4.1,3.4,5.5c1,1.2,1.8,2.2,2.1,3.4c0.2,0.3,2.1,3,13.4,0.6
				c2.9-0.6,4.7-0.1,5.3,1.6c1.1,3.2-4.8,6.9-8.1,8.4C111.4,87.4,106.7,88.2,102.7,88.2z M98,83.9c0.4,0.4,2.3,0.9,5.9,0.8
				c3.3-0.2,6.8-0.9,8.8-1.8c2.4-1.1,4.1-2.4,5.1-3.3c0,0-0.1,0-0.1,0c-7.4,1.5-12.6,1.3-15.5-0.6c-0.2-0.1-0.3-0.2-0.5-0.4
				c-0.2,0.1-0.5,0.2-0.8,0.2C99.4,79.2,97.8,79.7,98,83.9z"/>
		</g>
		<g>
			<path class="st1" d="M50.5,93.3c-1.8,0-3.7-0.2-5.7-0.7c-0.6-0.1-5.6-1.5-5.5-4.7c0.1-2.9,4.2-3.8,5.8-4.1
				c5.5-1.1,5.9-1.6,7.6-3.8c0.5-0.6,1.1-1.4,2-2.4c2.9-3.2,5.6-2.1,6.7-1.6c1.8,0.8,3.3,2.6,3.9,4.7c0.6,2,0.3,3.8-0.8,5.3
				C61.2,90.9,56.3,93.3,50.5,93.3z M43.3,88.1c0.5,0.4,1.4,0.8,2.4,1c4.8,1.2,11.4,1.3,16-5.1c0.5-0.8,0.4-1.7,0.2-2.2
				c-0.3-1.1-1.1-2.1-1.9-2.4c-1-0.4-1.5-0.6-2.7,0.7c0,0,0,0,0,0c-0.8,0.9-1.4,1.6-1.9,2.2c-2.2,2.8-3.2,3.7-9.7,5.1
				C44.5,87.6,43.8,87.9,43.3,88.1z"/>
		</g>
		<g>
			<path class="st1" d="M55.8,80.6c-0.9,0-1.6-0.6-1.8-1.5c0-0.2-0.1-0.5-0.1-0.7c-4.2-0.1-8.3-1.9-11.3-5.2
				c-3.9-4.1-5.7-9.8-4.9-15.6c0.9-6.3,0.5-11.8,0.4-14.7C38,42,38,41.4,38,41c0-0.5,0-2,4.7-4.4c1.7-0.8,5-2.3,8.6-2.7
				c6.1-0.6,10.1,2.1,11.3,7.6c3.2,14.8,0.3,21.4-1.9,26.2c-0.4,0.9-0.8,1.7-1.1,2.5l-0.3,0.7c-1.1,3-2.1,5.6-1.8,7.6
				c0.1,1-0.5,1.9-1.5,2C56,80.6,55.9,80.6,55.8,80.6z M41.6,41.5c0,0.3,0,0.7,0.1,1.1c0.2,3.1,0.5,8.8-0.4,15.5
				c-0.7,4.7,0.8,9.3,4,12.6c2.5,2.6,5.8,4,9.1,4.1c0.4-1.6,1-3.3,1.7-5.1l0.3-0.7c0.3-0.9,0.7-1.8,1.2-2.8
				c2.1-4.6,4.6-10.3,1.7-23.9c-0.6-2.6-1.9-4.2-4.2-4.7C50,36.5,43.1,40.2,41.6,41.5z"/>
		</g>
		<g>
			<g>
				<path id="XMLID_8_" class="st1" d="M51.4,40.7c-0.1,0.6,1.1,2.1,2.6,2.4c1.5,0.2,2.8-1,2.9-1.6c0.1-0.6-1.1-1.2-2.6-1.4
					C52.8,39.8,51.5,40.1,51.4,40.7L51.4,40.7z"/>
			</g>
			<g>
				<path class="st1" d="M54.3,43.7c-0.1,0-0.3,0-0.4,0c-0.9-0.1-1.9-0.7-2.6-1.6c-0.2-0.3-0.6-0.9-0.5-1.4c0-0.2,0.1-0.5,0.5-0.8
					c0.6-0.5,1.8-0.6,3.1-0.4c1.6,0.2,3.2,1,3.1,2.1C57.4,42.5,55.9,43.7,54.3,43.7z M52,40.8c0.1,0.4,0.9,1.5,2.1,1.7
					c1.1,0.2,2.1-0.7,2.2-1.1c-0.1-0.2-0.8-0.6-2.1-0.8C53,40.5,52.2,40.7,52,40.8z"/>
			</g>
		</g>
		<g>
			<g>
				<path id="XMLID_5_" class="st1" d="M97.3,39.5c0.1,0.6-1.1,2.1-2.6,2.4c-1.5,0.2-2.8-1-2.9-1.6c-0.1-0.6,1.1-1.2,2.6-1.4
					C95.9,38.6,97.2,38.9,97.3,39.5L97.3,39.5z"/>
			</g>
			<g>
				<path class="st1" d="M94.3,42.2c-1.5,0-2.7-1.2-2.8-1.9c-0.1-0.9,1.3-1.6,2.8-1.8c1.5-0.2,3.1,0,3.2,0.9l0,0
					c0.1,0.4-0.2,1-0.8,1.6c-0.3,0.4-1.1,1-2.1,1.1C94.6,42.2,94.5,42.2,94.3,42.2z M95.3,39.1c-0.3,0-0.6,0-0.9,0.1
					c-1.6,0.2-2.4,0.8-2.3,1.1c0.1,0.4,1.2,1.5,2.5,1.3c0.8-0.1,1.4-0.6,1.7-0.9c0.5-0.5,0.6-0.9,0.6-1.1l0,0
					C96.9,39.4,96.3,39.1,95.3,39.1z"/>
			</g>
		</g>
		<g>
			<path id="XMLID_2_" class="st1" d="M99.4,73.3c-0.3,0-0.7-0.1-1-0.3c-0.8-0.6-1-1.7-0.5-2.5c3.5-5.2,2.9-10.6,2.2-15.7
				c-0.3-2.2-0.5-4.5-0.5-6.7c0.1-2.3,0.4-4.1,0.6-5.9c0.3-2.1,0.6-4.1,0.5-6.5c-0.1-1,0.7-1.8,1.7-1.9c1,0,1.8,0.7,1.9,1.7
				c0.1,2.8-0.2,5-0.5,7.3c-0.3,1.7-0.5,3.5-0.6,5.5c-0.1,1.9,0.2,4,0.4,6.2c0.7,5.5,1.4,11.8-2.8,18.2C100.6,73,100,73.3,99.4,73.3
				z"/>
		</g>
		<g>
			<path id="XMLID_1_" class="st2" d="M1.9,17.3"/>
		</g>
	</g>
</g>
<g id="XMLID_22_">
</g>
<g id="XMLID_23_">
</g>
<g id="XMLID_24_">
</g>
<g id="XMLID_25_">
</g>
<g id="XMLID_26_">
</g>
<g id="XMLID_27_">
</g>
<g id="XMLID_28_">
</g>
<g id="XMLID_29_">
</g>
<g id="XMLID_30_">
</g>
<g id="XMLID_31_">
</g>
<g id="XMLID_32_">
</g>
<g id="XMLID_33_">
</g>
<g id="XMLID_34_">
</g>
<g id="XMLID_35_">
</g>
<g id="XMLID_36_">
</g>
</svg>
