<?xml version="1.0" encoding="utf-8"?>
<!-- Generator: Adobe Illustrator 19.0.0, SVG Export Plug-In . SVG Version: 6.00 Build 0)  -->
<svg version="1.1" id="Camada_1" xmlns="http://www.w3.org/2000/svg" xmlns:xlink="http://www.w3.org/1999/xlink" x="0px" y="0px"
	 viewBox="0 0 128 128" style="enable-background:new 0 0 128 128;" xml:space="preserve">
<style type="text/css">
	.st0{fill:none;}
	.st1{fill:#6DB33F;}
</style>
<g id="XMLID_2_">
	<path id="XMLID_3_" class="st0" d="M125.2,59.8c-0.3-14.3-3.8-28-8.1-41.5c-0.2-0.7-1.3-3-1.3-3c-5.7,12-24.8,26.4-45,28.5
		c-7.7,0.8-15.4,0.4-22.9,2C30,49.5,18,63.8,19.4,81.4c0.5,6.5,3.7,13,9.5,16.6c1,0.6,2.6,0.9,3.8,0.7c9.1-2.1,18.4-3.9,27.3-6.7
		C87.8,83,105.6,60.6,110,49.2c-5.5,24.4-26.1,43.8-50.2,51.5c-6.1,2-13.4,4.2-20.2,6.3c8.2,0,16.5,0.3,23.7,0.2
		c8.9-0.2,17.9,0.1,26.7-1c15.1-1.7,26.3-9.2,31.9-23.8C124.5,75.1,125.4,67.5,125.2,59.8z"/>
	<path id="XMLID_10_" class="st1" d="M116.5,8.1l-6.8,11.9C98.1,8,81.8,0.5,63.7,0.5C28.5,0.5,0,28.8,0,63.7
		c0,18.4,7.9,35.1,20.5,46.8c-0.5-0.8-0.8-1.8-0.8-2.8c0-3,2.4-5.4,5.4-5.4c3,0,5.4,2.4,5.4,5.4s-2.4,5.4-5.4,5.4
		c-0.8,0-1.6-0.2-2.2-0.5c11,9.2,25.2,14.8,40.7,14.8c35.2,0,64.4-29,64.4-63.9C128,48.6,123.5,26.8,116.5,8.1z M89.9,106.2
		c-8.8,1-17.8,0.8-26.7,1c-7.2,0.1-15.6-0.2-23.7-0.2c6.8-2.1,14.1-4.4,20.2-6.3c24.1-7.7,44.7-27.1,50.2-51.5
		C105.6,60.6,87.8,83,60,92c-8.9,2.8-18.2,4.6-27.3,6.7c-1.2,0.3-2.8,0-3.8-0.7c-5.9-3.6-9-10.1-9.5-16.6C18,63.8,30,49.5,47.9,45.8
		c7.5-1.6,15.2-1.2,22.9-2c20.2-2.1,39.3-16.5,45-28.5c0,0,1,2.3,1.3,3c4.3,13.5,7.8,27.2,8.1,41.5c0.2,7.7-0.7,15.3-3.4,22.6
		C116.3,97,105,104.4,89.9,106.2z"/>
</g>
<g id="XMLID_1_">
</g>
<g id="XMLID_4_">
</g>
<g id="XMLID_5_">
</g>
<g id="XMLID_7_">
</g>
<g id="XMLID_8_">
</g>
<g id="XMLID_11_">
</g>
<g id="XMLID_12_">
</g>
<g id="XMLID_13_">
</g>
<g id="XMLID_14_">
</g>
<g id="XMLID_15_">
</g>
<g id="XMLID_16_">
</g>
<g id="XMLID_17_">
</g>
<g id="XMLID_18_">
</g>
<g id="XMLID_19_">
</g>
<g id="XMLID_20_">
</g>
</svg>
